<?xml version="1.0" encoding="UTF-8" standalone="no"?>
<!-- Generator: Adobe Illustrator 24.1.2, SVG Export Plug-In . SVG Version: 6.00 Build 0)  -->

<svg
   version="1.1"
   id="Warstwa_3"
   x="0px"
   y="0px"
   viewBox="0 0 200.00001 199.99999"
   xml:space="preserve"
   sodipodi:docname="498-ambulance.svg"
   width="200"
   height="200"
   inkscape:version="1.2.1 (9c6d41e410, 2022-07-14)"
   xmlns:inkscape="http://www.inkscape.org/namespaces/inkscape"
   xmlns:sodipodi="http://sodipodi.sourceforge.net/DTD/sodipodi-0.dtd"
   xmlns="http://www.w3.org/2000/svg"
   xmlns:svg="http://www.w3.org/2000/svg"><defs
   id="defs471" /><sodipodi:namedview
   id="namedview469"
   pagecolor="#ffffff"
   bordercolor="#000000"
   borderopacity="0.25"
   inkscape:showpageshadow="2"
   inkscape:pageopacity="0.0"
   inkscape:pagecheckerboard="0"
   inkscape:deskcolor="#d1d1d1"
   showgrid="false"
   inkscape:zoom="3.104692"
   inkscape:cx="286.6629"
   inkscape:cy="111.28318"
   inkscape:window-width="2560"
   inkscape:window-height="1009"
   inkscape:window-x="0"
   inkscape:window-y="0"
   inkscape:window-maximized="1"
   inkscape:current-layer="Warstwa_3" />
<style
   type="text/css"
   id="style438">
	.st0{fill:#34bcc7;}
	.st1{fill:#121331;}
	.st2{fill:none;}
	.st3{fill:#34bcc7;fill-opacity:0;}
</style>
<g
   id="g466"
   transform="matrix(0.59900034,0,0,0.59900034,-28.991616,-28.680758)">
	<path
   class="st0"
   d="m 281.5,97.69 c -4.85,0 -8.8,-3.68 -8.8,-8.21 0,-4.53 3.95,-8.21 8.8,-8.21 4.85,0 8.8,3.68 8.8,8.21 0,4.53 -3.95,8.21 -8.8,8.21 z m 0,-12.6 c -2.06,0 -3.8,2.01 -3.8,4.39 0,2.38 1.74,4.39 3.8,4.39 2.06,0 3.8,-2.01 3.8,-4.39 0,-2.38 -1.74,-4.39 -3.8,-4.39 z"
   id="path440" />
	<path
   class="st1"
   d="M 372.31,208.83 H 255.53 c -3.48,0 -6.3,-2.82 -6.3,-6.3 v -66.58 c 0,-3.48 2.82,-6.3 6.3,-6.3 h 80.75 c 3.48,0 6.3,2.82 6.3,6.3 0,3.48 -2.82,6.3 -6.3,6.3 h -74.45 v 53.98 h 110.48 c 3.48,0 6.3,2.82 6.3,6.3 0,3.48 -2.82,6.3 -6.3,6.3 z"
   id="path442" />
	<path
   class="st1"
   d="m 351.63,316.9 c -3.47,0 -6.29,-2.81 -6.3,-6.29 -0.01,-3.48 2.81,-6.31 6.29,-6.31 l 17.39,-0.04 V 205.5 L 317.96,116.72 H 61 v 187.52 l 15.37,-0.04 c 0.01,0 0.01,0 0.02,0 3.47,0 6.29,2.81 6.3,6.28 0.01,3.48 -2.8,6.31 -6.28,6.32 l -21.69,0.06 c -0.01,0 -0.01,0 -0.02,0 -1.67,0 -3.27,-0.66 -4.45,-1.84 -1.18,-1.18 -1.85,-2.79 -1.85,-4.46 V 110.41 c 0,-3.48 2.82,-6.3 6.3,-6.3 h 266.9 c 2.25,0 4.34,1.21 5.46,3.16 l 53.71,93.4 c 0.55,0.96 0.84,2.04 0.84,3.14 v 106.74 c 0,3.47 -2.81,6.29 -6.29,6.3 l -23.68,0.05 c -0.01,0 -0.01,0 -0.01,0 z"
   id="path444" />
	<path
   class="st1"
   d="m 148.59,316.89 c -3.48,0 -6.3,-2.82 -6.3,-6.3 0,-3.48 2.82,-6.3 6.3,-6.3 l 106.62,-0.04 23.68,-0.05 c 0,0 0.01,0 0.01,0 3.47,0 6.29,2.81 6.3,6.29 0.01,3.48 -2.81,6.31 -6.29,6.31 l -23.69,0.05 -106.63,0.04 c 0.01,0 0.01,0 0,0 z"
   id="path446" />
	<path
   class="st1"
   d="m 370.3,280.57 h -4.87 c -11.24,0 -20.39,-9.15 -20.39,-20.39 0,-11.24 9.15,-20.39 20.39,-20.39 h 4.87 c 3.48,0 6.3,2.82 6.3,6.3 0,3.48 -2.82,6.3 -6.3,6.3 h -4.87 c -4.3,0 -7.79,3.5 -7.79,7.79 0,4.3 3.5,7.79 7.79,7.79 h 4.87 c 3.48,0 6.3,2.82 6.3,6.3 0,3.48 -2.82,6.3 -6.3,6.3 z"
   id="path448" />
	<path
   class="st1"
   d="M 78.71,266.03 H 55.38 c -3.48,0 -6.3,-2.82 -6.3,-6.3 0,-3.48 2.82,-6.3 6.3,-6.3 h 23.33 c 3.48,0 6.3,2.82 6.3,6.3 0,3.48 -2.82,6.3 -6.3,6.3 z"
   id="path450" />
	<path
   class="st0"
   d="m 323.15,310.57 c 0,4.51 -3.66,8.17 -8.17,8.17 -4.51,0 -8.17,-3.66 -8.17,-8.17 0,-4.51 3.66,-8.17 8.17,-8.17 4.51,0 8.17,3.65 8.17,8.17 z"
   id="path452" />
	<path
   class="st0"
   d="m 314.98,348.72 c -21.04,0 -38.16,-17.12 -38.16,-38.16 0,-21.04 17.12,-38.16 38.16,-38.16 21.04,0 38.16,17.12 38.16,38.16 0,21.05 -17.12,38.16 -38.16,38.16 z m 0,-63.71 c -14.09,0 -25.56,11.47 -25.56,25.56 0,14.09 11.46,25.56 25.56,25.56 14.1,0 25.56,-11.46 25.56,-25.56 0,-14.1 -11.47,-25.56 -25.56,-25.56 z"
   id="path454" />
	<path
   class="st0"
   d="m 112.96,348.72 c -21.04,0 -38.16,-17.12 -38.16,-38.16 0,-21.04 17.12,-38.16 38.16,-38.16 21.04,0 38.16,17.12 38.16,38.16 -0.01,21.05 -17.12,38.16 -38.16,38.16 z m 0,-63.71 c -14.09,0 -25.56,11.47 -25.56,25.56 0,14.09 11.47,25.56 25.56,25.56 14.09,0 25.56,-11.46 25.56,-25.56 0,-14.1 -11.47,-25.56 -25.56,-25.56 z"
   id="path456" />
	<path
   class="st0"
   d="m 121.13,310.57 c 0,4.51 -3.66,8.17 -8.17,8.17 -4.51,0 -8.17,-3.66 -8.17,-8.17 0,-4.51 3.66,-8.17 8.17,-8.17 4.51,0 8.17,3.65 8.17,8.17 z"
   id="path458" />
	<path
   class="st0"
   d="m 295.28,95.51 h -26.69 c -3.48,0 -6.3,-2.82 -6.3,-6.3 0,-3.48 2.82,-6.3 6.3,-6.3 h 26.69 c 3.48,0 6.3,2.82 6.3,6.3 0,3.48 -2.82,6.3 -6.3,6.3 z"
   id="path460" />
	<path
   class="st0"
   d="m 135.16,207 c -3.48,0 -6.3,-2.82 -6.3,-6.3 v -64.65 c 0,-3.48 2.82,-6.3 6.3,-6.3 3.48,0 6.3,2.82 6.3,6.3 v 64.65 c 0,3.48 -2.82,6.3 -6.3,6.3 z"
   id="path462" />
	<path
   class="st0"
   d="m 167.48,174.68 h -64.65 c -3.48,0 -6.3,-2.82 -6.3,-6.3 0,-3.48 2.82,-6.3 6.3,-6.3 h 64.65 c 3.48,0 6.3,2.82 6.3,6.3 0,3.48 -2.82,6.3 -6.3,6.3 z"
   id="path464" />
</g>
</svg>
