<?xml version="1.0" encoding="UTF-8" standalone="no"?>
<!-- Generator: Adobe Illustrator 24.1.2, SVG Export Plug-In . SVG Version: 6.00 Build 0)  -->

<svg
   version="1.1"
   id="Warstwa_1"
   x="0px"
   y="0px"
   viewBox="0 0 430 430"
   style="enable-background:new 0 0 430 430;"
   xml:space="preserve"
   sodipodi:docname="allergies.svg"
   inkscape:version="1.2.1 (9c6d41e410, 2022-07-14)"
   xmlns:inkscape="http://www.inkscape.org/namespaces/inkscape"
   xmlns:sodipodi="http://sodipodi.sourceforge.net/DTD/sodipodi-0.dtd"
   xmlns="http://www.w3.org/2000/svg"
   xmlns:svg="http://www.w3.org/2000/svg"><defs
   id="defs3538" /><sodipodi:namedview
   id="namedview3536"
   pagecolor="#ffffff"
   bordercolor="#000000"
   borderopacity="0.25"
   inkscape:showpageshadow="2"
   inkscape:pageopacity="0.0"
   inkscape:pagecheckerboard="0"
   inkscape:deskcolor="#d1d1d1"
   showgrid="false"
   inkscape:zoom="1.6837209"
   inkscape:cx="215.29696"
   inkscape:cy="215.29696"
   inkscape:window-width="2560"
   inkscape:window-height="1009"
   inkscape:window-x="0"
   inkscape:window-y="0"
   inkscape:window-maximized="1"
   inkscape:current-layer="g3529" />
<style
   type="text/css"
   id="style3523">
	.st0{fill:#08a88a;}
	.st1{fill:#121331;}
	.st2{fill:none;stroke:#121331;stroke-width:12;stroke-linecap:round;stroke-linejoin:round;stroke-miterlimit:10;}
	.st3{fill:#08a88a;}
	.st4{fill:#08A284;}
</style>
<g
   id="g3533">
	<g
   id="g3529">
		<path
   class="st0"
   d="M253.65,309h-77.3c-11.75,0-21.32,9.56-21.32,21.32v34.3c0,9.1,7.4,16.5,16.5,16.5h86.94    c9.1,0,16.5-7.4,16.5-16.5v-34.3C274.97,318.56,265.41,309,253.65,309z M262.97,364.62c0,2.48-2.02,4.5-4.5,4.5h-86.94    c-2.48,0-4.5-2.02-4.5-4.5v-10.56h95.94V364.62z M262.97,342.06h-95.94v-11.74c0-5.14,4.18-9.32,9.32-9.32h77.3    c5.14,0,9.32,4.18,9.32,9.32V342.06z"
   id="path3525"
   style="fill:#34bcc7;fill-opacity:1" />
		<path
   class="st0"
   d="M190.86,261.03h48.28c9.62,0,17.44-7.82,17.44-17.44v-83.86c0-9.62-7.82-17.44-17.44-17.44h-48.28    c-9.62,0-17.44,7.82-17.44,17.44v83.86C173.42,253.21,181.24,261.03,190.86,261.03z M185.42,159.73c0-3,2.44-5.44,5.44-5.44h48.28    c3,0,5.44,2.44,5.44,5.44v83.86c0,3-2.44,5.44-5.44,5.44h-48.28c-3,0-5.44-2.44-5.44-5.44V159.73z"
   id="path3527"
   style="fill:#34bcc7;fill-opacity:1" />
	</g>
	<path
   class="st1"
   d="M315.98,81.93c0.01-0.11,0.02-0.22,0.02-0.33c0-0.01,0-0.02,0-0.02V54.88c0-3.31-2.69-6-6-6H120   c-3.31,0-6,2.69-6,6v26.69c0,0.01,0,0.02,0,0.02c0,0.11,0.01,0.22,0.02,0.33c0.01,0.1,0.01,0.19,0.02,0.29c0,0.01,0,0.02,0,0.03   l23.63,208.05c1.99,17.5,16.19,30.7,33.04,30.7h88.57c16.85,0,31.06-13.2,33.04-30.7l23.63-208.05c0-0.01,0-0.02,0-0.03   C315.97,82.12,315.98,82.02,315.98,81.93z M304,75.57h-35.5V60.88H304V75.57z M221,75.57V60.88h35.5v14.69H221z M173.5,75.57V60.88   H209v14.69H173.5z M126,60.88h35.5v14.69H126V60.88z M280.41,288.94c-1.3,11.43-10.38,20.06-21.12,20.06h-88.57   c-10.74,0-19.82-8.62-21.12-20.06L126.72,87.57h176.56L280.41,288.94z"
   id="path3531" />
</g>
</svg>
