<?xml version="1.0" encoding="UTF-8" standalone="no"?>
<!-- Generator: Adobe Illustrator 24.1.2, SVG Export Plug-In . SVG Version: 6.00 Build 0)  -->

<svg
   version="1.1"
   id="Warstwa_1"
   x="0px"
   y="0px"
   viewBox="0 0 200 200"
   xml:space="preserve"
   sodipodi:docname="allergies.svg"
   inkscape:version="1.2.1 (9c6d41e410, 2022-07-14)"
   width="200"
   height="200"
   xmlns:inkscape="http://www.inkscape.org/namespaces/inkscape"
   xmlns:sodipodi="http://sodipodi.sourceforge.net/DTD/sodipodi-0.dtd"
   xmlns="http://www.w3.org/2000/svg"
   xmlns:svg="http://www.w3.org/2000/svg"><defs
   id="defs3538" /><sodipodi:namedview
   id="namedview3536"
   pagecolor="#ffffff"
   bordercolor="#000000"
   borderopacity="0.25"
   inkscape:showpageshadow="2"
   inkscape:pageopacity="0.0"
   inkscape:pagecheckerboard="0"
   inkscape:deskcolor="#d1d1d1"
   showgrid="false"
   inkscape:zoom="2.3811409"
   inkscape:cx="281.37772"
   inkscape:cy="69.924463"
   inkscape:window-width="2560"
   inkscape:window-height="1008"
   inkscape:window-x="0"
   inkscape:window-y="0"
   inkscape:window-maximized="1"
   inkscape:current-layer="g3533"
   showguides="true"><sodipodi:guide
     position="99.952085,202.93977"
     orientation="1,0"
     id="guide439"
     inkscape:locked="false" /></sodipodi:namedview>
<style
   type="text/css"
   id="style3523">
	.st0{fill:#08a88a;}
	.st1{fill:#121331;}
	.st2{fill:none;stroke:#121331;stroke-width:12;stroke-linecap:round;stroke-linejoin:round;stroke-miterlimit:10;}
	.st3{fill:#08a88a;}
	.st4{fill:#08A284;}
</style>
<g
   id="g3533"
   transform="translate(-113.43923,-48.701658)">
	<g
   id="g3529"
   transform="matrix(0.59957056,0,0,0.59956953,84.78819,19.900649)">
		<path
   class="st0"
   d="m 253.65,309 h -77.3 c -11.75,0 -21.32,9.56 -21.32,21.32 v 34.3 c 0,9.1 7.4,16.5 16.5,16.5 h 86.94 c 9.1,0 16.5,-7.4 16.5,-16.5 v -34.3 c 0,-11.76 -9.56,-21.32 -21.32,-21.32 z m 9.32,55.62 c 0,2.48 -2.02,4.5 -4.5,4.5 h -86.94 c -2.48,0 -4.5,-2.02 -4.5,-4.5 v -10.56 h 95.94 z m 0,-22.56 h -95.94 v -11.74 c 0,-5.14 4.18,-9.32 9.32,-9.32 h 77.3 c 5.14,0 9.32,4.18 9.32,9.32 z"
   id="path3525"
   style="fill:#34bcc7;fill-opacity:1" />
		<path
   class="st0"
   d="m 190.86,261.03 h 48.28 c 9.62,0 17.44,-7.82 17.44,-17.44 v -83.86 c 0,-9.62 -7.82,-17.44 -17.44,-17.44 h -48.28 c -9.62,0 -17.44,7.82 -17.44,17.44 v 83.86 c 0,9.62 7.82,17.44 17.44,17.44 z m -5.44,-101.3 c 0,-3 2.44,-5.44 5.44,-5.44 h 48.28 c 3,0 5.44,2.44 5.44,5.44 v 83.86 c 0,3 -2.44,5.44 -5.44,5.44 h -48.28 c -3,0 -5.44,-2.44 -5.44,-5.44 z"
   id="path3527"
   style="fill:#34bcc7;fill-opacity:1" />
	</g>
	<path
   class="st1"
   d="m 274.24049,69.02338 c 0.006,-0.06595 0.012,-0.131908 0.012,-0.19786 0,-0.0059 0,-0.01201 0,-0.01201 v -16.0085 c 0,-1.984576 -1.61284,-3.59742 -3.59742,-3.59742 H 156.73665 c -1.98458,0 -3.59742,1.612844 -3.59742,3.59742 v 16.002519 c 0,0.0059 0,0.01201 0,0.01201 0,0.06595 0.006,0.131912 0.012,0.19786 0.006,0.05996 0.006,0.113917 0.012,0.173877 0,0.0059 0,0.01201 0,0.01803 l 14.16786,124.740344 c 1.19314,10.49256 9.70704,18.40678 19.80981,18.40678 h 53.10396 c 10.10277,0 18.62266,-7.91422 19.80981,-18.40678 L 274.22251,69.209246 c 0,-0.0059 0,-0.01201 0,-0.01803 0.012,-0.05395 0.018,-0.113925 0.018,-0.167883 z m -7.18285,-3.813267 h -21.28476 v -8.80767 h 21.28476 z m -49.76436,0 v -8.80767 h 21.28476 v 8.80767 z m -28.4796,0 v -8.80767 h 21.28475 v 8.80767 z m -28.4796,-8.80767 h 21.28475 v 8.80767 h -21.28475 z m 92.57969,136.737907 c -0.77944,6.85305 -6.22355,12.0273 -12.66293,12.0273 h -53.10397 c -6.43939,0 -11.88349,-5.1683 -12.66293,-12.0273 L 160.76577,72.404949 h 105.86018 z"
   id="path429"
   style="stroke-width:0.599567" />
</g>
</svg>
