<?xml version="1.0" encoding="UTF-8" standalone="no"?>
<!-- Generator: Adobe Illustrator 24.1.2, SVG Export Plug-In . SVG Version: 6.00 Build 0)  -->

<svg
   version="1.1"
   id="Warstwa_3"
   x="0px"
   y="0px"
   viewBox="0 0 199.99999 200"
   xml:space="preserve"
   sodipodi:docname="blood-work.svg"
   inkscape:version="1.2.1 (9c6d41e410, 2022-07-14)"
   width="200"
   height="200"
   xmlns:inkscape="http://www.inkscape.org/namespaces/inkscape"
   xmlns:sodipodi="http://sodipodi.sourceforge.net/DTD/sodipodi-0.dtd"
   xmlns="http://www.w3.org/2000/svg"
   xmlns:svg="http://www.w3.org/2000/svg"><defs
   id="defs976" /><sodipodi:namedview
   id="namedview974"
   pagecolor="#ffffff"
   bordercolor="#000000"
   borderopacity="0.25"
   inkscape:showpageshadow="2"
   inkscape:pageopacity="0.0"
   inkscape:pagecheckerboard="0"
   inkscape:deskcolor="#d1d1d1"
   showgrid="false"
   inkscape:zoom="1.6837209"
   inkscape:cx="527.10636"
   inkscape:cy="141.65055"
   inkscape:window-width="2560"
   inkscape:window-height="1008"
   inkscape:window-x="0"
   inkscape:window-y="0"
   inkscape:window-maximized="1"
   inkscape:current-layer="g971"
   showguides="true"><sodipodi:guide
     position="99.779002,176.24309"
     orientation="1,0"
     id="guide524"
     inkscape:locked="false" /></sodipodi:namedview>
<style
   type="text/css"
   id="style963">
	.st0{fill:#121331;}
	.st1{fill:#08A385;}
	.st2{fill:none;stroke:#121331;stroke-width:14;stroke-linecap:round;stroke-linejoin:round;stroke-miterlimit:10;}
	.st3{fill:none;stroke:#08A385;stroke-width:12;stroke-linecap:round;stroke-linejoin:round;stroke-miterlimit:10;}
	.st4{fill:#06A385;}
	.st5{fill:none;stroke:#121331;stroke-width:12;stroke-linecap:round;stroke-linejoin:round;stroke-miterlimit:10;}
	.st6{fill:#08a88a;}
	.st7{fill:#08A284;}
	.st8{fill:#08A688;}
	.st9{fill:#08a88a;}
</style>
<g
   id="g971"
   transform="translate(-137.93854,-35.486879)">
	<path
   class="st7"
   d="m 249.20909,146.89755 h -34.31331 c -1.83663,0 -3.32924,-1.49261 -3.32924,-3.32923 0,-1.83663 1.49261,-3.32924 3.32924,-3.32924 h 34.31331 c 1.83662,0 3.32923,1.49261 3.32923,3.32924 0,1.83662 -1.49261,3.32923 -3.32923,3.32923 z"
   id="path965"
   style="fill:#34bcc7;fill-opacity:1;stroke-width:0.554872" />
	<path
   class="st0"
   d="m 258.59198,36.133923 h -53.0791 c -1.83662,0 -3.32923,1.492607 -3.32923,3.329234 v 24.13695 c 0,1.836628 1.49261,3.329235 3.32923,3.329235 h 6.05366 l 0.006,132.459138 c 0,5.47104 2.13071,10.61471 5.99817,14.48217 3.87301,3.86746 9.01668,6.00372 14.48772,6.00372 3.92295,0 7.72937,-1.10975 11.00867,-3.21271 1.54809,-0.99322 1.99754,-3.0518 1.00432,-4.59989 -0.99322,-1.5481 -3.0518,-1.99755 -4.59989,-1.00432 -2.20285,1.41492 -4.76636,2.15845 -7.4131,2.15845 -3.69545,0 -7.16895,-1.43712 -9.7824,-4.05057 -2.6079,-2.6079 -4.04502,-6.0814 -4.04502,-9.77685 l -0.006,-132.459138 h 4.72197 c 0.0832,0.0055 0.17201,0.0111 0.25524,0.0111 0.0888,0 0.17201,-0.0055 0.25524,-0.0111 h 17.17885 c 0.0832,0.0055 0.17201,0.0111 0.25524,0.0111 0.0888,0 0.17201,-0.0055 0.25524,-0.0111 h 4.72751 V 187.79719 c 0,1.83663 1.49261,3.32924 3.32924,3.32924 1.83663,0 3.32923,-1.49261 3.32923,-3.32924 V 66.929342 h 6.05366 c 1.83663,0 3.32923,-1.492607 3.32923,-3.329235 v -24.13695 c 0.006,-1.842176 -1.48705,-3.329234 -3.32368,-3.329234 z m -38.719,24.13695 H 208.83657 V 42.792392 h 11.03641 z m 17.69488,0 H 226.53145 V 42.792392 h 11.03641 z m 17.69488,0 H 244.22633 V 42.792392 h 11.03641 z"
   id="path967"
   style="stroke-width:0.554872" />
	<path
   class="st7"
   d="m 262.62035,235.28872 c -13.76638,0 -24.96926,-11.20287 -24.96926,-24.96925 0,-12.56232 19.89773,-44.11791 22.16161,-47.67464 0.61036,-0.95993 1.67016,-1.537 2.80765,-1.537 1.13749,0 2.1973,0.58262 2.80766,1.537 2.26942,3.55673 22.1616,35.11787 22.1616,47.67464 0,13.76638 -11.19732,24.96925 -24.96926,24.96925 z m 0,-64.54275 c -6.88042,11.32494 -18.31079,31.77754 -18.31079,39.5735 0,10.09867 8.21211,18.31079 18.31079,18.31079 10.09868,0 18.31079,-8.21212 18.31079,-18.31079 0,-7.80151 -11.43037,-28.25411 -18.31079,-39.5735 z"
   id="path969"
   style="fill:#34bcc7;fill-opacity:1;stroke-width:0.554872" />
</g>
</svg>
