<?xml version="1.0" encoding="UTF-8" standalone="no"?>
<!-- Generator: Adobe Illustrator 24.1.2, SVG Export Plug-In . SVG Version: 6.00 Build 0)  -->

<svg
   version="1.1"
   id="Warstwa_3"
   x="0px"
   y="0px"
   viewBox="0 0 430 430"
   style="enable-background:new 0 0 430 430;"
   xml:space="preserve"
   sodipodi:docname="blood-pressure.svg"
   inkscape:version="1.2.1 (9c6d41e410, 2022-07-14)"
   xmlns:inkscape="http://www.inkscape.org/namespaces/inkscape"
   xmlns:sodipodi="http://sodipodi.sourceforge.net/DTD/sodipodi-0.dtd"
   xmlns="http://www.w3.org/2000/svg"
   xmlns:svg="http://www.w3.org/2000/svg"><defs
   id="defs25" /><sodipodi:namedview
   id="namedview23"
   pagecolor="#ffffff"
   bordercolor="#000000"
   borderopacity="0.25"
   inkscape:showpageshadow="2"
   inkscape:pageopacity="0.0"
   inkscape:pagecheckerboard="0"
   inkscape:deskcolor="#d1d1d1"
   showgrid="false"
   inkscape:zoom="1.6837209"
   inkscape:cx="215.29696"
   inkscape:cy="215.29696"
   inkscape:window-width="2560"
   inkscape:window-height="1009"
   inkscape:window-x="0"
   inkscape:window-y="0"
   inkscape:window-maximized="1"
   inkscape:current-layer="g20" />
<style
   type="text/css"
   id="style2">
	.st0{fill:#121331;}
	.st1{fill:#08A385;}
	.st2{fill:none;stroke:#121331;stroke-width:14;stroke-linecap:round;stroke-linejoin:round;stroke-miterlimit:10;}
	.st3{fill:none;stroke:#08A385;stroke-width:12;stroke-linecap:round;stroke-linejoin:round;stroke-miterlimit:10;}
	.st4{fill:#06A385;}
	.st5{fill:none;stroke:#121331;stroke-width:12;stroke-linecap:round;stroke-linejoin:round;stroke-miterlimit:10;}
	.st6{fill:#08a88a;}
	.st7{fill:#08A284;}
	.st8{fill:#08A688;}
	.st9{fill:#08a88a;}
</style>
<g
   id="g20">
	<path
   class="st7"
   d="M122.72,307.73c-25.15,0-45.61-20.46-45.61-45.6v-91.06c0-25.38,20.65-46.03,46.03-46.03c3.31,0,6,2.69,6,6   c0,3.31-2.69,6-6,6c-18.76,0-34.03,15.27-34.03,34.03v91.06c0,18.53,15.08,33.6,33.61,33.6c3.31,0,6,2.69,6,6   S126.04,307.73,122.72,307.73z"
   id="path4"
   style="fill:#34bcc7;fill-opacity:1" />
	<path
   class="st7"
   d="M310.08,160.49h-0.13c-3.31,0-6-2.69-6-6s2.69-6,6-6h0.13c16.98,0,30.8-13.82,30.8-30.8s-13.82-30.8-30.8-30.8   h-0.13c-3.31,0-6-2.69-6-6s2.69-6,6-6h0.13c23.6,0,42.8,19.2,42.8,42.8S333.68,160.49,310.08,160.49z"
   id="path6"
   style="fill:#34bcc7;fill-opacity:1" />
	<path
   class="st0"
   d="M285.43,381.12H147.67c-10.3,0-20.12-4.42-26.95-12.13s-10.03-17.99-8.79-28.21L122.48,254   c2.19-18.05,17.56-31.66,35.74-31.66h116.67c18.18,0,33.54,13.61,35.74,31.66l10.54,86.78c1.24,10.22-1.96,20.5-8.79,28.21   S295.73,381.12,285.43,381.12z M158.21,234.34c-12.12,0-22.36,9.07-23.82,21.1l-10.54,86.78c-0.83,6.81,1.31,13.67,5.86,18.81   s11.1,8.08,17.96,8.08h137.76c6.86,0,13.41-2.95,17.96-8.09c4.55-5.14,6.69-11.99,5.86-18.81l-10.54-86.78   c-1.46-12.03-11.7-21.1-23.82-21.1H158.21z"
   id="path8" />
	<path
   class="st0"
   d="M309.95,48.88H123.15c-3.31,0-6,2.69-6,6V180.5c0,3.31,2.69,6,6,6h186.81c3.31,0,6-2.69,6-6V54.88   C315.95,51.57,313.27,48.88,309.95,48.88z M303.95,60.88v39.07c-7.06-6.83-16.67-11.04-27.25-11.04H156.39   c-10.58,0-20.18,4.21-27.25,11.04V60.88H303.95z M303.95,174.5H129.15v-46.34c0-15.02,12.22-27.25,27.25-27.25h120.31   c15.02,0,27.25,12.22,27.25,27.25V174.5z"
   id="path10" />
	<path
   class="st0"
   d="M267.19,341.09H165.91c-9.17,0-16.64-7.46-16.64-16.64v-60.48c0-9.17,7.46-16.64,16.64-16.64h101.27   c9.17,0,16.64,7.46,16.64,16.64v60.48C283.82,333.63,276.36,341.09,267.19,341.09z M165.91,259.33c-2.56,0-4.64,2.08-4.64,4.64   v60.48c0,2.56,2.08,4.64,4.64,4.64h101.27c2.56,0,4.64-2.08,4.64-4.64v-60.48c0-2.56-2.08-4.64-4.64-4.64H165.91z"
   id="path12" />
	<path
   class="st0"
   d="M247.43,361.5h-17.75c-3.31,0-6-2.69-6-6s2.69-6,6-6h17.75c3.31,0,6,2.69,6,6S250.74,361.5,247.43,361.5z"
   id="path14" />
	<path
   class="st0"
   d="M277.82,361.5h-5.45c-3.31,0-6-2.69-6-6s2.69-6,6-6h5.45c3.31,0,6,2.69,6,6S281.14,361.5,277.82,361.5z"
   id="path16" />
	<path
   class="st8"
   d="M232.93,270.82c-5.58-2.3-11.66-1.27-16.38,2.34c-4.72-3.61-10.8-4.63-16.38-2.34   c-4.21,1.53-11.6,7.05-10.93,17.67c0.78,12.24,14.77,26.33,24.27,31.53c0.01,0,0.01,0.01,0.02,0.01c0.06,0.03,0.12,0.07,0.18,0.1   c0.09,0.05,0.18,0.08,0.27,0.13c0.11,0.05,0.22,0.11,0.33,0.15c0.15,0.06,0.3,0.11,0.45,0.16c0.09,0.03,0.18,0.06,0.27,0.08   c0.19,0.05,0.38,0.08,0.57,0.11c0.06,0.01,0.12,0.03,0.18,0.03c0.25,0.03,0.51,0.05,0.76,0.05c0,0,0,0,0,0s0,0,0,0   c0.25,0,0.51-0.02,0.76-0.05c0.06-0.01,0.11-0.02,0.17-0.03c0.2-0.03,0.39-0.07,0.58-0.12c0.08-0.02,0.17-0.05,0.25-0.08   c0.16-0.05,0.32-0.1,0.47-0.16c0.11-0.04,0.21-0.1,0.32-0.15c0.09-0.04,0.19-0.08,0.28-0.13c0.06-0.03,0.12-0.07,0.18-0.1   c0,0,0.01-0.01,0.02-0.01c9.5-5.2,23.49-19.3,24.27-31.53C244.53,277.87,237.14,272.35,232.93,270.82z M231.88,287.72   c-0.34,5.39-7.76,14.85-15.33,20.08c-7.58-5.23-14.99-14.68-15.33-20.07c-0.24-3.81,2.02-5.2,3.09-5.64   c0.18-0.05,0.17-0.06,0.38-0.15c3.11-1.33,5.62,1.36,6.62,3.16c0.03,0.05,0.06,0.09,0.08,0.13c0.06,0.1,0.12,0.21,0.19,0.31   c0.05,0.07,0.09,0.14,0.14,0.2c0.07,0.09,0.13,0.18,0.21,0.27c0.06,0.07,0.12,0.14,0.18,0.21c0.07,0.07,0.14,0.15,0.21,0.22   c0.07,0.07,0.15,0.14,0.23,0.21c0.07,0.06,0.13,0.12,0.2,0.18c0.09,0.07,0.18,0.14,0.28,0.21c0.06,0.05,0.13,0.09,0.19,0.14   c0.1,0.07,0.21,0.14,0.32,0.2c0.04,0.02,0.08,0.05,0.13,0.08c0.02,0.01,0.04,0.02,0.07,0.03c0.11,0.06,0.22,0.11,0.33,0.16   c0.07,0.03,0.15,0.07,0.22,0.1c0.1,0.04,0.19,0.07,0.29,0.11c0.09,0.03,0.18,0.07,0.27,0.09c0.08,0.02,0.17,0.04,0.25,0.06   c0.11,0.03,0.21,0.06,0.32,0.08c0.08,0.02,0.16,0.03,0.24,0.04c0.11,0.02,0.22,0.03,0.33,0.05c0.1,0.01,0.19,0.01,0.29,0.02   c0.09,0,0.19,0.01,0.28,0.01c0.12,0,0.24-0.01,0.36-0.02c0.07,0,0.14-0.01,0.21-0.01c0.13-0.01,0.26-0.03,0.39-0.05   c0.06-0.01,0.12-0.02,0.18-0.03c0.12-0.02,0.24-0.05,0.36-0.09c0.07-0.02,0.14-0.03,0.21-0.05c0.1-0.03,0.2-0.07,0.3-0.1   c0.09-0.03,0.18-0.06,0.27-0.1c0.08-0.03,0.15-0.07,0.23-0.1c0.11-0.05,0.22-0.1,0.32-0.16c0.02-0.01,0.04-0.02,0.06-0.03   c0.04-0.02,0.08-0.05,0.12-0.08c0.11-0.06,0.22-0.13,0.33-0.2c0.06-0.04,0.13-0.09,0.19-0.13c0.09-0.07,0.19-0.14,0.28-0.21   c0.07-0.06,0.13-0.12,0.2-0.17c0.08-0.07,0.15-0.14,0.23-0.21c0.07-0.07,0.14-0.15,0.21-0.22c0.06-0.07,0.12-0.14,0.18-0.21   c0.07-0.09,0.14-0.18,0.21-0.27c0.05-0.07,0.1-0.13,0.14-0.2c0.07-0.1,0.13-0.21,0.19-0.31c0.03-0.05,0.06-0.09,0.08-0.13   c0.99-1.8,3.5-4.49,6.62-3.16c0.14,0.06,0.28,0.11,0.43,0.16C228.98,282.15,232.17,283.27,231.88,287.72z"
   id="path18"
   style="fill:#34bcc7;fill-opacity:1" />
</g>
</svg>
