<?xml version="1.0" encoding="UTF-8" standalone="no"?>
<!-- Generator: Adobe Illustrator 24.1.2, SVG Export Plug-In . SVG Version: 6.00 Build 0)  -->

<svg
   version="1.1"
   id="Warstwa_3"
   x="0px"
   y="0px"
   viewBox="0 0 430 430"
   style="enable-background:new 0 0 430 430;"
   xml:space="preserve"
   sodipodi:docname="blood-work.svg"
   inkscape:version="1.2.1 (9c6d41e410, 2022-07-14)"
   xmlns:inkscape="http://www.inkscape.org/namespaces/inkscape"
   xmlns:sodipodi="http://sodipodi.sourceforge.net/DTD/sodipodi-0.dtd"
   xmlns="http://www.w3.org/2000/svg"
   xmlns:svg="http://www.w3.org/2000/svg"><defs
   id="defs976" /><sodipodi:namedview
   id="namedview974"
   pagecolor="#ffffff"
   bordercolor="#000000"
   borderopacity="0.25"
   inkscape:showpageshadow="2"
   inkscape:pageopacity="0.0"
   inkscape:pagecheckerboard="0"
   inkscape:deskcolor="#d1d1d1"
   showgrid="false"
   inkscape:zoom="1.6837209"
   inkscape:cx="215.29696"
   inkscape:cy="215.29696"
   inkscape:window-width="2560"
   inkscape:window-height="1009"
   inkscape:window-x="0"
   inkscape:window-y="0"
   inkscape:window-maximized="1"
   inkscape:current-layer="g971" />
<style
   type="text/css"
   id="style963">
	.st0{fill:#121331;}
	.st1{fill:#08A385;}
	.st2{fill:none;stroke:#121331;stroke-width:14;stroke-linecap:round;stroke-linejoin:round;stroke-miterlimit:10;}
	.st3{fill:none;stroke:#08A385;stroke-width:12;stroke-linecap:round;stroke-linejoin:round;stroke-miterlimit:10;}
	.st4{fill:#06A385;}
	.st5{fill:none;stroke:#121331;stroke-width:12;stroke-linecap:round;stroke-linejoin:round;stroke-miterlimit:10;}
	.st6{fill:#08a88a;}
	.st7{fill:#08A284;}
	.st8{fill:#08A688;}
	.st9{fill:#08a88a;}
</style>
<g
   id="g971">
	<path
   class="st7"
   d="M222.79,235.16h-61.84c-3.31,0-6-2.69-6-6s2.69-6,6-6h61.84c3.31,0,6,2.69,6,6S226.1,235.16,222.79,235.16z"
   id="path965"
   style="fill:#34bcc7;fill-opacity:1" />
	<path
   class="st0"
   d="M239.7,35.54h-95.66c-3.31,0-6,2.69-6,6v43.5c0,3.31,2.69,6,6,6h10.91l0.01,238.72   c0,9.86,3.84,19.13,10.81,26.1c6.98,6.97,16.25,10.82,26.11,10.82c7.07,0,13.93-2,19.84-5.79c2.79-1.79,3.6-5.5,1.81-8.29   c-1.79-2.79-5.5-3.6-8.29-1.81c-3.97,2.55-8.59,3.89-13.36,3.89c-6.66,0-12.92-2.59-17.63-7.3c-4.7-4.7-7.29-10.96-7.29-17.62   l-0.01-238.72h8.51c0.15,0.01,0.31,0.02,0.46,0.02c0.16,0,0.31-0.01,0.46-0.02h30.96c0.15,0.01,0.31,0.02,0.46,0.02   c0.16,0,0.31-0.01,0.46-0.02h8.52v217.83c0,3.31,2.69,6,6,6s6-2.69,6-6V91.04h10.91c3.31,0,6-2.69,6-6v-43.5   C245.7,38.22,243.01,35.54,239.7,35.54z M169.92,79.04h-19.89v-31.5h19.89V79.04z M201.81,79.04h-19.89v-31.5h19.89V79.04z    M233.7,79.04h-19.89v-31.5h19.89V79.04z"
   id="path967" />
	<path
   class="st7"
   d="M246.96,394.46c-24.81,0-45-20.19-45-45c0-22.64,35.86-79.51,39.94-85.92c1.1-1.73,3.01-2.77,5.06-2.77   s3.96,1.05,5.06,2.77c4.09,6.41,39.94,63.29,39.94,85.92C291.96,374.27,271.78,394.46,246.96,394.46z M246.96,278.14   c-12.4,20.41-33,57.27-33,71.32c0,18.2,14.8,33,33,33s33-14.8,33-33C279.96,335.4,259.36,298.54,246.96,278.14z"
   id="path969"
   style="fill:#34bcc7;fill-opacity:1" />
</g>
</svg>
