<?xml version="1.0" encoding="UTF-8" standalone="no"?>
<!-- Generator: Adobe Illustrator 24.1.2, SVG Export Plug-In . SVG Version: 6.00 Build 0)  -->

<svg
   version="1.1"
   id="Warstwa_1"
   x="0px"
   y="0px"
   viewBox="0 0 430 430"
   style="enable-background:new 0 0 430 430;"
   xml:space="preserve"
   sodipodi:docname="blood.svg"
   inkscape:version="1.2.1 (9c6d41e410, 2022-07-14)"
   xmlns:inkscape="http://www.inkscape.org/namespaces/inkscape"
   xmlns:sodipodi="http://sodipodi.sourceforge.net/DTD/sodipodi-0.dtd"
   xmlns="http://www.w3.org/2000/svg"
   xmlns:svg="http://www.w3.org/2000/svg"><defs
   id="defs878" /><sodipodi:namedview
   id="namedview876"
   pagecolor="#ffffff"
   bordercolor="#000000"
   borderopacity="0.25"
   inkscape:showpageshadow="2"
   inkscape:pageopacity="0.0"
   inkscape:pagecheckerboard="0"
   inkscape:deskcolor="#d1d1d1"
   showgrid="false"
   inkscape:zoom="1.6837209"
   inkscape:cx="95.918508"
   inkscape:cy="215.29696"
   inkscape:window-width="2560"
   inkscape:window-height="1009"
   inkscape:window-x="0"
   inkscape:window-y="0"
   inkscape:window-maximized="1"
   inkscape:current-layer="g869" />
<style
   type="text/css"
   id="style863">
	.st0{fill:#121331;}
	.st1{fill:#08A284;}
	.st2{fill:none;stroke:#08A284;stroke-width:12;stroke-linecap:round;stroke-linejoin:round;stroke-miterlimit:10;}
	.st3{fill:none;stroke:#121331;stroke-width:12;stroke-linecap:round;stroke-linejoin:round;stroke-miterlimit:10;}
	.st4{fill:#08A688;}
	.st5{fill:#08a88a;}
	.st6{fill:#08a88a;}
</style>
<g
   id="g873">
	<g
   id="g869">
		<path
   class="st1"
   d="M234.78,90.46c-4.31-1.6-8.63-2.92-12.9-3.94c-0.17-8.8,1.34-17.45,4.49-25.79    c3.53-9.33-0.87-19.7-10.03-23.6l-0.22-0.09c-4.61-1.97-9.7-2.02-14.34-0.15c-4.59,1.85-8.17,5.37-10.09,9.91    c-5.26,12.43-7.91,25.41-7.88,38.66c-3.49,0.69-6.94,1.6-10.32,2.74c-4.34-10.75-10.53-20.6-18.46-29.36    c-3.28-3.62-7.78-5.74-12.69-5.98c-5-0.23-9.8,1.48-13.52,4.87l-0.17,0.16c-7.37,6.69-8.15,17.91-1.76,25.55    c6.23,7.45,10.73,15.88,13.41,25.11c-7.08,6.96-16.86,18.57-17.33,19.13c-2.13,2.54-1.81,6.32,0.73,8.45    c1.13,0.95,2.5,1.41,3.86,1.41c1.71,0,3.41-0.73,4.59-2.14c0.13-0.15,12.55-14.89,18.83-20.43c1.66-1.47,2.38-3.73,1.87-5.89    c-2.95-12.35-8.58-23.57-16.76-33.34c-2.24-2.68-1.96-6.61,0.64-8.97l0.18-0.16c1.34-1.22,3.07-1.84,4.86-1.75    c1.7,0.08,3.25,0.81,4.37,2.05c8.22,9.08,14.32,19.49,18.11,30.94c0.53,1.59,1.69,2.89,3.22,3.58c1.53,0.69,3.27,0.71,4.81,0.06    c5.9-2.49,12.11-4.17,18.45-4.99c3.12-0.4,5.39-3.15,5.22-6.29c-0.75-13.28,1.54-26.31,6.8-38.72c0.67-1.58,1.92-2.81,3.53-3.46    c1.66-0.67,3.48-0.65,5.12,0.06l0.25,0.1c3.21,1.37,4.75,5.02,3.5,8.31c-4.32,11.41-6,23.33-5.01,35.43    c0.22,2.69,2.21,4.9,4.87,5.4c5.1,0.96,10.34,2.44,15.6,4.39c7.27,2.7,12.52,5.63,16.05,8.95c2.41,2.27,6.21,2.16,8.48-0.25    c2.27-2.41,2.17-6.21-0.25-8.48C250.16,97.48,243.58,93.73,234.78,90.46z"
   id="path865"
   style="fill:#34bcc7;fill-opacity:1" />
		<path
   class="st1"
   d="M284.91,178.81c-0.07-0.66-1.77-16.32-7.67-34.38c-1.03-3.15-4.42-4.87-7.57-3.84    c-3.15,1.03-4.87,4.42-3.84,7.57c5.48,16.78,7.12,31.72,7.14,31.92c0.33,3.08,2.93,5.37,5.96,5.37c0.21,0,0.42-0.01,0.64-0.03    C282.87,185.06,285.26,182.11,284.91,178.81z"
   id="path867"
   style="fill:#34bcc7;fill-opacity:1" />
	</g>
	<path
   class="st0"
   d="M291.76,181.02c-13.73-11.79-31.86-16.21-53.93-13.23v-10.28c0-2.87,2.34-5.21,5.22-5.21h34.72   c0.09,0,0.18-0.01,0.27-0.01c10.17-0.19,18.11-11.54,18.11-25.99c0-14.46-7.94-25.8-18.11-25.99c0,0,0,0,0,0h0   c-0.08,0-0.17-0.01-0.25-0.01c-0.09,0-0.18,0.01-0.28,0.01l-39.34,0.06c-32.66,0.06-59.31,26.68-59.4,59.34l-0.06,23.98   c-3.7,0.72-7.3,1.53-10.77,2.42c-2.75-11.72-2.32-33.16-1.79-42.47c0.02-0.27,0.04-0.55,0.05-0.82c0-0.02,0-0.04,0-0.07   c0-0.02,0-0.04,0-0.07c0-0.1,0.01-0.2,0.01-0.31c0-0.05,0-0.1-0.01-0.15c0-0.05,0-0.11-0.01-0.16   c-0.24-10.42-12.1-18.54-27.22-18.54c-15.27,0-27.23,8.28-27.23,18.86c0,0.86,0.09,1.71,0.24,2.53c0.28,2.97,3.45,37.12,1.87,64   c-0.16,2.66-0.47,5.9-0.83,9.66c-2.1,21.85-5.62,58.42,11.32,85.37c23.75,37.75,53.45,64.12,88.28,78.39   c19.72,8.08,40.61,12.15,62.28,12.15c4.51,0,9.05-0.18,13.62-0.53c16.84-1.29,29.75-14.98,30.01-31.85l0.27-17.51v-88.94   C318.91,252.13,320.15,205.39,291.76,181.02z M277.7,112.3h0.13c2.54,0.09,6.3,5.65,6.3,13.99c0,8.42-3.83,14-6.37,14   s-6.37-5.58-6.37-14C271.39,117.95,275.16,112.4,277.7,112.3z M138.95,135.52c9.09,0,15.14,4.07,15.22,6.8   c0,0.07-0.01,0.13-0.01,0.21c-0.22,2.73-6.22,6.71-15.21,6.71c-8.58,0-14.45-3.62-15.16-6.33c0-0.01,0-0.01,0-0.02   c-0.04-0.17-0.07-0.35-0.07-0.51C123.72,139.65,129.8,135.52,138.95,135.52z M306.78,255.26c0,0.09-0.01,0.18-0.01,0.27l0,88.97   l-0.27,17.42c-0.17,10.63-8.31,19.26-18.94,20.08c-43.49,3.36-105.36-8.56-153.09-84.44c-14.77-23.48-11.49-57.5-9.54-77.83   c0.37-3.88,0.7-7.23,0.87-10.1c1.04-17.55,0.17-37.56-0.72-50.94c4.04,1.62,8.76,2.55,13.86,2.55c5.48,0,10.53-1.07,14.76-2.93   c-0.01,12.56,0.84,29.04,4.88,37.63c0.01,0.01,0.01,0.02,0.02,0.03c0.02,0.04,0.04,0.08,0.06,0.11c0.11,0.22,0.24,0.43,0.38,0.64   c0.04,0.06,0.09,0.13,0.13,0.19c0.16,0.22,0.33,0.43,0.52,0.63c0.04,0.04,0.08,0.08,0.12,0.11c0.1,0.1,0.19,0.19,0.3,0.28   c0.22,0.19,21.76,18.9,21.76,38.81c0,3.31,2.69,6,6,6s6-2.69,6-6c0-16.6-10.57-31.53-18.23-40.17c3.08-0.7,6.26-1.33,9.51-1.89   c2.21-0.18,4.07-1.57,4.96-3.5c0.01-0.02,0.02-0.04,0.03-0.06c0.06-0.13,0.11-0.26,0.16-0.4c0.02-0.06,0.04-0.11,0.06-0.17   c0.03-0.1,0.06-0.21,0.09-0.32c0.02-0.09,0.05-0.18,0.07-0.27c0.02-0.09,0.03-0.17,0.05-0.26c0.02-0.11,0.04-0.23,0.05-0.34   c0.01-0.08,0.01-0.15,0.02-0.23c0.01-0.12,0.02-0.25,0.02-0.38c0-0.02,0-0.05,0-0.07l0.07-28.96   c0.07-26.08,21.35-47.33,47.42-47.38l24.03-0.04c-1.77,4.01-2.8,8.79-2.8,13.97c0,5.2,1.03,9.99,2.81,14.01h-19.16   c-9.49,0-17.22,7.72-17.22,17.21v17.25c0,0.04,0,0.08,0,0.13v9.67c-0.1,2.03-0.85,20.58,5.6,40.15c1.11,3.38,2.38,6.59,3.79,9.63   c-3.99,5.3-11.73,16.72-16.98,31.69c-9.7,27.69-6.15,54.17,10.28,76.59c1.18,1.6,3,2.45,4.84,2.45c1.23,0,2.47-0.38,3.54-1.16   c2.67-1.96,3.25-5.71,1.29-8.39c-14.11-19.26-17.06-41.19-8.76-65.18c3.59-10.37,8.61-18.96,12.35-24.53   c10.51,14.98,25.79,23.83,45.09,25.9c0.22,0.02,0.43,0.03,0.65,0.03c3.03,0,5.63-2.28,5.96-5.36c0.35-3.29-2.03-6.25-5.33-6.61   c-18.13-1.95-31.59-10.9-40.14-26.65c-0.21-0.63-0.51-1.23-0.93-1.77c-1.57-3.12-2.96-6.49-4.17-10.12   c-6.06-18.15-5.12-35.98-5.11-36.16c0-0.05,0-0.09,0-0.14c0-0.07,0.01-0.14,0.01-0.21v-4.84c19.27-2.91,34.76,0.49,46.08,10.19   C308.36,211.04,306.8,254.82,306.78,255.26z"
   id="path871" />
</g>
</svg>
