<?xml version="1.0" encoding="UTF-8" standalone="no"?>
<!-- Generator: Adobe Illustrator 24.1.2, SVG Export Plug-In . SVG Version: 6.00 Build 0)  -->

<svg
   version="1.1"
   id="Warstwa_1"
   x="0px"
   y="0px"
   viewBox="0 0 200 199.99999"
   xml:space="preserve"
   sodipodi:docname="blood.svg"
   inkscape:version="1.2.1 (9c6d41e410, 2022-07-14)"
   width="200"
   height="200"
   xmlns:inkscape="http://www.inkscape.org/namespaces/inkscape"
   xmlns:sodipodi="http://sodipodi.sourceforge.net/DTD/sodipodi-0.dtd"
   xmlns="http://www.w3.org/2000/svg"
   xmlns:svg="http://www.w3.org/2000/svg"><defs
   id="defs878" /><sodipodi:namedview
   id="namedview876"
   pagecolor="#ffffff"
   bordercolor="#000000"
   borderopacity="0.25"
   inkscape:showpageshadow="2"
   inkscape:pageopacity="0.0"
   inkscape:pagecheckerboard="0"
   inkscape:deskcolor="#d1d1d1"
   showgrid="false"
   inkscape:zoom="3.3674418"
   inkscape:cx="198.37017"
   inkscape:cy="100.22445"
   inkscape:window-width="2560"
   inkscape:window-height="1009"
   inkscape:window-x="0"
   inkscape:window-y="0"
   inkscape:window-maximized="1"
   inkscape:current-layer="g873" />
<style
   type="text/css"
   id="style863">
	.st0{fill:#121331;}
	.st1{fill:#08A284;}
	.st2{fill:none;stroke:#08A284;stroke-width:12;stroke-linecap:round;stroke-linejoin:round;stroke-miterlimit:10;}
	.st3{fill:none;stroke:#121331;stroke-width:12;stroke-linecap:round;stroke-linejoin:round;stroke-miterlimit:10;}
	.st4{fill:#08A688;}
	.st5{fill:#08a88a;}
	.st6{fill:#08a88a;}
</style>
<g
   id="g873"
   transform="translate(-111.06354,-35.63536)">
	<g
   id="g869"
   transform="matrix(0.55657163,0,0,0.5571726,91.166705,15.842347)">
		<path
   class="st1"
   d="m 234.78,90.46 c -4.31,-1.6 -8.63,-2.92 -12.9,-3.94 -0.17,-8.8 1.34,-17.45 4.49,-25.79 3.53,-9.33 -0.87,-19.7 -10.03,-23.6 l -0.22,-0.09 c -4.61,-1.97 -9.7,-2.02 -14.34,-0.15 -4.59,1.85 -8.17,5.37 -10.09,9.91 -5.26,12.43 -7.91,25.41 -7.88,38.66 -3.49,0.69 -6.94,1.6 -10.32,2.74 -4.34,-10.75 -10.53,-20.6 -18.46,-29.36 -3.28,-3.62 -7.78,-5.74 -12.69,-5.98 -5,-0.23 -9.8,1.48 -13.52,4.87 l -0.17,0.16 c -7.37,6.69 -8.15,17.91 -1.76,25.55 6.23,7.45 10.73,15.88 13.41,25.11 -7.08,6.96 -16.86,18.57 -17.33,19.13 -2.13,2.54 -1.81,6.32 0.73,8.45 1.13,0.95 2.5,1.41 3.86,1.41 1.71,0 3.41,-0.73 4.59,-2.14 0.13,-0.15 12.55,-14.89 18.83,-20.43 1.66,-1.47 2.38,-3.73 1.87,-5.89 -2.95,-12.35 -8.58,-23.57 -16.76,-33.34 -2.24,-2.68 -1.96,-6.61 0.64,-8.97 l 0.18,-0.16 c 1.34,-1.22 3.07,-1.84 4.86,-1.75 1.7,0.08 3.25,0.81 4.37,2.05 8.22,9.08 14.32,19.49 18.11,30.94 0.53,1.59 1.69,2.89 3.22,3.58 1.53,0.69 3.27,0.71 4.81,0.06 5.9,-2.49 12.11,-4.17 18.45,-4.99 3.12,-0.4 5.39,-3.15 5.22,-6.29 -0.75,-13.28 1.54,-26.31 6.8,-38.72 0.67,-1.58 1.92,-2.81 3.53,-3.46 1.66,-0.67 3.48,-0.65 5.12,0.06 l 0.25,0.1 c 3.21,1.37 4.75,5.02 3.5,8.31 -4.32,11.41 -6,23.33 -5.01,35.43 0.22,2.69 2.21,4.9 4.87,5.4 5.1,0.96 10.34,2.44 15.6,4.39 7.27,2.7 12.52,5.63 16.05,8.95 2.41,2.27 6.21,2.16 8.48,-0.25 2.27,-2.41 2.17,-6.21 -0.25,-8.48 -4.73,-4.46 -11.31,-8.21 -20.11,-11.48 z"
   id="path865"
   style="fill:#34bcc7;fill-opacity:1" />
		<path
   class="st1"
   d="m 284.91,178.81 c -0.07,-0.66 -1.77,-16.32 -7.67,-34.38 -1.03,-3.15 -4.42,-4.87 -7.57,-3.84 -3.15,1.03 -4.87,4.42 -3.84,7.57 5.48,16.78 7.12,31.72 7.14,31.92 0.33,3.08 2.93,5.37 5.96,5.37 0.21,0 0.42,-0.01 0.64,-0.03 3.3,-0.36 5.69,-3.31 5.34,-6.61 z"
   id="path867"
   style="fill:#34bcc7;fill-opacity:1" />
	</g>
	<path
   class="st0"
   d="m 253.55204,116.70173 c -7.64173,-6.56906 -17.73238,-9.03176 -30.0159,-7.37139 v -5.72773 c 0,-1.59908 1.30237,-2.90287 2.9053,-2.90287 h 19.32416 c 0.0501,0 0.10018,-0.006 0.15028,-0.006 5.66034,-0.10586 10.07951,-6.429771 10.07951,-14.480915 0,-8.056717 -4.41917,-14.375054 -10.07951,-14.480916 0,0 0,0 0,0 v 0 c -0.0446,0 -0.0946,-0.0056 -0.13915,-0.0056 -0.0501,0 -0.10018,0.0056 -0.15584,0.0056 l -21.89552,0.03343 c -18.17763,0.03343 -33.01027,14.865365 -33.06036,33.062621 l -0.0333,13.36099 c -2.05932,0.40117 -4.06298,0.85248 -5.99428,1.34836 -1.53057,-6.53006 -1.29125,-18.47584 -0.99627,-23.663113 0.0108,-0.150437 0.0222,-0.306444 0.0279,-0.456881 0,-0.01113 0,-0.02228 0,-0.039 0,-0.01113 0,-0.02229 0,-0.039 0,-0.05572 0.006,-0.11143 0.006,-0.172723 0,-0.02786 0,-0.05572 -0.006,-0.08358 0,-0.02786 0,-0.06129 -0.006,-0.08915 -0.13358,-5.805738 -6.73452,-10.329979 -15.14989,-10.329979 -8.49884,0 -15.15544,4.613388 -15.15544,10.508275 0,0.479168 0.0501,0.952764 0.13357,1.409646 0.15584,1.654804 1.92018,20.682255 1.0408,35.659045 -0.0891,1.48208 -0.26159,3.28733 -0.46195,5.38229 -1.16881,12.17422 -3.12794,32.55002 6.30038,47.56582 13.21858,21.03328 29.74875,35.7259 49.13415,43.67676 10.97559,4.50196 22.60237,6.76965 34.66328,6.76965 2.51014,0 5.03697,-0.10029 7.5805,-0.2953 9.37266,-0.71876 16.55801,-8.34645 16.70272,-17.74595 l 0.15027,-9.75609 V 158.2831 c 0.0612,-1.96126 0.75138,-28.00351 -15.0497,-41.5818 z m -7.8254,-38.288899 h 0.0723 c 1.41368,0.05014 3.50639,3.148026 3.50639,7.794845 0,4.691394 -2.13167,7.800416 -3.54535,7.800416 -1.4137,0 -3.54537,-3.109022 -3.54537,-7.800416 0,-4.646819 2.09828,-7.739128 3.51197,-7.794845 z m -77.22431,12.937548 c 5.05924,0 8.4265,2.267693 8.47102,3.788774 0,0.039 -0.006,0.07243 -0.006,0.117006 -0.12245,1.521081 -3.46188,3.738627 -8.46546,3.738627 -4.77538,0 -8.04246,-2.016963 -8.43762,-3.526902 0,-0.0056 0,-0.0056 0,-0.01113 -0.0222,-0.09472 -0.039,-0.19501 -0.039,-0.284157 0,-1.521082 3.38395,-3.822205 8.47658,-3.822205 z m 93.40941,66.715851 c 0,0.0502 -0.006,0.10028 -0.006,0.15044 v 49.57165 l -0.15028,9.70595 c -0.0946,5.92273 -4.62511,10.73114 -10.54146,11.18801 -24.20531,1.87211 -58.6404,-4.76939 -85.20556,-47.04765 -8.22056,-13.08241 -6.395,-32.03742 -5.30969,-43.36474 0.20593,-2.16183 0.3896,-4.02836 0.48421,-5.62745 0.57885,-9.77837 0.0946,-20.9274 -0.40073,-28.38237 2.24856,0.90262 4.87557,1.42079 7.71409,1.42079 3.05001,0 5.86069,-0.59617 8.21499,-1.63252 -0.006,6.99809 0.46752,16.1803 2.71607,20.96641 0.006,0.006 0.006,0.0108 0.0108,0.0167 0.0108,0.0222 0.0222,0.0446 0.0333,0.0613 0.0612,0.12258 0.13357,0.23958 0.21149,0.35658 0.0222,0.0333 0.0501,0.0724 0.0723,0.10592 0.0891,0.12258 0.18367,0.23959 0.28941,0.35102 0.0222,0.0222 0.0446,0.0447 0.0668,0.0613 0.0557,0.0558 0.10579,0.10592 0.16697,0.15601 0.12245,0.10592 12.111,10.53057 12.111,21.62388 0,1.84423 1.49718,3.34302 3.33942,3.34302 1.84226,0 3.33944,-1.49879 3.33944,-3.34302 0,-9.24907 -5.88296,-17.56766 -10.1463,-22.38163 1.71424,-0.39003 3.48413,-0.74104 5.29299,-1.05306 1.23002,-0.10029 2.26525,-0.87475 2.7606,-1.9501 0.006,-0.0108 0.0108,-0.0222 0.0167,-0.0333 0.0334,-0.0724 0.0612,-0.14487 0.0891,-0.22287 0.0108,-0.0333 0.0222,-0.0613 0.0333,-0.0948 0.0167,-0.0558 0.0334,-0.11705 0.0501,-0.1783 0.0108,-0.0502 0.0279,-0.10028 0.039,-0.15044 0.0108,-0.0502 0.0167,-0.0947 0.0279,-0.14485 0.0108,-0.0613 0.0222,-0.12815 0.0279,-0.18945 0.006,-0.0445 0.006,-0.0835 0.0108,-0.12815 0.006,-0.0669 0.0108,-0.13929 0.0108,-0.21172 0,-0.0108 0,-0.0279 0,-0.039 l 0.039,-16.13572 c 0.039,-14.531062 11.88281,-26.37098 26.39264,-26.398838 l 13.37441,-0.02228 c -0.98513,2.234263 -1.5584,4.897548 -1.5584,7.783702 0,2.897297 0.57327,5.566154 1.56397,7.805989 h -10.66391 c -5.28188,0 -9.58417,4.301371 -9.58417,9.588937 v 9.61123 c 0,0.0222 0,0.0445 0,0.0724 v 5.38786 c -0.0557,1.13105 -0.47308,11.46661 3.1168,22.37047 0.61779,1.88325 1.32465,3.67178 2.10941,5.36559 -2.22072,2.95302 -6.52859,9.31592 -9.45059,17.6568 -5.39875,15.42811 -3.42291,30.18204 5.72155,42.67384 0.65676,0.89149 1.66972,1.36508 2.69381,1.36508 0.68459,0 1.37474,-0.21173 1.97026,-0.64632 1.48606,-1.09207 1.80887,-3.18145 0.71799,-4.67468 -7.85324,-10.73115 -9.49512,-22.94995 -4.87557,-36.31651 1.99809,-5.77789 4.79207,-10.564 6.87365,-13.66745 5.84957,8.34645 14.35399,13.27743 25.09582,14.43078 0.12245,0.0108 0.23933,0.0167 0.36177,0.0167 1.68642,0 3.1335,-1.27035 3.31717,-2.98645 0.1948,-1.8331 -1.12984,-3.48232 -2.96653,-3.68291 -10.09064,-1.08649 -17.5821,-6.07319 -22.34078,-14.84865 -0.11692,-0.35102 -0.28386,-0.68532 -0.51762,-0.98619 -0.87381,-1.73838 -1.64744,-3.61606 -2.32089,-5.6386 -3.37283,-10.11267 -2.84966,-20.04706 -2.84409,-20.14735 0,-0.0279 0,-0.0502 0,-0.0781 0,-0.0391 0.006,-0.078 0.006,-0.11704 v -2.69672 c 10.72514,-1.62137 19.34644,0.27302 25.64683,5.6776 13.63043,11.69504 12.76218,36.08806 12.75105,36.33322 z"
   id="path871"
   style="stroke-width:0.556871" />
</g>
</svg>
