<?xml version="1.0" encoding="UTF-8" standalone="no"?>
<!-- Generator: Adobe Illustrator 24.1.2, SVG Export Plug-In . SVG Version: 6.00 Build 0)  -->

<svg
   version="1.1"
   id="Warstwa_3"
   x="0px"
   y="0px"
   viewBox="0 0 154.41987 359.17471"
   xml:space="preserve"
   sodipodi:docname="blood-work.svg"
   inkscape:version="1.2.1 (9c6d41e410, 2022-07-14)"
   width="154.41988"
   height="359.17471"
   xmlns:inkscape="http://www.inkscape.org/namespaces/inkscape"
   xmlns:sodipodi="http://sodipodi.sourceforge.net/DTD/sodipodi-0.dtd"
   xmlns="http://www.w3.org/2000/svg"
   xmlns:svg="http://www.w3.org/2000/svg"><defs
   id="defs976" /><sodipodi:namedview
   id="namedview974"
   pagecolor="#ffffff"
   bordercolor="#000000"
   borderopacity="0.25"
   inkscape:showpageshadow="2"
   inkscape:pageopacity="0.0"
   inkscape:pagecheckerboard="0"
   inkscape:deskcolor="#d1d1d1"
   showgrid="false"
   inkscape:zoom="6.7348836"
   inkscape:cx="135.85981"
   inkscape:cy="314.70477"
   inkscape:window-width="2560"
   inkscape:window-height="1009"
   inkscape:window-x="0"
   inkscape:window-y="0"
   inkscape:window-maximized="1"
   inkscape:current-layer="g971" />
<style
   type="text/css"
   id="style963">
	.st0{fill:#121331;}
	.st1{fill:#08A385;}
	.st2{fill:none;stroke:#121331;stroke-width:14;stroke-linecap:round;stroke-linejoin:round;stroke-miterlimit:10;}
	.st3{fill:none;stroke:#08A385;stroke-width:12;stroke-linecap:round;stroke-linejoin:round;stroke-miterlimit:10;}
	.st4{fill:#06A385;}
	.st5{fill:none;stroke:#121331;stroke-width:12;stroke-linecap:round;stroke-linejoin:round;stroke-miterlimit:10;}
	.st6{fill:#08a88a;}
	.st7{fill:#08A284;}
	.st8{fill:#08A688;}
	.st9{fill:#08a88a;}
</style>
<g
   id="g971"
   transform="translate(-137.93854,-35.486879)">
	<path
   class="st7"
   d="m 222.79,235.16 h -61.84 c -3.31,0 -6,-2.69 -6,-6 0,-3.31 2.69,-6 6,-6 h 61.84 c 3.31,0 6,2.69 6,6 0,3.31 -2.69,6 -6,6 z"
   id="path965"
   style="fill:#34bcc7;fill-opacity:1" />
	<path
   class="st0"
   d="m 239.7,35.54 h -95.66 c -3.31,0 -6,2.69 -6,6 v 43.5 c 0,3.31 2.69,6 6,6 h 10.91 l 0.01,238.72 c 0,9.86 3.84,19.13 10.81,26.1 6.98,6.97 16.25,10.82 26.11,10.82 7.07,0 13.93,-2 19.84,-5.79 2.79,-1.79 3.6,-5.5 1.81,-8.29 -1.79,-2.79 -5.5,-3.6 -8.29,-1.81 -3.97,2.55 -8.59,3.89 -13.36,3.89 -6.66,0 -12.92,-2.59 -17.63,-7.3 -4.7,-4.7 -7.29,-10.96 -7.29,-17.62 L 166.95,91.04 h 8.51 c 0.15,0.01 0.31,0.02 0.46,0.02 0.16,0 0.31,-0.01 0.46,-0.02 h 30.96 c 0.15,0.01 0.31,0.02 0.46,0.02 0.16,0 0.31,-0.01 0.46,-0.02 h 8.52 v 217.83 c 0,3.31 2.69,6 6,6 3.31,0 6,-2.69 6,-6 V 91.04 h 10.91 c 3.31,0 6,-2.69 6,-6 v -43.5 c 0.01,-3.32 -2.68,-6 -5.99,-6 z m -69.78,43.5 h -19.89 v -31.5 h 19.89 z m 31.89,0 h -19.89 v -31.5 h 19.89 z m 31.89,0 h -19.89 v -31.5 h 19.89 z"
   id="path967" />
	<path
   class="st7"
   d="m 246.96,394.46 c -24.81,0 -45,-20.19 -45,-45 0,-22.64 35.86,-79.51 39.94,-85.92 1.1,-1.73 3.01,-2.77 5.06,-2.77 2.05,0 3.96,1.05 5.06,2.77 4.09,6.41 39.94,63.29 39.94,85.92 0,24.81 -20.18,45 -45,45 z m 0,-116.32 c -12.4,20.41 -33,57.27 -33,71.32 0,18.2 14.8,33 33,33 18.2,0 33,-14.8 33,-33 0,-14.06 -20.6,-50.92 -33,-71.32 z"
   id="path969"
   style="fill:#34bcc7;fill-opacity:1" />
</g>
</svg>
