<svg xmlns="http://www.w3.org/2000/svg" width="20" height="20" fill="none" viewBox="0 0 20 20">
  <path fill="#fff" d="M17.857 0H2.143C.96 0 0 .96 0 2.143v15.714C0 19.04.96 20 2.143 20h15.714C19.04 20 20 19.04 20 17.857V2.143C20 .96 19.04 0 17.857 0ZM12.38 17.13c-.376.066-.514-.166-.514-.358 0-.24.009-1.473.009-2.468 0-.697-.232-1.139-.505-1.371 1.652-.183 3.393-.41 3.393-3.263 0-.813-.29-1.22-.763-1.741.076-.192.33-.983-.076-2.01-.62-.191-2.04.8-2.04.8a6.954 6.954 0 0 0-1.857-.25c-.63 0-1.268.085-1.857.25 0 0-1.42-.991-2.04-.8-.407 1.023-.157 1.813-.076 2.01-.474.522-.697.928-.697 1.74 0 2.84 1.665 3.081 3.317 3.264-.214.192-.406.522-.473.996-.424.191-1.509.522-2.156-.621a1.555 1.555 0 0 0-1.139-.763c-.723-.01-.049.455-.049.455.482.223.822 1.08.822 1.08.433 1.326 2.504.88 2.504.88 0 .62.009 1.63.009 1.812 0 .192-.134.424-.513.358-2.947-.987-5.01-3.79-5.01-7.067 0-4.099 3.135-7.21 7.233-7.21s7.42 3.111 7.42 7.21c.004 3.276-1.996 6.084-4.942 7.066ZM8 14.402c-.085.018-.165-.018-.174-.076-.009-.067.049-.125.134-.143.085-.009.165.027.174.085.013.058-.045.116-.134.134Zm-.424-.04c0 .058-.067.107-.156.107-.099.009-.166-.04-.166-.107 0-.058.067-.107.157-.107.085-.01.165.04.165.107Zm-.612-.05c-.018.059-.107.085-.183.059-.085-.018-.143-.085-.125-.143.018-.058.107-.085.183-.067.09.027.148.094.125.152Zm-.549-.24c-.04.049-.125.04-.192-.027-.067-.058-.085-.143-.04-.183.04-.05.125-.04.192.026.058.058.08.148.04.183Zm-.406-.407c-.04.027-.116 0-.165-.067-.05-.067-.05-.143 0-.174.049-.04.125-.009.165.058.049.067.049.148 0 .183Zm-.29-.433c-.04.04-.107.018-.157-.027-.049-.058-.058-.125-.017-.156.04-.04.107-.018.156.027.049.058.058.125.018.156Zm-.3-.33c-.017.04-.075.049-.124.018-.058-.027-.085-.076-.067-.116.018-.027.067-.04.125-.018.058.031.085.08.067.116Z"/>
</svg>
