<?xml version="1.0" encoding="UTF-8" standalone="no"?>
<!-- Generator: Adobe Illustrator 24.1.2, SVG Export Plug-In . SVG Version: 6.00 Build 0)  -->

<svg
   version="1.1"
   id="Warstwa_1"
   x="0px"
   y="0px"
   viewBox="0 0 200 200"
   xml:space="preserve"
   sodipodi:docname="glucose.svg"
   inkscape:version="1.2.1 (9c6d41e410, 2022-07-14)"
   width="200"
   height="200"
   xmlns:inkscape="http://www.inkscape.org/namespaces/inkscape"
   xmlns:sodipodi="http://sodipodi.sourceforge.net/DTD/sodipodi-0.dtd"
   xmlns="http://www.w3.org/2000/svg"
   xmlns:svg="http://www.w3.org/2000/svg"><defs
   id="defs23" /><sodipodi:namedview
   id="namedview21"
   pagecolor="#ffffff"
   bordercolor="#000000"
   borderopacity="0.25"
   inkscape:showpageshadow="2"
   inkscape:pageopacity="0.0"
   inkscape:pagecheckerboard="0"
   inkscape:deskcolor="#d1d1d1"
   showgrid="false"
   inkscape:zoom="2.3811409"
   inkscape:cx="242.74078"
   inkscape:cy="105.62164"
   inkscape:window-width="2560"
   inkscape:window-height="1009"
   inkscape:window-x="0"
   inkscape:window-y="0"
   inkscape:window-maximized="1"
   inkscape:current-layer="g18" />
<style
   type="text/css"
   id="style2">
	.st0{fill:#121331;}
	.st1{fill:#08A284;}
	.st2{fill:none;stroke:#08A284;stroke-width:12;stroke-linecap:round;stroke-linejoin:round;stroke-miterlimit:10;}
	.st3{fill:none;stroke:#121331;stroke-width:12;stroke-linecap:round;stroke-linejoin:round;stroke-miterlimit:10;}
	.st4{fill:#08A688;}
	.st5{fill:#08a88a;}
	.st6{fill:#08a88a;}
</style>
<g
   id="g18"
   transform="translate(-124.12984,-48.107736)">
	<g
   id="g10"
   transform="matrix(0.60031102,0,0,0.60197448,94.886341,19.455223)">
		<path
   class="st1"
   d="m 236.83,333.44 h -43.67 c -3.31,0 -6,2.69 -6,6 0,3.31 2.69,6 6,6 h 43.67 c 3.31,0 6,-2.69 6,-6 0,-3.31 -2.68,-6 -6,-6 z"
   id="path4"
   style="fill:#34bcc7;fill-opacity:1" />
		<path
   class="st1"
   d="m 198.64,264.51 c 5.01,-3.3 7.59,-9.56 7.09,-17.18 -0.43,-6.5 -3.02,-13.65 -7.3,-20.14 -9.81,-14.88 -24.52,-21.29 -34.22,-14.9 -9.69,6.39 -9.6,22.43 0.21,37.32 4.28,6.49 9.83,11.69 15.64,14.65 3.49,1.77 6.96,2.66 10.2,2.66 3.08,0 5.94,-0.81 8.38,-2.41 z m -13.13,-10.95 c -3.92,-2 -7.96,-5.85 -11.06,-10.56 0,0 0,0 0,0 -6.38,-9.67 -6.41,-18.86 -3.63,-20.69 0.46,-0.3 1.08,-0.46 1.81,-0.46 3.71,0 10.46,3.88 15.78,11.94 3.11,4.71 5.06,9.94 5.35,14.33 0.2,3.09 -0.45,5.53 -1.72,6.37 -1.27,0.83 -3.77,0.48 -6.53,-0.93 z"
   id="path6"
   style="fill:#34bcc7;fill-opacity:1" />
		<path
   class="st1"
   d="m 265.79,212.29 c -9.69,-6.39 -24.4,0.01 -34.22,14.9 -4.28,6.49 -6.87,13.64 -7.3,20.14 -0.5,7.61 2.08,13.87 7.09,17.18 2.44,1.61 5.3,2.41 8.38,2.41 3.24,0 6.72,-0.89 10.2,-2.66 5.8,-2.96 11.36,-8.16 15.64,-14.65 9.81,-14.89 9.9,-30.93 0.21,-37.32 z M 255.55,243 c 0,0 0,0 0,0 -3.11,4.71 -7.14,8.56 -11.06,10.56 -2.76,1.41 -5.26,1.76 -6.53,0.93 -1.27,-0.83 -1.92,-3.27 -1.72,-6.36 0.29,-4.39 2.24,-9.62 5.35,-14.33 5.32,-8.07 12.07,-11.94 15.78,-11.94 0.74,0 1.35,0.15 1.81,0.46 2.78,1.82 2.75,11.01 -3.63,20.68 z"
   id="path8"
   style="fill:#34bcc7;fill-opacity:1" />
	</g>
	<g
   id="g16"
   transform="matrix(0.60031102,0,0,0.60197448,94.886341,19.455223)">
		<path
   class="st0"
   d="M 290.49,66.01 C 280.11,54.97 266.05,48.88 250.9,48.88 h -71.8 c -15.15,0 -29.22,6.08 -39.59,17.13 -10.37,11.05 -15.57,25.46 -14.62,40.58 l 8.52,136.26 c 1.78,28.41 25.35,50.69 53.77,50.92 v 62.97 c 0,13.44 10.94,24.38 24.38,24.38 h 6.91 c 13.44,0 24.38,-10.94 24.38,-24.38 v -62.97 c 28.42,-0.23 51.99,-22.51 53.77,-50.92 l 8.52,-136.26 c 0.92,-15.12 -4.27,-29.54 -14.65,-40.58 z m -59.66,290.73 c 0,6.82 -5.55,12.38 -12.38,12.38 h -6.91 c -6.82,0 -12.38,-5.55 -12.38,-12.38 v -62.96 h 31.67 z m 62.31,-250.9 -8.52,136.26 c -1.39,22.25 -19.94,39.68 -42.24,39.68 h -54.77 c -22.29,0 -40.85,-17.43 -42.24,-39.68 l -8.52,-136.26 c -0.74,-11.78 3.31,-23.01 11.39,-31.62 8.08,-8.61 19.04,-13.34 30.85,-13.34 h 71.8 c 11.81,0 22.76,4.74 30.85,13.34 8.09,8.6 12.14,19.84 11.4,31.62 z"
   id="path12" />
		<path
   class="st0"
   d="m 258.4,91.29 h -86.8 c -3.31,0 -6,2.69 -6,6 v 86.79 c 0,3.31 2.69,6 6,6 h 86.79 c 3.31,0 6,-2.69 6,-6 V 97.29 c 0.01,-3.31 -2.68,-6 -5.99,-6 z m -6,86.79 h -74.8 v -74.79 h 74.79 v 74.79 z"
   id="path14" />
	</g>
</g>
</svg>
