<?xml version="1.0" encoding="UTF-8" standalone="no"?>
<!-- Generator: Adobe Illustrator 24.1.2, SVG Export Plug-In . SVG Version: 6.00 Build 0)  -->

<svg
   version="1.1"
   id="Warstwa_1"
   x="0px"
   y="0px"
   viewBox="0 0 430 430"
   style="enable-background:new 0 0 430 430;"
   xml:space="preserve"
   sodipodi:docname="glucose.svg"
   inkscape:version="1.2.1 (9c6d41e410, 2022-07-14)"
   xmlns:inkscape="http://www.inkscape.org/namespaces/inkscape"
   xmlns:sodipodi="http://sodipodi.sourceforge.net/DTD/sodipodi-0.dtd"
   xmlns="http://www.w3.org/2000/svg"
   xmlns:svg="http://www.w3.org/2000/svg"><defs
   id="defs23" /><sodipodi:namedview
   id="namedview21"
   pagecolor="#ffffff"
   bordercolor="#000000"
   borderopacity="0.25"
   inkscape:showpageshadow="2"
   inkscape:pageopacity="0.0"
   inkscape:pagecheckerboard="0"
   inkscape:deskcolor="#d1d1d1"
   showgrid="false"
   inkscape:zoom="1.6837209"
   inkscape:cx="215.29696"
   inkscape:cy="215.29696"
   inkscape:window-width="2560"
   inkscape:window-height="1009"
   inkscape:window-x="0"
   inkscape:window-y="0"
   inkscape:window-maximized="1"
   inkscape:current-layer="g10" />
<style
   type="text/css"
   id="style2">
	.st0{fill:#121331;}
	.st1{fill:#08A284;}
	.st2{fill:none;stroke:#08A284;stroke-width:12;stroke-linecap:round;stroke-linejoin:round;stroke-miterlimit:10;}
	.st3{fill:none;stroke:#121331;stroke-width:12;stroke-linecap:round;stroke-linejoin:round;stroke-miterlimit:10;}
	.st4{fill:#08A688;}
	.st5{fill:#08a88a;}
	.st6{fill:#08a88a;}
</style>
<g
   id="g18">
	<g
   id="g10">
		<path
   class="st1"
   d="M236.83,333.44h-43.67c-3.31,0-6,2.69-6,6s2.69,6,6,6h43.67c3.31,0,6-2.69,6-6S240.15,333.44,236.83,333.44z"
   id="path4"
   style="fill:#34bcc7;fill-opacity:1" />
		<path
   class="st1"
   d="M198.64,264.51c5.01-3.3,7.59-9.56,7.09-17.18c-0.43-6.5-3.02-13.65-7.3-20.14    c-9.81-14.88-24.52-21.29-34.22-14.9c-9.69,6.39-9.6,22.43,0.21,37.32c4.28,6.49,9.83,11.69,15.64,14.65    c3.49,1.77,6.96,2.66,10.2,2.66C193.34,266.92,196.2,266.11,198.64,264.51z M185.51,253.56c-3.92-2-7.96-5.85-11.06-10.56    c0,0,0,0,0,0c-6.38-9.67-6.41-18.86-3.63-20.69c0.46-0.3,1.08-0.46,1.81-0.46c3.71,0,10.46,3.88,15.78,11.94    c3.11,4.71,5.06,9.94,5.35,14.33c0.2,3.09-0.45,5.53-1.72,6.37C190.77,255.32,188.27,254.97,185.51,253.56z"
   id="path6"
   style="fill:#34bcc7;fill-opacity:1" />
		<path
   class="st1"
   d="M265.79,212.29c-9.69-6.39-24.4,0.01-34.22,14.9c-4.28,6.49-6.87,13.64-7.3,20.14    c-0.5,7.61,2.08,13.87,7.09,17.18c2.44,1.61,5.3,2.41,8.38,2.41c3.24,0,6.72-0.89,10.2-2.66c5.8-2.96,11.36-8.16,15.64-14.65    C275.39,234.72,275.48,218.68,265.79,212.29z M255.55,243C255.55,243,255.55,243,255.55,243c-3.11,4.71-7.14,8.56-11.06,10.56    c-2.76,1.41-5.26,1.76-6.53,0.93c-1.27-0.83-1.92-3.27-1.72-6.36c0.29-4.39,2.24-9.62,5.35-14.33    c5.32-8.07,12.07-11.94,15.78-11.94c0.74,0,1.35,0.15,1.81,0.46C261.96,224.14,261.93,233.33,255.55,243z"
   id="path8"
   style="fill:#34bcc7;fill-opacity:1" />
	</g>
	<g
   id="g16">
		<path
   class="st0"
   d="M290.49,66.01c-10.38-11.04-24.44-17.13-39.59-17.13h-71.8c-15.15,0-29.22,6.08-39.59,17.13    s-15.57,25.46-14.62,40.58l8.52,136.26c1.78,28.41,25.35,50.69,53.77,50.92v62.97c0,13.44,10.94,24.38,24.38,24.38h6.91    c13.44,0,24.38-10.94,24.38-24.38v-62.97c28.42-0.23,51.99-22.51,53.77-50.92l8.52-136.26C306.06,91.47,300.87,77.05,290.49,66.01    z M230.83,356.74c0,6.82-5.55,12.38-12.38,12.38h-6.91c-6.82,0-12.38-5.55-12.38-12.38v-62.96h31.67V356.74z M293.14,105.84    l-8.52,136.26c-1.39,22.25-19.94,39.68-42.24,39.68h-54.77c-22.29,0-40.85-17.43-42.24-39.68l-8.52-136.26    c-0.74-11.78,3.31-23.01,11.39-31.62s19.04-13.34,30.85-13.34h71.8c11.81,0,22.76,4.74,30.85,13.34S293.88,94.06,293.14,105.84z"
   id="path12" />
		<path
   class="st0"
   d="M258.4,91.29H171.6c-3.31,0-6,2.69-6,6v86.79c0,3.31,2.69,6,6,6h86.79c3.31,0,6-2.69,6-6V97.29    C264.4,93.98,261.71,91.29,258.4,91.29z M252.4,178.08H177.6v-74.79h74.79V178.08z"
   id="path14" />
	</g>
</g>
</svg>
