<?xml version="1.0" encoding="UTF-8" standalone="no"?>
<!-- Created with Inkscape (http://www.inkscape.org/) -->

<svg
   version="1.1"
   id="svg8518"
   width="800"
   height="800"
   viewBox="0 0 800 800"
   sodipodi:docname="heart.svg"
   inkscape:version="1.2.1 (9c6d41e410, 2022-07-14)"
   xmlns:inkscape="http://www.inkscape.org/namespaces/inkscape"
   xmlns:sodipodi="http://sodipodi.sourceforge.net/DTD/sodipodi-0.dtd"
   xmlns="http://www.w3.org/2000/svg"
   xmlns:svg="http://www.w3.org/2000/svg">
  <defs
     id="defs8522" />
  <sodipodi:namedview
     id="namedview8520"
     pagecolor="#ffffff"
     bordercolor="#000000"
     borderopacity="0.25"
     inkscape:showpageshadow="2"
     inkscape:pageopacity="0.0"
     inkscape:pagecheckerboard="0"
     inkscape:deskcolor="#d1d1d1"
     showgrid="false"
     inkscape:zoom="0.905"
     inkscape:cx="400.55249"
     inkscape:cy="400.55249"
     inkscape:window-width="2560"
     inkscape:window-height="1009"
     inkscape:window-x="0"
     inkscape:window-y="0"
     inkscape:window-maximized="1"
     inkscape:current-layer="g8526">
    <inkscape:page
       x="0"
       y="0"
       id="page8524"
       width="800"
       height="800" />
  </sodipodi:namedview>
  <g
     id="g8526"
     inkscape:groupmode="layer"
     inkscape:label="Page 1"
     transform="matrix(1.3333333,0,0,-1.3333333,0,800)">
    <g
       id="g8528"
       transform="scale(0.1)">
      <path
         d="M 6000,0 H 0 V 6000 H 6000 V 0"
         style="fill:#ffffff;fill-opacity:1;fill-rule:nonzero;stroke:none"
         id="path8530" />
      <path
         d="m 2770.66,2615.2 c -7.37,0 -14.87,1.24 -22.2,3.88 -350.81,126.37 -650.5,307.75 -890.79,539.1 -277.23,266.92 -465.11,596.72 -529.03,928.63 -60.68,315.14 -4.56,611.37 153.98,812.75 178.39,226.62 389.59,274.86 535.35,275.44 193.24,0.86 386.26,-84.7 492.66,-217.7 22.6,-28.26 18.02,-69.49 -10.24,-92.09 -28.23,-22.6 -69.46,-18.03 -92.08,10.23 -67.22,84.04 -213.05,168.53 -387.7,168.53 -0.72,0 -1.41,0 -2.13,0 -116.88,-0.45 -286.87,-39.95 -432.9,-225.45 -135.01,-171.49 -181.77,-429.15 -128.27,-706.92 58.85,-305.62 233.31,-610.69 491.24,-859.03 226.91,-218.47 510.98,-390.13 844.31,-510.2 34.05,-12.27 51.7,-49.81 39.44,-83.84 -9.63,-26.72 -34.8,-43.33 -61.64,-43.33"
         style="fill:#bcc1c1;fill-opacity:1;fill-rule:nonzero;stroke:none"
         id="path8532" />
      <path
         d="m 2847.59,2615.2 c -26.83,0 -52.01,16.61 -61.63,43.33 -12.27,34.03 5.39,71.57 39.43,83.84 333.34,120.07 617.41,291.73 844.31,510.2 257.94,248.34 432.4,553.41 491.25,859.03 53.49,277.77 6.74,535.43 -128.25,706.92 -146.05,185.5 -316.04,225 -432.93,225.45 -0.7,0 -1.4,0 -2.11,0 -174.67,0 -320.48,-84.49 -387.72,-168.53 -22.6,-28.25 -63.83,-32.84 -92.08,-10.23 -28.25,22.6 -32.84,63.83 -10.22,92.09 105.93,132.41 298.09,217.7 490.12,217.7 0.85,0 1.68,0 2.53,0 145.75,-0.58 356.96,-48.82 535.35,-275.44 158.53,-201.38 214.66,-497.61 153.97,-812.75 -63.91,-331.91 -251.8,-661.71 -529.03,-928.63 -240.27,-231.35 -539.97,-412.71 -890.79,-539.1 -7.32,-2.64 -14.82,-3.88 -22.2,-3.88"
         style="fill:#bcc1c1;fill-opacity:1;fill-rule:nonzero;stroke:none"
         id="path8534" />
      <path
         d="m 2578.51,5032.17 c -49.87,33.87 -146.89,77.55 -191.78,92.75 -51.32,17.4 -105.35,-2.74 -131.44,-48.94 -29.72,-52.64 -8.44,-107.07 25.83,-137.66 35.24,-31.44 140.53,-100.05 178.84,-116.53 16.04,-6.91 34.42,-10.66 52.9,-10.02 33.32,1.17 66.98,16.65 87.93,53.75 l 13.19,23.36 c 30.46,53.95 17.2,107.52 -35.47,143.29"
         style="fill:#1f394c;fill-opacity:1;fill-rule:nonzero;stroke:none"
         id="path8536" />
      <path
         d="m 3362.95,5075.98 c -26.09,46.2 -80.12,66.31 -131.43,48.94 -44.89,-15.2 -141.91,-58.88 -191.77,-92.74 -52.67,-35.77 -65.94,-89.34 -35.47,-143.3 l 13.19,-23.36 c 20.95,-37.1 54.61,-52.58 87.93,-53.74 18.48,-0.65 36.86,3.1 52.91,10.01 38.28,16.48 143.57,85.09 178.82,116.53 34.28,30.59 55.54,85.02 25.82,137.66"
         style="fill:#1f394c;fill-opacity:1;fill-rule:nonzero;stroke:none"
         id="path8538" />
      <path
         d="m 2776.15,2574.23 c -11.97,0 -24.15,2.04 -36.08,6.34 -356.25,128.34 -660.84,312.75 -905.3,548.11 -42.35,40.79 -8.27,72.82 32.51,115.17 40.78,42.35 72.82,79 115.17,38.22 222.73,-214.45 501.91,-383.07 829.79,-501.19 55.32,-19.93 84,-80.91 64.07,-136.24 -15.63,-43.39 -56.55,-70.41 -100.16,-70.41"
         style="fill:#1f394c;fill-opacity:1;fill-rule:nonzero;stroke:none"
         id="path8540" />
      <path
         d="m 2853.1,2574.23 c -43.63,0 -84.53,27.02 -100.17,70.41 -19.93,55.33 8.76,116.31 64.07,136.24 327.89,118.12 607.07,286.74 829.8,501.19 42.4,40.78 72.77,2.51 113.55,-39.84 40.77,-42.35 76.49,-72.76 34.14,-113.55 -244.46,-235.36 -549.06,-419.77 -905.32,-548.11 -11.91,-4.29 -24.1,-6.34 -36.07,-6.34"
         style="fill:#1f394c;fill-opacity:1;fill-rule:nonzero;stroke:none"
         id="path8542" />
      <path
         d="m 3529.01,675 c -38.21,0 -76.45,3.191 -114.47,9.652 -225.52,38.27 -404.72,153.188 -532.65,341.558 -385.1,567.12 -167.63,1616.91 -158.18,1661.31 11.28,53.09 63.51,86.88 116.56,75.69 53.08,-11.29 86.95,-63.47 75.68,-116.54 v 0 c -2.13,-10.07 -209.47,-1012.69 128.69,-1510.26 98.03,-144.238 229.77,-228.64 402.79,-258 136.38,-23.101 278.67,13.059 400.67,101.93 126.6,92.21 289.36,284.08 345.79,674.42 7.77,53.73 57.69,90.93 111.32,83.2 53.71,-7.77 90.96,-57.61 83.2,-111.32 C 4322.18,1168.55 4120.95,935.941 3963.82,821.48 3831.87,725.352 3680.8,675 3529.01,675"
         style="fill:#1f394c;fill-opacity:1;fill-rule:nonzero;stroke:none"
         id="path8544" />
      <path
         d="m 4336.19,1618.39 c -267.44,0 -485,217.56 -485,485 0,267.44 217.56,485 485,485 267.44,0 485,-217.56 485,-485 0,-267.44 -217.56,-485 -485,-485"
         style="fill:#1f394c;fill-opacity:1;fill-rule:nonzero;stroke:none"
         id="path8546" />
      <path
         d="m 4711.19,2103.39 c 0,-207.11 -167.89,-375 -375,-375 -207.11,0 -375,167.89 -375,375 0,207.11 167.89,375 375,375 207.11,0 375,-167.89 375,-375"
         style="fill:#d8ddde;fill-opacity:1;fill-rule:nonzero;stroke:none"
         id="path8548" />
      <path
         d="m 4541.19,2103.39 c 0,-113.22 -91.78,-205 -205,-205 -113.22,0 -205,91.78 -205,205 0,113.22 91.78,205 205,205 113.22,0 205,-91.78 205,-205"
         style="fill:#ffffff;fill-opacity:1;fill-rule:nonzero;stroke:none"
         id="path8550" />
      <path
         d="m 4336.19,2268.39 c -90.98,0 -165,-74.02 -165,-165 0,-90.98 74.02,-165 165,-165 90.98,0 165,74.02 165,165 0,90.98 -74.02,165 -165,165 z m 0,-410 c -135.1,0 -245,109.9 -245,245 0,135.1 109.9,245 245,245 135.1,0 245,-109.9 245,-245 0,-135.1 -109.9,-245 -245,-245"
         style="fill:#989fa0;fill-opacity:1;fill-rule:nonzero;stroke:none"
         id="path8552" />
      <path
         d="m 3619.3,4212.44 c -102.1,386.64 -537.96,503.28 -796.73,142.77 -258.78,360.51 -722.32,244.14 -823.39,-142.77 -126.89,-485.77 558.9,-883.54 795.68,-1000.93 18.5,-9.17 40.24,-8.86 58.46,0.86 236.75,126.24 888.97,534.3 765.98,1000.07"
         style="fill:#f20365;fill-opacity:1;fill-rule:nonzero;stroke:none"
         id="path8554" />
    </g>
  </g>
</svg>
