<?xml version="1.0" encoding="UTF-8" standalone="no"?>
<!-- Created with Inkscape (http://www.inkscape.org/) -->

<svg
   version="1.1"
   id="svg2"
   width="880"
   height="666.66669"
   viewBox="0 0 880 666.66669"
   sodipodi:docname="heart-check.svg"
   inkscape:version="1.2.1 (9c6d41e410, 2022-07-14)"
   xmlns:inkscape="http://www.inkscape.org/namespaces/inkscape"
   xmlns:sodipodi="http://sodipodi.sourceforge.net/DTD/sodipodi-0.dtd"
   xmlns="http://www.w3.org/2000/svg"
   xmlns:svg="http://www.w3.org/2000/svg">
  <defs
     id="defs6">
    <clipPath
       clipPathUnits="userSpaceOnUse"
       id="clipPath242">
      <path
         d="m 2289.32,3144.69 c -233.43,-119.19 -326.04,-405.05 -206.85,-638.48 119.2,-233.44 405.05,-326.04 638.48,-206.85 233.44,119.19 326.04,405.05 206.85,638.48 -119.19,233.43 -405.05,326.05 -638.48,206.85"
         id="path240" />
    </clipPath>
  </defs>
  <sodipodi:namedview
     id="namedview4"
     pagecolor="#ffffff"
     bordercolor="#000000"
     borderopacity="0.25"
     inkscape:showpageshadow="2"
     inkscape:pageopacity="0.0"
     inkscape:pagecheckerboard="0"
     inkscape:deskcolor="#d1d1d1"
     showgrid="false"
     inkscape:zoom="1.086"
     inkscape:cx="452.57828"
     inkscape:cy="335.17496"
     inkscape:window-width="1672"
     inkscape:window-height="932"
     inkscape:window-x="56"
     inkscape:window-y="50"
     inkscape:window-maximized="0"
     inkscape:current-layer="g10">
    <inkscape:page
       x="0"
       y="0"
       id="page8"
       width="880"
       height="666.66669" />
  </sodipodi:namedview>
  <g
     id="g10"
     inkscape:groupmode="layer"
     inkscape:label="Page 1"
     transform="matrix(1.3333333,0,0,-1.3333333,0,666.66667)">
    <g
       id="g12"
       transform="scale(0.1)">
      <path
         d="M 0,0 H 6600 V 5000 H 0 Z"
         style="fill:#ffffff;fill-opacity:1;fill-rule:nonzero;stroke:none"
         id="path14" />
      <path
         d="M 6095.76,1711.38 C 6144.52,1210.88 5923.61,299.711 4401.64,596.039 3336.75,803.391 2895.07,696.32 2537,589.25 2311.1,521.691 2118.47,454.141 1823.62,465.551 1174.4,490.648 779.734,1164.24 859.605,1824.58 c 79.875,660.35 421.555,1065.76 1289.075,1213.73 867.51,147.97 1515.86,1777.58 2487.18,1369.33 785.68,-330.24 530.39,-1247.44 589.46,-1552.47 59.06,-305.03 790.58,-323.82 870.44,-1143.79"
         style="fill:#e1f0fa;fill-opacity:1;fill-rule:nonzero;stroke:none"
         id="path16" />
      <path
         d="m 2780.51,4171.27 c 174.11,-348.09 -228.75,-838.75 -565.94,-1000.18 -337.19,-161.43 -717.73,-129.21 -888.8,160.87 -171.08,290.09 168.34,645.92 497.85,870.25 329.5,224.33 801.95,278.8 956.89,-30.94"
         style="fill:#e1f0fa;fill-opacity:1;fill-rule:nonzero;stroke:none"
         id="path18" />
      <path
         d="m 4183.81,4740.34 -1.48,16.55 c 29.59,2.63 59.67,3.47 89.45,2.47 l -0.55,-16.59 c -29.1,0.94 -58.5,0.15 -87.42,-2.43 z m 259.99,-24.32 c -28.05,7.87 -56.8,14.12 -85.48,18.58 l 2.55,16.41 c 29.33,-4.56 58.74,-10.95 87.42,-19.02 z m -430.65,-12.39 -5.47,15.66 c 28.05,9.79 57.04,17.93 86.17,24.19 l 3.49,-16.23 c -28.46,-6.12 -56.79,-14.07 -84.19,-23.62 z m 523.86,-20.86 c -3.52,1.54 -7.05,3.04 -10.6,4.53 l 6.4,15.31 c 3.61,-1.5 7.22,-3.05 10.81,-4.6 z m -680.26,-56.64 -9.16,13.85 c 24.9,16.45 51.01,31.46 77.59,44.62 l 7.36,-14.88 c -25.97,-12.85 -51.47,-27.52 -75.79,-43.59 z m -132.88,-113.23 -12.24,11.21 c 20.07,21.89 41.74,42.78 64.43,62.11 l 10.76,-12.63 c -22.17,-18.89 -43.35,-39.31 -62.95,-60.69 z m -101.05,-142.27 -14.62,7.87 c 14.11,26.22 29.99,51.79 47.19,76.01 l 13.53,-9.61 c -16.81,-23.66 -32.32,-48.65 -46.1,-74.27 z m -63.23,-162.7 -16.09,4.08 c 7.32,28.86 16.49,57.53 27.25,85.22 l 15.47,-6.01 c -10.51,-27.07 -19.47,-55.09 -26.63,-83.29 z m -22.23,-173.2 -16.61,0.13 c 0.22,29.74 2.24,59.78 6.02,89.26 l 16.47,-2.11 c -3.7,-28.83 -5.68,-58.19 -5.88,-87.28 z m 1451.06,-106 -16.5,1.88 c 3.08,27.09 4.63,54.67 4.63,81.98 l -0.01,5.35 16.6,0.14 0.02,-5.49 c 0,-27.93 -1.6,-56.14 -4.74,-83.86 z m -1447.5,-71.37 c -6.87,28.94 -12.07,58.6 -15.42,88.14 l 16.49,1.87 c 3.29,-28.88 8.36,-57.87 15.09,-86.16 z m 1406.06,-102.39 -15.55,5.78 c 10.11,27.24 18.66,55.39 25.4,83.68 l 16.14,-3.84 c -6.89,-28.95 -15.63,-57.76 -25.99,-85.62 z m -1344.12,-65.14 c -13.6,26.5 -25.72,54.06 -36.01,81.91 l 15.56,5.76 c 10.07,-27.24 21.92,-54.18 35.21,-80.09 z m 1261.81,-93.37 -13.67,9.41 c 16.46,23.92 31.6,49.14 44.99,74.95 l 14.74,-7.64 c -13.71,-26.42 -29.2,-52.23 -46.06,-76.72 z m -1162,-54.77 c -10,11.62 -19.79,23.72 -29.1,35.98 -8.72,11.46 -17.19,23.29 -25.18,35.14 l 13.76,9.28 c 7.82,-11.59 16.1,-23.16 24.63,-34.38 9.11,-11.99 18.69,-23.82 28.48,-35.2 z m 1043.33,-78.72 -10.94,12.48 c 21.88,19.2 42.75,39.93 62.03,61.61 l 12.4,-11.03 c -19.73,-22.19 -41.09,-43.4 -63.49,-63.06 z m -911.57,-41.84 c -24.18,17.31 -47.56,36.26 -69.5,56.34 l 11.21,12.25 c 21.45,-19.64 44.31,-38.18 67.95,-55.09 z m 763.93,-58.75 -7.59,14.77 c 25.77,13.24 51.04,28.29 75.14,44.72 l 9.35,-13.72 c -24.66,-16.81 -50.53,-32.21 -76.9,-45.77 z m -607.25,-26.96 c -27.61,11.03 -54.83,23.86 -80.93,38.12 l 7.97,14.58 c 25.51,-13.97 52.13,-26.51 79.11,-37.29 z m 439.48,-34.42 -3.73,16.17 c 28.31,6.52 56.52,14.89 83.82,24.88 l 5.7,-15.59 c -27.95,-10.22 -56.81,-18.78 -85.79,-25.46 z m -266.88,-11.47 c -29.39,4.12 -58.89,10.09 -87.68,17.75 l 4.26,16.03 c 28.15,-7.47 56.99,-13.31 85.73,-17.33 z m 102.75,-7.18 c -4.52,0 -9.04,0.04 -13.56,0.13 l 0.32,16.6 c 29.12,-0.58 58.53,0.71 87.38,3.71 l 1.72,-16.5 c -25.06,-2.61 -50.57,-3.94 -75.86,-3.94"
         style="fill:#7fb8db;fill-opacity:1;fill-rule:nonzero;stroke:none"
         id="path20" />
      <path
         d="m 5013.88,1067.96 -141.83,-39.11 -39.11,141.82 -144.61,-39.88 39.11,-141.829 -141.82,-39.121 39.89,-144.602 141.82,39.121 39.12,-141.828 144.6,39.879 -39.11,141.832 141.82,39.117 -39.88,144.601"
         style="fill:#ffffff;fill-opacity:1;fill-rule:nonzero;stroke:none"
         id="path22" />
      <path
         d="m 1899.76,4601.57 c -145.3,0 -263.52,-118.22 -263.52,-263.52 0,-145.3 118.22,-263.52 263.52,-263.52 145.31,0 263.52,118.22 263.52,263.52 0,145.3 -118.21,263.52 -263.52,263.52 z m 0,-549.95 c -157.94,0 -286.43,128.49 -286.43,286.43 0,157.93 128.49,286.43 286.43,286.43 157.94,0 286.43,-128.5 286.43,-286.43 0,-157.94 -128.49,-286.43 -286.43,-286.43"
         style="fill:#b5d6ea;fill-opacity:1;fill-rule:nonzero;stroke:none"
         id="path24" />
      <path
         d="m 1737.09,4454.77 c -40.09,-53.06 -36.09,-128.83 12.27,-177.2 48.37,-48.37 124.14,-52.36 177.21,-12.27 l -189.48,189.47"
         style="fill:#b5d6ea;fill-opacity:1;fill-rule:nonzero;stroke:none"
         id="path26" />
      <path
         d="m 1763.69,4481.38 189.49,-189.48 c 40.08,53.07 36.09,128.84 -12.27,177.21 -48.37,48.36 -124.15,52.35 -177.22,12.27"
         style="fill:#b5d6ea;fill-opacity:1;fill-rule:nonzero;stroke:none"
         id="path28" />
      <path
         d="m 1909.73,4232.52 c 11.58,-40.91 51.74,-68.11 95.05,-62.12 43.32,5.99 74.59,43.08 74.63,85.58 l -169.68,-23.46"
         style="fill:#b5d6ea;fill-opacity:1;fill-rule:nonzero;stroke:none"
         id="path30" />
      <path
         d="m 2076.21,4279.86 -121.45,-16.75 0.38,0.18 12.99,17.33 c 14.12,18.82 23.35,39.91 27.68,61.94 37.47,-1.13 70.04,-26.54 80.4,-62.7"
         style="fill:#b5d6ea;fill-opacity:1;fill-rule:nonzero;stroke:none"
         id="path32" />
      <path
         d="m 4637.84,2190.73 131.24,-216.54 -127.19,-77.1 c -59.85,-36.27 -137.76,-17.17 -173.93,42.51 -18.19,30.02 -22.55,64.36 -14.67,95.85 7.59,31.56 27.34,60 57.35,78.19 l 127.2,77.09"
         style="fill:#ffffff;fill-opacity:1;fill-rule:nonzero;stroke:none"
         id="path34" />
      <path
         d="m 4991.42,2256.87 c 18.71,-30.87 23.22,-66.41 15.07,-99 -7.96,-32.47 -28.29,-62.07 -59.34,-80.89 l -150.58,-91.27 -135.79,224.06 150.57,91.26 c 61.93,37.53 142.54,17.76 180.07,-44.16"
         style="fill:#ffffff;fill-opacity:1;fill-rule:nonzero;stroke:none"
         id="path36" />
      <path
         d="m 2224.96,3573.68 c 4.39,-5.98 3.1,-14.4 -2.89,-18.8 -5.98,-4.38 -14.4,-3.08 -18.79,2.9 -4.39,5.99 -3.1,14.4 2.89,18.79 5.99,4.4 14.4,3.1 18.79,-2.89 z m 54.23,84.37 c 8.21,-11.2 5.79,-26.94 -5.41,-35.15 -11.2,-8.21 -26.94,-5.79 -35.15,5.41 -8.21,11.2 -5.79,26.93 5.41,35.15 11.2,8.21 26.94,5.79 35.15,-5.41 z m 41.32,-104.77 c -9.02,-6.61 -21.69,-4.66 -28.31,4.36 -6.61,9.02 -4.66,21.69 4.36,28.3 9.02,6.62 21.69,4.67 28.3,-4.36 6.61,-9.01 4.66,-21.69 -4.35,-28.3 z m -181.95,-80.19 c 8.94,6.15 13.46,16.21 12.97,26.22 -0.32,6.48 2.58,12.7 7.82,16.54 l 17.02,12.48 c 17.08,-20.25 39.91,-33.25 64.33,-38.28 l -3.59,-23.29 c -0.72,-4.72 -3.73,-8.8 -8.08,-10.77 -6.65,-3 -11.69,-9.18 -12.88,-16.93 -1.92,-12.48 6.89,-24.14 19.55,-25.58 11.49,-1.32 22.37,6.73 24.47,18.1 1.47,7.94 -1.44,15.6 -6.96,20.61 -3.57,3.24 -5.32,8.02 -4.58,12.8 l 3.58,23.28 c 24.8,-2.54 50.48,2.99 72.86,17.18 l 7.85,-10.7 c 3.8,-5.19 4.82,-11.94 2.55,-17.94 -3.46,-9.18 -2.38,-19.87 3.86,-28.36 10.04,-13.7 29.51,-16.41 42.94,-5.74 12.19,9.67 14.88,27.69 6.06,40.51 -6.16,8.95 -16.21,13.46 -26.23,12.97 -6.48,-0.31 -12.7,2.59 -16.54,7.82 l -7.85,10.71 c 20.27,17.07 33.26,39.91 38.29,64.32 l 27,-4.16 c 4.72,-0.72 8.8,-3.74 10.77,-8.08 3,-6.64 9.19,-11.68 16.93,-12.88 12.48,-1.92 24.14,6.89 25.59,19.55 1.31,11.49 -6.74,22.37 -18.11,24.48 -7.94,1.46 -15.6,-1.45 -20.6,-6.96 -3.25,-3.58 -8.04,-5.33 -12.81,-4.59 l -26.99,4.16 c 2.53,24.79 -2.99,50.48 -17.17,72.86 l 17.02,12.48 c 5.18,3.8 11.93,4.81 17.94,2.55 9.18,-3.47 19.86,-2.38 28.36,3.85 13.7,10.05 16.41,29.52 5.74,42.94 -9.68,12.19 -27.7,14.89 -40.52,6.07 -8.94,-6.16 -13.46,-16.21 -12.97,-26.23 0.32,-6.49 -2.58,-12.71 -7.82,-16.54 l -17.02,-12.49 c -17.08,20.27 -39.91,33.26 -64.33,38.3 l 3.59,23.29 c 0.72,4.71 3.73,8.8 8.08,10.76 6.64,3.01 11.69,9.19 12.88,16.93 1.92,12.48 -6.89,24.13 -19.55,25.59 -11.49,1.32 -22.37,-6.74 -24.48,-18.12 -1.46,-7.93 1.45,-15.58 6.96,-20.59 3.58,-3.25 5.33,-8.04 4.59,-12.81 l -3.58,-23.29 c -24.8,2.55 -50.49,-2.98 -72.86,-17.16 l -7.85,10.7 c -3.8,5.17 -4.82,11.93 -2.55,17.94 3.46,9.18 2.38,19.85 -3.86,28.36 -10.04,13.7 -29.52,16.4 -42.94,5.74 -12.19,-9.68 -14.88,-27.7 -6.06,-40.52 6.16,-8.94 16.21,-13.46 26.23,-12.98 6.48,0.33 12.7,-2.57 16.54,-7.81 l 7.84,-10.7 c -20.26,-17.07 -33.25,-39.91 -38.28,-64.33 l -23.29,3.59 c -4.72,0.72 -8.8,3.74 -10.77,8.08 -3,6.65 -9.19,11.69 -16.93,12.88 -12.48,1.92 -24.14,-6.89 -25.59,-19.55 -1.31,-11.49 6.74,-22.37 18.11,-24.47 7.94,-1.48 15.6,1.43 20.6,6.96 3.25,3.58 8.04,5.31 12.81,4.58 l 23.28,-3.58 c -2.54,-24.8 2.98,-50.49 17.17,-72.86 l -17.02,-12.48 c -5.18,-3.8 -11.93,-4.83 -17.94,-2.55 -9.18,3.45 -19.86,2.37 -28.36,-3.87 -13.7,-10.04 -16.41,-29.51 -5.74,-42.94 9.68,-12.19 27.69,-14.87 40.52,-6.05"
         style="fill:#ffffff;fill-opacity:1;fill-rule:nonzero;stroke:none"
         id="path38" />
      <path
         d="m 2441.49,4508.57 c -29.61,3.73 -59.03,6.1 -87.44,7.07 l 0.55,16.58 c 28.92,-0.98 58.85,-3.39 88.96,-7.18 z m -261.75,-5.91 -3.19,16.29 c 28.47,5.58 58.32,9.53 88.71,11.71 l 1.19,-16.56 c -29.72,-2.13 -58.89,-5.98 -86.71,-11.44 z m 433.8,-29.48 c -28.67,8.07 -57.41,15.1 -85.41,20.91 l 3.37,16.25 c 28.38,-5.89 57.49,-13.02 86.53,-21.18 z m 166.15,-57.93 c -27.4,11.35 -55.07,21.93 -82.25,31.43 l 5.48,15.66 c 27.47,-9.59 55.43,-20.29 83.13,-31.76 z m 159.14,-75.6 c -26.15,13.99 -52.62,27.37 -78.66,39.76 l 7.13,14.98 c 26.28,-12.5 52.98,-25.99 79.36,-40.11 z m 151.64,-89.93 c -24.65,16.07 -49.84,31.74 -74.86,46.6 l 8.46,14.28 c 25.23,-14.97 50.62,-30.78 75.46,-46.97 z m 143.93,-101.99 c -23.45,17.99 -47.33,35.62 -70.98,52.39 l 9.59,13.53 c 23.83,-16.88 47.88,-34.63 71.49,-52.75 z m 136,-112.39 c -22.13,19.64 -44.68,38.96 -67,57.41 l 10.57,12.8 c 22.48,-18.59 45.17,-38.03 67.45,-57.78 z m 127.93,-121.58 c -20.68,21.01 -41.86,41.83 -62.94,61.87 l 11.43,12.04 c 21.22,-20.18 42.53,-41.14 63.33,-62.27 z m 119.58,-129.81 c -7.47,8.65 -15.01,17.27 -22.62,25.87 -11.95,13.5 -24,26.84 -36.12,40 l 12.21,11.25 c 12.2,-13.24 24.31,-26.66 36.34,-40.25 7.65,-8.64 15.24,-17.32 22.75,-26.02 z m 110.85,-137.31 c -17.61,23.36 -35.88,46.76 -54.29,69.57 l 12.91,10.43 c 18.54,-22.95 36.91,-46.5 54.63,-70 z m 101.34,-144.46 c -15.87,24.4 -32.51,48.99 -49.42,73.09 l 13.58,9.53 c 17.03,-24.25 33.77,-49.01 49.76,-73.56 z m 90.83,-151.23 c -14.08,25.52 -28.89,51.25 -44.02,76.44 l 14.22,8.56 c 15.24,-25.37 30.16,-51.28 44.34,-76.99 z m 78.96,-157.69 c -11.92,26.45 -24.68,53.24 -37.9,79.62 l 14.84,7.44 c 13.32,-26.58 26.17,-53.58 38.19,-80.24 z m 65.28,-163.72 c -9.45,27.32 -19.82,55.1 -30.79,82.59 l 15.42,6.15 c 11.07,-27.72 21.52,-55.75 31.06,-83.31 z m 29.5,-93.52 -2.75,9.59 15.94,4.62 2.78,-9.68 -15.97,-4.53"
         style="fill:#7fb8db;fill-opacity:1;fill-rule:nonzero;stroke:none"
         id="path40" />
      <path
         d="m 1735.31,4034.93 -16.34,2.95 c 2.04,11.25 4.32,22.48 6.8,33.39 l 16.19,-3.67 c -2.42,-10.67 -4.66,-21.67 -6.65,-32.67 z m -30.21,-174.9 c -0.06,4.97 -0.1,9.92 -0.1,14.84 0,25.18 0.92,50.2 2.75,74.37 l 16.55,-1.25 c -1.79,-23.76 -2.7,-48.36 -2.7,-73.11 0,-4.85 0.04,-9.72 0.11,-14.62 z m 16.1,-177.38 c -4.83,29.74 -8.63,59.48 -11.3,88.36 l 16.53,1.52 c 2.63,-28.5 6.38,-57.85 11.16,-87.23 z m 39.06,-173.6 c -8.23,28.87 -15.65,57.87 -22.05,86.21 l 16.19,3.66 c 6.33,-28.03 13.67,-56.74 21.83,-85.32 z m 57.29,-168.33 c -10.99,27.85 -21.32,55.93 -30.7,83.46 l 15.72,5.35 c 9.29,-27.27 19.53,-55.11 30.42,-82.71 z m 72.3,-162.33 c -13.23,26.67 -25.98,53.72 -37.87,80.4 l 15.16,6.76 c 11.8,-26.48 24.45,-53.32 37.58,-79.78 z m 85.13,-155.94 c -15.2,25.5 -30.02,51.47 -44.06,77.16 l 14.57,7.95 c 13.94,-25.51 28.65,-51.29 43.75,-76.61 z m 96.37,-149.23 c -16.91,24.26 -33.56,49.07 -49.52,73.75 l 13.95,9.01 c 15.84,-24.52 32.39,-49.16 49.18,-73.27 z m 106.44,-142.17 c -18.47,23.02 -36.77,46.64 -54.41,70.18 l 13.28,9.96 c 17.53,-23.41 35.72,-46.87 54.07,-69.74 z m 115.58,-134.79 c -10.26,11.21 -20.46,22.54 -30.61,34 -9.54,10.78 -18.96,21.61 -28.28,32.45 l 12.6,10.83 c 9.26,-10.8 18.63,-21.56 28.11,-32.28 10.08,-11.39 20.22,-22.66 30.42,-33.79 z m 124.14,-126.96 c -21.16,20.25 -42.39,41.26 -63.12,62.46 l 11.87,11.6 c 20.6,-21.07 41.7,-41.95 62.72,-62.07 l -11.47,-11.99"
         style="fill:#7fb8db;fill-opacity:1;fill-rule:nonzero;stroke:none"
         id="path42" />
      <path
         d="m 5054.3,4508.15 -168.14,-37.74 -37.74,168.14 -171.43,-38.49 37.74,-168.13 -168.13,-37.75 38.49,-171.43 168.13,37.75 37.74,-168.12 171.43,38.47 -37.74,168.13 168.13,37.75 -38.48,171.42"
         style="fill:#7fb8db;fill-opacity:1;fill-rule:nonzero;stroke:none"
         id="path44" />
      <path
         d="M 6059.92,2785.84 H 4209.15 V 3901.95 H 6059.92 V 2785.84"
         style="fill:#ffffff;fill-opacity:1;fill-rule:nonzero;stroke:none"
         id="path46" />
      <path
         d="M 4220.82,2797.52 H 6048.24 V 3890.27 H 4220.82 Z m 1850.77,-23.36 H 4197.47 V 3913.63 H 6071.59 V 2774.16"
         style="fill:#e1f0fa;fill-opacity:1;fill-rule:nonzero;stroke:none"
         id="path48" />
      <path
         d="m 4725.69,2921.46 -171.96,713.4 -40.99,-379.19 h -303.59 c -3.23,0 -5.84,2.62 -5.84,5.84 0,3.23 2.61,5.84 5.84,5.84 h 293.11 l 47.09,435.56 173.03,-717.9 80.32,602.42 86.35,-304.05 35.13,130.02 74.99,-146.05 h 215.34 l 84.32,525.05 206.09,-778.4 106.3,537 75.07,-270.23 50.14,139.69 66.73,-153.11 h 256.76 c 3.22,0 5.84,-2.61 5.84,-5.84 0,-3.22 -2.62,-5.84 -5.84,-5.84 h -264.41 l -58.03,133.15 -52.61,-146.56 -71.74,258.25 -106.57,-538.32 -204.93,774.02 -77.17,-480.54 h -232.42 l -64.46,125.54 -38.25,-141.56 -82.49,290.48 -81.15,-608.67"
         style="fill:#eb5654;fill-opacity:1;fill-rule:nonzero;stroke:none"
         id="path50" />
      <path
         d="m 2802.14,3148.52 c 0,0 -95.48,478.71 349.24,869.86 94.44,99.24 0,321.08 0,321.08 l 141.15,58.38 c 0,0 46.7,-210.16 128.43,-198.48 81.74,11.66 132.48,350.28 132.48,350.28 l 252.83,-40.87 c 0,0 -105.08,-391.15 -35.03,-402.82 70.06,-11.68 157.63,157.62 157.63,157.62 l 105.09,-52.55 c 0,0 -145.95,-297.73 -134.28,-432.01 11.67,-134.26 29.19,-881.53 29.19,-881.53 l -1126.73,251.04"
         style="fill:#f79885;fill-opacity:1;fill-rule:nonzero;stroke:none"
         id="path52" />
      <path
         d="m 3162.72,3339.22 c -196.8,-227.2 -198.22,92.56 -138.74,200.44 138.74,251.65 289.7,209.45 310.23,287.82 50.16,191.52 -82.65,314.28 -143.21,358.86 6.59,-60.44 0.84,-125.44 -39.62,-167.96 -444.72,-391.15 -349.24,-869.86 -349.24,-869.86 l 351.34,-78.29 9.24,268.99"
         style="fill:#f0786a;fill-opacity:1;fill-rule:nonzero;stroke:none"
         id="path54" />
      <path
         d="m 3000.63,3041.9 c 0,0 210.16,958.96 1229.87,1021.24 l -54.49,-358.07 c 0,0 -716.13,-93.41 -498.18,-1229.87 0,0 873.76,-95.7 879.6,-276.67 0,0 77.84,-1069.98 -227.87,-1242.491 C 3932.82,732.16 2616.73,995.051 2416.82,1759.06 l 583.81,1282.84"
         style="fill:#f0786a;fill-opacity:1;fill-rule:nonzero;stroke:none"
         id="path56" />
      <path
         d="m 2654.23,3295.45 c -323.03,-406.72 -579.9,-1247.39 -124.54,-1784.48 268.55,-87.58 1165.68,942.8 357.58,1828.25 l -233.04,-43.77"
         style="fill:#eb5654;fill-opacity:1;fill-rule:nonzero;stroke:none"
         id="path58" />
      <path
         d="m 4540.72,2239.71 c -121.41,154.27 -862.89,235.49 -862.89,235.49 -87.67,457.17 -24.15,745.46 83.07,926.87 -50.32,70.93 -81.45,114.68 -81.45,114.68 0,0 -480.33,-776.9 37.31,-1150.53 456.73,-329.68 796.28,-238.16 823.96,-126.51"
         style="fill:#eb5654;fill-opacity:1;fill-rule:nonzero;stroke:none"
         id="path60" />
      <path
         d="m 2899.16,1881.9 c -19.72,-51.17 -22.08,-107.71 -12.73,-162.3 9.14,-54.86 29.46,-107.83 53.27,-158.94 23.89,-51.22 52.06,-100.6 80.17,-150.18 14.14,-24.76 27.68,-49.95 40.21,-75.73 11.91,-25.92 23.4,-52.99 26.17,-81.64 -7.07,27.7 -20.35,52.83 -34.17,77.52 -13.56,24.87 -28.73,48.91 -43.31,73.35 -29.51,48.69 -59.33,97.53 -85.14,148.89 -25.86,51.22 -47.5,105.46 -58.43,162.95 -11.11,57.21 -8.74,118.55 12.13,174.36 l 21.83,-8.28"
         style="fill:#eb5654;fill-opacity:1;fill-rule:nonzero;stroke:none"
         id="path62" />
      <path
         d="m 2910.62,1617.13 c -3.57,-16.52 -8.03,-32.21 -13.07,-47.96 -5.08,-15.68 -10.83,-31.12 -17.3,-46.23 -6.63,-15.06 -14.04,-29.76 -22.42,-43.86 -8.64,-13.96 -18.32,-27.23 -29.42,-39.16 10,12.88 18.34,26.82 25.58,41.26 6.98,14.59 12.93,29.61 18.08,44.88 4.99,15.34 9.25,30.89 12.81,46.58 3.51,15.63 6.51,31.66 8.43,47.2 l 0.03,0.22 c 0.59,4.8 4.97,8.22 9.78,7.63 4.8,-0.6 8.22,-4.98 7.63,-9.78 l -0.13,-0.78"
         style="fill:#eb5654;fill-opacity:1;fill-rule:nonzero;stroke:none"
         id="path64" />
      <path
         d="m 2975.45,1478.25 c -7.07,-9.33 -13.71,-20.49 -19.25,-31.63 -5.65,-11.23 -10.28,-23.02 -14.01,-35.11 -3.82,-12.08 -6.49,-24.57 -7.92,-37.25 -1.78,-12.69 -1.48,-25.55 -0.78,-38.45 -2.15,12.69 -3.93,25.65 -3.59,38.71 -0.02,13.06 1.27,26.17 3.79,39.08 2.43,12.93 5.86,25.75 10.43,38.19 4.62,12.55 9.83,24.42 17.02,36.57 2.47,4.18 7.86,5.56 12.03,3.09 4.18,-2.47 5.56,-7.86 3.09,-12.03 l -0.55,-0.83 -0.26,-0.34"
         style="fill:#eb5654;fill-opacity:1;fill-rule:nonzero;stroke:none"
         id="path66" />
      <path
         d="m 3036.39,1379.79 c 16.21,-5 31.51,-11.12 46.69,-17.97 15.11,-6.89 29.79,-14.66 43.93,-23.3 14.05,-8.82 27.42,-18.68 39.84,-29.59 12.21,-11.18 23.14,-23.66 32.27,-37.34 -9.93,13.13 -21.48,24.82 -34.16,35.12 -12.9,10.03 -26.59,18.92 -40.88,26.76 -14.39,7.66 -29.22,14.41 -44.4,20.28 -15.12,5.79 -30.76,10.96 -46.21,14.74 l -0.19,0.04 c -3.13,0.77 -5.06,3.93 -4.29,7.06 0.77,3.14 3.93,5.05 7.06,4.29 l 0.34,-0.09"
         style="fill:#eb5654;fill-opacity:1;fill-rule:nonzero;stroke:none"
         id="path68" />
      <path
         d="m 2888.37,1693.26 c 14.03,-26.39 33.15,-50.03 55.53,-70.53 22.34,-20.6 47.64,-38.21 73.31,-55.38 25.65,-17.21 51.93,-34.07 75.66,-54.32 23.68,-20.1 44.53,-44.44 56.62,-73.11 -13.45,28.08 -35.13,51.01 -59.39,69.72 -24.32,18.86 -51.08,34.29 -77.59,50.32 -26.52,16 -53.07,32.62 -77.27,52.9 -24.22,20.16 -45.79,44.25 -62.18,71.9 -2.47,4.16 -1.09,9.53 3.07,12 4.16,2.46 9.54,1.09 12,-3.07 l 0.19,-0.33 0.05,-0.1"
         style="fill:#eb5654;fill-opacity:1;fill-rule:nonzero;stroke:none"
         id="path70" />
      <path
         d="m 3072.83,2515.92 c 28.55,33.42 55.8,69.19 81.89,105.18 26,36.19 50.38,73.58 71.95,112.45 21.34,38.94 40.27,79.4 52.01,122 5.68,21.29 9.26,43.24 8.4,65.25 -0.96,21.85 -6.55,44.15 -19.85,62.58 15.12,-16.82 24.13,-39.13 26.96,-61.94 2.95,-22.87 1.48,-46.23 -2.96,-68.72 -4.36,-22.54 -10.81,-44.6 -18.52,-66.12 -7.84,-21.48 -17.15,-42.32 -26.94,-62.91 -19.85,-41.02 -42.59,-80.51 -67,-118.85 -24.39,-38.5 -50.6,-75.26 -79.1,-111.44 l -26.84,22.52"
         style="fill:#eb5654;fill-opacity:1;fill-rule:nonzero;stroke:none"
         id="path72" />
      <path
         d="m 3272.89,2827.37 c 8.64,7.06 17.15,12.14 26.67,16.49 9.45,4.11 19.39,7.38 29.74,8.54 20.68,2.85 42.04,-2.59 58.79,-13.74 4.02,-3.03 8.61,-5.33 12.07,-8.94 l 10.68,-10.39 c 3.63,-3.37 6.15,-7.7 9.26,-11.48 2.86,-3.98 6.18,-7.64 8.62,-11.86 4.74,-8.54 10.09,-16.7 14.26,-25.45 l 11.8,-26.53 -13.73,25.48 c -4.78,8.34 -10.67,16 -15.91,23.98 -2.7,3.94 -6.21,7.25 -9.25,10.89 -3.29,3.41 -6,7.41 -9.72,10.34 l -10.8,9.04 c -3.48,3.15 -7.9,4.89 -11.75,7.39 -16.1,8.98 -34.7,12.05 -52.17,8.3 -17.35,-3.37 -34.12,-13.22 -46.53,-24.78 l -0.5,-0.48 c -3.54,-3.3 -9.09,-3.11 -12.39,0.43 -3.31,3.54 -3.11,9.09 0.43,12.39 l 0.43,0.38"
         style="fill:#eb5654;fill-opacity:1;fill-rule:nonzero;stroke:none"
         id="path74" />
      <path
         d="m 3241.43,2752.38 c 11.77,3.66 26.47,1.32 36.32,-6.08 10.08,-7.15 16.25,-16.77 21.5,-26.16 10.1,-19.13 16.16,-39.11 21.95,-58.98 5.71,-19.89 10.64,-39.85 16.75,-59.41 3.08,-9.77 6.46,-19.45 11.07,-28.54 2.47,-4.4 4.94,-8.95 8.57,-12.5 3.45,-3.59 8.06,-6.47 13.33,-6.43 -5.25,-0.43 -10.26,2.17 -14.09,5.64 -4.02,3.42 -6.86,7.88 -9.72,12.23 -5.36,8.93 -9.48,18.51 -13.29,28.12 -7.56,19.29 -13.91,38.94 -20.95,58.19 -7.06,19.16 -14.54,38.37 -24.95,55.02 -5.25,8.14 -11.4,15.82 -18.65,20.06 -7.2,4.27 -14.8,4.92 -22.69,2.1 -4.55,-1.62 -9.57,0.77 -11.19,5.33 -1.62,4.56 0.76,9.57 5.32,11.19 l 0.31,0.11 0.41,0.11"
         style="fill:#eb5654;fill-opacity:1;fill-rule:nonzero;stroke:none"
         id="path76" />
      <path
         d="m 4445.19,3672.92 c -51.03,51.04 -115.93,68.64 -148.52,36.04 -2.92,-2.92 -5.35,-6.23 -7.55,-9.69 -35.56,-43.64 -193.12,-213.53 -377.77,-54.52 -94.52,81.39 -213.82,-45.9 -288.37,-256.08 15.73,-180.99 175.89,-541.76 686.43,-214.43 -4.24,8.92 -8.35,17.72 -12.74,26.81 0,0 35.02,151.79 175.13,315.26 32.61,32.6 24.43,105.57 -26.61,156.61"
         style="fill:#f79885;fill-opacity:1;fill-rule:nonzero;stroke:none"
         id="path78" />
      <path
         d="m 4436.7,3664.52 c 43.74,-43.73 50.74,-106.27 22.81,-134.21 -27.94,-27.94 -80.24,-10.69 -123.97,33.05 -43.74,43.73 -54.06,104.11 -26.12,132.05 27.94,27.94 83.55,12.85 127.28,-30.89"
         style="fill:#f0786a;fill-opacity:1;fill-rule:nonzero;stroke:none"
         id="path80" />
      <path
         d="m 4309.41,3174.24 c -510.54,-327.33 -670.7,33.44 -686.43,214.43 -91.2,-257.12 -115.39,-638.3 54.85,-913.47 84,-135.77 733.65,-317.54 844.57,-154.08 22.97,57.42 41.51,316.84 -212.99,853.12"
         style="fill:#f0786a;fill-opacity:1;fill-rule:nonzero;stroke:none"
         id="path82" />
      <path
         d="m 2564.72,3339.22 c -323.03,-406.71 -579.91,-1247.38 -124.54,-1784.48 268.55,-87.57 1167.6,928.24 451.47,1730 l -326.93,54.48"
         style="fill:#f0786a;fill-opacity:1;fill-rule:nonzero;stroke:none"
         id="path84" />
      <path
         d="m 3293.95,4037.31 c -41.68,90.36 -98.98,148.44 -145.43,127.02 -186.81,-31.14 -334.71,-186.82 -334.71,-186.82 -70.06,124.54 -202.38,264.66 -202.38,264.66 l -194.61,-186.82 c 350.29,-326.93 147.9,-716.13 147.9,-716.13 202.39,-93.41 326.93,-54.48 326.93,-54.48 -49.1,392.79 299.93,526.42 369.47,549.01 4.05,0.77 8.06,1.86 11.95,3.64 46.44,21.43 62.57,109.56 20.88,199.92"
         style="fill:#f79885;fill-opacity:1;fill-rule:nonzero;stroke:none"
         id="path86" />
      <path
         d="m 3281.65,4031.91 c 35.64,-77.25 21.86,-152.6 -17.85,-170.92 -39.71,-18.32 -90.31,27.33 -125.95,104.59 -35.64,77.25 -20.25,156.62 19.46,174.94 39.71,18.32 88.7,-31.35 124.34,-108.61"
         style="fill:#f0786a;fill-opacity:1;fill-rule:nonzero;stroke:none"
         id="path88" />
      <path
         d="m 4567.21,2057.68 c -12.81,-2.56 -23.62,-3.91 -35.3,-5.2 -11.46,-1.18 -22.88,-2.15 -34.29,-2.7 -22.82,-1.24 -45.57,-1.4 -68.25,-0.67 -45.34,1.54 -90.4,6.36 -134.82,14.2 -88.96,15.19 -175.43,42.11 -257.67,77.86 -41.22,17.64 -81.04,39 -120.23,57.87 -39.57,18.87 -79.83,36.34 -121.07,50.15 -41.11,13.53 -83.74,24.44 -125.62,23.93 -20.81,-0.27 -41.23,-4.29 -58.42,-13.71 -17.23,-9.47 -30.15,-24.8 -39.46,-43.59 -19.07,-38.91 -35.36,-79.96 -47.58,-121.76 -12.1,-41.9 -20.83,-84.7 -25.43,-127.93 -9.19,-86.53 -3.49,-173.82 10.53,-260.39 7.02,-43.32 16.16,-86.46 25.2,-129.85 9.11,-43.37 17.68,-87.2 22.21,-131.83 4.5,-44.46 5.16,-90.17 -4.64,-134.22 -9.48,-44.01 -29.21,-85.37 -56.36,-120.37 23.79,37.36 40.67,78.88 46.78,122.15 6.53,43.18 4.28,87.13 -2.45,130.32 -14.13,86.42 -39.98,171.34 -56.8,259.15 -17.63,87.45 -24.64,178.9 -11.6,268.37 12.04,89.66 41.51,175.4 80.19,256.48 10.01,20.86 26.15,41.57 47.88,53.76 21.57,12.28 45.94,17.08 69.23,17.8 46.95,1.22 91.58,-9.82 134.53,-23.12 42.98,-13.64 84.39,-30.86 125.02,-49.45 20.27,-9.13 40.5,-19.44 60.15,-28.59 9.86,-4.76 19.81,-9.29 29.87,-13.58 9.98,-4.46 20.03,-8.76 30.2,-12.76 80.95,-32.87 165.42,-56.95 251.45,-69.41 43.01,-6.12 86.37,-9.25 129.56,-9.26 21.59,0.03 43.14,0.92 64.49,2.8 10.69,0.89 21.29,2.15 31.81,3.58 10.28,1.46 21.4,3.34 30.23,5.43 l 0.73,0.17 c 12.56,2.96 25.14,-4.81 28.1,-17.37 2.96,-12.56 -4.82,-25.14 -17.37,-28.1 l -0.8,-0.16"
         style="fill:#eb5654;fill-opacity:1;fill-rule:nonzero;stroke:none"
         id="path90" />
      <path
         d="m 4570.91,1976.03 c -23.49,-4.08 -45.19,-6.13 -67.8,-7.65 -22.39,-1.4 -44.81,-1.94 -67.23,-1.49 -44.81,0.94 -89.67,5.5 -133.75,14.87 -44.06,9.27 -87.5,23.08 -128.27,43.21 -10.27,4.83 -20.18,10.46 -30.07,16.05 l -14.57,8.88 -13.71,8.64 c -18.19,11.36 -36.65,22.28 -55.44,32.5 -37.63,20.21 -76.49,38.15 -116.76,50.74 -40.15,12.5 -81.97,19.94 -122.79,16.68 -20.35,-1.64 -40.34,-6.02 -59.06,-13.6 -18.69,-7.61 -36.05,-18.39 -51.48,-31.68 -31.02,-26.48 -54.02,-62.92 -70.45,-101.44 -16.43,-38.52 -24.46,-80.23 -22.74,-121.98 1.54,-41.81 12.28,-83.23 27.93,-122.82 31.59,-79.53 80.76,-151.82 126.11,-226.3 22.9,-37.19 45.69,-74.72 65.89,-113.85 20.03,-39.17 37.82,-79.81 50.41,-122.28 12.77,-42.35 19.11,-86.85 17.7,-131 -1.36,-44.18 -11.46,-87.68 -27.94,-128.04 13,41.68 19.68,84.99 18.75,128.08 -0.66,43.17 -9.88,85.58 -23.31,126.31 -13.61,40.78 -32.26,79.8 -53.21,117.55 -20.84,37.84 -43.74,74.68 -67.28,111.29 -23.56,36.59 -47.47,73.18 -69.84,111.01 -22.39,37.77 -43.54,76.72 -60.23,118.08 -16.62,41.27 -28.54,85.41 -30.52,130.9 -2.2,45.42 6.37,91.46 23.91,133.23 17.64,41.38 41.21,81.41 76.16,112.55 17.31,15.49 37.23,28.4 58.77,37.64 21.57,9.21 44.58,14.66 67.62,16.95 46.28,4.53 92.06,-3.02 135.21,-15.54 43.27,-12.67 84.28,-30.76 123.82,-51.05 19.72,-10.25 39.02,-21.19 58.02,-32.58 l 14.12,-8.53 13.5,-7.9 c 9.19,-4.94 18.34,-9.94 27.9,-14.21 37.81,-17.82 78.37,-29.93 119.75,-37.84 41.44,-7.83 83.84,-11.09 126.21,-10.96 21.18,0.08 42.39,1.11 63.47,2.93 20.86,1.85 42.56,4.57 61.96,8.43 l 0.7,0.14 c 12.65,2.51 24.95,-5.7 27.46,-18.36 2.52,-12.64 -5.7,-24.94 -18.35,-27.46 l -0.57,-0.1"
         style="fill:#eb5654;fill-opacity:1;fill-rule:nonzero;stroke:none"
         id="path92" />
      <path
         d="m 3492.07,1836.52 c -9.4,-32 -23.98,-63.26 -46.29,-88.52 -22.1,-25.5 -50.46,-43.59 -78.83,-58.74 -28.42,-15.31 -57.48,-28.62 -83.17,-47.33 -25.82,-18.4 -47.5,-42.68 -62.69,-71.04 13.4,29.18 33.87,55.25 59.13,75.67 25.09,20.71 53.88,36.05 80.89,52.81 27.07,16.63 52.57,35.43 71.17,59.79 18.83,24.16 30.2,53.04 37.12,82.95 l 0.07,0.33 c 1.45,6.29 7.73,10.21 14.02,8.75 6.29,-1.44 10.2,-7.72 8.75,-14.01 l -0.17,-0.66"
         style="fill:#eb5654;fill-opacity:1;fill-rule:nonzero;stroke:none"
         id="path94" />
      <path
         d="m 3511.53,2050.39 c -18.1,-23.59 -43.19,-42.83 -71.43,-52.01 -28.13,-9.53 -57.17,-10.62 -85.1,-10.78 -27.99,-0.21 -55.78,0.94 -82.73,-4.5 -13.4,-2.75 -26.51,-7.3 -38.28,-14.48 -11.75,-7.17 -22,-16.86 -30.42,-28 7.62,11.68 17.26,22.23 28.81,30.44 11.56,8.22 24.84,13.91 38.51,17.71 27.5,7.57 56.03,8.35 83.64,10.5 27.6,2.04 55.09,5.25 79.4,15.5 24.41,9.97 44.19,27.62 58.64,49.25 3.58,5.37 10.84,6.82 16.2,3.24 5.37,-3.59 6.81,-10.84 3.23,-16.21 l -0.47,-0.66"
         style="fill:#eb5654;fill-opacity:1;fill-rule:nonzero;stroke:none"
         id="path96" />
      <path
         d="m 3836.72,1419.22 c 5.76,-23.37 5.94,-46.1 3.6,-68.9 -2.46,-22.68 -8.25,-44.8 -16.32,-65.93 -8.81,-20.83 -19.21,-40.92 -32.27,-59.23 -6.02,-9.48 -13.71,-17.77 -20.45,-26.67 -7.38,-8.42 -15.25,-16.4 -22.83,-24.58 7.19,8.56 14.64,16.88 21.57,25.6 6.29,9.2 13.49,17.76 19,27.44 12.03,18.71 21.28,39 28.88,59.69 6.86,20.98 11.41,42.65 12.7,64.49 1.3,21.63 -0.31,44.24 -6.24,64.07 l -0.18,0.59 c -1.03,3.45 0.92,7.07 4.37,8.1 3.43,1.03 7.06,-0.93 8.09,-4.37 l 0.08,-0.3"
         style="fill:#eb5654;fill-opacity:1;fill-rule:nonzero;stroke:none"
         id="path98" />
      <path
         d="m 3650.56,1740.13 c 20.57,-26.52 42.24,-51.96 66.62,-74.64 24.65,-22.32 50.96,-42.68 79.41,-59.75 28.38,-17.18 58.57,-31.24 89.6,-43.36 31.11,-11.99 63.26,-21.55 95.76,-30.36 l 98.59,-25.16 c 33.03,-8.71 66.12,-18.8 97.89,-33.04 15.96,-6.91 31.1,-15.87 45.75,-25.38 14.15,-10.33 27.83,-21.5 39.06,-34.96 22.97,-26.41 38.24,-58.5 45.66,-91.68 l -10.16,23.32 c -4.13,7.38 -7.74,15 -12.22,22.07 -9.18,14.02 -19.34,27.28 -31.44,38.54 -11.54,11.85 -25.39,21.02 -39.12,29.95 -14.36,8.11 -29.11,15.45 -44.67,21.27 -61.99,23.87 -129.3,34.4 -195.43,51.82 -66.2,16.64 -132.67,39.78 -191.31,77.49 -29.27,18.69 -56.86,40.17 -81.39,64.72 -24.15,24.92 -45.81,51.99 -64.65,80.81 -2.21,3.39 -1.26,7.93 2.13,10.13 3.21,2.1 7.46,1.36 9.78,-1.61 l 0.14,-0.18"
         style="fill:#eb5654;fill-opacity:1;fill-rule:nonzero;stroke:none"
         id="path100" />
      <path
         d="m 3992.65,1528.72 c 4.78,-0.33 11.5,-0.01 17.41,0.79 3.06,0.23 6.09,0.97 9.15,1.52 3.06,0.5 6.1,1.18 9.1,2.11 12.19,2.96 23.81,8.18 35.14,13.93 22.57,11.93 42.43,29.2 59.5,48.9 17.63,19.42 30.82,42.54 43.51,65.79 5.45,12.08 11.02,24.18 16.21,36.44 l 13.36,37.76 -10.61,-38.72 c -4.3,-12.68 -9.02,-25.27 -13.66,-37.91 -11.1,-24.45 -22.85,-49.09 -39.72,-70.68 -16.29,-21.82 -36,-41.8 -59.76,-56.71 -11.95,-7.23 -24.45,-13.94 -38,-18.33 -13.7,-4.57 -26.9,-7.93 -43.13,-8.2 -6.46,-0.11 -11.78,5.04 -11.89,11.5 -0.11,6.46 5.04,11.78 11.5,11.9 l 0.98,-0.03 0.91,-0.06"
         style="fill:#eb5654;fill-opacity:1;fill-rule:nonzero;stroke:none"
         id="path102" />
      <path
         d="m 4297.49,3183.55 c -38.81,-2.3 -79.05,-8.66 -116.77,-19.21 -37.34,-10.96 -74.88,-26.09 -99.95,-52.2 -6.26,-6.43 -11.46,-13.56 -15.29,-21.26 -4.15,-7.6 -6.44,-15.9 -7.79,-24.47 -2.74,-17.48 0.1,-35.47 6.91,-52.78 6.92,-17.3 17.48,-33.77 29.32,-49.49 11.85,-15.77 25.18,-30.82 39.01,-45.59 27.57,-29.62 57.06,-58.27 84.43,-89.24 13.74,-15.44 26.66,-31.75 38.96,-48.52 11.88,-17.12 23.1,-34.79 32.14,-53.73 18.17,-37.64 27.68,-80.28 23.52,-121.82 -3.4,-41.62 -18.49,-80.99 -38.67,-116.42 17.85,36.77 29.2,76.74 30.44,116.88 1.87,40.28 -9.84,79.67 -28.31,114.78 -9.34,17.62 -20.8,34.08 -32.89,50.04 -12.57,15.67 -25.69,30.91 -39.77,45.44 -27.76,29.41 -57.83,56.86 -86.92,86.17 -14.57,14.6 -28.9,29.74 -42.16,46.24 -13.2,16.47 -25.62,34.25 -34.59,54.71 -8.94,20.34 -13.43,44.07 -10.36,67.18 2.59,23.37 13.87,46.06 29.51,62.69 15.44,17.16 34.24,29.49 53.42,39.63 19.28,10.11 39.42,17.49 59.7,23.68 40.87,11.97 81.74,19.1 124.46,22.28 9.64,0.73 18.04,-6.51 18.77,-16.16 0.71,-9.65 -6.52,-18.04 -16.17,-18.77 l -0.17,-0.01 -0.78,-0.05"
         style="fill:#eb5654;fill-opacity:1;fill-rule:nonzero;stroke:none"
         id="path104" />
      <path
         d="m 4173.04,2863.5 c -14.33,-19.26 -25.28,-40.97 -31.63,-64.47 -6.5,-23.46 -8.52,-48.3 -9.51,-73.33 -1.11,-25.02 -1.18,-50.64 -6.46,-75.69 -5.01,-25 -17.13,-48.86 -35.93,-65.84 17.68,18.21 27.86,42.19 31.17,66.71 3.58,24.62 2.05,49.68 1.54,74.91 -0.6,25.23 -0.25,51.07 5.08,76.6 5.15,25.55 15.58,50.24 30,72.35 2.92,4.48 8.92,5.75 13.4,2.82 4.47,-2.91 5.74,-8.92 2.82,-13.39 l -0.32,-0.47 -0.16,-0.2"
         style="fill:#eb5654;fill-opacity:1;fill-rule:nonzero;stroke:none"
         id="path106" />
      <path
         d="m 4137.94,2810.51 c -14.34,-0.41 -29.63,-2.74 -44.15,-6.15 -14.62,-3.51 -28.91,-8.44 -42.52,-14.99 -13.57,-6.6 -26.06,-15.31 -37.18,-25.65 -11.21,-10.38 -19.59,-23.35 -26.64,-37.08 5.81,14.22 13.18,28.19 23.75,39.83 10.48,11.61 22.69,21.81 36.24,29.92 13.57,8.02 28.07,14.49 43.07,19.48 15.12,4.92 30.22,8.67 46.62,10.59 4.39,0.5 8.36,-2.63 8.87,-7.03 0.51,-4.38 -2.63,-8.35 -7.02,-8.85 l -0.68,-0.06 -0.36,-0.01"
         style="fill:#eb5654;fill-opacity:1;fill-rule:nonzero;stroke:none"
         id="path108" />
      <path
         d="m 4128.1,2915.96 c 22.52,-2.95 44.29,-7.15 66.13,-12.09 21.77,-4.94 43.34,-10.86 64.44,-18.16 21.1,-7.24 41.93,-15.53 61.42,-26.45 19.42,-10.82 38.1,-23.66 52.47,-40.66 -15.46,16 -34.68,27.38 -54.45,36.75 -19.83,9.45 -40.83,16.24 -61.99,21.98 -21.18,5.79 -42.72,10.21 -64.4,13.65 -21.62,3.41 -43.6,6.15 -65.14,7.54 l -0.18,0.01 c -4.83,0.31 -8.49,4.48 -8.18,9.3 0.31,4.84 4.47,8.5 9.31,8.19 l 0.57,-0.06"
         style="fill:#eb5654;fill-opacity:1;fill-rule:nonzero;stroke:none"
         id="path110" />
      <path
         d="m 4296.45,2703.09 c 11.13,-7.69 21.15,-15.94 30.94,-24.75 9.72,-8.82 18.91,-18.2 27.49,-28.07 8.68,-9.79 16.36,-20.43 23.42,-31.36 7.07,-10.98 12.73,-22.76 17.61,-34.74 -5.78,11.6 -12.24,22.8 -20.02,33.09 -7.77,10.25 -16.06,20.08 -25.28,29.03 -9.12,9.02 -18.76,17.48 -28.85,25.34 -10.06,7.79 -20.71,15.24 -31.4,21.5 l -0.19,0.11 c -2.78,1.63 -3.72,5.22 -2.09,8 1.64,2.78 5.22,3.72 8,2.09 l 0.37,-0.24"
         style="fill:#eb5654;fill-opacity:1;fill-rule:nonzero;stroke:none"
         id="path112" />
      <path
         d="m 4310.53,2648.48 c -3.76,-12.28 -8.64,-23.73 -14.58,-34.81 -6.01,-10.95 -13.28,-21.37 -22.64,-29.5 8.32,9.18 14.12,20.11 18.69,31.38 4.44,11.29 7.88,23.16 9.98,34.84 l 0.03,0.15 c 0.43,2.39 2.71,3.97 5.1,3.54 2.39,-0.43 3.97,-2.71 3.54,-5.1 l -0.12,-0.5"
         style="fill:#eb5654;fill-opacity:1;fill-rule:nonzero;stroke:none"
         id="path114" />
      <path
         d="m 2517.77,3280.18 c 4.61,-2.78 7.3,-4.68 10.62,-7.06 3.15,-2.29 6.18,-4.62 9.13,-7 5.88,-4.77 11.55,-9.67 16.92,-14.83 10.83,-10.22 20.75,-21.18 29.95,-32.66 18.32,-22.99 33.73,-48.03 46.05,-74.33 24.92,-52.63 37.29,-109.79 41.43,-166.41 0.97,-14.18 1.55,-28.37 1.49,-42.52 0.24,-14.09 -0.52,-28.86 -1.94,-43.12 -2.82,-28.74 -9.12,-56.89 -17.48,-84.05 -16.84,-54.41 -41.99,-104.67 -68.29,-153.13 -26.38,-48.5 -54.07,-95.59 -77.85,-144.17 -23.78,-48.43 -43.39,-99.02 -50.4,-151.98 -3.47,-26.41 -3.94,-53.23 -0.89,-79.81 2.99,-26.58 9.63,-52.84 19,-78.17 18.94,-50.71 48.16,-97.64 81.95,-140.77 -37,40.38 -69.83,85.58 -92.22,136.63 -22.3,50.86 -32.97,108.02 -27.38,164.28 5.07,56.34 23.53,110.26 45.86,161.01 22.49,50.87 49.22,99.11 73.61,147.78 24.44,48.59 46.95,97.78 60.95,148.75 6.99,25.46 11.76,51.28 13.77,77.16 0.96,13.03 1.39,25.7 0.8,39.02 -0.29,13.26 -1.19,26.45 -2.43,39.58 -5.1,52.49 -18.29,103.86 -41.08,150.13 -11.29,23.16 -25.2,44.88 -41.35,64.51 -8.11,9.79 -16.79,19.06 -26.04,27.5 -4.58,4.28 -9.36,8.25 -14.18,12.04 -2.41,1.89 -4.85,3.71 -7.27,5.4 -2.26,1.61 -5.26,3.52 -6.54,4.26 l -0.75,0.44 c -11.51,6.7 -15.41,21.47 -8.72,32.98 6.7,11.51 21.47,15.41 32.98,8.71 l 0.3,-0.17"
         style="fill:#eb5654;fill-opacity:1;fill-rule:nonzero;stroke:none"
         id="path116" />
      <path
         d="m 2558.26,2630.85 c 28.08,-26.98 50.95,-58.78 68.3,-92.74 17.52,-33.97 29.86,-69.75 41.3,-105.25 11.52,-35.48 22.11,-71.07 38.1,-104.35 15.76,-33.17 38.42,-63.88 69.65,-84.68 -32.4,18.85 -57.5,48.73 -75.56,81.6 -18.31,32.94 -31.18,68.38 -44.74,102.97 -13.47,34.63 -27.66,68.79 -46.24,100.05 -18.44,31.3 -41.42,59.35 -68.56,82.54 l -0.14,0.11 c -5.6,4.78 -6.26,13.2 -1.48,18.79 4.78,5.6 13.2,6.26 18.8,1.49 l 0.57,-0.53"
         style="fill:#eb5654;fill-opacity:1;fill-rule:nonzero;stroke:none"
         id="path118" />
      <path
         d="m 2613.27,2549.24 c 24.25,2.92 47.56,3.32 71.28,2.18 23.58,-1.31 47.11,-4.33 70,-10.2 22.87,-5.76 45.12,-14.44 65.19,-26.76 9.95,-6.28 19.3,-13.45 27.81,-21.46 8.37,-8.19 15.74,-17.25 22.15,-26.91 -7.16,9.13 -15.16,17.49 -23.98,24.86 -8.96,7.18 -18.59,13.42 -28.7,18.73 -20.35,10.37 -42.36,16.99 -64.76,20.79 -22.4,3.9 -45.24,4.99 -67.93,4.46 -22.57,-0.66 -45.67,-2.99 -67.16,-7.33 l -0.4,-0.08 c -5.96,-1.2 -11.76,2.65 -12.97,8.6 -1.21,5.97 2.65,11.77 8.61,12.98 l 0.86,0.14"
         style="fill:#eb5654;fill-opacity:1;fill-rule:nonzero;stroke:none"
         id="path120" />
      <path
         d="m 2598.3,2693.34 c -25.8,-13.5 -51.46,-28.63 -76.45,-44.28 -25.01,-15.75 -49.61,-32.22 -73.2,-50.06 -23.53,-17.87 -46.73,-36.38 -67.78,-57.2 -21.05,-20.74 -40.9,-43 -56.41,-68.5 13.75,26.49 32.22,50.31 52.07,72.68 19.84,22.47 41.99,42.73 64.57,62.42 22.64,19.66 46.37,37.99 70.61,55.65 24.35,17.61 48.93,34.48 74.87,50.37 5.69,3.49 13.12,1.7 16.6,-3.98 3.49,-5.68 1.7,-13.12 -3.98,-16.59 l -0.68,-0.39 -0.22,-0.12"
         style="fill:#eb5654;fill-opacity:1;fill-rule:nonzero;stroke:none"
         id="path122" />
      <path
         d="m 2457.43,2382.76 c -16.72,-15.08 -32.78,-31.78 -47.91,-48.92 -15.17,-17.19 -29.36,-35.28 -42.01,-54.4 -12.64,-19.07 -24.22,-39.09 -32.09,-60.65 -7.95,-21.41 -13.04,-44.34 -10.96,-67.54 -3.43,23.04 0.32,46.61 7.16,68.85 6.75,22.41 17.33,43.44 29.07,63.6 11.75,20.21 25.12,39.44 39.54,57.82 14.47,18.43 29.54,36.1 46.25,53.01 3.12,3.17 8.21,3.19 11.38,0.08 3.16,-3.13 3.19,-8.22 0.07,-11.39 l -0.32,-0.3 -0.18,-0.16"
         style="fill:#eb5654;fill-opacity:1;fill-rule:nonzero;stroke:none"
         id="path124" />
      <path
         d="m 2455.06,2273.24 c 8.06,-12.38 18.15,-24.48 28.9,-35.38 10.8,-10.99 22.71,-20.93 35.42,-29.75 12.64,-8.94 26.28,-16.53 40.65,-22.5 14.22,-6.44 29.44,-10.22 44.77,-13.5 -15.47,2.28 -31.07,5.11 -45.86,10.68 -14.93,5.12 -29.33,11.96 -42.84,20.26 -13.58,8.19 -26.48,17.62 -38.36,28.25 -11.94,10.69 -22.86,22.06 -32.78,35.35 -1.99,2.67 -1.44,6.46 1.23,8.45 2.67,1.99 6.45,1.44 8.45,-1.23 l 0.21,-0.31 0.21,-0.32"
         style="fill:#eb5654;fill-opacity:1;fill-rule:nonzero;stroke:none"
         id="path126" />
      <path
         d="m 2662.88,2961.64 c 26.55,-21.38 48.75,-44.08 70.15,-68.6 21.23,-24.37 40.59,-50.21 57.75,-77.37 8.98,-13.29 16.51,-27.53 24.47,-41.37 7.16,-14.35 14.83,-28.35 20.85,-43.18 13.34,-29 22.78,-59.53 31.3,-89.98 -11.31,29.6 -23.4,58.8 -39.15,86.1 -7.22,13.95 -16.04,27.01 -24.28,40.31 -9.04,12.81 -17.58,25.93 -27.5,38.03 -19.04,24.75 -40.02,47.93 -62.48,69.35 -22.22,21.3 -46.66,41.75 -71.08,57.94 l -0.72,0.48 c -8.08,5.35 -10.29,16.24 -4.94,24.33 5.36,8.07 16.25,10.28 24.32,4.92 l 1.31,-0.96"
         style="fill:#eb5654;fill-opacity:1;fill-rule:nonzero;stroke:none"
         id="path128" />
      <path
         d="m 2662.5,482.531 c 0,-48.48 -490,-87.769 -1094.45,-87.769 -604.441,0 -1094.441,39.289 -1094.441,87.769 0,48.469 490,87.758 1094.441,87.758 604.45,0 1094.45,-39.289 1094.45,-87.758"
         style="fill:#b5d6ea;fill-opacity:1;fill-rule:nonzero;stroke:none"
         id="path130" />
      <path
         d="m 5899.34,429.039 c 0,-19.848 -180.58,-35.937 -403.34,-35.937 -222.75,0 -403.33,16.089 -403.33,35.937 0,19.863 180.58,35.949 403.33,35.949 222.76,0 403.34,-16.086 403.34,-35.949"
         style="fill:#b5d6ea;fill-opacity:1;fill-rule:nonzero;stroke:none"
         id="path132" />
      <path
         d="m 4213.28,436.039 c 0,44.59 -331.69,80.762 -740.84,80.762 -409.15,0 -740.83,-36.172 -740.83,-80.762 0,-34.117 194.15,-63.269 468.49,-75.098 -22.09,-8.652 -35.04,-18.972 -35.04,-30.07 0,-30.473 96.63,-55.16 215.83,-55.16 119.2,0 215.82,24.687 215.82,55.16 0,9.07 -8.74,17.621 -23.94,25.168 361.67,5.352 640.51,39.113 640.51,80"
         style="fill:#b5d6ea;fill-opacity:1;fill-rule:nonzero;stroke:none"
         id="path134" />
      <path
         d="m 809.914,3430.87 c -36.035,-190.48 89.172,-374.11 279.646,-410.15 190.49,-36.03 374.11,89.16 410.15,279.65 36.03,190.48 -89.17,374.11 -279.65,410.15 -190.48,36.03 -374.111,-89.17 -410.146,-279.65"
         style="fill:#f0786a;fill-opacity:1;fill-rule:nonzero;stroke:none"
         id="path136" />
      <path
         d="m 1571.72,2875.66 -168.57,362.27 -193.24,-132.31 z"
         style="fill:#f0786a;fill-opacity:1;fill-rule:nonzero;stroke:none"
         id="path138" />
      <path
         d="m 1109.08,3171.64 23,44.96 -78.93,40.38 -23,-44.96 -17.8,9.1 -9.61,-18.79 17.79,-9.11 78.94,-40.37 17.8,-9.1 9.61,18.79 -17.8,9.1"
         style="fill:#ffffff;fill-opacity:1;fill-rule:nonzero;stroke:none"
         id="path140" />
      <path
         d="m 1236.55,3480.66 -30.42,15.56 -13.15,-25.72 30.42,-15.56 13.15,25.72"
         style="fill:#ffffff;fill-opacity:1;fill-rule:nonzero;stroke:none"
         id="path142" />
      <path
         d="m 1234.08,3492.93 -16.55,8.48 43.6,85.22 27.53,13.01 -54.58,-106.71"
         style="fill:#ffffff;fill-opacity:1;fill-rule:nonzero;stroke:none"
         id="path144" />
      <path
         d="m 1218.62,3387.11 4.12,8.05 -34.9,17.85 12.13,23.72 -8.05,4.11 -12.13,-23.71 -34.9,17.85 -4.12,-8.06 34.9,-17.84 -23.35,-45.63 -34.89,17.85 -4.12,-8.06 34.9,-17.85 -23.35,-45.63 -34.9,17.85 -4.11,-8.05 34.89,-17.85 -9.38,-18.34 8.05,-4.12 9.39,18.34 34.89,-17.85 4.12,8.05 -34.9,17.84 23.35,45.64 34.89,-17.85 4.12,8.05 -34.89,17.86 23.34,45.63 z m -17.74,-169.3 -10.3,-20.12 -27.29,13.95 -132.42,67.74 -27.3,13.97 10.3,20.13 27.29,-13.96 97.49,190.58 132.43,-67.74 -97.49,-190.58 27.29,-13.97"
         style="fill:#ffffff;fill-opacity:1;fill-rule:nonzero;stroke:none"
         id="path146" />
      <path
         d="m 2169.9,778.082 c 0,-123.34 -48.61,-256.16 -155.46,-256.16 H 652.063 V 482.531 H 2014.44 c 40.41,0 74.06,14.778 101.1,39.391 60.26,54.687 88.45,158.078 88.45,256.16 0,98.059 -28.19,201.457 -88.45,256.148 -27.04,24.6 -60.69,39.39 -101.1,39.39 H 652.063 v -39.39 H 2014.44 c 106.85,0 155.46,-132.808 155.46,-256.148"
         style="fill:#7fb8db;fill-opacity:1;fill-rule:nonzero;stroke:none"
         id="path148" />
      <path
         d="m 2115.54,521.922 c -27.04,-24.613 -60.69,-39.391 -101.1,-39.391 h 372.04 c 130.3,0 189.69,153.25 189.69,295.551 0,142.277 -59.39,295.538 -189.69,295.538 h -372.04 c 40.41,0 74.06,-14.79 101.1,-39.39 60.26,-54.691 88.45,-158.089 88.45,-256.148 0,-98.082 -28.19,-201.473 -88.45,-256.16"
         style="fill:#5aa5d1;fill-opacity:1;fill-rule:nonzero;stroke:none"
         id="path150" />
      <path
         d="m 708.41,521.98 h 1305.97 c 106.9,0 155.57,132.692 155.57,256.09 0,123.391 -48.67,256.08 -155.57,256.08 H 708.41 c 137.574,-85.728 137.574,-426.439 0,-512.17"
         style="fill:#ffffff;fill-opacity:1;fill-rule:nonzero;stroke:none"
         id="path152" />
      <path
         d="m 708.41,1034.15 c 21.656,-10.66 40.016,-27.91 54.871,-47.369 14.735,-19.679 26.223,-41.711 34.875,-64.66 17.496,-45.992 24.664,-95.191 25.102,-144.051 -0.41,-48.879 -7.578,-98.082 -25.067,-144.07 -8.664,-22.961 -20.14,-44.988 -34.882,-64.66 -14.868,-19.469 -33.231,-36.711 -54.899,-47.371 37.813,30.222 59.004,73.652 72.535,117.91 6.465,22.383 11.508,45.203 14.356,68.371 3.14,23.109 4.75,46.461 4.625,69.82 0.16,23.352 -1.5,46.7 -4.598,69.821 -2.859,23.16 -7.875,46 -14.348,68.359 -13.527,44.27 -34.742,87.71 -72.57,117.9"
         style="fill:#b5d6ea;fill-opacity:1;fill-rule:nonzero;stroke:none"
         id="path154" />
      <path
         d="m 943.547,707.879 c 0,95.769 67.763,140.391 99.523,140.391 h 272.6 c -31.76,0 -99.52,-44.622 -99.52,-140.391 H 943.547"
         style="fill:#eb5654;fill-opacity:1;fill-rule:nonzero;stroke:none"
         id="path156" />
      <path
         d="m 1372.22,1320.98 c -11.52,115.88 -106.06,211.06 -211.2,212.9 -39.96,0.7 -75.68,-12.31 -104,-34.99 -74.254,-25.52 -122.207,-103.77 -112.887,-197.42 11.523,-115.75 106.057,-211.06 211.067,-212.9 40.09,-0.69 75.85,12.33 104.2,35.03 74.31,25.55 122.14,103.77 112.82,197.38"
         style="fill:#b5d6ea;fill-opacity:1;fill-rule:nonzero;stroke:none"
         id="path158" />
      <path
         d="m 1243.88,1119.07 c -44.03,-12.41 -92.91,-4.24 -133.35,17.8 -40.56,22.22 -73.87,57.09 -95.55,97.94 -10.62,20.52 -18.988,42.38 -23.367,65.12 -4.371,22.64 -6.91,45.92 -4.144,68.95 2.285,22.98 8.191,45.65 18.081,66.43 9.96,20.73 23.87,39.53 40.98,54.52 -31.57,-32.92 -48.885,-77.11 -51.534,-121.56 -2.676,-44.52 7.334,-89.78 28.644,-128.87 20.21,-39.76 52.28,-73.18 90.58,-95.98 19.11,-11.56 40.42,-19.46 62.41,-23.62 5.45,-1.43 11.03,-1.98 16.63,-2.51 5.59,-0.61 11.2,-1.29 16.84,-1.21 11.28,-0.04 22.6,0.93 33.78,2.99"
         style="fill:#7fb8db;fill-opacity:1;fill-rule:nonzero;stroke:none"
         id="path160" />
      <path
         d="m 1155.2,1088.57 c -105.01,1.84 -199.544,97.15 -211.067,212.9 -11.524,115.75 64.417,208.05 169.427,206.23 105.14,-1.84 199.67,-97.03 211.19,-212.91 11.53,-115.74 -64.28,-208.05 -169.55,-206.22 z m 180.42,205.04 c -12.3,123.48 -113.12,225.21 -225.33,227.17 -112.079,1.96 -192.997,-96.62 -180.688,-220.1 12.175,-123.34 112.988,-225.06 225.208,-227.03 112.07,-1.97 192.99,96.62 180.81,219.96"
         style="fill:#7fb8db;fill-opacity:1;fill-rule:nonzero;stroke:none"
         id="path162" />
      <path
         d="m 1395.78,1324.24 c -12.27,123.49 -113.15,225.2 -225.29,227.16 -29.95,0.52 -57.66,-6.12 -81.97,-18.49 l -60.19,-30.63 c 24.31,12.37 52.02,19.01 81.97,18.49 112.14,-1.96 213.02,-103.67 225.29,-227.16 8.99,-90.41 -32.09,-167.48 -98.82,-201.44 l 60.19,30.63 c 66.72,33.96 107.81,111.03 98.82,201.44"
         style="fill:#b5d6ea;fill-opacity:1;fill-rule:nonzero;stroke:none"
         id="path164" />
      <path
         d="M 1096.79,1743.7 V 1073.62 H 710.512 v 670.08 h 386.278"
         style="fill:#ffb157;fill-opacity:1;fill-rule:nonzero;stroke:none"
         id="path166" />
      <path
         d="m 1079.97,1217.29 c -3.14,-18.39 -13.2,-35.77 -29.7,-47.55 l -80.168,-57.14 -1.414,2.05 -57.528,-41.03 H 788.707 c -11.234,15.95 -15.008,34.74 -11.941,52.42 2.906,17.92 12.726,34.58 28.683,45.98 l 11.16,7.93 c -3.222,2.36 -6.445,4.87 -9.351,7.78 -13.832,13.84 -20.828,31.92 -20.746,50.07 -0.16,18.16 6.758,36.16 20.59,50.06 l 42.519,42.6 c -14.226,2.28 -27.984,8.8 -38.906,19.73 -13.91,13.83 -20.902,31.91 -20.824,50.06 l 0.078,2.36 c -3.539,1.1 -7.153,2.36 -10.692,4.09 -17.605,8.49 -30.179,23.18 -36.074,40.31 -6.133,17.14 -5.578,36.47 2.906,54.15 l 43.153,89.76 -2.203,1.1 42.597,88.65 c 17.446,36.47 61.227,51.87 97.692,34.34 18.23,-8.72 31.199,-23.97 37.332,-41.73 6.207,-17.61 5.738,-37.65 -3.067,-55.96 l -11.316,-23.57 c 28.683,27.03 73.793,26.64 101.933,-1.34 14.31,-14.3 21.46,-32.93 21.46,-51.72 0,-18.7 -7.08,-37.49 -21.38,-51.86 l -39.3,-39.3 c 13.13,-2.91 25.62,-9.43 35.84,-19.57 14.23,-14.23 21.46,-32.93 21.38,-51.72 0.08,-18.7 -7,-37.49 -21.38,-51.78 l -25.54,-25.63 c 17.21,-3.77 33.09,-13.59 44.09,-29 11.71,-16.43 15.72,-36.08 12.57,-54.54"
         style="fill:#ed9d22;fill-opacity:1;fill-rule:nonzero;stroke:none"
         id="path168" />
      <path
         d="M 1103.91,1726.56 H 703.402 c -9.449,0 -17.105,7.66 -17.105,17.1 0,9.45 7.656,17.1 17.105,17.1 h 400.508 c 9.45,0 17.11,-7.65 17.11,-17.1 0,-9.44 -7.66,-17.1 -17.11,-17.1"
         style="fill:#ed9d22;fill-opacity:1;fill-rule:nonzero;stroke:none"
         id="path170" />
      <path
         d="M 1046.46,1226.65 H 721.457 v 384.94 h 325.003 v -384.94"
         style="fill:#ffffff;fill-opacity:1;fill-rule:nonzero;stroke:none"
         id="path172" />
      <path
         d="M 3149.86,659.871 V 449.648 h -151.39 c -58.11,0 -105.2,47.102 -105.2,105.032 0,29.14 11.69,55.402 30.83,74.359 18.97,19.141 45.23,30.832 74.37,30.832 h 151.39"
         style="fill:#e1f0fa;fill-opacity:1;fill-rule:nonzero;stroke:none"
         id="path174" />
      <path
         d="m 3401.45,554.68 c 0,-29.969 -12.09,-57.141 -31.9,-76.77 -19.63,-19.629 -46.79,-31.898 -76.94,-31.898 H 3146.43 V 663.52 h 146.18 c 60.12,0 108.84,-48.731 108.84,-108.84"
         style="fill:#eb5654;fill-opacity:1;fill-rule:nonzero;stroke:none"
         id="path176" />
      <path
         d="M 3784.99,620.352 V 410.129 h -151.38 c -58.11,0 -105.2,47.09 -105.2,105.031 0,29.129 11.68,55.391 30.83,74.36 18.97,19.14 45.23,30.832 74.37,30.832 h 151.38"
         style="fill:#e1f0fa;fill-opacity:1;fill-rule:nonzero;stroke:none"
         id="path178" />
      <path
         d="m 4036.59,515.152 c 0,-29.972 -12.1,-57.14 -31.9,-76.773 -19.63,-19.629 -46.8,-31.899 -76.94,-31.899 h -146.18 v 217.508 h 146.18 c 60.11,0 108.84,-48.726 108.84,-108.836"
         style="fill:#eb5654;fill-opacity:1;fill-rule:nonzero;stroke:none"
         id="path180" />
      <path
         d="M 3463.04,599.449 3585.09,428.27 3461.82,340.391 c -47.31,-33.731 -113,-22.719 -146.63,24.449 -16.92,23.719 -22.64,51.89 -18.07,78.449 4.34,26.602 18.93,51.359 42.66,68.27 l 123.26,87.89"
         style="fill:#e1f0fa;fill-opacity:1;fill-rule:nonzero;stroke:none"
         id="path182" />
      <path
         d="m 3728.98,659.84 c 17.39,-24.399 23.32,-53.539 18.59,-81.02 -4.59,-27.371 -19.59,-53.14 -44.14,-70.64 l -119.02,-84.86 -126.27,177.11 119.03,84.851 c 48.95,34.91 116.91,23.52 151.81,-25.441"
         style="fill:#eb5654;fill-opacity:1;fill-rule:nonzero;stroke:none"
         id="path184" />
      <path
         d="m 5236.73,1846.67 -158.19,250.09 c -3.51,5.53 -1.41,11.56 4.69,13.44 l 190.82,58.76 c 6.1,1.88 13.89,-1.09 17.4,-6.64 l 158.19,-250.08 c 3.51,-5.55 1.41,-11.57 -4.7,-13.44 l -190.82,-58.77 c -6.1,-1.88 -13.89,1.09 -17.39,6.64"
         style="fill:#008eb0;fill-opacity:1;fill-rule:nonzero;stroke:none"
         id="path186" />
      <path
         d="m 5252.45,1849.95 -159.85,252.71 183.12,56.38 159.85,-252.7 -183.12,-56.39"
         style="fill:#ffffff;fill-opacity:1;fill-rule:nonzero;stroke:none"
         id="path188" />
      <path
         d="m 5142.69,2111.05 -18.48,29.21 90.39,27.84 18.47,-29.2 -90.38,-27.85"
         style="fill:#7fb8db;fill-opacity:1;fill-rule:nonzero;stroke:none"
         id="path190" />
      <path
         d="m 5466.02,2402.76 c -2.28,0 -4.91,-1.62 -7.4,-4.6 -3.22,-3.84 -5.81,-9.41 -7.29,-15.67 -1.47,-6.26 -1.66,-12.39 -0.51,-17.28 1.03,-4.36 3.04,-7.2 5.52,-7.79 2.49,-0.56 5.56,1.05 8.43,4.48 3.22,3.86 5.81,9.43 7.29,15.69 2.07,8.73 1.54,17.39 -1.36,22.07 -1.02,1.65 -2.25,2.65 -3.65,2.99 z m -8.61,-49.33 -1.95,0.22 c -7.93,1.88 -11.4,14.93 -7.89,29.74 1.61,6.82 4.48,12.96 8.08,17.26 3.9,4.67 8.26,6.76 12.29,5.77 2.4,-0.57 4.5,-2.2 6.06,-4.73 3.45,-5.59 4.16,-15.17 1.83,-25 -1.61,-6.83 -4.49,-12.96 -8.08,-17.27 -3.29,-3.92 -6.89,-5.99 -10.34,-5.99"
         style="fill:#9c2622;fill-opacity:1;fill-rule:nonzero;stroke:none"
         id="path192" />
      <path
         d="m 5588.52,2203.54 c -3.58,16.82 -9.85,55.17 -9.85,55.17 5.79,70.3 43.58,149.12 31.36,172.33 -15.61,29.63 -104.73,41.49 -117.45,9.4 -12.71,-32.09 -58.58,-142.9 -46.72,-157.37 11.85,-14.48 50.14,-14.02 50.14,-14.02 l 3.36,-67.31 c 0,0 61.06,-63.2 89.16,1.8"
         style="fill:#f7afa1;fill-opacity:1;fill-rule:nonzero;stroke:none"
         id="path194" />
      <path
         d="m 5533.64,2395.89 c 0,0 -30.75,-112.41 45.03,-137.18 31.52,24.98 85.75,153.44 43.6,162.32 29.38,13.39 10.43,27.88 -11.19,18.98 -0.98,25.79 -13.64,13.84 -12.23,6.58 -127.9,82.19 -218.42,-11.95 -65.21,-50.7"
         style="fill:#22365b;fill-opacity:1;fill-rule:nonzero;stroke:none"
         id="path196" />
      <path
         d="m 5532.14,2374.24 -79.48,17.39 0.83,3.79 79.48,-17.39 -0.83,-3.79"
         style="fill:#9c2622;fill-opacity:1;fill-rule:nonzero;stroke:none"
         id="path198" />
      <path
         d="m 5521.68,2365.77 c 0,0 19.74,17.48 24.35,-0.2 4.61,-17.7 -29.29,-23.26 -29.29,-23.26 l 4.94,23.46"
         style="fill:#f7afa1;fill-opacity:1;fill-rule:nonzero;stroke:none"
         id="path200" />
      <path
         d="m 5738.86,507.82 13.3,-78.781 h -97.3 l 3.3,13.602 c 0,0 41.65,12.66 52.67,65.179 h 28.03"
         style="fill:#008eb0;fill-opacity:1;fill-rule:nonzero;stroke:none"
         id="path202" />
      <path
         d="m 5757.63,1649.96 c 0,0 98.3,-880.312 2.88,-1159.339 h -59.68 C 5669.08,638.73 5490.56,1444.29 5484.77,1660.44 l 272.86,-10.48"
         style="fill:#22365b;fill-opacity:1;fill-rule:nonzero;stroke:none"
         id="path204" />
      <path
         d="m 5404.7,507.809 4.16,-78.77 H 5286.8 l 3.29,13.602 c 0,0 62.38,8.129 86.59,65.168 h 28.02"
         style="fill:#008eb0;fill-opacity:1;fill-rule:nonzero;stroke:none"
         id="path206" />
      <path
         d="m 5618.39,1638.37 c 0,0 -35.33,-886.991 -193.54,-1147.749 h -69.71 c 1.08,139.301 -21.02,953.669 7.69,1169.819 l 255.56,-22.07"
         style="fill:#22365b;fill-opacity:1;fill-rule:nonzero;stroke:none"
         id="path208" />
      <path
         d="m 5725.8,2184.61 c 36.5,-39.12 157.77,-524.17 18.75,-524.17 -168.23,0 -18.75,524.17 -18.75,524.17"
         style="fill:#265173;fill-opacity:1;fill-rule:nonzero;stroke:none"
         id="path210" />
      <path
         d="m 5380.72,2169.52 c 123.84,54.07 240.22,46.44 345.08,15.09 51.29,-83.49 85.55,-1097.03 79.35,-1096.74 l -163.01,-12.34 -23.75,388.72 c -20.79,-127.38 -23.76,-388.72 -23.76,-388.72 l -277.19,12.34 c 0,0 -1.38,678.85 63.28,1081.65"
         style="fill:#008eb0;fill-opacity:1;fill-rule:nonzero;stroke:none"
         id="path212" />
      <path
         d="m 5416.47,2055.36 -50.54,8.18 c -17.25,-140.97 -28.39,-301.75 -35.55,-451.72 143.26,112.6 86.09,443.54 86.09,443.54"
         style="fill:#265173;fill-opacity:1;fill-rule:nonzero;stroke:none"
         id="path214" />
      <path
         d="m 5202.13,1954.34 c 0,0 -24.28,54.01 -33.28,50.15 -8.34,-3.57 3.71,-35.37 3.71,-35.37 l -31.34,28.54 c 0,0 -34.48,-73.28 53.15,-73.28 l 7.76,29.96"
         style="fill:#f79885;fill-opacity:1;fill-rule:nonzero;stroke:none"
         id="path216" />
      <path
         d="m 5380.72,2169.52 c -36.88,-28.55 -85.69,-252.65 -106.19,-284.13 l -67.38,76.96 c -28.87,-3.02 -42.73,-29.09 -46.43,-74.09 0,0 34.52,-195.37 132.51,-225.74 128.62,-39.85 156.63,507 87.49,507"
         style="fill:#008eb0;fill-opacity:1;fill-rule:nonzero;stroke:none"
         id="path218" />
      <path
         d="m 5274.53,1885.39 -15.89,-37.73 -4.99,61.58 z"
         style="fill:#265173;fill-opacity:1;fill-rule:nonzero;stroke:none"
         id="path220" />
      <path
         d="m 5496,2269.11 c 0,0 -43.19,-4.3 -54.35,13.06 -3.34,4.94 -3.02,18.25 4.71,27.03 6.32,-3.2 15.21,-4.23 16.17,5.16 0.88,8.82 -4.22,15.48 -13.56,18.18 2.74,6.95 4.95,12.23 7.72,13.07 0,0 11.38,-1.71 28.45,-16.2 -3.34,-46.8 10.86,-60.3 10.86,-60.3"
         style="fill:#22365b;fill-opacity:1;fill-rule:nonzero;stroke:none"
         id="path222" />
      <path
         d="m 1339.53,2325.02 c 25.71,90.7 142.37,203.42 259.83,256.69 46.85,-41.09 33.13,-133.47 -18,-171.68 -56.31,-42.1 -117.12,-94.87 -117.12,-94.87 0,0 80.58,-66.89 179,-136.14 l -24.21,-57.76 c 0,0 -309.15,99.17 -279.5,203.76"
         style="fill:#7fb8db;fill-opacity:1;fill-rule:nonzero;stroke:none"
         id="path224" />
      <path
         d="m 1614.28,2451.38 c -7.91,-16.37 -18.96,-30.92 -32.92,-41.35 -27.71,-20.71 -56.48,-43.99 -78.58,-62.32 17.71,98.49 69.63,166.23 69.63,166.23 l 41.87,-62.56"
         style="fill:#5aa5d1;fill-opacity:1;fill-rule:nonzero;stroke:none"
         id="path226" />
      <path
         d="m 1886.67,2460.62 44.05,-86.28 155.61,79.45 -44.06,86.28 -155.6,-79.45"
         style="fill:#5aa5d1;fill-opacity:1;fill-rule:nonzero;stroke:none"
         id="path228" />
      <path
         d="m 1899.37,2499.83 70.57,-138.2 -697.33,-356.06 c -46.94,34.11 -70.47,80.17 -70.57,138.2 l 697.33,356.06"
         style="fill:#265173;fill-opacity:1;fill-rule:nonzero;stroke:none"
         id="path230" />
      <path
         d="m 2269.65,3183.21 c -254.71,-130.06 -355.76,-441.97 -225.7,-696.68 130.06,-254.7 441.96,-355.75 696.68,-225.69 254.7,130.05 355.75,441.96 225.7,696.67 -130.06,254.71 -441.97,355.76 -696.68,225.7"
         style="fill:#265173;fill-opacity:1;fill-rule:nonzero;stroke:none"
         id="path232" />
      <path
         d="m 2289.32,3144.69 c -233.43,-119.19 -326.04,-405.05 -206.85,-638.48 119.2,-233.44 405.05,-326.04 638.48,-206.85 233.44,119.19 326.04,405.05 206.85,638.48 -119.19,233.43 -405.05,326.05 -638.48,206.85"
         style="fill:#e1f0fa;fill-opacity:1;fill-rule:nonzero;stroke:none"
         id="path234" />
      <g
         id="g236">
        <g
           id="g238"
           clip-path="url(#clipPath242)">
          <path
             d="M 2578.53,3373.09 C 2212.34,2912.03 1921.15,1959.05 2437.35,1350.2 c 304.42,-99.27 1321.41,1068.76 405.34,2072.51 l -264.16,-49.62"
             style="fill:#eb5654;fill-opacity:1;fill-rule:nonzero;stroke:none"
             id="path244" />
          <path
             d="m 2477.05,3422.71 c -366.19,-461.05 -657.38,-1414.04 -141.18,-2022.89 304.43,-99.27 1323.59,1052.25 511.79,1961.12 l -370.61,61.77"
             style="fill:#f0786a;fill-opacity:1;fill-rule:nonzero;stroke:none"
             id="path246" />
          <path
             d="m 2423.84,3355.77 c 5.21,-3.13 8.26,-5.3 12.03,-8.01 3.57,-2.58 7,-5.22 10.35,-7.92 6.66,-5.41 13.09,-10.96 19.18,-16.81 12.27,-11.59 23.52,-24.02 33.95,-37.01 20.76,-26.07 38.24,-54.46 52.2,-84.28 28.25,-59.66 42.27,-124.45 46.97,-188.63 1.09,-16.08 1.76,-32.16 1.69,-48.21 0.27,-15.96 -0.59,-32.71 -2.2,-48.88 -3.2,-32.58 -10.34,-64.49 -19.82,-95.27 -19.09,-61.68 -47.6,-118.66 -77.41,-173.6 -29.9,-54.97 -61.3,-108.35 -88.25,-163.42 -26.96,-54.9 -49.19,-112.25 -57.14,-172.29 -3.93,-29.94 -4.47,-60.34 -1,-90.47 3.38,-30.14 10.91,-59.91 21.53,-88.62 21.47,-57.49 54.59,-110.68 92.9,-159.58 -41.94,45.77 -79.16,97.02 -104.54,154.89 -25.28,57.65 -37.37,122.46 -31.03,186.24 5.74,63.85 26.66,124.99 51.98,182.51 25.5,57.67 55.79,112.35 83.44,167.53 27.71,55.06 53.23,110.83 69.1,168.62 7.92,28.86 13.33,58.12 15.61,87.47 1.08,14.76 1.56,29.13 0.9,44.23 -0.33,15.02 -1.35,29.99 -2.75,44.87 -5.78,59.49 -20.73,117.73 -46.56,170.18 -12.8,26.25 -28.58,50.89 -46.89,73.14 -9.19,11.09 -19.03,21.59 -29.51,31.16 -5.19,4.86 -10.62,9.36 -16.08,13.66 -2.73,2.13 -5.5,4.19 -8.24,6.11 -2.55,1.83 -5.97,3.99 -7.42,4.84 l -0.84,0.49 c -13.05,7.6 -17.48,24.34 -9.88,37.38 7.59,13.06 24.33,17.48 37.38,9.89 l 0.35,-0.21"
             style="fill:#eb5654;fill-opacity:1;fill-rule:nonzero;stroke:none"
             id="path248" />
          <path
             d="m 2469.73,2619.7 c 31.98,-30.38 58,-66.46 77.66,-105.01 19.86,-38.56 33.73,-79.16 46.62,-119.45 12.97,-40.24 24.85,-80.65 42.99,-118.4 17.86,-37.64 43.7,-72.35 79.12,-95.87 -36.74,21.31 -65.36,55.08 -85.82,92.39 -20.78,37.37 -35.23,77.62 -50.53,116.85 -15.19,39.3 -31.16,78.09 -52.22,113.56 -20.89,35.51 -47.02,67.31 -77.94,93.41 -6.39,5.37 -7.22,14.9 -1.85,21.29 5.36,6.38 14.89,7.21 21.29,1.84 l 0.68,-0.61"
             style="fill:#eb5654;fill-opacity:1;fill-rule:nonzero;stroke:none"
             id="path250" />
          <path
             d="m 2532.09,2527.19 c 27.49,3.31 53.92,3.76 80.8,2.46 26.73,-1.49 53.41,-4.89 79.35,-11.55 25.93,-6.54 51.16,-16.38 73.9,-30.34 11.28,-7.12 21.87,-15.25 31.53,-24.32 9.49,-9.28 17.84,-19.56 25.11,-30.5 -8.12,10.34 -17.19,19.82 -27.18,28.16 -10.17,8.16 -21.09,15.23 -32.54,21.24 -23.08,11.76 -48.02,19.26 -73.42,23.57 -25.39,4.41 -51.27,5.66 -77,5.06 -25.59,-0.76 -51.77,-3.39 -76.13,-8.31 l -0.45,-0.09 c -6.76,-1.37 -13.34,3 -14.71,9.75 -1.36,6.76 3.01,13.34 9.76,14.7 l 0.98,0.17"
             style="fill:#eb5654;fill-opacity:1;fill-rule:nonzero;stroke:none"
             id="path252" />
          <path
             d="m 2515.12,2690.54 c -29.25,-15.31 -58.34,-32.46 -86.67,-50.19 -28.34,-17.86 -56.24,-36.54 -82.97,-56.76 -26.67,-20.25 -52.98,-41.24 -76.84,-64.84 -23.87,-23.51 -46.37,-48.75 -63.95,-77.66 15.59,30.03 36.52,57.04 59.02,82.4 22.5,25.47 47.61,48.44 73.2,70.76 25.67,22.28 52.57,43.06 80.05,63.08 27.6,19.97 55.46,39.09 84.88,57.11 6.44,3.95 14.87,1.93 18.81,-4.52 3.95,-6.44 1.93,-14.86 -4.52,-18.81 l -0.77,-0.45 -0.24,-0.12"
             style="fill:#eb5654;fill-opacity:1;fill-rule:nonzero;stroke:none"
             id="path254" />
          <path
             d="m 2355.43,2338.47 c -18.96,-17.11 -37.22,-36 -54.35,-55.44 -17.18,-19.52 -33.25,-40.03 -47.73,-61.62 -14.34,-21.66 -27.21,-44.45 -36.44,-68.78 -9.31,-24.22 -14.69,-50.38 -12.22,-76.61 -4,26.03 -0.13,52.95 7.91,78.09 7.96,25.29 19.7,49.25 33.02,72.12 13.46,22.83 28.61,44.64 44.92,65.51 16.4,20.91 33.53,40.88 52.47,60.08 3.54,3.58 9.32,3.62 12.9,0.07 3.59,-3.53 3.63,-9.3 0.09,-12.89 l -0.36,-0.35 -0.21,-0.18"
             style="fill:#eb5654;fill-opacity:1;fill-rule:nonzero;stroke:none"
             id="path256" />
          <path
             d="m 2588.33,2994.69 c 30.09,-24.24 55.26,-49.98 79.52,-77.78 24.06,-27.61 46.01,-56.91 65.46,-87.69 5.03,-7.58 9.85,-15.29 14.26,-23.25 4.49,-7.91 9.2,-15.67 13.48,-23.66 8.11,-16.26 16.82,-32.13 23.63,-48.94 15.13,-32.88 25.83,-67.49 35.49,-102 -12.83,33.55 -26.53,66.66 -44.38,97.59 -8.18,15.82 -18.19,30.63 -27.52,45.71 -4.89,7.4 -10.2,14.55 -15.26,21.81 -4.99,7.34 -10.36,14.39 -15.92,21.29 -21.59,28.06 -45.36,54.33 -70.82,78.63 -12.71,12.16 -25.86,23.8 -39.32,34.98 -13.41,10.89 -27.75,21.89 -41.27,30.69 l -0.68,0.45 c -9.21,5.99 -11.81,18.31 -5.82,27.52 5.99,9.21 18.31,11.82 27.53,5.83 l 1.62,-1.18"
             style="fill:#eb5654;fill-opacity:1;fill-rule:nonzero;stroke:none"
             id="path258" />
        </g>
      </g>
      <path
         d="m 2700.3,2794.21 c -33.22,0.01 -65.27,18.21 -81.41,49.82 -13.09,25.65 -12.91,54.57 -1.99,78.95 10,-8.58 19.81,-17.43 29.37,-26.58 25.46,-24.3 49.23,-50.57 70.82,-78.63 4.79,-5.94 9.44,-11.99 13.82,-18.24 -10.03,-3.59 -20.37,-5.32 -30.61,-5.32 m 46.65,12.87 c -4.24,7.57 -8.84,14.92 -13.64,22.14 -19.45,30.78 -41.4,60.08 -65.46,87.69 -10.22,11.7 -20.59,23.04 -31.42,34.05 6.41,6.26 13.87,11.67 22.27,15.96 13.3,6.79 27.48,10.01 41.45,10.01 33.24,0 65.28,-18.2 81.43,-49.82 22.04,-43.16 6.46,-95.63 -34.63,-120.03"
         style="fill:#f8bfb9;fill-opacity:1;fill-rule:nonzero;stroke:none"
         id="path260" />
      <path
         d="m 2730.91,2799.53 c -4.38,6.25 -9.03,12.3 -13.82,18.24 -21.59,28.06 -45.36,54.33 -70.82,78.63 -9.56,9.15 -19.37,18 -29.37,26.58 4.64,10.35 11.21,19.87 19.53,27.98 10.83,-11.01 21.2,-22.35 31.42,-34.05 24.06,-27.61 46.01,-56.91 65.46,-87.69 4.8,-7.22 9.4,-14.57 13.64,-22.14 -1.69,-1 -3.41,-1.95 -5.18,-2.85 -3.57,-1.82 -7.19,-3.39 -10.86,-4.7"
         style="fill:#f6afaf;fill-opacity:1;fill-rule:nonzero;stroke:none"
         id="path262" />
      <path
         d="m 1497.49,1143.56 c 0,0 -5.48,-44.18 -4.38,-69.94 h 86.51 c 0,0 -44.41,27.15 -55.9,69.94 h -26.23"
         style="fill:#22365b;fill-opacity:1;fill-rule:nonzero;stroke:none"
         id="path264" />
      <path
         d="m 1527.42,2147.27 c 0,0 -109.97,-711.05 -39.76,-1017.51 h 46.94 c 0,0 140.49,636.15 229.4,992.49 l -236.58,25.02"
         style="fill:#008eb0;fill-opacity:1;fill-rule:nonzero;stroke:none"
         id="path266" />
      <path
         d="m 1673.1,1769.38 c -12.1,118.36 -4.17,308.68 -4.17,308.68 l 61.84,-57.8 c -18.61,-78.59 -38.27,-164.46 -57.67,-250.88"
         style="fill:#265173;fill-opacity:1;fill-rule:nonzero;stroke:none"
         id="path268" />
      <path
         d="m 1911.64,1143.56 c 0,0 -3.84,-44.18 -1.78,-69.94 h 113.05 c 0,0 -71.97,27.15 -85.04,69.94 h -26.23"
         style="fill:#22365b;fill-opacity:1;fill-rule:nonzero;stroke:none"
         id="path270" />
      <path
         d="m 1871.04,2114.58 c 0,0 73.4,-482.33 77.59,-984.82 h -44.17 c 0,0 -108.02,120.2 -247.18,1034.08 l 213.76,-49.26"
         style="fill:#008eb0;fill-opacity:1;fill-rule:nonzero;stroke:none"
         id="path272" />
      <path
         d="m 1709.58,2579.06 c 19.98,92.58 27.23,185.85 50.88,203.89 23.65,18.05 98.24,1.95 95.91,-25.93 -2.32,-27.88 -8.8,-124.68 -23.68,-132.29 -14.87,-7.62 -44.79,3.5 -44.79,3.5 l -3.55,-62.45 c 0,0 -50.63,-36.93 -74.77,13.28"
         style="fill:#f79885;fill-opacity:1;fill-rule:nonzero;stroke:none"
         id="path274" />
      <path
         d="m 1666.55,1823.38 -18.58,-261.32 c -61.94,7.63 -127.69,20.84 -192.31,42.78 0,0 35.86,771.88 144.13,976.87 0,0 132.06,29.25 266.12,-29.01 0,0 61.07,-721.62 102.08,-988.69 0,0 -108.46,-17.64 -251.4,-8.38 l -50.04,267.75"
         style="fill:#7fb8db;fill-opacity:1;fill-rule:nonzero;stroke:none"
         id="path276" />
      <path
         d="m 1821.5,2460.07 56.64,-47.31 c 4.92,-55.2 11.08,-123.07 18.01,-197 -92.48,139.09 -74.65,244.31 -74.65,244.31"
         style="fill:#5aa5d1;fill-opacity:1;fill-rule:nonzero;stroke:none"
         id="path278" />
      <path
         d="m 2252.38,2220.99 4.07,46.21 c 0,0 57.25,3.76 76.05,0.88 16.16,-2.48 61.03,-19.93 60.92,-23.88 -0.13,-3.95 -24.65,0.35 -24.65,0.35 0,0 27.43,-25.92 19.66,-31.19 -4.54,-3.08 -37.71,-10.71 -48.61,-1 -3.62,3.23 -13.25,24.41 -13.25,24.41 -9.96,4.8 -74.19,-15.78 -74.19,-15.78"
         style="fill:#f7afa1;fill-opacity:1;fill-rule:nonzero;stroke:none"
         id="path280" />
      <path
         d="m 1865.91,2552.7 c 47.18,-36.9 164.12,-239.34 164.12,-239.34 0,0 142.74,-26.19 261.9,-43.03 l -11.69,-66.25 c 0,0 -221.18,-50.1 -320.7,5.32 -66.24,36.89 -217.64,333.02 -93.63,343.3"
         style="fill:#7fb8db;fill-opacity:1;fill-rule:nonzero;stroke:none"
         id="path282" />
      <path
         d="m 1793.53,2685.22 c -10.86,-22.54 -31.66,-41.91 -59.35,-39.56 -34.78,2.61 -28.61,6.58 -19.3,28.73 9.31,22.16 1.62,141.23 33.42,124.39 4.43,22.19 44.12,28.85 52.25,1.48 36.08,29.05 47.33,-13.8 47.33,-13.8 0,0 37.23,33.01 33.33,-20.89 -1.68,-23.27 -13.82,-59.05 -68.48,-31.57 0,0 -13.51,-36.97 -19.2,-48.78"
         style="fill:#265173;fill-opacity:1;fill-rule:nonzero;stroke:none"
         id="path284" />
    </g>
  </g>
</svg>
