<?xml version="1.0" encoding="UTF-8" standalone="no"?>
<!-- Generator: Adobe Illustrator 24.1.2, SVG Export Plug-In . SVG Version: 6.00 Build 0)  -->

<svg
   version="1.1"
   id="Warstwa_1"
   x="0px"
   y="0px"
   viewBox="0 0 200 199.99999"
   xml:space="preserve"
   sodipodi:docname="Ivs.svg"
   inkscape:version="1.2.1 (9c6d41e410, 2022-07-14)"
   width="200"
   height="200"
   xmlns:inkscape="http://www.inkscape.org/namespaces/inkscape"
   xmlns:sodipodi="http://sodipodi.sourceforge.net/DTD/sodipodi-0.dtd"
   xmlns="http://www.w3.org/2000/svg"
   xmlns:svg="http://www.w3.org/2000/svg"><defs
   id="defs1485" /><sodipodi:namedview
   id="namedview1483"
   pagecolor="#ffffff"
   bordercolor="#000000"
   borderopacity="0.25"
   inkscape:showpageshadow="2"
   inkscape:pageopacity="0.0"
   inkscape:pagecheckerboard="0"
   inkscape:deskcolor="#d1d1d1"
   showgrid="false"
   inkscape:zoom="3.3674418"
   inkscape:cx="171.64365"
   inkscape:cy="93.988261"
   inkscape:window-width="2560"
   inkscape:window-height="1008"
   inkscape:window-x="0"
   inkscape:window-y="0"
   inkscape:window-maximized="1"
   inkscape:current-layer="g1472"
   showguides="true"><sodipodi:guide
     position="99.779007,158.72237"
     orientation="1,0"
     id="guide886"
     inkscape:locked="false" /></sodipodi:namedview>
<style
   type="text/css"
   id="style1466">
	.st0{fill:#121331;}
	.st1{fill:#08A284;}
	.st2{fill:none;stroke:#08A284;stroke-width:12;stroke-linecap:round;stroke-linejoin:round;stroke-miterlimit:10;}
	.st3{fill:none;stroke:#121331;stroke-width:12;stroke-linecap:round;stroke-linejoin:round;stroke-miterlimit:10;}
	.st4{fill:#08A688;}
	.st5{fill:#08a88a;}
	.st6{fill:#08a88a;}
</style>
<g
   id="g1480"
   transform="translate(-90.276245,-35.63536)">
	<g
   id="g1472">
		<path
   class="st1"
   d="m 161.5689,148.35024 h 9.15694 v 9.15694 c 0,1.84701 1.50104,3.34805 3.34805,3.34805 h 11.75168 c 1.84702,0 3.34806,-1.50104 3.34806,-3.34805 v -9.15694 h 9.15694 c 1.84701,0 3.34805,-1.50105 3.34805,-3.34806 v -11.7461 c 0,-1.84701 -1.50104,-3.34805 -3.34805,-3.34805 h -9.15694 v -9.15694 c 0,-1.84701 -1.50104,-3.34806 -3.34806,-3.34806 h -11.75168 c -1.84701,0 -3.34805,1.50105 -3.34805,3.34806 v 9.15694 h -9.15694 c -1.84701,0 -3.34806,1.50104 -3.34806,3.34805 v 11.7461 c 0,1.84701 1.50105,3.34806 3.34806,3.34806 z m 3.34806,-11.75168 h 9.15693 c 1.84702,0 3.34806,-1.50105 3.34806,-3.34806 v -9.15693 h 5.05557 v 9.15693 c 0,1.84701 1.50104,3.34806 3.34805,3.34806 h 9.15694 v 5.04999 h -9.15694 c -1.84701,0 -3.34805,1.50104 -3.34805,3.34805 v 9.15694 h -5.05557 v -9.15694 c 0,-1.84701 -1.50104,-3.34805 -3.34806,-3.34805 h -9.15693 z"
   id="path1468"
   style="fill:#34bcc7;fill-opacity:1;stroke-width:0.55801" />
		<path
   class="st1"
   d="m 232.0734,185.79268 c -4.52546,0 -6.64589,-0.90956 -9.10671,-1.9642 -2.73983,-1.17182 -5.84236,-2.49988 -11.74052,-2.49988 -5.89816,0 -9.0007,1.32806 -11.74052,2.49988 -2.45524,1.05464 -4.58126,1.9642 -9.10672,1.9642 -4.52545,0 -6.64589,-0.90956 -9.10671,-1.9642 -2.73983,-1.17182 -5.84236,-2.49988 -11.74052,-2.49988 -5.89816,0 -9.0007,1.32806 -11.74052,2.49988 -2.45524,1.05464 -4.58126,1.9642 -9.10672,1.9642 -4.52545,0 -6.64589,-0.90956 -9.10671,-1.9642 -2.73983,-1.17182 -5.84236,-2.49988 -11.74052,-2.49988 -1.84701,0 -3.34806,1.50105 -3.34806,3.34806 0,1.84701 1.50105,3.34806 3.34806,3.34806 4.52546,0 6.64589,0.90955 9.10671,1.96419 2.73983,1.17182 5.84236,2.49988 11.74052,2.49988 5.89816,0 9.0007,-1.32806 11.74052,-2.49988 2.45524,-1.05464 4.58126,-1.96419 9.10672,-1.96419 4.52545,0 6.64589,0.90955 9.10671,1.96419 2.73983,1.17182 5.84236,2.49988 11.74052,2.49988 5.89816,0 9.0007,-1.32806 11.74052,-2.49988 2.45524,-1.05464 4.58126,-1.96419 9.10672,-1.96419 4.52545,0 6.65147,0.90955 9.10671,1.96419 2.73983,1.17182 5.84236,2.49988 11.74052,2.49988 1.84701,0 3.34806,-1.50104 3.34806,-3.34806 0,-1.84701 -1.50105,-3.34805 -3.34806,-3.34805 z"
   id="path1470"
   style="fill:#34bcc7;fill-opacity:1;stroke-width:0.55801" />
	</g>
	<g
   id="g1478"
   transform="matrix(0.5580095,0,0,0.5580095,73.911191,15.739282)">
		<path
   class="st0"
   d="m 119.06,164.61 v 113.01 c 0,3.31 2.69,6 6,6 h 129.95 c 3.31,0 6,-2.69 6,-6 V 164.61 c 0,-3.31 -2.69,-6 -6,-6 H 125.06 c -3.31,0 -6,2.69 -6,6 z m 12,6 H 249.01 V 271.62 H 131.06 Z"
   id="path1474" />
		<path
   class="st0"
   d="m 267.14,35.61 h -77.11 c -3.31,0 -6,2.69 -6,6 v 29.57 c -14.1,2.65 -25.17,14.47 -27.27,29.29 -13.19,1.59 -25.53,4.29 -36.05,8.12 -17.99,6.54 -30.08,23.76 -30.08,42.85 v 164.02 c 0,19.87 12.74,37.31 31.69,43.4 12.92,4.15 27.77,7.01 43.21,8.57 v 19.97 c 0,3.31 2.69,6 6,6 h 37 c 3.31,0 6,-2.69 6,-6 v -19.36 c 15.81,-1.22 30.75,-3.86 43.32,-7.93 18.89,-6.12 31.58,-23.54 31.58,-43.36 V 152.99 c 0,-19.08 -12.03,-36.28 -29.92,-42.79 -10.8,-3.93 -23.12,-6.85 -36.09,-8.76 C 221.67,86.17 210.43,73.89 196.03,71.18 V 47.61 h 71.11 c 33.21,0 60.22,27.02 60.22,60.22 v 280.56 c 0,3.31 2.69,6 6,6 3.31,0 6,-2.69 6,-6 V 107.83 C 339.37,68 306.97,35.61 267.14,35.61 Z m -64.6,345.78 h -25 v -13.03 c 5.35,0.31 10.74,0.47 16.1,0.47 2.98,0 5.95,-0.05 8.9,-0.14 z m 14.09,-268.71 c 0.18,0.03 0.36,0.05 0.54,0.06 13.86,1.74 27.03,4.65 38.24,8.73 13.18,4.8 22.03,17.46 22.03,31.52 v 163.75 c 0,14.6 -9.35,27.44 -23.28,31.94 -34.69,11.23 -90.99,10.68 -128.17,-1.25 -13.97,-4.48 -23.36,-17.33 -23.36,-31.97 V 151.44 c 0,-14.06 8.91,-26.75 22.18,-31.57 16.63,-6.05 38.68,-9.04 61.25,-9.04 10.24,-0.01 20.58,0.62 30.57,1.85 z m -5.62,-12.74 c -13.84,-1.32 -28.09,-1.53 -41.78,-0.62 2.58,-9.63 10.93,-16.71 20.81,-16.71 10.09,0 18.59,7.38 20.97,17.33 z"
   id="path1476" />
	</g>
</g>
</svg>
