<?xml version="1.0" encoding="UTF-8" standalone="no"?>
<svg
   data-name="Layer 1"
   width="572.88018"
   height="361.34732"
   viewBox="0 0 572.88018 361.34732"
   version="1.1"
   id="svg162"
   sodipodi:docname="location.svg"
   inkscape:version="1.2.1 (9c6d41e410, 2022-07-14)"
   xmlns:inkscape="http://www.inkscape.org/namespaces/inkscape"
   xmlns:sodipodi="http://sodipodi.sourceforge.net/DTD/sodipodi-0.dtd"
   xmlns="http://www.w3.org/2000/svg"
   xmlns:svg="http://www.w3.org/2000/svg">
  <defs
     id="defs166" />
  <sodipodi:namedview
     id="namedview164"
     pagecolor="#ffffff"
     bordercolor="#000000"
     borderopacity="0.25"
     inkscape:showpageshadow="2"
     inkscape:pageopacity="0.0"
     inkscape:pagecheckerboard="0"
     inkscape:deskcolor="#d1d1d1"
     showgrid="false"
     inkscape:zoom="1.416768"
     inkscape:cx="258.68738"
     inkscape:cy="171.87006"
     inkscape:window-width="2560"
     inkscape:window-height="1009"
     inkscape:window-x="0"
     inkscape:window-y="0"
     inkscape:window-maximized="1"
     inkscape:current-layer="svg162" />
  <path
     d="m 389.13386,88 c 0,34.66808 -49.03162,136.907 -77.14443,192.6776 a 21.997448,24.31162 0 0 1 -38.43612,0 C 245.4405,224.90701 196.40888,122.66808 196.40888,88 c 0,-48.60106 43.14296,-88 96.36248,-88 53.21953,0 96.3625,39.39894 96.3625,88 z"
     fill="#652d92"
     id="path2"
     style="stroke-width:0.951217" />
  <ellipse
     cx="293.22379"
     cy="87"
     fill="#ffffff"
     id="circle4"
     rx="52.479099"
     ry="58"
     style="stroke-width:0.951217" />
  <path
     d="m 434.62397,235.52997 c -133.92611,-59 -297.26848,-1.48 -391.575816,116.18 -0.536079,0.66 -1.072157,1.33 -1.591218,2 h -1.438053 c 0.493533,-0.67 1.004084,-1.34 1.506127,-2 96.26447,-126.60999 257.43698,-177.06996 393.09896,-116.18 z"
     fill="#3f3d56"
     id="path12"
     style="stroke-width:0.922453" />
  <path
     d="m 471.222,255.09998 a 319.7181,375.73279 0 0 0 -36.59802,-19.57 290.43951,341.32459 0 0 1 36.59802,19.57 z"
     fill="#3f3d56"
     id="path14"
     style="stroke-width:0.922453" />
  <path
     d="m 400.00112,342.92112 c 1.44146,6.26184 6.37858,10.14 6.37858,10.14 0,0 2.60017,-6.27435 1.15874,-12.53619 -1.44144,-6.26184 -6.37857,-10.14 -6.37857,-10.14 0,0 -2.60013,6.27435 -1.15875,12.53619 z"
     fill="#3f3d56"
     id="path18"
     style="stroke-width:0.922453" />
  <path
     d="m 402.11918,341.57536 c 3.95523,4.52484 4.43839,11.48059 4.43839,11.48059 0,0 -5.92963,-0.3805 -9.88487,-4.90534 -3.95524,-4.52484 -4.43839,-11.48059 -4.43839,-11.48059 0,0 5.92964,0.38049 9.88487,4.90534 z"
     fill="#652d92"
     id="path20"
     style="stroke-width:0.922453" />
  <path
     d="m 228.54646,295.85166 -3.52025,-6.895 32.85738,-33.098 c 24.29128,-13.74067 53.57231,-9.77594 84.49113,0 v 9.653 l -30.51054,38.615 -35.20506,8.274 z"
     fill="#3f3d56"
     id="path30"
     style="stroke-width:0.922453" />
  <path
     d="m 356.91863,275.28166 c 5.83485,-7.62726 6.64552,-14.88007 0,-21.577 h -11.06195 v 6.804 l -3.48196,-4.65 -28.16371,33.098 -4.69452,5.516 -5.86708,27.582 10.5616,30.339 h 53.97974 v -62.058 z"
     fill="#cccccc"
     id="path32"
     style="stroke-width:0.922453" />
  <path
     d="m 225.02621,288.95637 h 89.1846 v 63.43753 h -89.1846 c -10.78961,-13.71865 -5.18445,-38.72293 0,-63.43753 z"
     fill="#f2f2f2"
     id="path34"
     style="stroke-width:0.922453" />
  <rect
     x="283.11359"
     y="308.95297"
     width="18.775736"
     height="19.30707"
     fill="#3f3d56"
     id="rect36"
     style="stroke-width:0.922453" />
  <rect
     x="259.05722"
     y="308.26343"
     width="16.428749"
     height="44.130402"
     fill="#cccccc"
     id="rect38"
     style="stroke-width:0.922453" />
  <polygon
     points="282.379,308.264 274.105,308.264 274.105,315.159 281.689,315.159 282.379,315.159 "
     fill="#3f3d56"
     id="polygon40"
     transform="matrix(0.85091881,0,0,1,1.4908119e-6,0)" />
  <polygon
     points="274.105,320.675 274.105,327.571 282.379,327.571 282.379,320.675 281.689,320.675 "
     fill="#3f3d56"
     id="polygon42"
     transform="matrix(0.85091881,0,0,1,1.4908119e-6,0)" />
  <rect
     x="244.97539"
     y="308.26343"
     width="7.0409107"
     height="6.89539"
     fill="#3f3d56"
     id="rect44"
     style="stroke-width:0.922453" />
  <rect
     x="244.97539"
     y="320.67511"
     width="7.0409107"
     height="6.89539"
     fill="#3f3d56"
     id="rect46"
     style="stroke-width:0.922453" />
  <polygon
     points="398.911,308.953 390.636,308.953 390.636,315.849 398.221,315.849 398.911,315.849 "
     fill="#3f3d56"
     id="polygon48"
     transform="matrix(0.85091881,0,0,1,1.4908119e-6,0)" />
  <polygon
     points="390.636,321.365 390.636,328.26 398.911,328.26 398.911,321.365 398.221,321.365 "
     fill="#3f3d56"
     id="polygon50"
     transform="matrix(0.85091881,0,0,1,1.4908119e-6,0)" />
  <rect
     x="344.13458"
     y="308.95297"
     width="7.0409107"
     height="6.89539"
     fill="#3f3d56"
     id="rect52"
     style="stroke-width:0.922453" />
  <rect
     x="344.13458"
     y="321.36465"
     width="7.0409107"
     height="6.89539"
     fill="#3f3d56"
     id="rect54"
     style="stroke-width:0.922453" />
  <polygon
     points="75.071,174.493 113.685,140.016 211.599,140.016 211.599,170.356 148.162,213.108 81.966,180.01 "
     fill="#3f3d56"
     id="polygon56"
     transform="matrix(0.85091881,0,0,1,1.4908119e-6,0)" />
  <path
     d="m 195.24406,159.35566 v -18.651 h -11.06194 v 4.568 l -4.12866,-5.257 -26.99029,34.477 -10.56076,8.275 -16.37593,140.603 24.69622,29.023 h 57.39447 c 8.79409,-51.98779 15.76753,-105.39435 0,-176.522 z"
     fill="#cccccc"
     id="path58"
     style="stroke-width:0.922453" />
  <path
     d="M 63.878842,174.49306 H 153.06346 V 352.3939 H 63.878842 c -9.759307,-69.113 -14.525626,-133.20559 0,-177.90084 z"
     fill="#f2f2f2"
     id="path60"
     style="stroke-width:0.922453" />
  <rect
     x="98.496559"
     y="308.95297"
     width="16.428749"
     height="43.440922"
     fill="#cccccc"
     id="rect62"
     style="stroke-width:0.922453" />
  <polygon
     points="95.067,314.47 86.793,314.47 86.793,321.365 94.378,321.365 95.067,321.365 "
     fill="#3f3d56"
     id="polygon64"
     transform="matrix(0.85091881,0,0,1,1.4908119e-6,0)" />
  <polygon
     points="86.793,326.881 86.793,333.777 95.067,333.777 95.067,326.881 94.378,326.881 "
     fill="#3f3d56"
     id="polygon66"
     transform="matrix(0.85091881,0,0,1,1.4908119e-6,0)" />
  <rect
     x="85.588264"
     y="314.46927"
     width="7.0408764"
     height="6.89539"
     fill="#3f3d56"
     id="rect68"
     style="stroke-width:0.922453" />
  <polygon
     points="143.335,326.881 143.335,333.777 151.609,333.777 151.609,326.881 150.92,326.881 "
     fill="#3f3d56"
     id="polygon70"
     transform="matrix(0.85091881,0,0,1,1.4908119e-6,0)" />
  <rect
     x="133.701"
     y="314.46927"
     width="7.0408764"
     height="6.89539"
     fill="#3f3d56"
     id="rect72"
     style="stroke-width:0.922453" />
  <rect
     x="133.701"
     y="326.88095"
     width="7.0408764"
     height="6.89539"
     fill="#3f3d56"
     id="rect74"
     style="stroke-width:0.922453" />
  <polygon
     points="209.53,176.562 201.256,176.562 201.256,183.457 208.841,183.457 209.53,183.457 "
     fill="#3f3d56"
     id="polygon76"
     transform="matrix(0.85091881,0,0,1,1.4908119e-6,0)" />
  <polygon
     points="201.256,188.974 201.256,195.869 209.53,195.869 209.53,188.974 208.841,188.974 "
     fill="#3f3d56"
     id="polygon78"
     transform="matrix(0.85091881,0,0,1,1.4908119e-6,0)" />
  <rect
     x="182.98726"
     y="176.56168"
     width="7.0408764"
     height="6.89539"
     fill="#3f3d56"
     id="rect80"
     style="stroke-width:0.922453" />
  <rect
     x="182.98726"
     y="188.97334"
     width="7.0408764"
     height="6.89539"
     fill="#3f3d56"
     id="rect82"
     style="stroke-width:0.922453" />
  <polygon
     points="209.53,215.176 201.256,215.176 201.256,222.072 208.841,222.072 209.53,222.072 "
     fill="#3f3d56"
     id="polygon84"
     transform="matrix(0.85091881,0,0,1,1.4908119e-6,0)" />
  <polygon
     points="201.256,227.588 201.256,234.483 209.53,234.483 209.53,227.588 208.841,227.588 "
     fill="#3f3d56"
     id="polygon86"
     transform="matrix(0.85091881,0,0,1,1.4908119e-6,0)" />
  <rect
     x="182.98726"
     y="215.1758"
     width="7.0408764"
     height="6.89539"
     fill="#3f3d56"
     id="rect88"
     style="stroke-width:0.922453" />
  <rect
     x="182.98726"
     y="227.58746"
     width="7.0408764"
     height="6.89539"
     fill="#3f3d56"
     id="rect90"
     style="stroke-width:0.922453" />
  <polygon
     points="209.53,253.79 201.256,253.79 201.256,260.686 208.841,260.686 209.53,260.686 "
     fill="#3f3d56"
     id="polygon92"
     transform="matrix(0.85091881,0,0,1,1.4908119e-6,0)" />
  <polygon
     points="201.256,266.202 201.256,273.097 209.53,273.097 209.53,266.202 208.841,266.202 "
     fill="#3f3d56"
     id="polygon94"
     transform="matrix(0.85091881,0,0,1,1.4908119e-6,0)" />
  <rect
     x="182.98726"
     y="253.78992"
     width="7.0408764"
     height="6.89539"
     fill="#3f3d56"
     id="rect96"
     style="stroke-width:0.922453" />
  <rect
     x="182.98726"
     y="266.2016"
     width="7.0408764"
     height="6.89539"
     fill="#3f3d56"
     id="rect98"
     style="stroke-width:0.922453" />
  <polygon
     points="209.53,292.404 201.256,292.404 201.256,299.3 208.841,299.3 209.53,299.3 "
     fill="#3f3d56"
     id="polygon100"
     transform="matrix(0.85091881,0,0,1,1.4908119e-6,0)" />
  <polygon
     points="201.256,304.816 201.256,311.711 209.53,311.711 209.53,304.816 208.841,304.816 "
     fill="#3f3d56"
     id="polygon102"
     transform="matrix(0.85091881,0,0,1,1.4908119e-6,0)" />
  <rect
     x="182.98726"
     y="292.40405"
     width="7.0408764"
     height="6.89539"
     fill="#3f3d56"
     id="rect104"
     style="stroke-width:0.922453" />
  <rect
     x="182.98726"
     y="304.81573"
     width="7.0408764"
     height="6.89539"
     fill="#3f3d56"
     id="rect106"
     style="stroke-width:0.922453" />
  <path
     d="m 73.853432,183.45704 h 68.061948 v 16.54892 c -21.81596,-7.07562 -44.565757,-6.56811 -68.061948,0 z"
     fill="#3f3d56"
     id="path108"
     style="stroke-width:0.922453" />
  <path
     d="m 73.853432,216.55488 q 31.864318,11.03275 68.061948,0 V 233.1038 H 73.853432 Z"
     fill="#3f3d56"
     id="path110"
     style="stroke-width:0.922453" />
  <path
     d="m 73.853432,249.65266 h 68.061948 v 16.549 c -23.19533,-8.7044 -45.906584,-9.11462 -68.061948,0 z"
     fill="#3f3d56"
     id="path112"
     style="stroke-width:0.922453" />
  <path
     d="m 73.853432,282.7505 c 22.197119,10.05365 44.904848,9.63519 68.061948,0 v 16.549 H 73.853432 Z"
     fill="#3f3d56"
     id="path114"
     style="stroke-width:0.922453" />
  <path
     d="m 439.65272,254 h 47.82164 v 27.07982 l -4.27161,1.57056 -14.21035,5.21211 -22.29407,-6.0692 -22.26854,-6.06457 -11.75966,-3.20141 -5.87134,-2.55278 C 411.68303,262.09845 420.56662,255.90415 439.65272,254 Z"
     fill="#3f3d56"
     id="path116"
     style="stroke-width:0.922453" />
  <path
     d="m 487.47437,269.97453 v 82.42087 h -80.67561 c -0.0255,-0.051 -0.0426,-0.0973 -0.0681,-0.14826 v -0.005 a 1.076608,1.26523 0 0 0 -0.0681,-0.16678 q -1.88909,-4.46852 -3.38666,-8.91386 c -8.46664,-25.07837 -7.54765,-49.49422 3.52281,-73.18733 z"
     fill="#f2f2f2"
     id="path118"
     style="stroke-width:0.922453" />
  <rect
     x="441.41684"
     y="308.95297"
     width="16.428749"
     height="43.440922"
     fill="#cccccc"
     id="rect120"
     style="stroke-width:0.922453" />
  <polygon
     points="498.067,314.47 489.793,314.47 489.793,321.365 497.378,321.365 498.067,321.365 "
     fill="#3f3d56"
     id="polygon122"
     transform="matrix(0.85091881,0,0,1,1.4908119e-6,0)" />
  <polygon
     points="489.793,326.881 489.793,333.777 498.067,333.777 498.067,326.881 497.378,326.881 "
     fill="#3f3d56"
     id="polygon124"
     transform="matrix(0.85091881,0,0,1,1.4908119e-6,0)" />
  <rect
     x="428.50851"
     y="314.46927"
     width="7.0409107"
     height="6.89539"
     fill="#3f3d56"
     id="rect126"
     style="stroke-width:0.922453" />
  <rect
     x="428.50851"
     y="326.88095"
     width="7.0409107"
     height="6.89539"
     fill="#3f3d56"
     id="rect128"
     style="stroke-width:0.922453" />
  <polygon
     points="554.609,314.47 546.335,314.47 546.335,321.365 553.92,321.365 554.609,321.365 "
     fill="#3f3d56"
     id="polygon130"
     transform="matrix(0.85091881,0,0,1,1.4908119e-6,0)" />
  <polygon
     points="546.335,326.881 546.335,333.777 554.609,333.777 554.609,326.881 553.92,326.881 "
     fill="#3f3d56"
     id="polygon132"
     transform="matrix(0.85091881,0,0,1,1.4908119e-6,0)" />
  <rect
     x="476.62128"
     y="314.46927"
     width="7.0409107"
     height="6.89539"
     fill="#3f3d56"
     id="rect134"
     style="stroke-width:0.922453" />
  <rect
     x="476.62128"
     y="326.88095"
     width="7.0409107"
     height="6.89539"
     fill="#3f3d56"
     id="rect136"
     style="stroke-width:0.922453" />
  <path
     d="m 424.43201,222 h 10.11388 a 37.611939,44.20156 0 0 1 37.61194,44.20156 v 0 h -47.72582 z"
     fill="#3f3d56"
     id="path138"
     style="stroke-width:0.922453" />
  <path
     d="m 118.10124,102 h 10.11388 a 37.611939,44.20156 0 0 1 37.61194,44.20156 v 0 h -47.72582 z"
     fill="#3f3d56"
     id="path140"
     style="stroke-width:0.922453" />
  <path
     d="m 279.77581,213 h 10.11388 a 37.611939,44.20156 0 0 1 37.61194,44.20156 v 0 h -47.72582 z"
     fill="#3f3d56"
     id="path142"
     style="stroke-width:0.922453" />
  <rect
     x="424.43201"
     y="282.75052"
     width="47.725822"
     height="16.54892"
     fill="#3f3d56"
     id="rect144"
     style="stroke-width:0.922453" />
  <rect
     x="2.4508007"
     y="351.70996"
     width="485.02371"
     height="2"
     fill="#3f3d56"
     id="rect146"
     style="stroke-width:0.922453" />
  <rect
     x="45.482353"
     y="272.70529"
     width="1.7018377"
     height="79"
     fill="#3f3d56"
     id="rect148"
     style="stroke-width:0.922453" />
  <path
     d="m 62.890219,282.77299 c 0.108339,27.62433 -16.429421,50.10833 -16.429421,50.10833 0,0 -21.178765,-22.78231 -16.821746,-49.92824 4.381883,-27.30091 18.038628,-49.99243 16.429422,-50.10834 0,0 16.713406,22.30386 16.821745,49.92825 z"
     fill="#652d92"
     id="path150"
     style="stroke-width:0.922453" />
  <rect
     x="215.66611"
     y="272.70529"
     width="1.7018377"
     height="79"
     fill="#3f3d56"
     id="rect152"
     style="stroke-width:0.922453" />
  <path
     d="m 233.07398,282.77296 c 1.534,27.56574 -16.42942,50.10836 -16.42942,50.10836 0,0 -16.71341,-22.30389 -16.82175,-49.92822 -0.10833,-27.62433 16.42943,-50.10836 16.42943,-50.10836 -1.61233,7.57233 15.58055,27.62433 16.82174,49.92822 z"
     fill="#652d92"
     id="path154"
     style="stroke-width:0.922453" />
  <polygon
     points="212.387,140.039 248.83,170.458 242.387,176.275 184.678,174.976 125.513,144.289 "
     fill="#3f3d56"
     id="polygon156"
     transform="matrix(0.85091881,0,0,1,1.4908119e-6,0)" />
  <polygon
     points="402.387,255.039 438.83,285.458 432.387,291.275 374.678,289.976 315.513,259.289 "
     fill="#3f3d56"
     id="polygon160"
     transform="matrix(0.85091881,0,0,1,1.4908119e-6,0)" />
</svg>
