<?xml version="1.0" encoding="UTF-8" standalone="no"?>
<!-- Generator: Adobe Illustrator 24.1.2, SVG Export Plug-In . SVG Version: 6.00 Build 0)  -->

<svg
   version="1.1"
   id="Warstwa_3"
   x="0px"
   y="0px"
   viewBox="0 0 430 430"
   style="enable-background:new 0 0 430 430;"
   xml:space="preserve"
   sodipodi:docname="medicine.svg"
   inkscape:version="1.2.1 (9c6d41e410, 2022-07-14)"
   xmlns:inkscape="http://www.inkscape.org/namespaces/inkscape"
   xmlns:sodipodi="http://sodipodi.sourceforge.net/DTD/sodipodi-0.dtd"
   xmlns="http://www.w3.org/2000/svg"
   xmlns:svg="http://www.w3.org/2000/svg"><defs
   id="defs49" /><sodipodi:namedview
   id="namedview47"
   pagecolor="#ffffff"
   bordercolor="#000000"
   borderopacity="0.25"
   inkscape:showpageshadow="2"
   inkscape:pageopacity="0.0"
   inkscape:pagecheckerboard="0"
   inkscape:deskcolor="#d1d1d1"
   showgrid="false"
   inkscape:zoom="1.6837209"
   inkscape:cx="215.29696"
   inkscape:cy="215.29696"
   inkscape:window-width="2560"
   inkscape:window-height="1009"
   inkscape:window-x="0"
   inkscape:window-y="0"
   inkscape:window-maximized="1"
   inkscape:current-layer="g42" />
<style
   type="text/css"
   id="style2">
	.st0{fill:#121331;}
	.st1{fill:#08A385;}
	.st2{fill:none;stroke:#121331;stroke-width:14;stroke-linecap:round;stroke-linejoin:round;stroke-miterlimit:10;}
	.st3{fill:none;stroke:#08A385;stroke-width:12;stroke-linecap:round;stroke-linejoin:round;stroke-miterlimit:10;}
	.st4{fill:#06A385;}
	.st5{fill:none;stroke:#121331;stroke-width:12;stroke-linecap:round;stroke-linejoin:round;stroke-miterlimit:10;}
	.st6{fill:#08a88a;}
	.st7{fill:#08A284;}
	.st8{fill:#08A688;}
	.st9{fill:#08a88a;}
</style>
<g
   id="g44">
	<path
   class="st0"
   d="M304.49,381.12H125.51c-20.18,0-36.6-16.42-36.6-36.6V85.48c0-20.18,16.42-36.6,36.6-36.6h178.97   c20.18,0,36.6,16.42,36.6,36.6v259.03C341.09,364.7,324.67,381.12,304.49,381.12z M125.51,60.88c-13.57,0-24.6,11.04-24.6,24.6   v259.03c0,13.57,11.04,24.6,24.6,24.6h178.97c13.57,0,24.6-11.04,24.6-24.6V85.48c0-13.57-11.04-24.6-24.6-24.6H125.51z"
   id="path4" />
	<g
   id="g42">
		<g
   id="g10">
			<path
   class="st7"
   d="M164.63,141.4c-3.31,0-6-2.69-6-6V97.68c0-3.31,2.69-6,6-6s6,2.69,6,6v37.73     C170.63,138.72,167.94,141.4,164.63,141.4z"
   id="path6"
   style="fill:#34bcc7;fill-opacity:1" />
			<path
   class="st0"
   d="M178.93,141.4h-28.59c-13.71,0-24.86-11.15-24.86-24.86s11.15-24.86,24.86-24.86h28.59     c13.71,0,24.86,11.15,24.86,24.86S192.64,141.4,178.93,141.4z M150.33,103.68c-7.09,0-12.86,5.77-12.86,12.86     s5.77,12.86,12.86,12.86h28.59c7.09,0,12.86-5.77,12.86-12.86s-5.77-12.86-12.86-12.86H150.33z"
   id="path8" />
		</g>
		<g
   id="g16">
			<path
   class="st7"
   d="M164.63,240.5c-3.31,0-6-2.69-6-6v-37.73c0-3.31,2.69-6,6-6s6,2.69,6,6v37.73     C170.63,237.82,167.94,240.5,164.63,240.5z"
   id="path12"
   style="fill:#34bcc7;fill-opacity:1" />
			<path
   class="st0"
   d="M178.93,240.5h-28.59c-13.71,0-24.86-11.15-24.86-24.86s11.15-24.86,24.86-24.86h28.59     c13.71,0,24.86,11.15,24.86,24.86S192.64,240.5,178.93,240.5z M150.33,202.78c-7.09,0-12.86,5.77-12.86,12.86     s5.77,12.86,12.86,12.86h28.59c7.09,0,12.86-5.77,12.86-12.86s-5.77-12.86-12.86-12.86H150.33z"
   id="path14" />
		</g>
		<g
   id="g22">
			<path
   class="st7"
   d="M164.63,339.6c-3.31,0-6-2.69-6-6v-37.73c0-3.31,2.69-6,6-6s6,2.69,6,6v37.73     C170.63,336.92,167.94,339.6,164.63,339.6z"
   id="path18"
   style="fill:#34bcc7;fill-opacity:1" />
			<path
   class="st0"
   d="M178.93,339.6h-28.59c-13.71,0-24.86-11.15-24.86-24.86s11.15-24.86,24.86-24.86h28.59     c13.71,0,24.86,11.15,24.86,24.86S192.64,339.6,178.93,339.6z M150.33,301.88c-7.09,0-12.86,5.77-12.86,12.86     s5.77,12.86,12.86,12.86h28.59c7.09,0,12.86-5.77,12.86-12.86s-5.77-12.86-12.86-12.86H150.33z"
   id="path20" />
		</g>
		<g
   id="g28">
			<path
   class="st7"
   d="M265.37,140.12c-3.31,0-6-2.69-6-6V96.4c0-3.31,2.69-6,6-6s6,2.69,6,6v37.73     C271.37,137.44,268.68,140.12,265.37,140.12z"
   id="path24"
   style="fill:#34bcc7;fill-opacity:1" />
			<path
   class="st0"
   d="M279.67,140.12h-28.59c-13.71,0-24.86-11.15-24.86-24.86s11.15-24.86,24.86-24.86h28.59     c13.71,0,24.86,11.15,24.86,24.86S293.38,140.12,279.67,140.12z M251.07,102.4c-7.09,0-12.86,5.77-12.86,12.86     s5.77,12.86,12.86,12.86h28.59c7.09,0,12.86-5.77,12.86-12.86s-5.77-12.86-12.86-12.86H251.07z"
   id="path26" />
		</g>
		<g
   id="g34">
			<path
   class="st7"
   d="M265.37,239.22c-3.31,0-6-2.69-6-6V195.5c0-3.31,2.69-6,6-6s6,2.69,6,6v37.73     C271.37,236.54,268.68,239.22,265.37,239.22z"
   id="path30"
   style="fill:#34bcc7;fill-opacity:1" />
			<path
   class="st0"
   d="M279.67,239.22h-28.59c-13.71,0-24.86-11.15-24.86-24.86s11.15-24.86,24.86-24.86h28.59     c13.71,0,24.86,11.15,24.86,24.86S293.38,239.22,279.67,239.22z M251.07,201.5c-7.09,0-12.86,5.77-12.86,12.86     s5.77,12.86,12.86,12.86h28.59c7.09,0,12.86-5.77,12.86-12.86s-5.77-12.86-12.86-12.86H251.07z"
   id="path32" />
		</g>
		<g
   id="g40">
			<path
   class="st7"
   d="M265.37,338.32c-3.31,0-6-2.69-6-6V294.6c0-3.31,2.69-6,6-6s6,2.69,6,6v37.73     C271.37,335.64,268.68,338.32,265.37,338.32z"
   id="path36"
   style="fill:#34bcc7;fill-opacity:1" />
			<path
   class="st0"
   d="M279.67,338.32h-28.59c-13.71,0-24.86-11.15-24.86-24.86s11.15-24.86,24.86-24.86h28.59     c13.71,0,24.86,11.15,24.86,24.86S293.38,338.32,279.67,338.32z M251.07,300.6c-7.09,0-12.86,5.77-12.86,12.86     s5.77,12.86,12.86,12.86h28.59c7.09,0,12.86-5.77,12.86-12.86s-5.77-12.86-12.86-12.86H251.07z"
   id="path38" />
		</g>
	</g>
</g>
</svg>
