<?xml version="1.0" encoding="UTF-8" standalone="no"?>
<!-- Generator: Adobe Illustrator 24.1.2, SVG Export Plug-In . SVG Version: 6.00 Build 0)  -->

<svg
   version="1.1"
   id="Warstwa_3"
   x="0px"
   y="0px"
   viewBox="0 0 200 200"
   xml:space="preserve"
   sodipodi:docname="medicine.svg"
   inkscape:version="1.2.1 (9c6d41e410, 2022-07-14)"
   width="200"
   height="200"
   xmlns:inkscape="http://www.inkscape.org/namespaces/inkscape"
   xmlns:sodipodi="http://sodipodi.sourceforge.net/DTD/sodipodi-0.dtd"
   xmlns="http://www.w3.org/2000/svg"
   xmlns:svg="http://www.w3.org/2000/svg"><defs
   id="defs49" /><sodipodi:namedview
   id="namedview47"
   pagecolor="#ffffff"
   bordercolor="#000000"
   borderopacity="0.25"
   inkscape:showpageshadow="2"
   inkscape:pageopacity="0.0"
   inkscape:pagecheckerboard="0"
   inkscape:deskcolor="#d1d1d1"
   showgrid="false"
   inkscape:zoom="2.3811409"
   inkscape:cx="194.4446"
   inkscape:cy="142.15874"
   inkscape:window-width="2560"
   inkscape:window-height="1009"
   inkscape:window-x="0"
   inkscape:window-y="0"
   inkscape:window-maximized="1"
   inkscape:current-layer="g44" />
<style
   type="text/css"
   id="style2">
	.st0{fill:#121331;}
	.st1{fill:#08A385;}
	.st2{fill:none;stroke:#121331;stroke-width:14;stroke-linecap:round;stroke-linejoin:round;stroke-miterlimit:10;}
	.st3{fill:none;stroke:#08A385;stroke-width:12;stroke-linecap:round;stroke-linejoin:round;stroke-miterlimit:10;}
	.st4{fill:#06A385;}
	.st5{fill:none;stroke:#121331;stroke-width:12;stroke-linecap:round;stroke-linejoin:round;stroke-miterlimit:10;}
	.st6{fill:#08a88a;}
	.st7{fill:#08A284;}
	.st8{fill:#08A688;}
	.st9{fill:#08a88a;}
</style>
<g
   id="g44"
   transform="translate(-87.900554,-48.701658)">
	<path
   class="st0"
   d="M 241.52585,248.69342 H 134.3206 c -12.0874,0 -21.92263,-9.88443 -21.92263,-22.03228 V 70.72569 c 0,-12.14786 9.83523,-22.03227 21.92263,-22.03227 h 107.19926 c 12.0874,0 21.92263,9.88441 21.92263,22.03227 v 155.92946 c 0.006,12.15384 -9.82925,22.03827 -21.91664,22.03827 z M 134.3206,55.9171 c -8.12814,0 -14.73489,6.6458 -14.73489,14.80859 v 155.92946 c 0,8.16879 6.61274,14.80855 14.73489,14.80855 h 107.19926 c 8.12815,0 14.73488,-6.6458 14.73488,-14.80855 V 70.72569 c 0,-8.16881 -6.61273,-14.80859 -14.73488,-14.80859 z"
   id="path4"
   style="stroke-width:0.600475" />
	<g
   id="g42"
   transform="matrix(0.59897891,0,0,0.60197448,59.142796,19.268897)">
		<g
   id="g10">
			<path
   class="st7"
   d="m 164.63,141.4 c -3.31,0 -6,-2.69 -6,-6 V 97.68 c 0,-3.31 2.69,-6 6,-6 3.31,0 6,2.69 6,6 v 37.73 c 0,3.31 -2.69,5.99 -6,5.99 z"
   id="path6"
   style="fill:#34bcc7;fill-opacity:1" />
			<path
   class="st0"
   d="m 178.93,141.4 h -28.59 c -13.71,0 -24.86,-11.15 -24.86,-24.86 0,-13.71 11.15,-24.86 24.86,-24.86 h 28.59 c 13.71,0 24.86,11.15 24.86,24.86 0,13.71 -11.15,24.86 -24.86,24.86 z m -28.6,-37.72 c -7.09,0 -12.86,5.77 -12.86,12.86 0,7.09 5.77,12.86 12.86,12.86 h 28.59 c 7.09,0 12.86,-5.77 12.86,-12.86 0,-7.09 -5.77,-12.86 -12.86,-12.86 z"
   id="path8" />
		</g>
		<g
   id="g16">
			<path
   class="st7"
   d="m 164.63,240.5 c -3.31,0 -6,-2.69 -6,-6 v -37.73 c 0,-3.31 2.69,-6 6,-6 3.31,0 6,2.69 6,6 v 37.73 c 0,3.32 -2.69,6 -6,6 z"
   id="path12"
   style="fill:#34bcc7;fill-opacity:1" />
			<path
   class="st0"
   d="m 178.93,240.5 h -28.59 c -13.71,0 -24.86,-11.15 -24.86,-24.86 0,-13.71 11.15,-24.86 24.86,-24.86 h 28.59 c 13.71,0 24.86,11.15 24.86,24.86 0,13.71 -11.15,24.86 -24.86,24.86 z m -28.6,-37.72 c -7.09,0 -12.86,5.77 -12.86,12.86 0,7.09 5.77,12.86 12.86,12.86 h 28.59 c 7.09,0 12.86,-5.77 12.86,-12.86 0,-7.09 -5.77,-12.86 -12.86,-12.86 z"
   id="path14" />
		</g>
		<g
   id="g22">
			<path
   class="st7"
   d="m 164.63,339.6 c -3.31,0 -6,-2.69 -6,-6 v -37.73 c 0,-3.31 2.69,-6 6,-6 3.31,0 6,2.69 6,6 v 37.73 c 0,3.32 -2.69,6 -6,6 z"
   id="path18"
   style="fill:#34bcc7;fill-opacity:1" />
			<path
   class="st0"
   d="m 178.93,339.6 h -28.59 c -13.71,0 -24.86,-11.15 -24.86,-24.86 0,-13.71 11.15,-24.86 24.86,-24.86 h 28.59 c 13.71,0 24.86,11.15 24.86,24.86 0,13.71 -11.15,24.86 -24.86,24.86 z m -28.6,-37.72 c -7.09,0 -12.86,5.77 -12.86,12.86 0,7.09 5.77,12.86 12.86,12.86 h 28.59 c 7.09,0 12.86,-5.77 12.86,-12.86 0,-7.09 -5.77,-12.86 -12.86,-12.86 z"
   id="path20" />
		</g>
		<g
   id="g28">
			<path
   class="st7"
   d="m 265.37,140.12 c -3.31,0 -6,-2.69 -6,-6 V 96.4 c 0,-3.31 2.69,-6 6,-6 3.31,0 6,2.69 6,6 v 37.73 c 0,3.31 -2.69,5.99 -6,5.99 z"
   id="path24"
   style="fill:#34bcc7;fill-opacity:1" />
			<path
   class="st0"
   d="m 279.67,140.12 h -28.59 c -13.71,0 -24.86,-11.15 -24.86,-24.86 0,-13.71 11.15,-24.86 24.86,-24.86 h 28.59 c 13.71,0 24.86,11.15 24.86,24.86 0,13.71 -11.15,24.86 -24.86,24.86 z m -28.6,-37.72 c -7.09,0 -12.86,5.77 -12.86,12.86 0,7.09 5.77,12.86 12.86,12.86 h 28.59 c 7.09,0 12.86,-5.77 12.86,-12.86 0,-7.09 -5.77,-12.86 -12.86,-12.86 z"
   id="path26" />
		</g>
		<g
   id="g34">
			<path
   class="st7"
   d="m 265.37,239.22 c -3.31,0 -6,-2.69 -6,-6 V 195.5 c 0,-3.31 2.69,-6 6,-6 3.31,0 6,2.69 6,6 v 37.73 c 0,3.31 -2.69,5.99 -6,5.99 z"
   id="path30"
   style="fill:#34bcc7;fill-opacity:1" />
			<path
   class="st0"
   d="m 279.67,239.22 h -28.59 c -13.71,0 -24.86,-11.15 -24.86,-24.86 0,-13.71 11.15,-24.86 24.86,-24.86 h 28.59 c 13.71,0 24.86,11.15 24.86,24.86 0,13.71 -11.15,24.86 -24.86,24.86 z m -28.6,-37.72 c -7.09,0 -12.86,5.77 -12.86,12.86 0,7.09 5.77,12.86 12.86,12.86 h 28.59 c 7.09,0 12.86,-5.77 12.86,-12.86 0,-7.09 -5.77,-12.86 -12.86,-12.86 z"
   id="path32" />
		</g>
		<g
   id="g40">
			<path
   class="st7"
   d="m 265.37,338.32 c -3.31,0 -6,-2.69 -6,-6 V 294.6 c 0,-3.31 2.69,-6 6,-6 3.31,0 6,2.69 6,6 v 37.73 c 0,3.31 -2.69,5.99 -6,5.99 z"
   id="path36"
   style="fill:#34bcc7;fill-opacity:1" />
			<path
   class="st0"
   d="m 279.67,338.32 h -28.59 c -13.71,0 -24.86,-11.15 -24.86,-24.86 0,-13.71 11.15,-24.86 24.86,-24.86 h 28.59 c 13.71,0 24.86,11.15 24.86,24.86 0,13.71 -11.15,24.86 -24.86,24.86 z m -28.6,-37.72 c -7.09,0 -12.86,5.77 -12.86,12.86 0,7.09 5.77,12.86 12.86,12.86 h 28.59 c 7.09,0 12.86,-5.77 12.86,-12.86 0,-7.09 -5.77,-12.86 -12.86,-12.86 z"
   id="path38" />
		</g>
	</g>
</g>
</svg>
