<?xml version="1.0" encoding="UTF-8" standalone="no"?>
<!-- Created with Inkscape (http://www.inkscape.org/) -->

<svg
   version="1.1"
   id="svg2"
   width="1106.5468"
   height="1106.5468"
   viewBox="0 0 1106.5468 1106.5468"
   sodipodi:docname="patient-heart.svg"
   inkscape:version="1.2.1 (9c6d41e410, 2022-07-14)"
   xmlns:inkscape="http://www.inkscape.org/namespaces/inkscape"
   xmlns:sodipodi="http://sodipodi.sourceforge.net/DTD/sodipodi-0.dtd"
   xmlns="http://www.w3.org/2000/svg"
   xmlns:svg="http://www.w3.org/2000/svg">
  <defs
     id="defs6" />
  <sodipodi:namedview
     id="namedview4"
     pagecolor="#ffffff"
     bordercolor="#000000"
     borderopacity="0.25"
     inkscape:showpageshadow="2"
     inkscape:pageopacity="0.0"
     inkscape:pagecheckerboard="0"
     inkscape:deskcolor="#d1d1d1"
     showgrid="false"
     inkscape:zoom="0.65428779"
     inkscape:cx="554.03754"
     inkscape:cy="554.03754"
     inkscape:window-width="2560"
     inkscape:window-height="1009"
     inkscape:window-x="0"
     inkscape:window-y="0"
     inkscape:window-maximized="1"
     inkscape:current-layer="g10">
    <inkscape:page
       x="0"
       y="0"
       id="page8"
       width="1106.5468"
       height="1106.5468" />
  </sodipodi:namedview>
  <g
     id="g10"
     inkscape:groupmode="layer"
     inkscape:label="Page 1"
     transform="matrix(1.3333333,0,0,-1.3333333,0,1106.5467)">
    <g
       id="g12"
       transform="scale(0.1)">
      <path
         d="M 8299.08,0 H 0 V 8299.08 H 8299.08 V 0"
         style="fill:#ffffff;fill-opacity:1;fill-rule:nonzero;stroke:none"
         id="path14" />
      <path
         d="m 5729.76,7229.69 c -605.85,4.45 -1098.39,-481.02 -1098.39,-1080.51 0,599.49 -492.53,1084.96 -1098.38,1080.51 -601.07,-4.42 -1081.85,-498.27 -1081.85,-1094.08 v 0 c 0,-524.23 215.59,-1025.8 597.01,-1388.94 L 4631.37,3239.3 6214.59,4746.67 c 381.43,363.14 597.01,864.71 597.01,1388.94 v 0 c 0,595.81 -480.78,1089.66 -1081.84,1094.08"
         style="fill:#ff5c5c;fill-opacity:1;fill-rule:nonzero;stroke:none"
         id="path16" />
      <path
         d="m 6331.49,3952.8 h -548.5 v 548.51 H 5283.01 V 3952.8 H 4734.5 v -499.98 h 548.51 v -548.51 h 499.98 v 548.51 h 548.5 v 499.98"
         style="fill:#91c4f4;fill-opacity:1;fill-rule:nonzero;stroke:none"
         id="path18" />
      <path
         d="m 4156.02,5000.37 c 207.5,0 415,0 622.5,0 51.66,0 103.32,0 154.97,0 22.18,0 44.37,0 66.56,0 12.74,0 25.27,-2.35 36.31,3.99 18.1,10.4 35.53,35.54 50.14,50.15 15.27,15.26 30.53,30.52 45.79,45.78 -5.95,0 -11.9,0 -17.86,0 49.5,-49.49 98.98,-98.97 148.47,-148.46 6.76,-6.76 18.51,-3.55 21.1,5.57 51.15,179.71 102.3,359.42 153.44,539.13 7.26,25.49 14.51,50.98 21.77,76.47 -8.12,0 -16.23,0 -24.36,0 43,-265.96 86,-531.92 129,-797.88 5.98,-37.06 11.98,-74.12 17.97,-111.18 2.15,-13.32 20.7,-10.6 24.35,0 59.68,173.22 119.37,346.43 179.04,519.64 8.56,24.84 17.11,49.67 25.67,74.49 -8.12,0 -16.23,0 -24.35,0 27.4,-126.35 54.82,-252.71 82.22,-379.06 2.35,-10.84 17.79,-12.02 23.08,-3.02 44.31,75.62 88.64,151.24 132.96,226.86 -5.76,-1.51 -11.52,-3.02 -17.27,-4.53 39.16,-25.64 78.31,-51.28 117.47,-76.92 24.71,-16.18 33.38,-21.03 61.84,-21.03 111.98,0 223.96,0 335.93,0 35.67,0 71.32,0 106.98,0 16.25,0 16.27,25.25 0,25.25 -85.96,0 -171.91,0 -257.86,0 -54.09,0 -108.18,0 -162.26,0 -14.22,0 -28.59,0.57 -42.79,0 -5.89,-0.24 -7.79,2.04 0.12,-1.54 -5.24,2.37 -10.19,6.67 -15.01,9.82 -43.89,28.74 -87.79,57.48 -131.68,86.22 -5.71,3.74 -13.95,1.13 -17.27,-4.53 -44.33,-75.62 -88.64,-151.24 -132.97,-226.85 7.69,-1.01 15.38,-2.01 23.08,-3.02 -27.41,126.36 -54.82,252.71 -82.22,379.07 -2.81,12.98 -20.57,10.98 -24.35,0 -59.68,-173.21 -119.36,-346.43 -179.04,-519.65 -8.56,-24.82 -17.11,-49.66 -25.67,-74.49 8.12,0 16.24,0 24.35,0 -43,265.96 -85.99,531.92 -128.99,797.87 -5.99,37.06 -11.99,74.13 -17.97,111.19 -2.08,12.86 -21.18,11.15 -24.36,0 -51.14,-179.71 -102.28,-359.42 -153.43,-539.13 -7.26,-25.49 -14.52,-50.98 -21.76,-76.47 7.03,1.86 14.06,3.72 21.09,5.58 -49.48,49.48 -98.97,98.97 -148.46,148.46 -4.82,4.82 -13.02,4.83 -17.86,0 -14.48,-14.49 -28.97,-28.98 -43.46,-43.47 -11.05,-11.04 -22.09,-22.09 -33.14,-33.13 -4.54,-4.55 -12.4,-16.53 -18.47,-18.48 -4.24,-1.36 -36.17,2.55 -47.29,2.55 -22.79,0 -45.59,0 -68.39,0 -48.91,0 -97.83,0 -146.75,0 -200.3,0 -400.6,0 -600.91,0 -16.25,0 -16.27,-25.25 0,-25.25 v 0"
         style="fill:#ffffff;fill-opacity:1;fill-rule:nonzero;stroke:none"
         id="path20" />
      <path
         d="m 5250.31,1153.36 c 0,-62.73 -825.81,-113.58 -1844.49,-113.58 -1018.69,0 -1844.49,50.85 -1844.49,113.58 0,62.72 825.8,113.57 1844.49,113.57 1018.68,0 1844.49,-50.85 1844.49,-113.57"
         style="fill:#d9d9d9;fill-opacity:1;fill-rule:nonzero;stroke:none"
         id="path22" />
      <path
         d="m 2638.18,1404.01 c 341.82,1501.74 254.16,2862.7 254.16,2862.7 0,0 8.07,362.83 -551.73,-1092.7 -179.56,-466.86 -144.33,-1047.64 -55,-1428.26 43.63,-185.94 34.54,-381.74 34.54,-381.74 l 1.11,-180 h 736.95 l -420.03,220"
         style="fill:#161e57;fill-opacity:1;fill-rule:nonzero;stroke:none"
         id="path24" />
      <path
         d="m 2653.28,3676.51 c 0,0 250.3,362.9 239.06,590.2 h -942.61 c 0,0 -44.7,-297.44 -32.62,-624.18 6.71,-181.38 -1.73,-362.95 -24.78,-542.99 -16.26,-127.02 -29.78,-323.29 -30.38,-625.38 -0.14,-69.98 18.95,-399.96 52.38,-670.15 23.91,-193.16 35.4,-440 35.4,-440 v -180 h 736.18 l -422.75,180 390.12,2312.5"
         style="fill:#3a4f73;fill-opacity:1;fill-rule:nonzero;stroke:none"
         id="path26" />
      <path
         d="m 3534.1,4172.49 c 0,0 -33.75,-1696.38 -36.95,-2806.38 h 205.6 c 29.93,324.37 303.18,883.5 328.41,1451.35 29.68,667.75 266.61,1034.29 266.61,1274.18 0,500 -246.17,-15.53 -244.67,244.47 1.56,273.05 -546.76,-149.99 -519,-163.62"
         style="fill:#598fba;fill-opacity:1;fill-rule:nonzero;stroke:none"
         id="path28" />
      <path
         d="m 4357.37,4266.71 c 0,0 164.52,-321.07 152.44,-647.8 -6.71,-181.38 -5.27,-328.37 36.07,-505.1 188.62,-806.65 3.11,-1092.84 24.53,-1535.24 6.33,-130.8 10.3,-214.56 10.3,-214.56 h -183.44 l -680.11,2852.5 c 0,0 -240.31,-177.1 -229.06,50.2 h 869.27"
         style="fill:#91c4f4;fill-opacity:1;fill-rule:nonzero;stroke:none"
         id="path30" />
      <path
         d="m 3912.27,6328.66 c 0,0 -255.89,9.04 -177.8,156.67 122.43,231.46 569.28,100 597.22,-252.23 14.51,-182.84 -164,-265.05 50.19,-349.27 250,-98.32 306.66,-276.44 194.39,-501.44 -86.92,-174.2 248.94,-575.23 -237.91,-688.1 -598.76,-138.82 -618.93,-158.39 -791.39,305.85 -185.09,498.22 365.3,1328.52 365.3,1328.52"
         style="fill:#1f2e54;fill-opacity:1;fill-rule:nonzero;stroke:none"
         id="path32" />
      <path
         d="m 3025.05,5234.51 -132.91,-59.32 c 15.28,-194.35 0.31,-447.29 0.31,-447.29 188.38,-196.01 590.97,-57.79 590.97,-57.79 l 0.37,226.24 c -241.38,-124.05 -326.01,61.81 -458.74,338.16"
         style="fill:#fbb98c;fill-opacity:1;fill-rule:nonzero;stroke:none"
         id="path34" />
      <path
         d="m 2892.14,5175.19 131.18,58.54 c -24.42,53.61 -50.14,110.75 -78.48,170 -175.86,367.7 -596.22,406.85 -596.22,406.85 l -92.07,-40.57 c -97.32,-46.76 -181,-104.98 -252.04,-234.32 -74.48,-135.59 -102.59,-291.83 -85.19,-445.55 l -4.99,-917.65 h 1009.66 c 0,0 -16.57,808.35 -31.85,1002.7"
         style="fill:#0c9fc6;fill-opacity:1;fill-rule:nonzero;stroke:none"
         id="path36" />
      <path
         d="m 4301.42,5646.96 c 0,0 -47.96,50.63 -258.46,138.55 l -224.2,-15.01 c 0,0 -207.79,62.52 -374.32,-129.32 -149.31,-172 -271.25,-313.09 -518.16,-201.58 6.43,-11.61 12.65,-23.53 18.56,-35.87 37.77,-78.98 97.32,-205.61 130.7,-272.81 135.22,-38.21 294.01,-13.56 407.88,71.07 V 4670.11 4458.6 c 0,0 564.87,-26.65 706.09,333.06 141.21,359.71 111.91,855.3 111.91,855.3"
         style="fill:#ffffff;fill-opacity:1;fill-rule:nonzero;stroke:none"
         id="path38" />
      <path
         d="m 2327.4,5960.35 2.17,-130.9 c 0.67,-39.8 20.31,-77.03 53.17,-99.51 71,-48.59 190.18,-107.25 197.63,39.94 l -26.26,104.86 -226.71,85.61"
         style="fill:#fbb98c;fill-opacity:1;fill-rule:nonzero;stroke:none"
         id="path40" />
      <path
         d="m 2367.21,6006.78 v 130.51 c -18.9,-7.45 -39.4,-16.07 -38.54,-18.14 V 5941.9 l 38.54,7.11 v 57.77"
         style="fill:#ffc9a4;fill-opacity:1;fill-rule:nonzero;stroke:none"
         id="path42" />
      <path
         d="m 2502.32,6296.86 c -15.46,-1.07 -30.78,-3.28 -44.96,-6.19 -22.01,-4.52 -40.24,-17.62 -51.75,-35.2 v -181.98 c 36.93,-29.38 89.72,-40.12 137.46,-21.76 31.87,12.25 60.45,17.37 86.43,14.57 21.98,-2.38 41.29,-12.63 55.66,-27.65 0.27,34.57 0.8,116.39 0.74,228.27 -43.71,8.27 -95.71,25.23 -148.6,29.94 h -34.98"
         style="fill:#ffc9a4;fill-opacity:1;fill-rule:nonzero;stroke:none"
         id="path44" />
      <path
         d="m 2769.06,6502.12 c 9.31,76.21 -51.11,168.09 -139.4,136.93 -90.59,-31.98 -13.32,-123.64 -135.89,-137.55 -122.56,-13.91 -306.13,63.85 -270.44,-172.67 0,0 -71.11,0.49 -57.29,-126.12 13.32,-122.03 114.67,-250.15 162.63,-260.81 v 177.25 c -0.86,2.07 19.64,10.69 38.54,18.14 v -13.63 -116.88 -133.9 c 0,0 93.13,-125.85 250.77,-124.41 51.67,0.47 93.38,42.44 93.38,94.11 v 130.91 c 0,47.14 -34.99,87.75 -81.86,92.81 -25.98,2.8 -54.56,-2.32 -86.43,-14.57 -47.74,-18.37 -100.53,-7.62 -137.46,21.76 v 181.98 c 11.51,17.58 29.74,30.68 51.75,35.2 24.93,5.12 53.37,8.56 79.94,6.19 102.68,-9.15 202.11,-64.54 243.75,-12.66 24.65,30.71 14.62,53.51 -5.89,69.74 94.31,67.25 41.56,119.9 -6.1,148.18"
         style="fill:#1f2e54;fill-opacity:1;fill-rule:nonzero;stroke:none"
         id="path46" />
      <path
         d="m 2367.21,6218.39 c -5.15,1.18 -10.48,1.86 -15.98,1.86 -39.37,0 -71.28,-31.91 -71.28,-71.27 0,-39.37 31.91,-71.28 71.28,-71.28 5.5,0 10.83,0.69 15.98,1.87 v 138.82"
         style="fill:#ffc9a4;fill-opacity:1;fill-rule:nonzero;stroke:none"
         id="path48" />
      <path
         d="m 4440.53,4975.24 -29.37,-183.37 c -30.48,-190.29 -16.13,-384.53 41.2,-567.43 30.87,-98.45 59.04,-197.72 80.99,-298.52 l 66.86,-307.01 H 3414.8 l 50.91,795.52 577.25,321.27 397.57,239.54"
         style="fill:#f4f4f4;fill-opacity:1;fill-rule:nonzero;stroke:none"
         id="path50" />
      <path
         d="m 3732.51,5412.48 c 0,0 209.2,141.22 310.45,373.03 l -226.48,-47.29 c 0,0 -80.02,-128.56 -83.97,-325.74"
         style="fill:#91c4f4;fill-opacity:1;fill-rule:nonzero;stroke:none"
         id="path52" />
      <path
         d="m 3733.34,5413.05 c 6.27,4.33 50.03,35.06 105.21,88.09 l 18.54,127.17 c 0,0 -74.98,-22.22 -123.4,-186.94 -0.52,-8.94 -0.93,-18 -1.13,-27.25 l 0.78,-1.07"
         style="fill:#1f2e54;fill-opacity:1;fill-rule:nonzero;stroke:none"
         id="path54" />
      <path
         d="m 3851.12,5708.24 -16.8,-34.88 c -11.29,-23.46 -11.48,-50.74 -0.52,-74.36 v 0 l 15.76,5.45 c 24.21,8.37 43.5,26.99 52.71,50.88 l 24.85,64.37 -76,-11.46"
         style="fill:#1f2e54;fill-opacity:1;fill-rule:nonzero;stroke:none"
         id="path56" />
      <path
         d="m 3816.48,5738.22 c 0,0 -19.67,-31.64 -39.99,-87.54 l 95.95,34.41 55.88,-86 c 42.27,52.64 83.55,115.24 114.64,186.42 l -226.48,-47.29"
         style="fill:#ffffff;fill-opacity:1;fill-rule:nonzero;stroke:none"
         id="path58" />
      <path
         d="m 4085.39,5628.18 c 75.89,69.97 196.44,61.4 259.87,-20.04 60.66,-77.87 117.43,-217.1 109.91,-464.3 -15.58,-511.37 -241.41,-708.65 -833.25,-729.41 0,0 -174.31,-106 -287.32,-102.59 -7.41,0.23 -11.35,8.98 -6.73,14.79 9.99,12.59 27.51,31.46 51.35,44.97 0,0 -41.7,-27.8 -87.24,-32.94 -5.33,-0.6 -8.55,5.81 -4.98,9.8 12.29,13.72 35.82,37.53 62.37,51.69 0,0 -64.9,-29.85 -89.56,-27.25 -24.65,2.59 73.98,72.68 73.98,72.68 0,0 -99.93,-62.3 -111.61,-46.72 -11.69,15.57 103.2,133.14 184.29,146.66 31.16,5.19 38.94,19.46 6.49,29.84 -32.44,10.39 -46.72,46.73 -46.72,63.6 0,16.87 27.26,12.98 42.83,-7.79 15.58,-20.76 48.02,-40.23 62.3,-40.23 14.27,0 90.85,-46.72 90.85,-46.72 0,0 460.75,173.94 447.77,456.21 -10.84,235.67 -85.9,479.03 75.4,627.75"
         style="fill:#fbb98c;fill-opacity:1;fill-rule:nonzero;stroke:none"
         id="path60" />
      <path
         d="m 3562.22,4544.22 c 0,0 460.75,173.94 447.77,456.21 -10.84,235.67 -85.9,479.03 75.4,627.75 75.89,69.97 196.44,61.4 259.87,-20.04 60.66,-77.87 117.43,-217.1 109.91,-464.3 -15.58,-511.37 -241.41,-708.65 -833.25,-729.41 -8.4,102.66 -59.7,129.79 -59.7,129.79"
         style="fill:#ffffff;fill-opacity:1;fill-rule:nonzero;stroke:none"
         id="path62" />
      <path
         d="m 3536.76,5169.09 c -30.63,72.3 -36.22,147.77 -15.41,223.65 13.65,49.78 94.91,186.15 138.34,87.43 41.82,-95.07 -20.7,-235.18 -59.91,-319.84 -3.68,-7.95 8.14,-14.93 11.85,-6.92 36.27,78.33 72.21,168.97 72.38,256.59 0.08,37.45 -5.03,102.07 -48,116.59 -54.24,18.33 -99.77,-53.05 -115.69,-93.2 -35.28,-88.92 -32.51,-183.63 4.6,-271.22 3.43,-8.1 15.25,-1.12 11.84,6.92 v 0"
         style="fill:#1f2e54;fill-opacity:1;fill-rule:nonzero;stroke:none"
         id="path64" />
      <path
         d="m 4047.53,5784.49 c 75.8,-91.9 -34.42,-228.1 -80.06,-310.85 -3.89,-7.05 6.9,-13.36 10.79,-6.31 48.82,88.52 160.27,226.39 78.11,326 -5.12,6.21 -13.92,-2.68 -8.84,-8.84 v 0"
         style="fill:#232a79;fill-opacity:1;fill-rule:nonzero;stroke:none"
         id="path66" />
      <path
         d="m 3789.21,5794.49 c -142.71,-3.23 -159.01,-160 -178.72,-268.72 -1.56,-8.63 11.66,-12.33 13.23,-3.64 18.36,101.32 30.23,255.58 165.49,258.64 8.81,0.2 8.84,13.92 0,13.72 v 0"
         style="fill:#1f2e54;fill-opacity:1;fill-rule:nonzero;stroke:none"
         id="path68" />
      <path
         d="m 3527.4,5141.27 c 10.99,-5.29 25.1,0.19 27.4,12.91 1.89,10.4 -6.12,19.72 -16.34,20.55 -7.73,0.63 -16.53,-3.3 -20.4,-10.23 -5.29,-9.48 1.18,-18.36 9.34,-23.23 7.6,-4.54 14.51,7.32 6.93,11.84 -1.64,0.98 -3.58,2.04 -4.47,3.84 -0.29,0.6 -0.08,0.42 0.05,0.63 1.07,1.74 3.43,3.15 5.96,3.49 1.85,0.25 3.96,-0.04 5.03,-2.13 1.98,-3.84 -3.09,-7.51 -6.57,-5.83 -7.92,3.81 -14.89,-8.01 -6.93,-11.84"
         style="fill:#1f2e54;fill-opacity:1;fill-rule:nonzero;stroke:none"
         id="path70" />
      <path
         d="m 3589.32,5132.5 c 10.99,-5.29 25.09,0.19 27.4,12.91 1.88,10.4 -6.13,19.72 -16.34,20.55 -7.74,0.63 -16.53,-3.3 -20.4,-10.23 -5.3,-9.48 1.18,-18.36 9.34,-23.23 7.6,-4.54 14.5,7.32 6.92,11.84 -1.64,0.98 -3.58,2.04 -4.46,3.84 -0.3,0.59 -0.09,0.42 0.04,0.63 1.07,1.74 3.43,3.15 5.96,3.48 1.86,0.25 3.97,-0.04 5.04,-2.12 1.97,-3.84 -3.09,-7.51 -6.58,-5.83 -7.92,3.81 -14.88,-8.01 -6.92,-11.84"
         style="fill:#1f2e54;fill-opacity:1;fill-rule:nonzero;stroke:none"
         id="path72" />
      <path
         d="m 3925.04,5370.17 c 40.46,-13.59 98.68,19.89 78.82,78.49 -23.66,69.85 -118.23,39.21 -114.07,-27.65 1.76,-28.34 16.63,-44.58 35.25,-50.84"
         style="fill:#1f2e54;fill-opacity:1;fill-rule:nonzero;stroke:none"
         id="path74" />
      <path
         d="m 3940.44,5407.55 c 14.2,-4.78 34.64,6.97 27.67,27.55 -8.31,24.52 -41.5,13.77 -40.04,-9.71 0.61,-9.95 5.83,-15.65 12.37,-17.84"
         style="fill:#ffffff;fill-opacity:1;fill-rule:nonzero;stroke:none"
         id="path76" />
      <path
         d="m 2045.65,5630.67 c 0,0 -45.21,-8.7 -50.48,-31.67 -5.28,-22.97 -47.06,-37.12 -52.64,-51.05 -4.12,-10.27 -6.44,-60.01 -7.38,-85.56 -0.24,-3.63 -0.37,-7.33 -0.38,-11.14 -0.08,-2.59 -0.12,-4.13 -0.12,-4.13 l 0.14,0.2 c 0.2,-10.54 1.24,-21.67 3.67,-33.48 10.15,-49.39 24,-36.42 29.52,10.19 9.65,-27.62 20.78,-10.48 25.21,32.09 10.63,-41.3 24.16,-21.94 28.46,29.38 15.16,-55.23 35.67,9.61 27.33,113.39 11.41,-7.4 49.3,-29.58 52.12,0.2 3.34,35.09 -55.45,31.58 -55.45,31.58"
         style="fill:#ffc9a4;fill-opacity:1;fill-rule:nonzero;stroke:none"
         id="path78" />
      <path
         d="m 4079.04,6152.38 c 4.69,36.31 -20.94,69.55 -57.24,74.24 -0.21,0.03 -0.42,0.02 -0.63,0.05 5.99,30.95 12.72,56.71 17.04,72.01 -60.31,-2.89 -170.75,10.52 -221.8,136.17 -4.55,11.19 -6.09,21.03 -5.45,29.81 -39.96,-24.49 -76.06,-68.98 -103.3,-141.45 -23.58,-62.7 -71.34,-204.71 -53.49,-296.26 24.58,-126.11 98.34,-140.66 191.35,-121.77 0,0 -110.31,-255.83 22.21,-239.73 108.75,13.2 175.56,123.6 175.56,123.6 l 18.39,164.06 c -0.5,0.39 -1.01,0.71 -1.52,1.12 -37.32,30.12 -50.44,83.79 -51.83,140.63 34.91,-2.65 66.17,22.4 70.71,57.52"
         style="fill:#ffc9a4;fill-opacity:1;fill-rule:nonzero;stroke:none"
         id="path80" />
      <path
         d="m 3440.7,4523.03 c -31.14,5.19 -38.93,19.46 -6.49,29.85 32.45,10.38 46.73,46.72 46.73,63.59 0,16.87 -27.25,12.98 -42.83,-7.79 -15.58,-20.76 -48.02,-40.23 -62.3,-40.23 -14.28,0 -90.85,-46.72 -90.85,-46.72 0,0 -368.91,13.97 -599.05,72.28 -217.08,55 -281.47,10 -292.16,379.3 -1.13,39.18 5.39,78.51 9.36,117.61 -0.01,-0.02 -0.01,-0.04 -0.01,-0.06 h -453.37 c -35.4,-256.85 61.04,-617.34 259.71,-709.86 160.51,-74.74 443.67,-111.06 1015.82,10.94 0,0 174.31,-106 287.32,-102.58 7.41,0.22 50.12,58.45 74.79,61.05 24.66,2.59 25.95,10.38 37.63,25.96 11.68,15.57 -103.19,133.14 -184.3,146.66"
         style="fill:#ffc9a4;fill-opacity:1;fill-rule:nonzero;stroke:none"
         id="path82" />
      <path
         d="m 3497.15,1366.11 -473.83,-180 h 691.44 l -12.01,180 h -205.6"
         style="fill:#1f2e54;fill-opacity:1;fill-rule:nonzero;stroke:none"
         id="path84" />
      <path
         d="m 4397.27,1364.01 -509.54,-180 h 692.98 v 180 h -183.44"
         style="fill:#1f2e54;fill-opacity:1;fill-rule:nonzero;stroke:none"
         id="path86" />
      <path
         d="m 3470.21,5429.13 h 13.21 v -307.3 h -13.21 v 307.3"
         style="fill:#ff5c5c;fill-opacity:1;fill-rule:nonzero;stroke:none"
         id="path88" />
    </g>
  </g>
</svg>
