<?xml version="1.0" encoding="UTF-8" standalone="no"?>
<!-- Created with Inkscape (http://www.inkscape.org/) -->

<svg
   version="1.1"
   id="svg2"
   width="8000"
   height="5333.3335"
   viewBox="0 0 8000 5333.3335"
   sodipodi:docname="phone-doc.svg"
   inkscape:version="1.2.1 (9c6d41e410, 2022-07-14)"
   xmlns:inkscape="http://www.inkscape.org/namespaces/inkscape"
   xmlns:sodipodi="http://sodipodi.sourceforge.net/DTD/sodipodi-0.dtd"
   xmlns="http://www.w3.org/2000/svg"
   xmlns:svg="http://www.w3.org/2000/svg">
  <defs
     id="defs6">
    <clipPath
       clipPathUnits="userSpaceOnUse"
       id="clipPath22">
      <path
         d="m 54474.4,2698.1 c -1625.8,1561.1 -1778,4105.7 -1473.3,6339 304.6,2233.3 956.8,4487.8 544.1,6703.6 -531.2,2851.9 -2712.1,5075.5 -4856.2,7029.6 -2144.1,1954 -4450,3963.2 -5385.9,6709.1 -498.6,1462.7 -593.1,3101.6 -1479.4,4367.7 -829.9,1185.5 -2232.3,1845.6 -3636.5,2196 -4874.5,1216.6 -10412.7,-1045 -13042.2,-5326 C 23934,28745.6 23296.6,26423.9 21821.4,24641.4 19393.6,21707.9 15149.2,20763.5 12747.3,17808.7 10762.5,15367 10407.9,12038.6 9852.45,8941.3 9296.97,5844.1 8239.01,2485.5 5525.65,892 20253.6,284.699 34883,383.5 49602.8,1165.2 c 1838.8,97.6 3510.6,292.4 4871.6,1532.9"
         id="path20" />
    </clipPath>
    <clipPath
       clipPathUnits="userSpaceOnUse"
       id="clipPath72">
      <path
         d="m 30188.3,7380.2 h 9890.3 c 977,0 1899.3,809.4 2060,1807.8 L 45808,31989.8 c 160.7,998.5 -501.1,1807.8 -1478.1,1807.8 h -9890.4 c -976.9,0 -1899.2,-809.3 -2059.9,-1807.8 L 28710.2,9188 c -160.7,-998.4 501.1,-1807.8 1478.1,-1807.8"
         id="path70" />
    </clipPath>
    <clipPath
       clipPathUnits="userSpaceOnUse"
       id="clipPath152">
      <path
         d="M 30369.3,17163.5 29177.5,9815.7 30488.4,7842.1 h 8540.2 l 1815.2,1725.9 1011.7,9760.3 -191.9,6990.5 -2778.4,4284.8 -3690.8,756.4 -2355.3,-2152.4 -2088.3,-3960 -4284.8,-903.8 -1841.1,-1104.7 200.8,-2376.7 5054.7,-3648.8 488.9,-50.1"
         id="path150" />
    </clipPath>
    <clipPath
       clipPathUnits="userSpaceOnUse"
       id="clipPath292">
      <path
         d="m 28267.1,2220.5 c -9763,0 -17677.4,224.8 -17677.4,502.2 0,277.3 7914.4,502.2 17677.4,502.2 9762.9,0 17677.4,-224.9 17677.4,-502.2 0,-277.4 -7914.5,-502.2 -17677.4,-502.2"
         id="path290" />
    </clipPath>
  </defs>
  <sodipodi:namedview
     id="namedview4"
     pagecolor="#ffffff"
     bordercolor="#000000"
     borderopacity="0.25"
     inkscape:showpageshadow="2"
     inkscape:pageopacity="0.0"
     inkscape:pagecheckerboard="0"
     inkscape:deskcolor="#d1d1d1"
     showgrid="false"
     inkscape:zoom="0.13575"
     inkscape:cx="4003.6834"
     inkscape:cy="2670.35"
     inkscape:window-width="2560"
     inkscape:window-height="1009"
     inkscape:window-x="0"
     inkscape:window-y="0"
     inkscape:window-maximized="1"
     inkscape:current-layer="g10">
    <inkscape:page
       x="0"
       y="0"
       id="page8"
       width="8000"
       height="5333.3335" />
  </sodipodi:namedview>
  <g
     id="g10"
     inkscape:groupmode="layer"
     inkscape:label="Page 1"
     transform="matrix(1.3333333,0,0,-1.3333333,0,5333.3333)">
    <g
       id="g12"
       transform="scale(0.1)">
      <path
         d="M 0,0 H 60000 V 40000 H 0 Z"
         style="fill:#ffffff;fill-opacity:1;fill-rule:nonzero;stroke:none"
         id="path14" />
      <g
         id="g16">
        <g
           id="g18"
           clip-path="url(#clipPath22)">
          <path
             d="m 54248,37259.7 4,-520.3 -48726.36,-375.5 v 895.8 H 54248"
             style="fill:#eeecfa;fill-opacity:1;fill-rule:nonzero;stroke:none"
             id="path24" />
          <path
             d="m 54252,36739.4 9.8,-1278.1 -48736.16,-375.6 v 1278.2 L 54252,36739.4"
             style="fill:#efedfa;fill-opacity:1;fill-rule:nonzero;stroke:none"
             id="path26" />
          <path
             d="m 54261.9,35461.3 9.8,-1278.1 -48746.05,-375.7 v 1278.2 l 48736.25,375.6"
             style="fill:#f0eefa;fill-opacity:1;fill-rule:nonzero;stroke:none"
             id="path28" />
          <path
             d="m 54271.7,34183.2 9.8,-1278.1 -48755.85,-375.8 v 1278.2 l 48746.05,375.7"
             style="fill:#f0effb;fill-opacity:1;fill-rule:nonzero;stroke:none"
             id="path30" />
          <path
             d="m 54281.5,32905.1 9.9,-1278.1 -48765.75,-375.9 v 1278.2 l 48755.85,375.8"
             style="fill:#f1f0fb;fill-opacity:1;fill-rule:nonzero;stroke:none"
             id="path32" />
          <path
             d="m 54291.4,31627 9.9,-1278.1 L 5525.65,29973 v 1278.1 L 54291.4,31627"
             style="fill:#f2f1fb;fill-opacity:1;fill-rule:nonzero;stroke:none"
             id="path34" />
          <path
             d="m 54301.3,30348.9 9.8,-1278.1 -48785.45,-376 V 29973 l 48775.65,375.9"
             style="fill:#f3f2fb;fill-opacity:1;fill-rule:nonzero;stroke:none"
             id="path36" />
          <path
             d="m 54311.1,29070.8 9.8,-1278.2 -48795.26,-376 v 1278.2 l 48785.46,376"
             style="fill:#f4f3fc;fill-opacity:1;fill-rule:nonzero;stroke:none"
             id="path38" />
          <path
             d="m 54320.9,27792.6 9.9,-1278.1 -48805.16,-376.1 v 1278.2 l 48795.26,376"
             style="fill:#f5f4fc;fill-opacity:1;fill-rule:nonzero;stroke:none"
             id="path40" />
          <path
             d="m 54330.8,26514.5 9.9,-1278.1 -48815.06,-376.2 v 1278.2 l 48805.16,376.1"
             style="fill:#f6f5fc;fill-opacity:1;fill-rule:nonzero;stroke:none"
             id="path42" />
          <path
             d="m 54340.7,25236.4 9.8,-1278.1 L 5525.64,23582 v 1278.2 l 48815.06,376.2"
             style="fill:#f7f6fd;fill-opacity:1;fill-rule:nonzero;stroke:none"
             id="path44" />
          <path
             d="m 54350.5,23958.3 9.9,-1278.1 -48834.76,-376.4 V 23582 l 48824.86,376.3"
             style="fill:#f8f7fd;fill-opacity:1;fill-rule:nonzero;stroke:none"
             id="path46" />
          <path
             d="m 54360.4,22680.2 9.8,-1278.1 -48844.56,-376.5 v 1278.2 l 48834.76,376.4"
             style="fill:#f9f8fd;fill-opacity:1;fill-rule:nonzero;stroke:none"
             id="path48" />
          <path
             d="M 54370.2,21402.1 54380,20124 5525.64,19747.4 v 1278.2 l 48844.56,376.5"
             style="fill:#faf9fd;fill-opacity:1;fill-rule:nonzero;stroke:none"
             id="path50" />
          <path
             d="m 54380,20124 9.9,-1278.1 -48864.26,-376.6 v 1278.1 L 54380,20124"
             style="fill:#fafafe;fill-opacity:1;fill-rule:nonzero;stroke:none"
             id="path52" />
          <path
             d="m 54389.9,18845.9 9.9,-1278.2 -48874.15,-376.6 v 1278.2 l 48864.25,376.6"
             style="fill:#fbfbfe;fill-opacity:1;fill-rule:nonzero;stroke:none"
             id="path54" />
          <path
             d="m 54399.8,17567.7 9.8,-1278.1 -48883.95,-376.7 v 1278.2 l 48874.15,376.6"
             style="fill:#fcfcfe;fill-opacity:1;fill-rule:nonzero;stroke:none"
             id="path56" />
          <path
             d="m 54409.6,16289.6 9.9,-1278.1 -48893.86,-376.8 v 1278.2 l 48883.96,376.7"
             style="fill:#fdfdfe;fill-opacity:1;fill-rule:nonzero;stroke:none"
             id="path58" />
          <path
             d="m 54419.5,15011.5 9.8,-1278.1 -48903.66,-376.9 v 1278.2 l 48893.86,376.8"
             style="fill:#fefeff;fill-opacity:1;fill-rule:nonzero;stroke:none"
             id="path60" />
          <path
             d="m 54429.3,13733.4 9.9,-1278.1 -48913.56,-377 v 1278.2 l 48903.66,376.9"
             style="fill:#ffffff;fill-opacity:1;fill-rule:nonzero;stroke:none"
             id="path62" />
          <path
             d="m 54439.2,12455.3 35.2,-4567.1 V 284.699 H 5525.65 V 12078.3 l 48913.55,377"
             style="fill:#ffffff;fill-opacity:1;fill-rule:nonzero;stroke:none"
             id="path64" />
        </g>
      </g>
      <g
         id="g66">
        <g
           id="g68"
           clip-path="url(#clipPath72)">
          <path
             d="m 31115.7,33797.6 -81.6,-26417.4 h -2484.6 v 26417.4 h 2566.2"
             style="fill:#7c6ed8;fill-opacity:1;fill-rule:nonzero;stroke:none"
             id="path74" />
          <path
             d="m 31847.9,33797.6 -81.5,-26417.4 h -732.3 l 81.6,26417.4 h 732.2"
             style="fill:#7c6ed8;fill-opacity:1;fill-rule:nonzero;stroke:none"
             id="path76" />
          <path
             d="m 32580.2,33797.6 -81.6,-26417.4 h -732.2 l 81.5,26417.4 h 732.3"
             style="fill:#7d6fd9;fill-opacity:1;fill-rule:nonzero;stroke:none"
             id="path78" />
          <path
             d="m 33312.4,33797.6 -81.5,-26417.4 h -732.3 l 81.6,26417.4 h 732.2"
             style="fill:#7d70d9;fill-opacity:1;fill-rule:nonzero;stroke:none"
             id="path80" />
          <path
             d="m 34044.7,33797.6 -81.6,-26417.4 h -732.2 l 81.5,26417.4 h 732.3"
             style="fill:#7e71da;fill-opacity:1;fill-rule:nonzero;stroke:none"
             id="path82" />
          <path
             d="m 34776.9,33797.6 -81.5,-26417.4 h -732.3 l 81.6,26417.4 h 732.2"
             style="fill:#7e72da;fill-opacity:1;fill-rule:nonzero;stroke:none"
             id="path84" />
          <path
             d="m 35509.2,33797.6 -81.6,-26417.4 h -732.2 l 81.5,26417.4 h 732.3"
             style="fill:#7f73db;fill-opacity:1;fill-rule:nonzero;stroke:none"
             id="path86" />
          <path
             d="m 36241.4,33797.6 -81.5,-26417.4 h -732.3 l 81.6,26417.4 h 732.2"
             style="fill:#7f74db;fill-opacity:1;fill-rule:nonzero;stroke:none"
             id="path88" />
          <path
             d="m 36973.7,33797.6 -81.5,-26417.4 h -732.3 l 81.5,26417.4 h 732.3"
             style="fill:#8075dc;fill-opacity:1;fill-rule:nonzero;stroke:none"
             id="path90" />
          <path
             d="m 37705.9,33797.6 -81.5,-26417.4 h -732.2 l 81.5,26417.4 h 732.2"
             style="fill:#8076dc;fill-opacity:1;fill-rule:nonzero;stroke:none"
             id="path92" />
          <path
             d="m 38438.2,33797.6 -81.5,-26417.4 h -732.3 l 81.5,26417.4 h 732.3"
             style="fill:#8177dd;fill-opacity:1;fill-rule:nonzero;stroke:none"
             id="path94" />
          <path
             d="m 39170.5,33797.6 -81.6,-26417.4 h -732.2 l 81.5,26417.4 h 732.3"
             style="fill:#8178dd;fill-opacity:1;fill-rule:nonzero;stroke:none"
             id="path96" />
          <path
             d="m 39902.7,33797.6 -81.5,-26417.4 h -732.3 l 81.6,26417.4 h 732.2"
             style="fill:#8279de;fill-opacity:1;fill-rule:nonzero;stroke:none"
             id="path98" />
          <path
             d="m 40635,33797.6 -81.6,-26417.4 h -732.2 l 81.5,26417.4 h 732.3"
             style="fill:#827ade;fill-opacity:1;fill-rule:nonzero;stroke:none"
             id="path100" />
          <path
             d="m 41367.2,33797.6 -81.5,-26417.4 h -732.3 l 81.6,26417.4 h 732.2"
             style="fill:#837bdf;fill-opacity:1;fill-rule:nonzero;stroke:none"
             id="path102" />
          <path
             d="m 42099.5,33797.6 -81.6,-26417.4 h -732.2 l 81.5,26417.4 h 732.3"
             style="fill:#847cdf;fill-opacity:1;fill-rule:nonzero;stroke:none"
             id="path104" />
          <path
             d="m 42831.7,33797.6 -81.5,-26417.4 h -732.3 l 81.6,26417.4 h 732.2"
             style="fill:#847de0;fill-opacity:1;fill-rule:nonzero;stroke:none"
             id="path106" />
          <path
             d="m 43564,33797.6 -81.6,-26417.4 h -732.2 l 81.5,26417.4 h 732.3"
             style="fill:#857ee0;fill-opacity:1;fill-rule:nonzero;stroke:none"
             id="path108" />
          <path
             d="m 44296.2,33797.6 -81.5,-26417.4 h -732.3 l 81.6,26417.4 h 732.2"
             style="fill:#857fe1;fill-opacity:1;fill-rule:nonzero;stroke:none"
             id="path110" />
          <path
             d="M 45028.5,33797.6 44947,7380.2 h -732.3 l 81.5,26417.4 h 732.3"
             style="fill:#8680e1;fill-opacity:1;fill-rule:nonzero;stroke:none"
             id="path112" />
          <path
             d="M 45760.7,33797.6 45679.2,7380.2 H 44947 l 81.5,26417.4 h 732.2"
             style="fill:#8681e2;fill-opacity:1;fill-rule:nonzero;stroke:none"
             id="path114" />
          <path
             d="m 45679.2,7380.2 81.5,26417.4 h 208 V 7380.2 h -289.5"
             style="fill:#8782e2;fill-opacity:1;fill-rule:nonzero;stroke:none"
             id="path116" />
        </g>
      </g>
      <path
         d="m 44633.3,26961.4 v 0 c 88.2,0 171.4,73.1 185.9,163.2 l 267.2,1660.7 c 14.5,90.1 -45.2,163.1 -133.3,163.1 -88.2,0 -171.4,-73 -185.9,-163.1 L 44500,27124.6 c -14.6,-90.1 45.2,-163.2 133.3,-163.2"
         style="fill:#ffffff;fill-opacity:1;fill-rule:nonzero;stroke:none"
         id="path118" />
      <path
         d="m 44042.9,23292.6 v 0 c 88.1,0 171.3,73 185.9,163.1 l 446.1,2772.5 c 14.5,90 -45.2,163.1 -133.3,163.1 -88.2,0 -171.4,-73.1 -185.9,-163.1 l -446.2,-2772.5 c -14.5,-90.1 45.2,-163.1 133.4,-163.1"
         style="fill:#ffffff;fill-opacity:1;fill-rule:nonzero;stroke:none"
         id="path120" />
      <path
         d="m 30134.7,7850.1 h 9511 c 693.3,0 1347.7,574.3 1461.7,1282.8 l 3688.9,22922.9 c 114.1,708.5 -355.5,1282.8 -1048.8,1282.8 h -9511 c -693.3,0 -1347.8,-574.3 -1461.8,-1282.8 L 29085.8,9132.9 c -114,-708.5 355.6,-1282.8 1048.9,-1282.8"
         style="fill:#c9d6ff;fill-opacity:1;fill-rule:nonzero;stroke:none"
         id="path122" />
      <path
         d="m 43510.4,29299.4 c -189.8,0 -370.5,48.7 -522.3,140.8 l -879.4,533.3 c -734.9,445.6 -1167.6,1254.6 -1157.4,2164 l 36.5,3254.4 c 5.1,465.7 381.7,900.4 857.2,989.7 l 2513.3,472.1 c 104.8,19.7 210.4,29.7 314,29.7 103.6,0 206.2,-10 304.9,-29.7 l 2368.7,-472.1 c 448.1,-89.3 691.4,-524 553.9,-989.7 L 46939,32137.5 c -268.4,-909.4 -949,-1718.4 -1820.4,-2164 l -1042.8,-533.3 c -180.1,-92.1 -375.6,-140.8 -565.4,-140.8"
         style="fill:#6476ea;fill-opacity:1;fill-rule:nonzero;stroke:none"
         id="path124" />
      <path
         d="m 44672.3,36864.9 c -102.5,0 -207,-9.9 -310.5,-29.3 l -2513.4,-472.1 c -467.2,-87.8 -837.1,-514.6 -842.2,-971.8 l -36.4,-3254.4 c -10.1,-902.8 419.2,-1705.8 1148.4,-2148 l 879.5,-533.3 c 148.9,-90.4 326.2,-138.1 512.7,-138.1 186.9,0 379.5,47.9 557,138.7 l 1042.8,533.3 c 867,443.4 1544.1,1248.2 1811.1,2152.8 l 960.8,3254.4 c 67.8,229.7 43.9,457.6 -67.4,641.8 -102.1,169 -269.9,284.2 -472.5,324.6 l -2368.6,472.1 c -97.6,19.4 -198.9,29.3 -301.3,29.3 m -1161.9,-7584 c -193.2,0 -377.1,49.6 -531.9,143.5 l -879.4,533.3 c -740.5,449.1 -1176.5,1264 -1166.3,2180 l 36.5,3254.5 c 5.2,474.1 388.4,916.7 872.3,1007.6 l 2513.3,472 c 211.7,39.8 426.1,39.8 625.9,0 l 2368.7,-472.1 c 212.9,-42.4 389.3,-163.8 496.8,-341.7 116.7,-193.2 142,-431.6 71.2,-671.3 l -960.8,-3254.4 C 46686.9,31218.1 46002.9,30405 45127,29957 l -1042.8,-533.3 c -182.7,-93.4 -381.1,-142.8 -573.8,-142.8"
         style="fill:#ffffff;fill-opacity:1;fill-rule:nonzero;stroke:none"
         id="path126" />
      <path
         d="m 43544.9,29524.6 c -151.7,0 -296.1,38.9 -417.4,112.5 l -879.4,533.3 c -678.8,411.6 -1078.4,1158.8 -1069,1998.7 l 36.4,3254.5 c 3.9,346.7 284.3,670.5 638.3,737 l 2513.4,472.1 c 90.3,16.9 181.3,25.5 270.6,25.5 89.3,0 177.7,-8.6 262.8,-25.6 l 2368.6,-472 c 333.8,-66.5 514.9,-390.3 412.6,-737 L 46721,32169.2 c -248,-840 -876.6,-1587.2 -1681.5,-1998.8 l -1042.8,-533.3 c -143.9,-73.6 -300.2,-112.5 -451.8,-112.5"
         style="fill:#ffffff;fill-opacity:1;fill-rule:nonzero;stroke:none"
         id="path128" />
      <path
         d="m 47463.7,35455.2 -960.8,-3254.4 c -228.8,-775.1 -799.7,-1453.8 -1542.4,-1833.6 l -1042.9,-533.3 c -219.5,-112.3 -465.6,-112.3 -650.7,0 l -879.5,533.3 c -626.3,379.8 -989.3,1058.5 -980.6,1833.6 l 36.5,3254.4 c 2.5,227.7 187,440.7 419.4,484.3 l 2513.4,472.1 c 152.3,28.6 304.3,28.6 447.8,0 l 2368.8,-472.1 c 219,-43.6 338.2,-256.6 271,-484.3"
         style="fill:#6476ea;fill-opacity:1;fill-rule:nonzero;stroke:none"
         id="path130" />
      <path
         d="m 43281.2,29825.5 c 0,0 -0.1,0.1 -0.2,0.1 0.1,0 0.2,-0.1 0.2,-0.1 m -1.9,1.1 c -0.2,0.1 -0.4,0.2 -0.6,0.3 0.2,-0.1 0.4,-0.2 0.6,-0.3 m -2,1.1 c -0.3,0.2 -0.6,0.4 -0.9,0.6 0.3,-0.2 0.6,-0.4 0.9,-0.6 m -2,1.2 c -0.4,0.3 -0.9,0.5 -1.3,0.8 0.4,-0.3 0.9,-0.5 1.3,-0.8 m -2.1,1.2 c -0.5,0.3 -1,0.6 -1.5,0.9 0.5,-0.3 1,-0.6 1.5,-0.9 m -2.1,1.3 c -0.6,0.3 -1.2,0.7 -1.8,1 0.6,-0.3 1.2,-0.7 1.8,-1 m -2.1,1.2 c -0.7,0.4 -1.4,0.9 -2.1,1.3 l -879.5,533.3 c -618.9,375.4 -980.7,1042.7 -980.7,1806.4 0,-763.7 361.8,-1431 980.7,-1806.4 l 879.5,-533.3 c 0.7,-0.4 1.4,-0.9 2.1,-1.3"
         style="fill:#cad7ff;fill-opacity:1;fill-rule:nonzero;stroke:none"
         id="path132" />
      <path
         d="m 43556.9,29750.4 c -98.2,3.3 -192.7,28.2 -275.7,75.1 0,0 -0.1,0.1 -0.2,0.1 -0.5,0.3 -1.1,0.7 -1.7,1 -0.2,0.1 -0.4,0.2 -0.6,0.3 -0.5,0.3 -0.9,0.6 -1.4,0.8 -0.3,0.2 -0.6,0.4 -0.9,0.6 -0.4,0.2 -0.8,0.4 -1.1,0.6 -0.4,0.3 -0.9,0.5 -1.3,0.8 -0.3,0.1 -0.5,0.3 -0.8,0.4 -0.5,0.3 -1,0.6 -1.5,0.9 -0.2,0.1 -0.4,0.2 -0.6,0.4 -0.6,0.3 -1.2,0.7 -1.8,1 -0.1,0.1 -0.2,0.2 -0.3,0.2 -0.7,0.4 -1.4,0.9 -2.1,1.3 l -879.5,533.3 c -618.9,375.4 -980.7,1042.7 -980.7,1806.4 0,9.1 0,18.1 0.1,27.2 l 36.5,3254.4 c 2.5,227.7 187,440.7 419.4,484.3 l 2513.4,472.1 c 68.5,12.9 136.9,19.6 204.6,20.9 l -1023.8,-6682.1"
         style="fill:#8ca1f7;fill-opacity:1;fill-rule:nonzero;stroke:none"
         id="path134" />
      <path
         d="m 46055.4,34006.9 -200.6,-1309.6 h -1190.6 l -182.4,-1190.6 h -1309.7 l 182.4,1190.6 h -1190.6 l 200.7,1309.6 h 1190.6 l 182.4,1190.6 h 1309.6 l -182.4,-1190.6 h 1190.6"
         style="fill:#ffffff;fill-opacity:1;fill-rule:nonzero;stroke:none"
         id="path136" />
      <path
         d="m 33293,29876.1 h -4559.2 c -957.9,0 -1734.4,776.5 -1734.4,1734.5 v 0 c 0,957.9 776.5,1734.4 1734.4,1734.4 h 2824.7 c 957.9,0 1734.5,-776.5 1734.5,-1734.4 v -1734.5"
         style="fill:#ffffff;fill-opacity:1;fill-rule:nonzero;stroke:none"
         id="path138" />
      <path
         d="m 29565.9,31506.4 c 0,-156.1 -126.5,-282.7 -282.7,-282.7 -156.1,0 -282.7,126.6 -282.7,282.7 0,156.1 126.6,282.7 282.7,282.7 156.2,0 282.7,-126.6 282.7,-282.7"
         style="fill:#6476ea;fill-opacity:1;fill-rule:nonzero;stroke:none"
         id="path140" />
      <path
         d="m 30458.6,31506.4 c 0,-156.1 -126.5,-282.7 -282.7,-282.7 -156.1,0 -282.7,126.6 -282.7,282.7 0,156.1 126.6,282.7 282.7,282.7 156.2,0 282.7,-126.6 282.7,-282.7"
         style="fill:#6476ea;fill-opacity:1;fill-rule:nonzero;stroke:none"
         id="path142" />
      <path
         d="m 31351.3,31506.4 c 0,-156.1 -126.5,-282.7 -282.7,-282.7 -156.1,0 -282.7,126.6 -282.7,282.7 0,156.1 126.6,282.7 282.7,282.7 156.2,0 282.7,-126.6 282.7,-282.7"
         style="fill:#6476ea;fill-opacity:1;fill-rule:nonzero;stroke:none"
         id="path144" />
      <g
         id="g146">
        <g
           id="g148"
           clip-path="url(#clipPath152)">
          <path
             d="m 34960.3,24654.3 1833.4,15.4 375.9,-997.3 -521.6,-3942.9 107.3,-2424.1 -2930.3,184.1 506.3,6597.2 629,567.6"
             style="fill:#a6bdff;fill-opacity:1;fill-rule:nonzero;stroke:none"
             id="path154" />
          <path
             d="m 35861.6,23318.6 c -10.1,0 -20.2,2.8 -29.1,8.2 -15.3,9.2 -25.3,24.7 -27.4,42.5 -17.4,144.2 -103.9,314 -178.9,424.8 -8.8,12.8 -5.4,30.3 7.5,39 12.8,8.7 30.3,5.3 39,-7.5 102,-150.5 172.4,-318.6 188.2,-449.6 485.9,183.1 837.9,587.8 966.3,1109.2 3.8,15.1 19.1,24.4 34.1,20.6 15.1,-3.7 24.3,-19 20.6,-34 -133,-539.7 -497.6,-958.6 -1000.3,-1149.5 -6.5,-2.5 -13.3,-3.7 -20,-3.7"
             style="fill:#000000;fill-opacity:1;fill-rule:nonzero;stroke:none"
             id="path156" />
          <path
             d="m 35147.1,23402.1 c -19,0 -36.9,9.5 -47.6,25.9 -216.9,331.3 -224.1,732 -18.7,1045.8 8.6,13 26,16.6 39,8.1 13,-8.5 16.6,-25.9 8.1,-38.9 -193,-294.8 -185.8,-671.9 18.7,-984.2 27.1,143.6 91.4,276.5 187.2,384.5 10.3,11.6 28.1,12.7 39.7,2.3 11.7,-10.3 12.7,-28 2.4,-39.7 -89,-100.2 -148.7,-223.6 -172.6,-356.7 -4.2,-23.2 -21.8,-41.2 -44.8,-45.9 -3.8,-0.8 -7.6,-1.2 -11.4,-1.2"
             style="fill:#000000;fill-opacity:1;fill-rule:nonzero;stroke:none"
             id="path158" />
          <path
             d="m 28212.5,21784.6 -474.4,322.8 c -107.6,73.4 -329.5,105.7 -408,108.1 l -1032.9,78.7 -958.9,345.8 c 17.7,130.6 127.2,220.4 237.5,195 l 770.7,-177.6 1552.2,327.6 c 88.5,18.6 178.5,-0.1 253.5,-52.8 207.8,-145.9 202.2,-149.8 417.4,-389.5 l 259.2,-161.4 -616.3,-596.7"
             style="fill:#fcc5b6;fill-opacity:1;fill-rule:nonzero;stroke:none"
             id="path160" />
          <path
             d="m 26848.5,22651 -651.1,273.2 -227.7,278.1 c -67.2,82.1 -174.5,102.3 -265.2,49.7 l -20.1,-11.6 328.3,-506.9 551.3,-228.9 284.5,146.4"
             style="fill:#fcc5b6;fill-opacity:1;fill-rule:nonzero;stroke:none"
             id="path162" />
          <path
             d="m 28131.6,22939.3 -495.1,252.1 -707.3,250 c -45.1,-114.5 -5.7,-246.3 89.4,-298.8 l 199.3,-110.2 46.5,-437.8 1050.5,134.9 -183.3,209.8"
             style="fill:#fcc5b6;fill-opacity:1;fill-rule:nonzero;stroke:none"
             id="path164" />
          <path
             d="m 26349.2,22287.2 -942.5,-118.7 c -28.3,101.7 28.4,212.6 120.5,235.7 l 703,176.5 287.3,-223.9 -168.3,-69.6"
             style="fill:#fcc5b6;fill-opacity:1;fill-rule:nonzero;stroke:none"
             id="path166" />
          <path
             d="m 26650.6,22663.7 c -10.9,0 -20.8,7.3 -23.6,18.3 -3.4,13.1 4.5,26.4 17.6,29.7 l 622.5,159.3 c 129.5,33.2 264,28.6 389,-13.2 l 229.3,-76.7 c 12.8,-4.3 19.7,-18.1 15.4,-30.9 -4.3,-12.7 -18.1,-19.7 -30.9,-15.4 l -229.3,76.7 c -116,38.8 -241,43.1 -361.4,12.3 l -622.5,-159.3 c -2.1,-0.6 -4.1,-0.8 -6.1,-0.8"
             style="fill:#1a1a1a;fill-opacity:1;fill-rule:nonzero;stroke:none"
             id="path168" />
          <path
             d="m 38368.6,7519.1 c -508.2,45.4 -1017.1,103.6 -1526.6,153.7 l -442.4,6035.6 -470.7,152.9 -106.7,-6105.3 c -421.3,24.8 -843,34.9 -1265.1,18.3 -339.8,-13.4 -679.7,-37.5 -1019.4,-66.3 l -457.4,6485.8 c -34.1,578.9 22,1159.5 166.2,1721.2 l 807.6,3145.6 c 1158.8,-318.3 2368.2,-409.8 3561.7,-269.5 l 463.3,54.5 1063.9,-2166.4 c 439.7,-895.3 514,-1595.2 524,-2592.5 l -550.2,-6625.4 c -250.8,15.4 -500.6,35.6 -748.2,57.8"
             style="fill:#6476ea;fill-opacity:1;fill-rule:nonzero;stroke:none"
             id="path170" />
          <path
             d="m 38596.1,15921.2 c -2.3,0 -4.6,0.3 -6.9,0.9 -477.4,129.1 -908.8,438.9 -1183.6,850 -8.1,12.1 -4.9,28.3 7.1,36.3 12.1,8.1 28.3,4.8 36.4,-7.2 267.9,-400.7 688.4,-702.7 1153.8,-828.5 14,-3.8 22.2,-18.2 18.4,-32.1 -3.1,-11.7 -13.7,-19.4 -25.2,-19.4"
             style="fill:#ffffff;fill-opacity:1;fill-rule:nonzero;stroke:none"
             id="path172" />
          <path
             d="m 36793.7,24669.7 c 0,0 -575.3,-2094.2 -529.3,-3889.3 41.8,-1632 654.3,-9122.7 765.3,-10470.3 9,-109 113.6,-183.9 219.7,-157.3 l 2265.1,566.3 c 172.9,43.2 293.6,199 292,377.1 -7.4,870 -42.7,3368.4 -205.1,4299 -368.3,2109.6 -1334.8,3475.1 -1334.8,3475.1 l -46.1,1633.9 368.3,3866.3 -1795.1,299.2"
             style="fill:#ffffff;fill-opacity:1;fill-rule:nonzero;stroke:none"
             id="path174" />
          <path
             d="m 33473.3,15822.7 c -5.8,0 -11.6,1.9 -16.5,5.9 -11.2,9.1 -12.9,25.6 -3.8,36.8 240.5,296.8 419.3,648.9 517,1018.2 3.8,14 18.1,22.4 32,18.6 14,-3.7 22.3,-18 18.6,-32 -99.6,-376.4 -281.8,-735.2 -526.9,-1037.8 -5.2,-6.3 -12.8,-9.7 -20.4,-9.7"
             style="fill:#ffffff;fill-opacity:1;fill-rule:nonzero;stroke:none"
             id="path176" />
          <path
             d="m 36968.1,14723.3 c -15.5,0 -28.1,12.5 -28.1,28.1 l -12.1,4724.2 c -2,809.7 14.8,1666 238.2,2458.5 -77.2,36.6 -155.6,68.7 -231.7,99.8 -47.1,19.3 -95.7,39.1 -143.7,59.9 -27,11.8 -42.8,39.3 -39.3,68.6 3.6,29.1 25.4,52 54.3,56.9 40.2,6.8 79.9,13.4 119.6,20 68.6,11.4 139.3,23.1 212,36 -139.7,746.6 -159.1,1506.6 -57.7,2259.6 2.1,15.4 16.4,26.3 31.6,24.1 15.4,-2 26.2,-16.2 24.2,-31.6 -101.9,-756.4 -80.9,-1519.9 62.4,-2269.5 l 5.4,-27.9 -28,-5 c -82.9,-15 -163.1,-28.3 -240.6,-41.2 -39.7,-6.5 -79.3,-13.1 -119.5,-19.9 -5.8,-1 -7.4,-5.1 -7.8,-8.3 -0.4,-3.3 0.3,-7.8 5.8,-10.2 47.4,-20.5 95.8,-40.3 142.5,-59.4 84,-34.3 170.7,-69.8 256.4,-111.5 l 21.2,-10.3 -6.5,-22.7 c -227.6,-791.9 -244.6,-1652.3 -242.5,-2465.8 l 12,-4724.2 c 0,-15.5 -12.5,-28.2 -28,-28.2 h -0.1"
             style="fill:#6476ea;fill-opacity:1;fill-rule:nonzero;stroke:none"
             id="path178" />
          <path
             d="m 35881,14160.7 c -10.7,0 -20.8,6.6 -24.6,17.3 -276.3,769.7 -439.8,1573.9 -486,2390.4 -0.8,14.4 10.3,26.8 24.7,27.6 14.8,0.6 26.8,-10.2 27.6,-24.6 45.9,-811.5 208.3,-1610.8 482.9,-2375.7 4.9,-13.6 -2.1,-28.6 -15.7,-33.5 -3,-1 -6,-1.5 -8.9,-1.5"
             style="fill:#ffffff;fill-opacity:1;fill-rule:nonzero;stroke:none"
             id="path180" />
          <path
             d="m 36367.9,14053 c -12.5,0 -23.6,9 -25.7,21.7 -145.9,857.1 -195.4,1731.9 -147.3,2599.9 0.8,14.4 13.5,25.3 27.5,24.7 14.5,-0.8 25.5,-13.1 24.7,-27.6 -47.9,-864.1 1.4,-1734.9 146.7,-2588.2 2.4,-14.2 -7.2,-27.8 -21.5,-30.2 -1.4,-0.2 -2.9,-0.3 -4.4,-0.3"
             style="fill:#ffffff;fill-opacity:1;fill-rule:nonzero;stroke:none"
             id="path182" />
          <path
             d="m 36271.7,18122.2 c -62.4,0 -124.8,0.9 -187.3,2.7 -701.2,20.7 -1382.5,156.7 -2025.1,404.2 -13.5,5.1 -20.2,20.3 -15,33.8 5.2,13.5 20.3,20.2 33.8,15 1287.8,-495.9 2721.1,-538.2 4035.8,-119.2 13.8,4.4 28.5,-3.2 32.9,-17 4.4,-13.8 -3.2,-28.5 -17,-32.9 -597.6,-190.4 -1221.8,-286.6 -1858.1,-286.6"
             style="fill:#ffffff;fill-opacity:1;fill-rule:nonzero;stroke:none"
             id="path184" />
          <path
             d="m 32405.1,22404.1 -982.8,-1276.6 -3215.8,1705.4 -487.3,-706.5 3341.6,-2312.1 c 373.3,-258.3 884.3,-173 1153.4,192.6 l 1327.9,1804.3 -1137,592.9"
             style="fill:#fcc5b6;fill-opacity:1;fill-rule:nonzero;stroke:none"
             id="path186" />
          <path
             d="m 35021.7,24669.7 -810.2,-82.4 c -347.8,-35.4 -663.1,-220 -864.2,-506 l -1915.7,-2725.6 -1781.5,984.2 c -273.9,151.3 -566.2,266.3 -869.6,342.2 l -340.7,85.1 c -73.9,-285.9 -253.7,-533 -503,-691.2 l -95.4,-60.5 c 293,-444.6 680.8,-818.8 1135.4,-1095.7 l 2179,-1327.4 c 221.4,-138.6 487.5,-187.3 743.6,-136 260.8,52.1 491.1,203.7 642,422.7 l 938.4,1361.6 -46.1,-2439.5 -253.8,-1015.5 c -259.4,-1037.5 -392.9,-2102.6 -397.7,-3172.1 l -14.1,-3189.2 c -1.1,-244 142.4,-465.6 365.6,-564.5 l 1425.7,-631.9 c 106.3,-47.1 224.8,34.4 218.8,150.5 -81.2,1551.7 -498.4,9756.7 -331.9,11276.4 184.1,1680 529.3,2830.7 529.3,2830.7 l 46.1,184.1"
             style="fill:#ffffff;fill-opacity:1;fill-rule:nonzero;stroke:none"
             id="path188" />
          <path
             d="m 39095,17236.3 c -1.5,0.3 -3.1,0.6 -4.7,0.9 -20.9,54.4 -41.9,107.7 -63,159.7 l 67.7,-160.6 m -180.3,427.5 c -68.4,155.9 -135.8,298.2 -199.8,426.1 l 23.4,-7.8 176.4,-418.3"
             style="fill:#b1b7f6;fill-opacity:1;fill-rule:nonzero;stroke:none"
             id="path190" />
          <path
             d="m 34506.3,16374.9 c -9.6,256.2 -18.7,510.9 -27.3,763.2 l 450.6,336 725.8,678.1 c 142.1,-13.9 285.1,-23 429,-27.3 62.5,-1.8 124.9,-2.7 187.3,-2.7 50.2,0 100.4,0.6 150.5,1.8 38.3,-542.6 81.2,-1127.7 126,-1725.1 l -313.1,-3.7 c 2.9,92.2 6.9,184.4 12,276.5 0.8,14.5 -10.2,26.8 -24.7,27.6 -0.3,0 -0.7,0 -1.1,0 -13.6,0 -25.6,-10.7 -26.4,-24.7 -5.2,-93.2 -9.2,-186.6 -12.2,-280 l -747.5,-8.8 c -4.8,61.8 -9,123.7 -12.5,185.6 -0.8,14 -12.2,24.7 -26.5,24.7 -0.4,0 -0.7,-0.1 -1.1,-0.1 -14.4,-0.8 -25.5,-13.2 -24.7,-27.6 3.5,-61.1 7.6,-122.2 12.4,-183.2 l -876.5,-10.3 m 1760.7,1797.6 c -187.6,0 -375.3,8.7 -562.2,25.9 l 390.8,365 296.9,-13.2 c 8.4,-122.4 17.2,-248.2 26.2,-375.8 -50.6,-1.2 -101.1,-1.9 -151.7,-1.9"
             style="fill:#626ce6;fill-opacity:1;fill-rule:nonzero;stroke:none"
             id="path192" />
          <path
             d="m 36548.2,16398.9 c -44.8,597.4 -87.7,1182.5 -126,1725.1 170.8,4.1 340.6,15.1 509.1,33.1 l 4.5,-1753.7 -387.6,-4.5 m 443.8,5.2 -4.5,1759.2 c 320.7,37.2 636.6,99.5 946,186.6 l 781.4,-260 c 64,-127.9 131.4,-270.2 199.8,-426.1 l 112.6,-266.9 c 21.1,-52 42.1,-105.3 63,-159.7 -750,139.1 -1445.1,589.8 -1445.1,589.8 l 322.2,-1411.5 -975.4,-11.4 m -573.3,1770.3 c -9,127.6 -17.8,253.4 -26.2,375.8 l 537.9,-23.9 0.8,-317.6 c -170.4,-18.6 -341.4,-30 -512.5,-34.3 m 568.7,40.7 -0.8,308.7 489.8,-21.7 367.9,-122.5 c -282,-75.5 -568.4,-130.4 -856.9,-164.5"
             style="fill:#dbd7f6;fill-opacity:1;fill-rule:nonzero;stroke:none"
             id="path194" />
          <path
             d="m 36935.8,16403.4 -4.5,1753.7 c 18.8,2 37.5,4.1 56.2,6.2 l 4.5,-1759.2 -56.2,-0.7 m -4.6,1805.3 -0.8,317.6 56.2,-2.5 0.8,-308.7 c -18.7,-2.3 -37.5,-4.4 -56.2,-6.4"
             style="fill:#626ce6;fill-opacity:1;fill-rule:nonzero;stroke:none"
             id="path196" />
          <path
             d="m 35382.8,16385.2 c -4.8,61 -8.9,122.1 -12.4,183.2 -0.8,14.4 10.3,26.8 24.7,27.6 0.4,0 0.7,0.1 1.1,0.1 14.3,0 25.7,-10.7 26.5,-24.7 3.5,-61.9 7.7,-123.8 12.5,-185.6 l -52.4,-0.6"
             style="fill:#dbd7f6;fill-opacity:1;fill-rule:nonzero;stroke:none"
             id="path198" />
          <path
             d="m 36182.7,16394.6 c 3,93.4 7,186.8 12.2,280 0.8,14 12.8,24.7 26.4,24.7 0.4,0 0.8,0 1.1,0 14.5,-0.8 25.5,-13.1 24.7,-27.6 -5.1,-92.1 -9.1,-184.3 -12,-276.5 l -52.4,-0.6"
             style="fill:#dbd7f6;fill-opacity:1;fill-rule:nonzero;stroke:none"
             id="path200" />
          <path
             d="m 36271.7,18122.2 c -62.4,0 -124.8,0.9 -187.3,2.7 -143.9,4.3 -286.9,13.4 -429,27.3 l 49.4,46.2 c 186.9,-17.2 374.6,-25.9 562.2,-25.9 50.6,0 101.1,0.7 151.7,1.9 171.1,4.3 342.1,15.7 512.5,34.3 18.7,2 37.5,4.1 56.2,6.4 288.5,34.1 574.9,89 856.9,164.5 l 89.2,-29.7 c -309.4,-87.1 -625.3,-149.4 -946,-186.6 -18.7,-2.1 -37.4,-4.2 -56.2,-6.2 -168.5,-18 -338.3,-29 -509.1,-33.1 -50.1,-1.2 -100.3,-1.8 -150.5,-1.8"
             style="fill:#dbd7f6;fill-opacity:1;fill-rule:nonzero;stroke:none"
             id="path202" />
          <path
             d="m 34039.8,16369.5 -15.4,429.6 454.6,339 c 8.6,-252.3 17.7,-507 27.3,-763.2 l -466.5,-5.4"
             style="fill:#dbd7f6;fill-opacity:1;fill-rule:nonzero;stroke:none"
             id="path204" />
          <path
             d="m 33452.3,21215.1 c -11.4,0 -22.2,7.1 -26.4,18.5 -186.7,507 -95.4,1112.2 232.5,1541.6 9.5,12.4 27.1,14.7 39.5,5.3 12.3,-9.4 14.7,-27.1 5.2,-39.4 -316.5,-414.6 -404.6,-998.7 -224.4,-1488.1 5.4,-14.6 -2.1,-30.8 -16.7,-36.1 -3.2,-1.2 -6.5,-1.8 -9.7,-1.8"
             style="fill:#6476ea;fill-opacity:1;fill-rule:nonzero;stroke:none"
             id="path206" />
          <path
             d="m 36901,21761.2 c 100.7,-1692.7 317.2,-3337.4 659.2,-4998.3 -1236.6,-53.7 -2419.5,-79.6 -3656.1,-133.3 -338.2,1656.2 -540.4,3340.1 -603.9,5029.3 1179,120.6 2415.7,94.2 3600.8,102.3"
             style="fill:#6476ea;fill-opacity:1;fill-rule:nonzero;stroke:none"
             id="path208" />
          <path
             d="m 34331.3,14745.8 h -0.5 c -15.5,0.2 -27.9,13 -27.7,28.5 11.4,772.3 -466.8,7273.2 -471.7,7338.8 l -1.5,21 325.4,122.1 c 16.9,6.3 17.7,21.7 17.5,26.2 -0.1,4.6 -2,19.9 -19.3,25 l -260.9,76.7 745.7,2225.5 c 4.9,14.7 20.8,22.6 35.6,17.7 14.7,-4.9 22.7,-20.9 17.7,-35.6 l -727.1,-2170.1 204.8,-60.3 c 35,-10.2 58.4,-40.4 59.8,-76.8 1.3,-36.4 -19.9,-68.2 -54,-81 l -286,-107.3 c 30.1,-410.6 481.3,-6570.1 470.3,-7322.7 -0.3,-15.4 -12.8,-27.7 -28.1,-27.7"
             style="fill:#6476ea;fill-opacity:1;fill-rule:nonzero;stroke:none"
             id="path210" />
          <path
             d="m 38578.8,20369.3 106.7,-880.5 -3281.8,80 -161.4,394.4 c -49.9,121.9 -151.8,215.1 -277.7,253.8 l -494.8,152.3 -326.7,348.5 c -35,37.3 -96.8,27.2 -118,-19.5 l -7.9,-17.4 c -49.3,-108.3 -29.8,-235.4 49.5,-324.1 l 323.1,-361.1 -837.2,90.5 c -87.2,9.5 -168.9,-44.1 -195.1,-127.8 l -65.1,-208.4 c -14.8,-47.4 -8.9,-98.8 16.3,-141.6 l 227.2,-386.4 320,-373.4 c 102.4,-119.4 249.2,-191.7 406.2,-200.1 l 1248.3,-66.9 3186.9,-474.2 c 696.7,-103.7 1332.6,411.6 1375.6,1114.6 l -293.4,2348 -1254.1,-160.1 53.4,-1040.6"
             style="fill:#fcc5b6;fill-opacity:1;fill-rule:nonzero;stroke:none"
             id="path212" />
          <path
             d="m 38658.9,19498.7 c -14.6,0 -27,11.4 -28,26.3 -1,15.4 10.7,28.8 26.2,29.9 l 440.1,29.1 c 15,1.1 28.9,-10.7 29.9,-26.2 1,-15.5 -10.7,-28.9 -26.2,-29.9 l -440.1,-29.2 h -1.9"
             style="fill:#000000;fill-opacity:1;fill-rule:nonzero;stroke:none"
             id="path214" />
          <path
             d="m 34010.6,18855.5 c -1,0 -2.1,0.1 -3.2,0.2 -15.4,1.7 -26.5,15.6 -24.8,31.1 l 83.9,747.6 c 1.8,15.5 15.6,26.5 31.1,24.8 15.5,-1.7 26.6,-15.6 24.8,-31.1 l -83.9,-747.6 c -1.6,-14.4 -13.8,-25 -27.9,-25"
             style="fill:#000000;fill-opacity:1;fill-rule:nonzero;stroke:none"
             id="path216" />
          <path
             d="m 34006.9,19664.5 c -5,0 -10,1.3 -14.6,4 l -502.4,304.2 c -13.3,8 -17.5,25.3 -9.5,38.6 8.1,13.3 25.4,17.5 38.7,9.5 l 502.3,-304.1 c 13.3,-8.1 17.6,-25.4 9.5,-38.7 -5.3,-8.7 -14.5,-13.5 -24,-13.5"
             style="fill:#000000;fill-opacity:1;fill-rule:nonzero;stroke:none"
             id="path218" />
          <path
             d="m 33907.4,19413.8 c -6.4,0 -12.9,2.2 -18.2,6.6 L 33403,19833 c -11.8,10.1 -13.3,27.8 -3.3,39.7 10.1,11.8 27.8,13.3 39.7,3.2 l 486.2,-412.6 c 11.9,-10 13.3,-27.8 3.3,-39.6 -5.6,-6.6 -13.5,-9.9 -21.5,-9.9"
             style="fill:#000000;fill-opacity:1;fill-rule:nonzero;stroke:none"
             id="path220" />
          <path
             d="m 33889,19146.5 c -7.4,0 -14.7,2.8 -20.2,8.6 -176.2,182.7 -362.3,360.3 -553.2,528 -11.6,10.3 -12.8,28 -2.5,39.7 10.2,11.6 28,12.8 39.7,2.6 191.9,-168.7 379.2,-347.5 556.4,-531.3 10.8,-11.2 10.5,-29 -0.7,-39.7 -5.4,-5.3 -12.5,-7.9 -19.5,-7.9"
             style="fill:#000000;fill-opacity:1;fill-rule:nonzero;stroke:none"
             id="path222" />
          <path
             d="m 34558.7,19958.7 h -204.5 c -15.5,0 -28.1,12.6 -28.1,28.1 0,15.6 12.6,28.2 28.1,28.2 h 204.5 c 15.6,0 28.2,-12.6 28.2,-28.2 0,-15.5 -12.6,-28.1 -28.2,-28.1"
             style="fill:#000000;fill-opacity:1;fill-rule:nonzero;stroke:none"
             id="path224" />
          <path
             d="m 33990.6,20942.7 c 740.8,-8.9 1482.1,19.7 2219.7,85.9 18.4,-90 26.6,-237.1 45.1,-327.1 -762.4,-94.4 -1451.3,-97.9 -2220,-109.9 -17.9,143.7 -26.8,202.8 -44.8,351.1"
             style="fill:#ffffff;fill-opacity:1;fill-rule:nonzero;stroke:none"
             id="path226" />
          <path
             d="m 36378.2,25541 c 0,0 739.5,314.8 1004.7,1370.7 265.3,1055.9 84.8,1742.5 84.8,1742.5 0,0 -225,720 -1227.2,1056.9 -1002.1,337 -1920.7,-271 -1920.7,-271 0,0 -728.1,-392.2 -640.2,-1312.8 87.9,-920.5 464.3,-1643.6 464.3,-1643.6 l 2234.3,-942.7"
             style="fill:#382a73;fill-opacity:1;fill-rule:nonzero;stroke:none"
             id="path228" />
          <path
             d="m 33947,28049.5 c 3.5,-434.1 -0.3,-868.2 4.5,-1302.3 4.4,-390.8 57.5,-823 175.7,-1199.5 66.8,-212.5 183.9,-412.9 356.8,-549.1 244.7,-192.8 494.2,-223.2 801.1,-260.8 12.8,-1.5 -19.8,-624.7 -20.4,-673.6 119.7,-137.3 320.8,-151.8 497.8,-117.6 355,68.6 674,311.5 840.3,639.5 -88.9,577.9 -101.8,1158.1 -11,1736 199.7,197.6 384.1,405.5 514.8,656.1 130.7,250.6 209.6,533.4 199.1,817 -18.8,505 -323.9,968.3 -728.2,1258.5 -268.8,192.9 -584.6,320.4 -911.8,351.7 -327.3,31.4 -665.2,-35.4 -950.6,-202.6 -426.8,-250.2 -772.2,-650.7 -768.1,-1153.3"
             style="fill:#fcc5b6;fill-opacity:1;fill-rule:nonzero;stroke:none"
             id="path230" />
          <path
             d="m 34782.9,25876.2 c 92.5,24.5 190.3,10 283.4,-11.5 93,-21.5 185.5,-50 280.9,-53.4 -33.7,-63 -103.9,-94.4 -170.2,-118 -135.4,-48 -277.1,-81.1 -420.7,-86.4 -44,-1.6 -169.4,-16.4 -202.8,17.9 -36.3,37.1 31.5,115.7 55.5,142.7 46.3,52.1 107.1,91 173.9,108.7"
             style="fill:#f95598;fill-opacity:1;fill-rule:nonzero;stroke:none"
             id="path232" />
          <path
             d="m 34804.5,26021 c -3.6,0 -7.3,0.8 -10.8,2.5 -100.8,49.9 -191.4,116.9 -269.3,199 -26.7,28.2 -54.3,62.8 -56.8,106 -4.1,69.6 54.8,116.3 102.2,153.9 l 7.9,6.3 c 228.2,181.9 243.9,370.8 195.3,616.7 -2.6,13.2 6,26 19.2,28.6 13.3,2.7 26.1,-6 28.7,-19.2 50.7,-256.5 33.9,-467.6 -212.8,-664.3 l -8,-6.4 c -42.5,-33.7 -86.4,-68.5 -83.8,-112.8 1.6,-27.4 21.9,-52.3 43.5,-75.2 74,-78 159.9,-141.5 255.6,-188.9 12,-5.9 17,-20.6 11,-32.6 -4.3,-8.6 -12.9,-13.6 -21.9,-13.6"
             style="fill:#1a1a1a;fill-opacity:1;fill-rule:nonzero;stroke:none"
             id="path234" />
          <path
             d="m 34700.7,25586.2 c -53.8,0 -107.6,3.2 -161,9.6 -13.4,1.6 -22.9,13.8 -21.3,27.2 1.6,13.3 13.7,22.8 27.1,21.2 271.9,-32.8 554.5,22 796,154.4 11.8,6.4 26.6,2.1 33.1,-9.7 6.5,-11.8 2.2,-26.6 -9.7,-33.1 -202.8,-111.2 -433.9,-169.6 -664.2,-169.6"
             style="fill:#1a1a1a;fill-opacity:1;fill-rule:nonzero;stroke:none"
             id="path236" />
          <path
             d="m 34868.4,25335 c -31.7,0 -63.2,1.8 -94.5,5.2 -13.4,1.5 -23.1,13.5 -21.6,26.9 1.5,13.4 13.5,23.1 26.9,21.6 159.6,-17.6 326.8,12.8 470.7,85.7 12,6.1 26.7,1.3 32.8,-10.8 6.1,-12 1.3,-26.7 -10.7,-32.8 -124.1,-62.7 -264.6,-95.8 -403.6,-95.8"
             style="fill:#1a1a1a;fill-opacity:1;fill-rule:nonzero;stroke:none"
             id="path238" />
          <path
             d="m 35877.1,29017.3 c 0,0 -104.3,-1047.6 929.3,-1968.3 l 476.6,15.5 158.5,1349.8 -1217.8,1137.2 -346.6,-534.2"
             style="fill:#382a73;fill-opacity:1;fill-rule:nonzero;stroke:none"
             id="path240" />
          <path
             d="m 35267.2,27139.8 c 224,-31.1 449.7,-50 675.8,-56.4 37.4,-1.1 85.3,5.8 94.8,42.8 5.6,21.5 -6.3,44.6 -23.6,58.1 -17.3,13.5 -38.9,19.5 -60.1,24.7 -157.6,39.2 -325.1,57.8 -487.5,60.9 -66.3,1.3 -137.2,-3 -202.1,-16.9 -96.8,-20.7 -102.3,-98.6 2.7,-113.2"
             style="fill:#382a73;fill-opacity:1;fill-rule:nonzero;stroke:none"
             id="path242" />
          <path
             d="m 37023.8,27291.2 c 123,-67.8 193.4,-212.9 198.2,-355.8 4.7,-142.9 -48.5,-282.6 -124.1,-403.1 -73.6,-117.4 -174.9,-224.4 -305.2,-265.7 -130.3,-41.3 -291.7,0.3 -359.3,121.2 -53,94.8 -40,212.1 -25.3,320.3 13.8,102.3 27.8,205.4 61.4,302.8 74.7,217 324.6,407.1 554.3,280.3"
             style="fill:#fcc5b6;fill-opacity:1;fill-rule:nonzero;stroke:none"
             id="path244" />
          <path
             d="m 34054.4,27072.3 c 189.8,-3 380.4,6.4 570.7,28.1 31.5,3.6 71.4,16.3 77.6,54.1 3.5,21.9 -7.6,43.2 -22.8,54.4 -15.2,11.2 -33.7,14.4 -51.7,17 -134.4,19.1 -276.1,16.7 -412.7,-0.4 -55.8,-7 -115.1,-20 -169,-41.8 -80.3,-32.4 -81,-110.1 7.9,-111.4"
             style="fill:#382a73;fill-opacity:1;fill-rule:nonzero;stroke:none"
             id="path246" />
          <path
             d="m 36955,26854.8 c -10.4,0 -20.1,6.7 -23.3,17.3 -32.3,106.2 -115.6,196.2 -217.5,234.8 -12.6,4.8 -18.9,18.9 -14.2,31.5 4.8,12.6 18.8,19 31.5,14.1 115.7,-43.8 210.3,-145.9 246.9,-266.3 3.9,-12.8 -3.4,-26.5 -16.3,-30.4 -2.3,-0.7 -4.7,-1 -7.1,-1"
             style="fill:#1a1a1a;fill-opacity:1;fill-rule:nonzero;stroke:none"
             id="path248" />
          <path
             d="m 35536.6,26694.8 c -7.4,-84.5 -52.4,-149.5 -100.6,-145.2 -48.3,4.3 -81.4,76.3 -74,160.8 7.3,84.5 52.3,149.5 100.6,145.2 48.2,-4.3 81.3,-76.3 74,-160.8"
             style="fill:#1a1a1a;fill-opacity:1;fill-rule:nonzero;stroke:none"
             id="path250" />
          <path
             d="m 34495.4,26715.5 c 1.3,-84.9 -36.9,-154.3 -85.3,-155.1 -48.4,-0.8 -88.7,67.3 -89.9,152.1 -1.3,84.8 36.9,154.2 85.3,155 48.4,0.9 88.7,-67.2 89.9,-152"
             style="fill:#1a1a1a;fill-opacity:1;fill-rule:nonzero;stroke:none"
             id="path252" />
          <path
             d="m 35521,26683.2 c -16.2,0 -32.4,1.2 -48.4,3.6 -13.4,2 -22.5,14.5 -20.5,27.8 2,13.3 14.4,22.6 27.7,20.5 73,-11.1 149.3,7.8 209.5,51.7 10.9,7.9 26.1,5.5 34.1,-5.4 7.9,-10.9 5.5,-26.1 -5.4,-34.1 -57.2,-41.7 -127,-64.1 -197,-64.1"
             style="fill:#1a1a1a;fill-opacity:1;fill-rule:nonzero;stroke:none"
             id="path254" />
          <path
             d="m 36216.4,30110.6 c 90,277.7 298.7,508.1 551.8,644.7 235.7,127.1 531.7,173.1 766,44.2 217.7,-119.7 341.4,-364.5 409,-607.6 53.8,-193 80.3,-398.7 38.2,-594.9 -42,-196.2 -160.4,-382 -337.7,-468.9 -153.4,-75.1 -331,-70.3 -501,-64 -251.4,9.4 -741.7,-78.9 -899.2,172 -123.2,196.1 -92.5,672.7 -27.1,874.5"
             style="fill:#382a73;fill-opacity:1;fill-rule:nonzero;stroke:none"
             id="path256" />
          <path
             d="m 34335.4,26703.6 c -72.5,0 -144.4,22.9 -204,65.4 -11,7.8 -13.5,23 -5.7,34 7.8,11 23,13.5 34,5.7 55.3,-39.4 122.6,-59.5 190.2,-56 13.5,0.8 24.9,-9.7 25.5,-23.2 0.7,-13.4 -9.7,-24.9 -23.1,-25.5 -5.6,-0.3 -11.2,-0.4 -16.9,-0.4"
             style="fill:#1a1a1a;fill-opacity:1;fill-rule:nonzero;stroke:none"
             id="path258" />
          <path
             d="m 33759.8,27579.3 c 957.1,-64 1788.4,171.9 2447.7,726 169,142 182.3,740.1 63.6,927.5 -118.6,187.5 -341.3,286.9 -559.6,298.3 -218.2,11.4 -433.7,-54.3 -636.4,-138.2 -380.1,-157.2 -739.3,-386.1 -1000.3,-709.4 -261,-323.3 -363.6,-688.4 -315,-1104.2"
             style="fill:#382a73;fill-opacity:1;fill-rule:nonzero;stroke:none"
             id="path260" />
          <path
             d="m 35373.1,24780.2 c -11,0 -21.1,7.6 -23.7,18.8 -3.1,13.1 5,26.2 18.1,29.3 414.7,97.6 786.5,402.2 970.3,794.8 5.7,12.2 20.2,17.5 32.4,11.8 12.2,-5.7 17.5,-20.3 11.8,-32.5 -190,-405.8 -574.4,-720.6 -1003.3,-821.6 -1.9,-0.4 -3.7,-0.6 -5.6,-0.6"
             style="fill:#1a1a1a;fill-opacity:1;fill-rule:nonzero;stroke:none"
             id="path262" />
          <path
             d="m 37283.1,28915 c -6,0 -11.8,2.7 -15.7,7.8 -256.9,340.7 -643.7,610.9 -1089.1,760.9 -10.2,3.5 -15.7,14.6 -12.3,24.9 3.5,10.2 14.5,15.8 24.9,12.3 452.7,-152.5 846.2,-427.5 1107.9,-774.5 6.5,-8.6 4.8,-20.9 -3.9,-27.4 -3.5,-2.7 -7.7,-4 -11.8,-4"
             style="fill:#ffffff;fill-opacity:1;fill-rule:nonzero;stroke:none"
             id="path264" />
          <path
             d="m 38588.8,24370.5 v 0 c 472.7,-78 843.8,-447.6 923.8,-920 l 723.7,-4273.5 c 135.7,-801.4 -561.7,-1496.2 -1362.5,-1357.6 l -2697.7,466.9 c -296.1,51.3 -579.1,161.1 -832.3,323.2 v 0 c 81,273.3 105.9,560.2 73.2,843.4 l -13.3,115.9 441.3,30.2 c 75,5.1 150.2,6.5 225.2,4.2 l 1835.8,-57.9 168.8,2731 514,2094.2"
             style="fill:#ffffff;fill-opacity:1;fill-rule:nonzero;stroke:none"
             id="path266" />
          <path
             d="m 38606.4,19623.6 c -13.2,0 -25,9.3 -27.6,22.8 l -500.6,2587.8 c -3,15.3 7,30 22.3,33 15.1,3 30,-7 32.9,-22.3 L 38634,19657 c 3,-15.2 -7,-30 -22.2,-32.9 -1.8,-0.4 -3.6,-0.5 -5.4,-0.5"
             style="fill:#6476ea;fill-opacity:1;fill-rule:nonzero;stroke:none"
             id="path268" />
          <path
             d="m 37424.4,19529.1 c -31.2,0 -61.3,0.1 -90,0.3 -15.6,0.2 -28.1,12.8 -27.9,28.4 0.1,15.4 12.7,27.9 28.1,27.9 h 0.2 c 218.2,-1.8 511.3,3.8 794.7,9.2 284.2,5.5 578,11 797,9.2 15.6,-0.1 28.1,-12.8 27.9,-28.3 -0.1,-15.5 -13.3,-28.3 -28.3,-27.9 -218.4,1.8 -511.8,-3.8 -795.5,-9.2 -246.5,-4.8 -500.3,-9.6 -706.2,-9.6"
             style="fill:#6476ea;fill-opacity:1;fill-rule:nonzero;stroke:none"
             id="path270" />
          <path
             d="m 31978.5,21097.3 c -3.9,0 -7.9,0.9 -11.7,2.6 l -553,253.8 c -14.1,6.5 -20.2,23.2 -13.8,37.3 6.5,14.2 23.2,20.3 37.3,13.9 l 553,-253.9 c 14.1,-6.4 20.3,-23.1 13.8,-37.3 -4.7,-10.3 -14.9,-16.4 -25.6,-16.4"
             style="fill:#6476ea;fill-opacity:1;fill-rule:nonzero;stroke:none"
             id="path272" />
        </g>
      </g>
      <path
         d="m 39200.3,8539.2 h -8528.8 c -374.2,0 -629,303.4 -569,677.6 l 479.2,2992.5 c 59.9,374.2 411.9,677.6 786.1,677.6 h 8528.7 c 374.3,0 629,-303.4 569.1,-677.6 l -479.2,-2992.5 c -60,-374.2 -411.9,-677.6 -786.1,-677.6"
         style="fill:#ffffff;fill-opacity:1;fill-rule:nonzero;stroke:none"
         id="path274" />
      <path
         d="m 39754.4,12866.4 h -6974.8 v 40.9 h 6974.8 v -40.9"
         style="fill:#6476ea;fill-opacity:1;fill-rule:nonzero;stroke:none"
         id="path276" />
      <path
         d="m 34561.5,10823.7 c -409.9,-776.5 -1179.2,-1286.9 -1923,-1688.6 -615.2,401.7 -1229.5,912.1 -1390.6,1688.6 -59.9,289.1 -47.7,625.2 121,906.2 202,336.4 602.1,521.9 939.9,484.6 317.9,-35.1 577.2,-242.6 735.6,-518.1 246.7,275.5 572.4,483 901.7,518.1 349.7,37.3 690.4,-148.2 784.7,-484.6 78.7,-281 -16.8,-617.1 -169.3,-906.2"
         style="fill:#f95598;fill-opacity:1;fill-rule:nonzero;stroke:none"
         id="path278" />
      <path
         d="m 32779.9,9781.4 c -1.3,0 -2.6,0.1 -3.9,0.3 -12.4,1.8 -21.7,12.2 -22.2,24.7 l -60,1424.2 -269.6,-705 c -3.9,-10.1 -13.6,-16.8 -24.4,-16.8 h -1054.1 c -14.4,0 -26.1,11.7 -26.1,26.1 0,14.5 11.7,26.2 26.1,26.2 h 1036.1 l 308.4,806.4 c 4.4,11.6 16.5,18.4 28.6,16.5 12.2,-2 21.4,-12.3 21.9,-24.7 l 59.6,-1416.6 397.7,1115 c 4.2,11.9 16.2,19.1 28.7,17 12.4,-1.9 21.6,-12.4 22,-25 l 20.9,-699.4 148.1,216.8 c 4.9,7.1 12.9,11.4 21.6,11.4 h 951.7 c 14.4,0 26.1,-11.7 26.1,-26.1 0,-14.5 -11.7,-26.2 -26.1,-26.2 h -937.9 l -185.7,-271.7 c -6.4,-9.3 -18.1,-13.6 -28.9,-10.4 -10.9,3.2 -18.5,13 -18.8,24.3 l -19.1,641.1 -396.1,-1110.8 c -3.8,-10.5 -13.7,-17.3 -24.6,-17.3"
         style="fill:#ffffff;fill-opacity:1;fill-rule:nonzero;stroke:none"
         id="path280" />
      <path
         d="M 39188.3,10974.2 H 35819 c -118.5,0 -199.1,96 -180.1,214.4 18.9,118.4 130.3,214.4 248.7,214.4 H 39257 c 118.4,0 199,-96 180.1,-214.4 -19,-118.4 -130.4,-214.4 -248.8,-214.4"
         style="fill:#6476ea;fill-opacity:1;fill-rule:nonzero;stroke:none"
         id="path282" />
      <path
         d="m 38287.6,10085.9 h -2610.9 c -118.4,0 -199,96 -180.1,214.4 v 0 c 19,118.4 130.4,214.4 248.8,214.4 h 2610.9 c 118.4,0 199.1,-96 180.1,-214.4 v 0 c -19,-118.4 -130.3,-214.4 -248.8,-214.4"
         style="fill:#6476ea;fill-opacity:1;fill-rule:nonzero;stroke:none"
         id="path284" />
      <g
         id="g286">
        <g
           id="g288"
           clip-path="url(#clipPath292)">
          <path
             d="M 10589.7,2220.5 H 45944.5 V 3224.9 H 10589.7 Z"
             style="fill:#dcd8f7;fill-opacity:1;fill-rule:nonzero;stroke:none"
             id="path294" />
        </g>
      </g>
      <path
         d="m 20443.5,21062.4 223.7,-447.5 1694.1,1534.3 351.6,-575.4 -1845,-1986.9 c -307.5,-331.1 -853.2,-241.2 -1038.2,171.1 l -728.7,1624 1342.5,-319.6"
         style="fill:#fcb9a6;fill-opacity:1;fill-rule:nonzero;stroke:none"
         id="path296" />
      <path
         d="m 14309.5,21480.9 -306.1,-990 c -4.9,-15.6 -9.2,-31.3 -13.2,-46.9 -146.9,-579.5 325.3,-1132.4 922.6,-1108.7 l 1635.7,65.1 206.3,523.4 -1422.4,1659.9 -1022.9,-102.8"
         style="fill:#fcc5b6;fill-opacity:1;fill-rule:nonzero;stroke:none"
         id="path298" />
      <path
         d="m 17513.7,4104.1 h 1036.2 v 1310 h -1036.2 v -1310"
         style="fill:#fcc5b6;fill-opacity:1;fill-rule:nonzero;stroke:none"
         id="path300" />
      <path
         d="m 14979.7,4104.1 h 1036.2 v 1310 h -1036.2 v -1310"
         style="fill:#fcc5b6;fill-opacity:1;fill-rule:nonzero;stroke:none"
         id="path302" />
      <path
         d="m 16011.1,4421.8 391,-625.6 324,-208.3 c 55.2,-35.5 93.3,-92.3 105.2,-156.8 l 53.4,-289.6 c 39.1,-15.2 66.5,-50.9 71.1,-92.6 l 28.9,-259.6 h -2361.8 l 24,280.3 c 3.5,40.5 17.4,79.5 40.5,113 l 72.4,105.3 224.8,1075.3 c 327.8,-136.1 699.5,-117.4 1012,50.9 l 14.5,7.7"
         style="fill:#382a73;fill-opacity:1;fill-rule:nonzero;stroke:none"
         id="path304" />
      <path
         d="m 18559.7,4431.6 733.2,-703.8 976.4,-163.5 c 61.8,-4.8 117.2,-40 147.7,-94 l 205.4,-363.3 29,-8.3 c 63.8,-18.2 107.9,-76.6 107.9,-143 v -161.5 h -2097 c -139.2,86.8 -315.6,87.2 -455.2,1 l -21.3,-13.2 h -1082.7 l 12.5,219.6 c 4.5,79.5 42.6,153.4 104.8,203.2 l 273.7,1173.1 220.9,-44.2 c 239.3,-47.9 487.1,-29.8 716.9,52.3 l 127.8,45.6"
         style="fill:#382a73;fill-opacity:1;fill-rule:nonzero;stroke:none"
         id="path306" />
      <path
         d="m 20524.6,3108 h -0.4 l -3189.3,66 c -10.3,0.2 -18.4,8.7 -18.2,18.9 0.2,10.3 9.4,18.5 18.9,18.2 l 3189.4,-66 c 10.3,-0.2 18.4,-8.7 18.2,-18.9 -0.2,-10.2 -8.5,-18.2 -18.6,-18.2"
         style="fill:#ffffff;fill-opacity:1;fill-rule:nonzero;stroke:none"
         id="path308" />
      <path
         d="m 16821.1,3152.7 h -0.8 l -1980.7,79.9 c -10.2,0.4 -18.2,9.1 -17.8,19.3 0.4,10.3 9.2,17.6 19.4,17.9 l 1980.6,-80 c 10.3,-0.4 18.3,-9 17.9,-19.3 -0.4,-10 -8.7,-17.8 -18.6,-17.8"
         style="fill:#ffffff;fill-opacity:1;fill-rule:nonzero;stroke:none"
         id="path310" />
      <path
         d="m 18085.4,26250.1 c 40.4,31.3 110.5,1.7 116.3,-49.1 -40.3,-24.9 -84.7,-43.1 -130.9,-53.6 -16.3,-3.7 -34.5,-6.1 -48.8,2.5 -25.7,15.6 -19.9,57.8 3.3,76.8 23.2,19 55.5,21.2 85.4,22.7"
         style="fill:#1a1a1a;fill-opacity:1;fill-rule:nonzero;stroke:none"
         id="path312" />
      <path
         d="m 18059.6,26684.6 227,-1398.2 c 56.9,-425.5 -217,-825.2 -634.4,-925.6 l -683.1,-164.5 -645.9,1104.4 -257.7,317.6 c -219.9,271.1 -268.3,449 -273,798 l 37.4,247.7 c -0.8,58.8 17.5,116.2 52.2,163.6 v 0 c 490.9,669.9 1415,936.8 2018,365.7 l -89.7,-21.6 c 136.4,-129.1 224.3,-301 249.2,-487.1"
         style="fill:#fcc5b6;fill-opacity:1;fill-rule:nonzero;stroke:none"
         id="path314" />
      <path
         d="m 16519.9,23814.8 c -5.8,-44 -5.6,-91 13.8,-130.9 42.4,-87.1 160.2,-97.5 257,-95.9 204.3,3.5 408.5,7 612.7,10.5 38.6,0.7 80.7,2.6 109.9,27.8 29.1,25.1 37.3,66.2 43.4,104.1 53.1,329.8 79.2,663.9 77.9,997.9 -0.5,122.8 -15,265.1 -117.5,332.5 -69.6,45.7 -159.4,41.9 -242.4,35.4 -247.8,-19.2 -696.7,65.1 -710,-241.1 -13.7,-314.1 -8.3,-760.6 -44.8,-1040.3"
         style="fill:#fcc5b6;fill-opacity:1;fill-rule:nonzero;stroke:none"
         id="path316" />
      <path
         d="m 15159.9,18183.3 c -58.4,-77.9 0,-1889.5 0,-1889.5 l 3779.1,-116.9 58.4,2571.3 -3837.5,-564.9"
         style="fill:#5c49d8;fill-opacity:1;fill-rule:nonzero;stroke:none"
         id="path318" />
      <path
         d="m 14327,20728.7 c 255.4,-70.2 532.1,-76 795.5,-71 265.4,5.1 331.1,31.5 600.5,101.2 l -1050.1,2859.2 c -72.4,-108.6 -473.9,-1525 -952.9,-2619.7 193.1,-110.6 392.3,-210.6 607,-269.7"
         style="fill:#a6bdff;fill-opacity:1;fill-rule:nonzero;stroke:none"
         id="path320" />
      <path
         d="M 18958.5,16780.8 18798.6,5015 l -153.9,-51.3 c -353,-117.6 -736.5,-103.6 -1079.9,39.5 l -168.7,70.3 -424.6,11902.1 1987,-194.8"
         style="fill:#5c49d8;fill-opacity:1;fill-rule:nonzero;stroke:none"
         id="path322" />
      <path
         d="M 15140.4,16839.2 14791.2,5190.4 c 374.8,-253.9 855.1,-293.2 1266.1,-103.5 l 97.5,45 c 0,0 752,11515 771.5,11573.4 19.5,58.4 -1785.9,133.9 -1785.9,133.9"
         style="fill:#5c49d8;fill-opacity:1;fill-rule:nonzero;stroke:none"
         id="path324" />
      <path
         d="m 16057.3,23542.5 c 53.5,45.5 286.8,563.3 286.8,563.3 l 261.3,61.5 c 266.9,62.8 545.3,58.3 810.1,-13.1 l 305.6,-82.3 129.7,-435.9 -1793.5,-93.5"
         style="fill:#a6bdff;fill-opacity:1;fill-rule:nonzero;stroke:none"
         id="path326" />
      <path
         d="m 17865.7,24586 c -5,0 -9.9,2.4 -13,6.8 -116,165.1 -208,345.5 -273.5,536.4 -2.8,8.3 1.6,17.4 9.9,20.2 8.3,2.9 17.4,-1.6 20.2,-9.9 64.5,-188 155.1,-365.8 269.4,-528.4 5.1,-7.2 3.3,-17.2 -3.9,-22.2 -2.7,-2 -5.9,-2.9 -9.1,-2.9"
         style="fill:#000000;fill-opacity:1;fill-rule:nonzero;stroke:none"
         id="path328" />
      <path
         d="m 18912.6,22608.1 c -8.8,0 -16.2,6.8 -16.8,15.8 -19.7,336.1 125.7,682.3 379.5,903.6 7,6.1 17.6,5.3 23.7,-1.7 6.1,-7 5.4,-17.6 -1.6,-23.7 -246.2,-214.5 -387.2,-550.3 -368,-876.3 0.5,-9.2 -6.6,-17.2 -15.8,-17.7 h -1"
         style="fill:#ffffff;fill-opacity:1;fill-rule:nonzero;stroke:none"
         id="path330" />
      <path
         d="m 17708.7,16146.4 -2.6,0.2 c -584.4,92.4 -1180.2,124.8 -1771.1,96.1 -9.1,-0.8 -17.1,6.7 -17.5,15.9 -0.5,9.3 6.7,17.2 15.9,17.6 593.2,28.8 1191.3,-3.6 1777.9,-96.4 9.2,-1.5 15.4,-10.1 14,-19.2 -1.3,-8.3 -8.5,-14.2 -16.6,-14.2"
         style="fill:#ffffff;fill-opacity:1;fill-rule:nonzero;stroke:none"
         id="path332" />
      <path
         d="m 18037.8,10803.7 c -1.1,0 -2.2,0.1 -3.3,0.3 -249.1,50.1 -502.9,57.1 -754.3,20.4 -9.3,-1.3 -17.7,5.1 -19.1,14.2 -1.3,9.2 5.1,17.7 14.2,19.1 255.3,37.1 512.9,30.2 765.8,-20.7 9.1,-1.9 15,-10.7 13.2,-19.8 -1.6,-8 -8.7,-13.5 -16.5,-13.5"
         style="fill:#ffffff;fill-opacity:1;fill-rule:nonzero;stroke:none"
         id="path334" />
      <path
         d="m 15070.5,10880.1 c -7.9,0 -15,5.7 -16.5,13.8 -1.6,9.1 4.4,17.8 13.6,19.5 299.1,54 602.5,54.5 901.8,1.6 9.2,-1.6 15.3,-10.3 13.7,-19.5 -1.7,-9.1 -10.4,-15.2 -19.5,-13.6 -295.4,52.3 -594.9,51.7 -890.1,-1.6 -1,-0.2 -2,-0.2 -3,-0.2"
         style="fill:#ffffff;fill-opacity:1;fill-rule:nonzero;stroke:none"
         id="path336" />
      <path
         d="m 18548.5,5395 h -0.6 c -9.3,0.4 -16.6,8.1 -16.2,17.4 l 190.4,5370.6 -41.5,6912.5 c 0,9.3 7.5,16.8 16.7,16.9 h 0.1 c 9.3,0 16.8,-7.5 16.8,-16.7 l 41.5,-6913.2 -190.5,-5371.3 c -0.3,-9.1 -7.7,-16.2 -16.7,-16.2"
         style="fill:#ffffff;fill-opacity:1;fill-rule:nonzero;stroke:none"
         id="path338" />
      <path
         d="m 15963.9,27252.5 c -168.6,-182.3 -209.3,-255.1 -291,-538.3 -81.6,-283.1 -60.1,-594.8 59.7,-864.1 68.2,-153.6 167,-293.2 223.5,-451.5 60,-168.1 69.7,-349.8 113.3,-522.9 43.7,-173.1 134.4,-389.4 295.6,-466.1 138.4,-65.7 309.7,-28.3 459.4,4.4 220.4,48.1 444.3,155.8 563.2,347.7 200,322.5 43.8,920.3 260.6,1231.8 74.4,106.9 115.3,-184.8 233.1,-85.6 130.2,109.7 -5.9,474.9 22.3,642.8 21.7,129.7 150.5,242.2 195.3,365.8 100.8,278.1 -135.1,632.8 -397.3,769.8 -262.2,137.1 -585.4,111.7 -860.1,1.8 -274.6,-109.9 -675.5,-245.3 -877.6,-435.6"
         style="fill:#382a73;fill-opacity:1;fill-rule:nonzero;stroke:none"
         id="path340" />
      <path
         d="m 17460.3,25847.7 c 3.2,-138.3 44.9,-279 117.2,-395.1 26.9,-43.2 58.7,-83.9 98.3,-109.7 39.5,-25.8 87.8,-34.8 126.1,-14.2 39.4,21.3 62.7,70.5 70.3,121.9 21.5,143.6 -14.5,415.3 -119.3,527.1 -134.1,142.9 -297.4,75.5 -292.6,-130"
         style="fill:#fcc5b6;fill-opacity:1;fill-rule:nonzero;stroke:none"
         id="path342" />
      <path
         d="m 17760.9,25301.4 c -52.2,0 -106.4,21.5 -145.3,56.4 -69.8,62.7 -101.6,158.1 -127.2,234.8 -2.7,8.4 1.8,17.4 10.1,20.2 8.4,2.7 17.4,-1.8 20.1,-10.1 25.7,-76.9 54.7,-164.1 118.3,-221.2 57.8,-52 159.9,-69.7 213.9,-12.1 6,6.4 16.1,6.7 22.5,0.7 6.4,-6 6.7,-16.1 0.7,-22.5 -30.2,-32.2 -71,-46.2 -113.1,-46.2"
         style="fill:#000000;fill-opacity:1;fill-rule:nonzero;stroke:none"
         id="path344" />
      <path
         d="m 17674.1,25536.4 c -7.5,0 -14.1,5.3 -15.6,12.9 -19.3,101 -14,206.5 15.3,305 2.6,8.5 11.4,13.2 19.8,10.8 8.5,-2.5 13.2,-11.4 10.7,-19.8 -27.8,-93.7 -32.9,-194 -14.6,-290 1.7,-8.7 -4,-17 -12.6,-18.6 -1,-0.2 -2,-0.3 -3,-0.3"
         style="fill:#000000;fill-opacity:1;fill-rule:nonzero;stroke:none"
         id="path346" />
      <path
         d="m 21992.3,21780.4 317.9,286.5 236.4,725.3 844.9,972.1 c 15.8,18.1 43,20.8 62,6.1 40.8,-31.6 51.5,-88.7 24.7,-132.9 l -357.1,-588.9 174.2,-160.6 92.6,-266.2 63.4,-152.8 -539.5,-815.3 -192.4,-97.8 -317,-298.4 -410.1,522.9"
         style="fill:#fcb9a6;fill-opacity:1;fill-rule:nonzero;stroke:none"
         id="path348" />
      <path
         d="m 20648.1,21060.6 -1264.5,2556.1 -945.1,-1599.3 836,-1781 c 490.6,13.7 1042,418.9 1373.6,824.2"
         style="fill:#a6bdff;fill-opacity:1;fill-rule:nonzero;stroke:none"
         id="path350" />
      <path
         d="m 15413.6,23822.6 -755.2,-205.9 327.1,-3416.7 -109,-2871.4 1054.5,-97.7 c 604.1,-55.9 1212.2,-53.7 1815.9,6.7 l 1273.2,127.3 -36.3,2907.8 181.7,2544.3 218.1,799.7 -686.1,192.9 c -1073.2,301.9 -2208.3,306.4 -3283.9,13"
         style="fill:#a6bdff;fill-opacity:1;fill-rule:nonzero;stroke:none"
         id="path352" />
      <path
         d="m 14990.4,20681.3 c -8,0 -15,6.2 -15.8,14.4 l -129.5,1319.8 c -0.9,8.7 5.5,16.5 14.2,17.4 8.8,0.9 16.6,-5.5 17.4,-14.3 l 129.6,-1319.8 c 0.9,-8.7 -5.5,-16.5 -14.3,-17.4 l -1.6,-0.1"
         style="fill:#000000;fill-opacity:1;fill-rule:nonzero;stroke:none"
         id="path354" />
      <path
         d="m 19033.2,20797.4 c -6.3,0 -12.2,3.8 -14.7,9.9 l -496.6,1209.5 c -3.4,8.1 0.5,17.4 8.6,20.7 8.2,3.4 17.4,-0.5 20.8,-8.6 l 496.6,-1209.5 c 3.4,-8.1 -0.5,-17.4 -8.7,-20.8 -1.9,-0.8 -4,-1.2 -6,-1.2"
         style="fill:#000000;fill-opacity:1;fill-rule:nonzero;stroke:none"
         id="path356" />
    </g>
  </g>
</svg>
