<?xml version="1.0" encoding="UTF-8" standalone="no"?>
<!-- Created with Inkscape (http://www.inkscape.org/) -->

<svg
   version="1.1"
   id="svg2"
   width="2818.72"
   height="2666.6667"
   viewBox="0 0 2818.72 2666.6667"
   sodipodi:docname="embarazada.svg"
   inkscape:version="1.2.1 (9c6d41e410, 2022-07-14)"
   xmlns:inkscape="http://www.inkscape.org/namespaces/inkscape"
   xmlns:sodipodi="http://sodipodi.sourceforge.net/DTD/sodipodi-0.dtd"
   xmlns="http://www.w3.org/2000/svg"
   xmlns:svg="http://www.w3.org/2000/svg">
  <defs
     id="defs6" />
  <sodipodi:namedview
     id="namedview4"
     pagecolor="#ffffff"
     bordercolor="#000000"
     borderopacity="0.25"
     inkscape:showpageshadow="2"
     inkscape:pageopacity="0.0"
     inkscape:pagecheckerboard="0"
     inkscape:deskcolor="#d1d1d1"
     showgrid="false"
     inkscape:zoom="0.27149999"
     inkscape:cx="1412.5231"
     inkscape:cy="1335.175"
     inkscape:window-width="2560"
     inkscape:window-height="1009"
     inkscape:window-x="0"
     inkscape:window-y="0"
     inkscape:window-maximized="1"
     inkscape:current-layer="g10">
    <inkscape:page
       x="0"
       y="0"
       id="page8"
       width="2818.72"
       height="2666.6667" />
  </sodipodi:namedview>
  <g
     id="g10"
     inkscape:groupmode="layer"
     inkscape:label="Page 1"
     transform="matrix(1.3333333,0,0,-1.3333333,0,2666.6667)">
    <g
       id="g12"
       transform="scale(0.1)">
      <path
         d="M 0,0 H 21140.4 V 20000 H 0 Z"
         style="fill:#ffffff;fill-opacity:1;fill-rule:nonzero;stroke:none"
         id="path14" />
      <path
         d="M 3030.18,1412.3 H 17840.9 c 74.7,49.2 130.4,113.6 170.4,190.1 308.6,590.4 -325.4,1895.9 -450.3,2405.3 -302.9,1234.7 42.2,2523.5 337.8,3760 508.1,2125.5 308.7,4134.7 -814,6036.8 -546.4,925.7 -1219.8,1765.7 -2169.5,2277.8 -1091.1,588.4 -2237.3,1065.6 -3339.9,1630.9 -1012,518.8 -2121.89,1002.2 -3248.04,844 C 7504.67,18441.7 6753.85,17982.9 6189.72,17372.9 5234.46,16340.1 4293.83,14383.5 4545.7,12929 4684.3,12128.6 4956.46,11434.2 4940.57,10586.2 4923.79,9690.8 4737.9,8797.9 4386.21,7973.8 3965.11,6987.1 3321.63,6108.6 2888.29,5127.2 2457.67,4152 2453.61,3223.6 2508.72,2183.6 c 25.74,-485.4 227.65,-690.7 521.46,-771.3"
         style="fill:#d2f3f9;fill-opacity:1;fill-rule:nonzero;stroke:none"
         id="path16" />
      <path
         d="m 8386.4,4208.6 c 107.81,343.6 310.31,733.8 354.52,1089.2 50.64,407.1 -42.54,836.7 13.87,1254.4 20.63,152.8 56.62,318.9 178.18,413.7 173.09,135 443.54,50.1 581.46,-120.7 436.24,-540.3 302.91,-1509.6 85.33,-2108.8 -252.83,-696.2 -684.86,-1335.8 -937.2,-2017.4 -69.81,-188.6 -231.46,-343.7 -182.21,-573.7 49.96,-233.5 272.58,-337.7 444.52,-434.2 81.25,-45.6 165.88,-82.6 246.59,-114.2 95.23,-37.2 199.09,-36.1 196.16,-179.5 H 8171.81 c -3.14,2.9 -5.42,6.6 -5.92,11.2 -5.65,49.6 -1.84,103.7 -0.89,151.5 3.62,183.4 14.09,388.4 -27.69,570.2 -31.34,136.4 -72.35,228 -71.78,373.2 2.26,575.1 147.21,1131.7 320.87,1685.1"
         style="fill:#dd8b72;fill-opacity:1;fill-rule:nonzero;stroke:none"
         id="path18" />
      <path
         d="m 8298.22,1412.3 c 33.03,-0.2 70.74,2.6 110.24,2.6 h 408.25 c 203.13,0 407.36,4.3 610.3,-0.5 4.45,146.5 -100.24,145 -196.15,182.5 -79.16,31 -152.97,78.3 -223.71,130.3 -21.47,15.8 -27.77,27.6 -47.47,16.8 -16.04,-8.8 -31.76,-36.1 -43.64,-50.9 -26.01,-32.5 -46.6,-74.1 -74.57,-103.9 -25.82,-27.6 -52.33,-53.7 -77.51,-82.9 -189.02,42.9 -379.28,75.7 -569.95,98.4 -42.24,-168.3 13.05,-191.8 104.21,-192.4"
         style="fill:#d6503b;fill-opacity:1;fill-rule:nonzero;stroke:none"
         id="path20" />
      <path
         d="m 7383.9,4353.6 c -0.17,542.1 59.82,1101.5 60.09,1586.7 0.1,157.6 0.69,318.4 50.54,467.9 49.85,149.6 158.41,288.5 309.65,332.9 217.4,63.7 451.08,-91.7 551.77,-294.6 100.69,-203 100.29,-439.5 93.22,-666 -37.69,-1208.3 -481.7,-2570.8 -169.54,-3760.2 19.97,-76 46.31,-149.3 75.97,-221.7 27.41,-66.8 67.78,-118.6 98.78,-183.4 22.39,-46.9 36.58,-100 31.75,-151.4 -5.69,-60.5 -120.58,-35.2 -163.05,-35.2 -70.59,0 -141.18,0 -211.77,0 -20.29,0 -234.62,-18.1 -242.97,0 -33.15,71.9 9.64,177.2 28.57,327.1 0.31,2.1 0.56,4.3 0.82,6.4 59.09,494.6 -182.74,947.1 -346.76,1398.3 -130.2,358.3 -166.93,770.4 -167.07,1193.2"
         style="fill:#f29c7d;fill-opacity:1;fill-rule:nonzero;stroke:none"
         id="path22" />
      <path
         d="m 7858.15,1545.2 c 2.06,10.7 4.11,21.3 6.17,31.9 3.46,17.9 5.16,38.5 11.07,55.2 6.24,-2.8 11.47,-19.6 14.92,-26.5 5.11,-10.2 10.25,-20.4 15.39,-30.6 7.77,-15.5 13.76,-22.7 29.72,-16.3 114.9,46 223.79,117.5 348.06,132.9 53.7,6.7 114.57,5.7 162.22,-27.6 47.7,-33.4 89.2,-77.5 130.52,-120.3 11.68,-12.1 22.38,-24 34.37,-35.5 11.7,-11.2 21.44,-26.4 24.28,-43.4 0.65,-4 8.22,-50.3 4.22,-50.3 -4.76,0 -9.52,0 -14.27,0 -37.96,0 -75.92,0 -113.88,0 -61.98,0 -123.97,0 -185.95,0 -69.2,0 -138.39,0 -207.58,0 -59.56,0 -119.13,0 -178.7,0 -20.92,0 -41.83,0 -62.75,0 -7.33,0 -14.65,0 -21.97,0 -14.57,0 -21.3,3.9 -17.4,22.3 2.65,12.4 5.16,24.9 7.66,37.4 4.74,23.6 9.33,47.2 13.9,70.8"
         style="fill:#ed6b4e;fill-opacity:1;fill-rule:nonzero;stroke:none"
         id="path24" />
      <path
         d="m 6776.64,9428.2 c 179.78,-257.5 393.58,-496.6 627.04,-675.4 264.99,-203 602.3,-330.8 932.83,-284.3 166.29,23.4 331.97,94.9 436.54,226.3 194.45,244.4 117.71,604.7 100.19,889.7 -51.98,845.1 -556.89,1591.2 -800.68,2382.7 -169.4,550 -285.16,1116.5 -345.08,1688.9 -29.66,283.3 6.82,602.3 -47.61,878.6 -71.9,365.1 -250.24,-43 -290.54,-198 -111.33,-428 -286.68,-839.3 -517.99,-1216.2 -225,-366.6 -493.01,-698.5 -640,-1110.6 -238.46,-668.5 -73.11,-1407 223.04,-2028.8 87.54,-183.8 196.59,-372.9 322.26,-552.9"
         style="fill:#272c4d;fill-opacity:1;fill-rule:nonzero;stroke:none"
         id="path26" />
      <path
         d="m 8146.56,13169.3 c 29.83,117.7 65.68,234 93.68,352.1 55.8,235.2 48.73,506.1 -15.11,738.5 -11,40.1 -26.75,83.1 -62.65,104 -37.79,22 -87.72,11.7 -123.26,-13.7 -35.55,-25.5 -59.76,-63.5 -82.69,-100.7 -107.28,-174.2 -205.91,-353.8 -295.41,-537.8 -82.58,-169.7 -207.35,-321.2 -267.83,-501.3 -63.85,-190 -78.93,-545.7 83.88,-696.6 65.42,-60.7 190.06,-95.6 269.63,-134.5 147.07,-71.8 313.35,-92.5 465.58,-151.1 98.78,-38 247.41,-112.6 266.95,51.6 13.38,112.6 -121.81,192 -192.88,258 -146.4,135.9 -213.09,243.6 -179.68,446 10.32,62.5 24.24,124.2 39.79,185.5"
         style="fill:#f29c7d;fill-opacity:1;fill-rule:nonzero;stroke:none"
         id="path28" />
      <path
         d="m 7254.1,11193.6 c -134.13,264.7 -242.12,546.6 -275.6,841.4 -33.48,294.9 12.05,604.7 166.59,858 145.85,239.1 452.62,220.2 682.94,106.6 200.34,-98.9 352.6,-255.9 544.9,-365.3 182.58,-103.9 382.57,-173 565.53,-276.2 219.57,-123.9 424.93,-366 391.07,-633.3 -44.18,-348.7 -236.58,-598.9 133.07,-809.2 289.95,-164.9 565.4,-354.7 686.8,-680.8 128.9,-346.5 116.8,-741.4 -40.4,-1076.8 -72.5,-154.8 -180.55,-249.1 -283.36,-376.1 -111.86,-138.2 -78.75,-302.8 -50.64,-477.9 55.66,-389.7 171.95,-761.7 188.99,-1157.1 14.7,-340.8 9.92,-682.4 -10.42,-1022.9 -10.26,-171.8 -16.84,-348.1 -42.98,-518.4 -7.16,-46.6 -58.76,-435.8 -70.05,-436.8 -217.34,-13.7 -428.17,-26.1 -645.83,-31.3 -226.21,-5.5 -452.69,5.8 -678.19,8.1 -394.99,4.1 -789.87,18.5 -1184.1,43.3 -283.33,1205 -600.42,2814.9 -139.75,4007 93.14,241.1 227.69,464.3 323.07,704.5 81.23,204.5 172.55,493.6 70.6,705.1 -95.07,197.3 -231.14,388.6 -332.24,588.1"
         style="fill:#fac6ba;fill-opacity:1;fill-rule:nonzero;stroke:none"
         id="path30" />
      <path
         d="m 9416.78,11253.5 c -11.42,10.9 -23.68,20.8 -36.82,29.7 -17.76,12.1 -35.15,29.2 -54.83,37.9 -57.07,25.1 -140.01,13.8 -198.81,1.4 -57.43,-12 -120.69,-30.1 -172.54,-58.2 -18.96,-10.2 -30.34,-22.2 -52.45,-26.4 -7.06,-1.3 -19.07,-1.3 -32.76,-1.3 -31.97,0 -73.08,0.1 -81.54,-17.2 -11.2,-23 38.12,-69.6 54.6,-80.5 19.27,-12.6 45.87,-21.4 69.2,-18.5 18.14,2.2 36.09,12.5 54.19,17.1 16.86,4.3 33.45,10.1 50.36,14.1 27.93,6.5 18.79,-5.2 0.53,-15.8 -114.59,-67 -201.15,-171.3 -277.67,-277.5 -5.58,-7.7 -11.44,-16.5 -10.07,-25.9 1.47,-10.2 11.33,-17.5 21.44,-19.2 10.12,-1.8 20.42,0.9 30.22,4 57.28,17.8 104.8,54.1 154.09,86.8 14.18,9.4 51.77,34.9 39.86,0.7 -7.5,-21.5 -36.9,-37.3 -52.29,-52.8 -33.37,-33.7 -72.5,-60.9 -106.97,-93.4 -21.96,-20.6 -72.88,-76.4 -60.78,-110.7 10.73,-30.4 66.77,-19.2 87.65,-8.2 6.21,3.2 12.04,7.4 18.81,9.2 6.77,1.8 15.04,0.6 19,-5.2 3.33,-4.9 2.67,-11.4 1.19,-17.2 -2.45,-9.4 -6.76,-18.5 -7.74,-28.2 -3.81,-38.2 66.9,-26.9 89.39,-17.2 64.37,27.9 123.6,57.3 176.23,102.8 8.93,7.7 95.11,88 105.88,73.4 8.66,-12 -22.12,-59.2 -28.69,-70.2 -13.22,-22.1 -96.39,-101.3 -64.84,-130.4 6.25,-5.8 15.95,-5 24.31,-3.4 70.76,13.3 106.74,52 151.42,104.9 44.46,52.6 84.63,108.8 119.94,167.9 14.71,24.6 29.93,50.1 43.92,74.7 18.18,32.1 18.47,69.8 32.45,103.1 32.37,77.1 -28.51,156 -73.95,214.3 -9.81,12.7 -20.44,24.5 -31.93,35.4"
         style="fill:#f29c7d;fill-opacity:1;fill-rule:nonzero;stroke:none"
         id="path32" />
      <path
         d="m 8020.77,13830.1 c 8.34,-93.4 32.17,-185.4 70.08,-271.3 20,-45.3 42.24,-105.1 84.99,-132.4 47.53,-30.2 101.94,-55.4 156.86,-68.2 58.11,-13.6 121.37,-48.9 166.16,4.7 25.68,30.7 52.81,64.6 77.41,100.5 21.85,31.9 41.66,65.4 56.32,99.6 0.57,1.4 1.21,2.8 1.78,4.2 22.05,53.6 35.87,127.4 100.41,128.4 43.64,0.7 90.66,-17.6 102.9,41.3 1.52,7.2 2.86,14.3 4.01,21.4 20.83,125.5 -1.27,251.2 38.04,375.4 32.68,103 65.36,207.1 69.38,316 2.48,66.7 0.45,130.7 -57.91,172.5 -148.9,106.5 -375.78,104 -536.78,29.3 -6.62,-3.1 -13.12,-6.2 -19.56,-9.6 -210.44,-109.2 -340.72,-345.6 -346.78,-582.6 -2.04,-81 25.55,-150 32.69,-229.2"
         style="fill:#f29c7d;fill-opacity:1;fill-rule:nonzero;stroke:none"
         id="path34" />
      <path
         d="m 8898.76,14549.6 c 1.72,-26.6 -34.61,-66.9 -49.2,-87.9 -21.04,-30.3 -44.26,-59.1 -69.47,-86.1 -50.33,-53.8 -108.74,-100.2 -173.44,-135.6 -68.81,-37.6 -143.52,-62 -219.79,-72.9 -66.5,-9.4 -135.84,-9.8 -202.11,2.8 -96.32,18.4 -133.19,106.4 -204.95,6 -53.13,-74.3 -67.45,-176.1 -81.88,-263.9 -79.27,-482.2 -3.56,-832.7 195.17,-1267 191.79,-419.1 208.98,-906.8 -8.11,-1321.6 -123.37,378.8 -112.64,758 -224.51,1135.5 -63.78,267.5 -425.33,527.9 -670.04,268.4 -82.89,-87.9 -123.53,-212.4 -152,-334.7 -27.64,-118.8 -54.9,-248.2 -56.68,-371.3 -1.66,-114.7 35.86,-212.9 39.57,-328.6 0.8,-25.1 -6.65,-58.7 -29.61,-58.8 -11.19,-0.1 -20.54,8.8 -28.54,17.4 -170.33,181.8 -249.87,444 -279.92,702.1 -52.12,447.6 300.85,838.5 440.41,1256 98.13,293.6 50.42,589.3 109.94,887.5 78.28,392.2 407.77,697.3 771.17,756.4 363.39,59 742.43,-111.1 992.36,-405.3 83.2,-97.9 154.63,-211.1 188.95,-339.4 26.02,-97.2 29.22,-202.6 1.32,-299.7 -6.97,-24.3 -16.15,-47.6 -26.87,-70.5 -8.81,-18.8 -10.54,-39.7 -20.98,-57.4 -28.23,-47.8 -102.26,-76.6 -152.56,-48.2 -53.38,30.1 -114.28,58.6 -158.62,101.6 -17.59,17.1 -34.07,38.7 -33.19,63.2 1,28.1 23,48.7 31.92,74 9.18,26.1 16.58,53.7 24.96,80.3 20.42,64.6 35.8,130.8 46.7,197.7"
         style="fill:#272c4d;fill-opacity:1;fill-rule:nonzero;stroke:none"
         id="path36" />
      <path
         d="m 8034.58,14396.6 c -2.29,2 -4.75,3.8 -7.36,5.7 -39.38,27.1 -88.21,49.1 -132.7,16.7 -59.65,-43.4 -61.17,-160.5 -54.47,-225.6 4.22,-40.9 17.6,-82 44.8,-112.9 8.75,-9.9 19.24,-19 31.92,-22.8 18.61,-5.5 70.72,-7.5 86.44,4.6 12.02,9.3 17.25,24.7 21.85,39.2 17.69,55.6 44.63,110.8 44.27,170.3 -0.31,48.9 0.03,95.3 -34.75,124.8"
         style="fill:#f29c7d;fill-opacity:1;fill-rule:nonzero;stroke:none"
         id="path38" />
      <path
         d="m 8301.43,14012.4 c 57.48,15.7 122.66,-17.4 148.7,-70.9 45.1,-92.8 -24.15,-166.4 -120.71,-152.4 -47.74,6.9 -93.8,38.4 -107.96,84.6 -17.47,56.9 22.5,123.1 79.97,138.7"
         style="fill:#f36d80;fill-opacity:1;fill-rule:nonzero;stroke:none"
         id="path40" />
      <path
         d="m 8596.55,14092 c -4.08,5.9 -8.1,12.2 -14.27,15.8 -6.17,3.6 -15.27,3.4 -19.34,-2.5 -3.33,-4.8 -2.13,-11.3 -0.49,-17 17.01,-58.4 69.89,-104.8 130.08,-114.1 13.1,-2 44.55,-1.6 44.74,18.5 0.12,14.9 -31.96,17.6 -42.48,21.8 -39.3,15.6 -74.05,42.8 -98.24,77.5"
         style="fill:#272c4d;fill-opacity:1;fill-rule:nonzero;stroke:none"
         id="path42" />
      <path
         d="m 9506.44,8164.6 c 10.09,-4.3 19.16,-4.6 26.74,0.2 16.74,10.8 -21.37,101.9 -25.74,115.1 -9.07,27.3 -27.56,50.6 -35.62,78.1 -6.29,21.4 -13.38,39.2 -8,60.8 37.84,-1.9 62.38,-62.7 83.62,-87.7 28.54,-33.6 57.67,-67.2 93.28,-93.6 19.1,-14.1 40.15,-27.8 63.85,-29.2 10.5,-0.6 22.15,1.9 31.08,7.6 6.66,4.3 9.01,14.3 13.77,17.4 14.38,9.3 21.14,-8.6 34.97,-12.3 16.27,-4.3 35.97,0.3 47.59,12.8 21.28,22.7 20.2,59.2 8.34,88 -11.85,28.8 -32.48,53.1 -47.98,80.1 -4.95,8.6 -34.19,78.4 -11.52,75.4 10.86,-1.4 20.28,-34.4 29.17,-41.5 16.91,-13.6 45.43,-15.2 58,2.5 8.39,11.8 7.21,27.7 4.99,42 -22.79,146.4 -114.79,271.9 -210.25,385.2 -330.31,392.3 -745.34,732.8 -941.28,1206.7 -28.06,67.9 -51.76,138.7 -94.93,198.2 -43.17,59.4 -111.19,106.8 -184.53,102.8 -69.91,-3.8 -128.47,-51.8 -181.52,-97.5 -59.48,-51.3 -118.96,-102.5 -178.43,-153.7 -19.68,-17 -40.92,-37 -41.96,-62.9 -0.69,-17.3 7.9,-33.4 16.41,-48.4 164.76,-290.5 395.74,-543.1 670.31,-733.2 128.21,-88.7 317.01,-185.5 363.38,-346.1 53.17,-184.3 124.02,-358.4 226.98,-521 22.74,-36 125.96,-218.9 189.28,-245.8"
         style="fill:#f29c7d;fill-opacity:1;fill-rule:nonzero;stroke:none"
         id="path44" />
      <path
         d="m 7395.23,7723.5 c -10.5,7.8 -22.04,14.6 -34.2,20 1.69,5.4 3.4,10.8 5.11,16.2 5.63,-3 11.41,-5.5 17.34,-7.1 v 0 0 c -3.09,0.8 -7.5,11.5 -11.8,24.5 47.88,148.7 103.49,295.2 166.39,438.2 3.54,-1.6 7.13,-2.9 10.77,-3.9 v 0 0 c -1.99,0.5 -4.53,5.2 -7.24,11.9 76.03,171.8 162.59,338.6 258.93,498.1 -3.18,-12.1 -6.51,-24.1 -10.07,-36.1 14.53,1 29.43,8 44.11,17.8 -63.88,-105.6 -123.43,-214.5 -178.43,-326 -12.09,-4.9 -24.19,-9.8 -36.28,-14.7 l 23.66,-11.1 c -67.39,-138.8 -127.72,-281.5 -180.58,-426.9 -9.25,-3.8 -18.49,-7.5 -27.73,-11.3 l 20.26,-9.4 c -21.35,-59.7 -41.44,-119.7 -60.24,-180.2"
         style="fill:#fbd6cd;fill-opacity:1;fill-rule:nonzero;stroke:none"
         id="path46" />
      <path
         d="m 7790.46,8685.3 c 3.56,12 6.89,24 10.07,36.1 22.04,84.1 36.51,171.3 66.88,252.5 23.39,62.6 59.13,168.3 114.94,242.2 36.58,48.5 81.79,83.2 137.8,83.2 13.08,0 26.74,-1.9 41.03,-5.9 40.17,-11.5 49.14,-64.5 44.18,-106 -12.2,-101.8 -62.07,-196.7 -129.02,-274.5 -47.16,-54.8 -102.66,-101.6 -161.41,-143.5 -22.96,-16.3 -51.24,-46.8 -80.36,-66.3 -14.68,-9.8 -29.58,-16.8 -44.11,-17.8"
         style="fill:#fbd6cd;fill-opacity:1;fill-rule:nonzero;stroke:none"
         id="path48" />
      <path
         d="m 7860.64,8316.3 c -73,0 -145.98,11.3 -215.33,34.2 l -1.79,0.8 -23.66,11.1 c 12.09,4.9 24.19,9.8 36.28,14.7 149.06,60.4 298.11,120.7 447.17,181.1 27.82,11.2 60.65,21.3 90.37,21.3 25.13,0 48.04,-7.2 63.82,-27 43.51,-54.8 -20.93,-130.7 -83.33,-162.3 -96.72,-49 -205.15,-73.9 -313.53,-73.9"
         style="fill:#fbd6cd;fill-opacity:1;fill-rule:nonzero;stroke:none"
         id="path50" />
      <path
         d="m 7675.98,7867 c -73,0 -145.98,11.3 -215.32,34.2 l -5.19,2.5 -20.26,9.4 c 9.24,3.8 18.48,7.5 27.73,11.3 151.9,61.5 303.81,123 455.72,184.5 27.82,11.3 60.64,21.4 90.36,21.4 25.13,0 48.04,-7.3 63.83,-27.1 43.51,-54.8 -20.93,-130.7 -83.34,-162.3 -96.72,-49 -205.15,-73.9 -313.53,-73.9"
         style="fill:#fbd6cd;fill-opacity:1;fill-rule:nonzero;stroke:none"
         id="path52" />
      <path
         d="m 7548.84,8211.4 c -3.64,1 -7.23,2.3 -10.77,3.9 -20.16,9 -38.43,26.6 -54.02,41.1 -70.4,65.4 -124.05,146.9 -169.16,231.1 -28.69,53.7 -61.57,111.2 -70.55,173.8 -6.31,44 21.88,108.4 66,126.1 6.42,2.6 12.86,3.7 19.22,3.7 38.91,0 75.47,-43.4 92.21,-73.6 16.71,-30.1 27.64,-62.4 35.37,-95.9 8.91,-38.5 20.12,-64.9 22.29,-105.3 2.47,-45.8 8.45,-91.4 17.8,-136.4 6.89,-33.1 15.62,-65.9 26.16,-98.1 2,-6 10.74,-40.1 18.21,-58.5 2.71,-6.7 5.25,-11.4 7.24,-11.9"
         style="fill:#fbd6cd;fill-opacity:1;fill-rule:nonzero;stroke:none"
         id="path54" />
      <path
         d="m 7383.48,7752.6 c -5.93,1.6 -11.71,4.1 -17.34,7.1 -17.57,9.6 -33.57,25 -47.45,37.9 -70.4,65.4 -124.04,146.9 -169.16,231.2 -28.69,53.6 -61.57,111.1 -70.55,173.7 -6.31,44 21.89,108.4 66.01,126.1 6.41,2.6 12.85,3.7 19.22,3.7 38.91,0 75.47,-43.3 92.21,-73.6 16.7,-30.1 27.63,-62.4 35.36,-95.9 8.91,-38.5 20.13,-64.9 22.3,-105.2 2.46,-45.9 8.44,-91.5 17.79,-136.5 6.89,-33.1 15.63,-65.9 26.17,-98.1 1.59,-4.8 7.51,-27.6 13.64,-45.9 4.3,-13 8.71,-23.7 11.8,-24.5"
         style="fill:#fbd6cd;fill-opacity:1;fill-rule:nonzero;stroke:none"
         id="path56" />
      <path
         d="m 8446.71,10510.7 c -2.52,0 -5.2,0.9 -7.71,2.9 -44.5,35.6 -68.96,81.3 -97.39,130.7 -31,53.9 -61.69,108 -91.64,162.4 -58.35,106.1 -113.73,214 -163.79,324.3 -47.23,104.1 -89.8,210.3 -124.16,319.3 -18.45,58.6 -34.72,117.7 -47.3,177.8 -11.76,56.1 -25.96,115.5 -18.61,173.1 1.43,11.1 13.2,21.1 23.86,21.1 5.91,0 11.48,-3 14.77,-10.7 21.57,-50.1 29.13,-104.6 41.66,-157.5 13.45,-56.7 28.65,-113.2 45.79,-169 35.31,-114.9 79.06,-227.3 128.3,-336.9 47.26,-105.2 99.56,-208 153.82,-309.7 27.86,-52.3 56.3,-104.2 85.08,-156 29.04,-52.1 58.95,-99.1 67.75,-158.4 1.16,-7.8 -4.11,-13.4 -10.43,-13.4"
         style="fill:#fbd0c6;fill-opacity:1;fill-rule:nonzero;stroke:none"
         id="path58" />
      <path
         d="m 9140.19,10853.9 c -4.48,0 -8.69,1.8 -12.25,6.4 -14.17,18.4 17.08,36.8 30.08,44.1 2.75,1.5 5.47,2.2 8.03,2.2 12.46,0 21.16,-16.2 11.28,-27.2 -7.45,-8.4 -23.51,-25.5 -37.14,-25.5"
         style="fill:#f4ae95;fill-opacity:1;fill-rule:nonzero;stroke:none"
         id="path60" />
      <path
         d="m 9038.16,10931.5 c -4.48,0 -8.69,1.8 -12.25,6.4 -14.18,18.4 17.07,36.8 30.08,44.1 2.75,1.5 5.47,2.2 8.03,2.2 12.46,0 21.16,-16.1 11.27,-27.3 -7.44,-8.3 -23.5,-25.4 -37.13,-25.4"
         style="fill:#f4ae95;fill-opacity:1;fill-rule:nonzero;stroke:none"
         id="path62" />
      <path
         d="m 9677.45,8638.2 c -2.64,0 -5.24,0.4 -7.78,1.2 -3.71,0.4 -7.09,1.3 -10.76,3.2 -6.63,3.4 -8.14,12.3 -4.83,18.5 1.5,2.7 3.43,4.9 5.62,6.8 6.1,9.3 19.45,12.2 29.85,14.6 1.55,0.3 3.14,0.5 4.73,0.5 8.8,0 17.64,-5.3 19.73,-14.4 2.6,-11.5 -3.52,-20.3 -13.89,-24.5 -7.3,-2.9 -15.14,-5.9 -22.67,-5.9"
         style="fill:#f4ae95;fill-opacity:1;fill-rule:nonzero;stroke:none"
         id="path64" />
      <path
         d="m 9602.08,8524 c -16.77,0 -25.07,24.5 -28.06,38.7 -2.01,9.6 2.02,19 11.24,22.9 2.44,1.1 5,1.6 7.52,1.6 6.64,0 13.05,-3.5 16.72,-9.5 8.42,-13.9 22.19,-43.2 0.35,-52 -2.77,-1.1 -5.36,-1.7 -7.77,-1.7"
         style="fill:#f4ae95;fill-opacity:1;fill-rule:nonzero;stroke:none"
         id="path66" />
      <path
         d="m 8576.27,13463.4 c 21.85,31.9 41.66,65.4 56.32,99.6 0.57,1.4 1.21,2.8 1.78,4.2 -64.54,25.5 -123.41,65.5 -170.17,117 -2.93,-86.2 40.97,-172.4 112.07,-220.8"
         style="fill:#ffffff;fill-opacity:1;fill-rule:nonzero;stroke:none"
         id="path68" />
      <path
         d="m 10742.5,12006.7 c 13.1,-19.5 26.1,-40.6 40.1,-63.3 79.4,-129.8 158,-265 225.5,-402.4 17.7,-36.1 35.1,-74.8 31.1,-114.7 -4.6,-46.3 -39.6,-82.2 -82.1,-97 -35.6,-12.5 -79.1,-33.9 -115.2,-40.7 -136.8,-25.5 -213.6,262.6 -298.1,328.9 -136.4,106.8 -324.2,125.1 -477.5,199 -117.6,56.7 -232.64,151.7 -273.08,279.6 -7.66,24.3 -10.25,50.8 -2.64,75 16.15,51.6 76.77,71.4 116.39,33 41.67,-40.4 87.85,-64.2 140.93,-89.5 116,-55.1 238.9,-94.9 367.7,-103.4 23.9,-1.6 104.4,-5 85.7,42 -5.4,13.9 -59.2,39.1 -72.7,51.3 -21.5,19.4 -93.5,83.1 -62.4,116.5 20.8,22.3 64.3,-6.5 85,-15.3 38.7,-16.5 77.3,-33 115.9,-49.5 85.8,-36.6 131.4,-84.4 175.4,-149.5"
         style="fill:#f29c7d;fill-opacity:1;fill-rule:nonzero;stroke:none"
         id="path70" />
      <path
         d="m 13215.3,13319.4 c 318.9,19 448.5,209.9 452.3,577.5 1.5,146.9 -2.4,296.3 -46.2,436.5 -47,150.5 -161.7,246 -232.3,378.2 -80.2,150.1 -90.8,337.6 -296.2,364.4 -117.8,15.4 -466.7,-61.4 -465,-209.2 0.4,-34.6 16.4,-67.9 14.8,-102.5 -4.1,-92.6 -117.8,-131.4 -181.3,-198.9 -103.2,-110 5.7,-235.5 -15.9,-358.6 -11.2,-64.1 -64.2,-96.5 -80,-156.7 -24.9,-95.4 3.7,-198.5 -22.6,-295 -86.5,-317.7 -2.9,-310 289.9,-454.5 49.7,-24.5 104.5,-49.7 158.6,-37 54.9,13 95.7,78 146.9,86.9 71.7,12.4 69,-24.1 131.6,-28.9 52.3,-4.1 100.7,-4.8 145.4,-2.2"
         style="fill:#272c4d;fill-opacity:1;fill-rule:nonzero;stroke:none"
         id="path72" />
      <path
         d="m 12690.6,14644.1 c 4.4,-13.9 10.1,-27.5 17.1,-41 95.8,-183.1 318.5,-197.5 502.4,-163.3 37.6,7.1 74.9,15.8 112.7,21.8 32.8,5.3 69.9,13.7 101.8,2 60,-22 113.8,-62.1 152.5,-114.3 131.3,-176.7 49.1,-514 119.9,-720.9 34.2,-100 100.8,-193.8 197.5,-236.6 96.6,-42.7 224.5,-21.6 285.4,64.8 93.6,133 338.9,170.2 441.9,338.3 105.3,172 55.1,305.1 -109.8,420.5 -53.5,37.4 -108.6,81.9 -125.4,145 -17.2,64.3 9.7,131 23.4,196.2 13.8,65.1 7,146.7 -51.1,179.1 -58.4,32.5 -136.4,-3.2 -196.3,26.6 -109.2,54.3 -45.3,246.7 -139.6,324.1 -63.3,51.9 -158,20.9 -238.4,36.6 -78.5,15.3 -139.5,74.7 -207.1,117.3 -181.1,114.2 -433.2,102.1 -602.5,-29.1 -152.1,-117.7 -350.1,-363.5 -284.4,-567.1"
         style="fill:#272c4d;fill-opacity:1;fill-rule:nonzero;stroke:none"
         id="path74" />
      <path
         d="m 14540.5,12479.4 c -216.8,-398.1 -701.9,-635.6 -964.4,-1014.1 -150.5,-216.9 -353.2,-441.9 -612.8,-437.8 -255,4 -461.2,242.6 -523,497.4 -56.8,234.5 31.5,445.6 9.6,672.9 -13.6,141.1 -97.9,232.1 -40.3,383.2 99,259.6 416.9,262.3 621.8,382.3 82.6,48.5 156.4,118.7 192.3,209.3 8.8,22.4 15.5,45.5 20.4,69.3 11.8,58 12.6,119.8 6.8,183.8 -14.4,159.3 -69.7,331.7 -98.3,488.6 -9.6,52.8 -16.1,103.9 -17,152 -0.2,5.8 -0.1,11.5 0,17.2 2.3,79.1 26.3,158.9 62.3,228.2 29.6,57.1 75,123.6 139.7,140.9 70.1,18.7 133.4,-42.4 161,-103.4 19.2,-42.5 55.4,-67.2 83.2,-103.7 19.8,-25.9 36.3,-54.3 49.3,-84.4 13.4,-31 18.7,-52.2 20.9,-86.8 4.6,-73.6 7.3,-147.6 19.7,-220.5 14.3,-84.1 38.7,-164.5 70.3,-243.8 62.4,-156.9 157.9,-302.7 289.4,-405.2 101.6,-79.2 220.8,-130.1 338.5,-180.2 119.7,-50.9 223.3,-76.3 256.3,-221.3 24.7,-108.8 -27.2,-234.9 -85.7,-323.9"
         style="fill:#f29c7d;fill-opacity:1;fill-rule:nonzero;stroke:none"
         id="path76" />
      <path
         d="m 13532.3,13741.6 c -70.3,-96.9 -249.8,-291.7 -382.4,-268.6 -45.1,7.8 -87.8,27.5 -123.9,56.5 -126.1,101.1 -181.3,280.4 -216.4,433.6 -0.4,2.1 -0.9,4.2 -1.3,6.3 -8.5,37.5 -15.5,75 -21.3,112.5 -5.5,35.7 -9.7,71.4 -12.9,107.1 -3,34.9 -5,69.7 -6,104.5 -0.8,24.9 16.5,211.8 3.9,223.4 51.6,-47.6 117.5,-78.5 186.2,-87.3 95.2,-12.3 189.9,16.9 284.1,34.8 94.2,18 198.5,22.9 278.9,-31.2 66.3,-44.7 105.2,-123.4 120.2,-203.3 33.6,-178.8 -4.3,-343.9 -109.1,-488.3"
         style="fill:#f29c7d;fill-opacity:1;fill-rule:nonzero;stroke:none"
         id="path78" />
      <path
         d="m 13513.5,14177.8 c -60.2,46.9 -129.6,-47.2 -135,-123.5 -11.8,-168.1 238.3,-44.7 164.1,87.5 -9.2,16.4 -19,28.1 -29.1,36"
         style="fill:#f36d80;fill-opacity:1;fill-rule:nonzero;stroke:none"
         id="path80" />
      <path
         d="m 12873.5,14031.1 c -11.7,-48.5 -37.6,-65 -65.2,-61.7 -8.5,37.5 -15.5,75 -21.3,112.5 -5.5,35.7 -9.7,71.4 -12.9,107.1 2.9,1.4 5.7,2.6 8.5,3.6 71.4,24.7 108.8,-87.4 90.9,-161.5"
         style="fill:#f36d80;fill-opacity:1;fill-rule:nonzero;stroke:none"
         id="path82" />
      <path
         d="m 13246.2,14393.7 c -2.8,11.7 4,24.8 16.1,30.4 12.1,5.7 26.3,4.4 39.4,1.9 19.5,-3.6 38.6,-9.5 56.7,-17.5 10.3,-4.4 20.6,-9.9 27.1,-18.9 35.4,-48.9 -60.8,-23.8 -77.3,-20.9 -16.1,2.9 -43.7,1.2 -56,14.1 -3.2,3.3 -5.1,7 -6,10.9"
         style="fill:#272c4d;fill-opacity:1;fill-rule:nonzero;stroke:none"
         id="path84" />
      <path
         d="m 13255.7,14246.3 c 5,-14.3 14.6,-26.9 27.4,-34.6 14.6,-8.7 25.1,-4.6 35.3,8.3 7.4,9.5 11.6,21.7 12.4,33.8 1.7,26 -11.2,51.2 -34.9,61.6 -12.5,5.4 -21.8,-10.7 -14.5,-20.8 l 1.5,-2 c -7.2,1.5 -14.7,0.8 -21.2,-3.1 -13.9,-8.4 -10.6,-29.8 -6,-43.2"
         style="fill:#292954;fill-opacity:1;fill-rule:nonzero;stroke:none"
         id="path86" />
      <path
         d="m 12860.9,14266.1 2,1.3 c 6.3,3.8 14.3,4.4 21.3,4.1 -1.6,7.2 1.5,15.2 8.5,18 26,10.5 40.4,-40.6 39.3,-57.8 -0.8,-12.1 -5,-24.3 -12.5,-33.7 -10.1,-13 -20.7,-17.1 -35.2,-8.3 -12.8,7.6 -22.5,20.2 -27.4,34.5 -4.4,12.7 -7.6,32.7 4,41.9"
         style="fill:#292954;fill-opacity:1;fill-rule:nonzero;stroke:none"
         id="path88" />
      <path
         d="m 13001.1,14030.7 c 2.2,0.2 4.4,-0.1 6.4,-1.3 9.2,-5.8 -5.5,-25.2 -6.5,-33.1 -1.8,-14.5 1.8,-33 6.4,-46.7 10.9,-32.7 36.4,-46.5 68.9,-31.7 9.8,4.5 21.1,12 30.2,6.3 5,-3.2 7.3,-9.7 6.5,-15.5 -0.8,-5.9 -4.1,-11.2 -8,-15.6 -15.5,-17.3 -38.7,-23.4 -61,-17.7 -69.4,17.9 -77.4,77.5 -58.5,137.2 1.6,5.1 3.5,10.3 7.3,14.1 2.2,2.2 5.3,3.7 8.3,4"
         style="fill:#f36d80;fill-opacity:1;fill-rule:nonzero;stroke:none"
         id="path90" />
      <path
         d="m 13019.4,13754.7 c 38.4,-22.2 74.4,-28.7 117.5,-18.8 21.5,4.9 70.6,9.5 79.8,34.1 2.7,7 -3.6,16.2 -11.3,14.1 -9.4,-2.5 -17.8,-8.6 -27,-12.1 -13.3,-5 -27.2,-8.3 -40.9,-11.7 -38.6,-9.6 -70.1,-7.8 -105.8,12.1 -11.8,6.6 -24.3,-10.7 -12.3,-17.7"
         style="fill:#292954;fill-opacity:1;fill-rule:nonzero;stroke:none"
         id="path92" />
      <path
         d="m 13227.4,13803.1 c 6.1,-0.2 12.5,-0.7 17.4,-4.4 13.5,-10.1 4,-36.4 -3.2,-46.7 -35.4,-50.2 -94.7,-69.7 -152.9,-54.2 -33.1,8.8 -74.2,33.3 -93.4,63.5 -15.6,24.6 -5.3,44.9 25.7,44.5 68.2,-0.9 136.3,-1.8 204.4,-2.7 h 2"
         style="fill:#ffffff;fill-opacity:1;fill-rule:nonzero;stroke:none"
         id="path94" />
      <path
         d="m 14542.4,10072.3 c -30.1,127.8 -50.2,258.6 -61.5,390 -1.4,0.7 -2.9,1.4 -4.4,2.2 -54.5,31.9 -82.3,113.9 -44.3,169.2 9,13.2 16.7,27.3 23.3,42 -16,121.8 -29.5,244 -37.4,366.7 -4.3,66.9 22.8,128.7 66.5,175.9 -29.1,535.7 82.3,1071.7 172.5,1597 5.3,30.8 19.8,59.2 39.2,84.6 -121.9,84.6 -362,174.7 -500.8,89.9 -81.6,-49.9 -136.5,-132.3 -194.1,-208.6 -109.1,-144.5 -240.8,-277.9 -405.9,-352.5 -242.4,-109.6 -653.9,-53.8 -675.8,278.4 -3.4,51.5 3.4,103.1 9.6,154.4 3.9,31.4 3.4,71 -25,85 -22.4,11.1 -49.3,-1.6 -69.3,-16.7 -60.6,-45.6 -136.8,-52.6 -201.5,-92.4 -62.4,-38.4 -113.8,-92.3 -156.6,-151.3 -83.1,-114.3 -135.3,-249.7 -175,-384.4 -62.7,-212.7 -92.1,-433.9 -113.2,-654.1 -50.9,-530.1 30.8,-1073.5 238.5,-1564 60.4,-142.5 122.2,-276.9 195.2,-393.6 161.6,-258.4 378.2,-430.5 755.7,-414 489.2,21.4 932.6,314.9 1329.8,573.7 15.8,10.2 32.4,20.8 49.5,31.6 -99.7,17 -190.7,88 -215,191"
         style="fill:#ed6b4e;fill-opacity:1;fill-rule:nonzero;stroke:none"
         id="path96" />
      <path
         d="m 12576.6,5117.7 c 46.8,-391.4 74,-785 118.4,-1158.3 55.3,-465.4 103.9,-938.6 164.8,-1406.2 14.4,-111.1 28.9,-225.2 9.1,-335.1 -36.7,-203.6 -299.6,-375.4 -446.4,-463.8 -88.6,-53.4 -181.6,-96.7 -270.4,-133.7 -104.5,-43.4 -220.8,-42.3 -210,-208.3 h 1412 c 50.4,12.1 91.6,34.6 98.4,107.3 18,190 -65.4,399.1 -68.2,596.8 -5.8,411.5 25.4,859.5 84.6,1265.1 77.6,532.5 73.4,1110.4 96.1,1653.2 14.1,335.9 21.5,689.3 -14.3,1024 -30.3,283.8 20.6,493.2 74.4,777.4 118.9,626.9 145.4,1271.1 79.4,1905.7 -34.9,335.8 -50.3,797.8 -245.9,1077.5 -272.6,389.7 -674.1,221.6 -847.8,-175.8 -103.9,-237.8 -107.5,-505.7 -109,-765.3 -7.1,-1249.2 -75.8,-2521.5 74.8,-3760.5"
         style="fill:#dd8b72;fill-opacity:1;fill-rule:nonzero;stroke:none"
         id="path98" />
      <path
         d="m 13443.2,1412.3 c 2,1.3 3.9,2.7 5.7,4.3 57.9,52 27.6,204.8 16.6,271.5 -3.3,20.2 -8.9,43.6 -26.1,51.2 -11.2,4.9 -23.7,1.3 -35.3,-2.5 -209.5,-67.4 -420,-150 -632.5,-203 -33.6,40 -68.7,75.8 -103.1,113.5 -37.2,40.8 -65.9,97.8 -100.8,142.3 -15.9,20.4 -37.5,57.8 -58.3,69.8 -25.6,14.8 -32.7,-1.4 -58.7,-23 -85.7,-71.2 -175.5,-136 -273.2,-178.5 -117.5,-51 -248.3,-49.5 -235.3,-245.6 h 1501"
         style="fill:#272c4d;fill-opacity:1;fill-rule:nonzero;stroke:none"
         id="path100" />
      <path
         d="m 13617.5,6788.5 c 122.3,-437.3 226.1,-879.7 310.8,-1325.8 173.4,-913.1 198.8,-1841.8 378.5,-2747.4 40.9,-205.7 79.9,-416.5 69.3,-618 -4.7,-89.3 -17.3,-175.3 -33.7,-260.2 -15.3,-78.4 -48.6,-139.1 -68.3,-215.2 -14.3,-55 -17.8,-117.3 -0.5,-177.6 4.2,-14.5 12.8,-24.8 24.1,-32 h 680.4 c 13.5,84 -56,205 -110.2,374.5 -0.8,2.4 -1.6,4.9 -2.3,7.4 -128.6,410.6 -12.7,772.5 31.9,1180.4 77.5,707.7 127.4,1451.8 96.3,2176.1 -29.8,694.8 -174.3,1372.3 -226.7,2061.6 -36.1,474.9 -3.2,960.2 -148.2,1420.6 -105.1,333.8 -533.8,902 -915.4,869.9 -227.8,-19.2 -405.2,-223.7 -466.8,-443.9 -178.5,-638.6 17.7,-1100.9 210.4,-1702.4 60.3,-188.3 117.1,-377.6 170.4,-568"
         style="fill:#f29c7d;fill-opacity:1;fill-rule:nonzero;stroke:none"
         id="path102" />
      <path
         d="m 15010.2,1412.3 c -6,15.1 -11.8,29.8 -17.5,44.4 -10.8,27.7 -21.5,55.4 -32.1,83.1 -4.8,12.5 -9.6,25 -14.4,37.5 -8,20.9 -14.8,45.1 -25.3,64.7 -6.3,-3.4 -8.3,-23.1 -10.6,-31.1 -3.3,-12 -6.8,-24 -10.2,-36 -5.1,-18.1 -10.1,-26.6 -29.6,-19.1 -139.8,54.1 -278.9,137.9 -422.2,156 -61.9,7.8 -130.1,6.7 -175.9,-32.4 -45.8,-39.2 -82.2,-90.9 -118.7,-141.2 -10.3,-14.2 -19.5,-28.1 -30.3,-41.6 -10.6,-13.1 -18,-30.9 -17.2,-51 0.1,-2.4 0.8,-18.5 2,-33.3 h 902"
         style="fill:#272c4d;fill-opacity:1;fill-rule:nonzero;stroke:none"
         id="path104" />
      <path
         d="m 15174.5,9221.3 c 0,-4.6 -519.6,-29.2 -567.1,-31.8 -385.7,-21.7 -771.5,-43.4 -1157.3,-65.1 -192.9,-10.8 -385.7,-21.7 -578.6,-32.5 -82.5,-4.6 -155.3,-16.6 -238.5,-12.2 -95.1,5 -190.1,10.1 -285.2,15.1 -13.8,0.8 -29.8,0.6 -38.7,-10 -6.2,-7.3 -7,-17.6 -7.5,-27.2 -15.3,-260 -28.9,-519.3 -35.1,-780.5 -8.9,-373.5 -12.8,-747.1 -11.8,-1120.7 1.9,-746.6 -26.2,-1513.7 112,-2249.4 123.4,-38.7 297.1,14.8 427.4,14 550.3,-3.4 1101.9,22.9 1652,11.2 94.1,-2 775.3,-60 793.4,24.3 47.7,231.9 30.1,489.4 34.9,726 11.8,576.8 32.8,1153.8 10.3,1730.6 -23.5,603.5 -60.2,1206.4 -110.2,1808.2"
         style="fill:#5598b5;fill-opacity:1;fill-rule:nonzero;stroke:none"
         id="path106" />
      <path
         d="m 15231.7,9324.7 c -34.8,23.3 -63.2,54.5 -88.6,90.7 -99.7,141.7 -189.2,290.2 -267.3,444.9 -140.3,278.1 -249.1,572.6 -327.4,873.9 -64.6,248.7 -108.8,501.6 -144.3,755.8 -81.3,-274.5 -263.4,-476.7 -580.1,-507.2 -341.3,-32.8 -671.1,87.4 -1011.4,77 -176.1,-5.2 -342.1,99.3 -431.3,253.7 -43,74.5 -52.7,172.1 -59.6,256.5 -4.4,54.6 -5.7,109.4 -4.1,164.1 1,32 18.4,78.8 13.5,108.5 -1.8,10.7 -11,20.8 -21.5,19.2 -10.9,-1.6 -16.5,-14.2 -19.8,-25.2 -110.3,-360.2 47.3,-767.8 81.1,-1131 44.7,-479.2 -42,-957.3 -31.5,-1436.7 2.1,-96.7 -12.8,-246.8 25.3,-336.8 30.9,-72.9 121.8,-76.8 194.5,-91.1 160.6,-31.6 323.6,-40.5 485.5,-62 296.9,-39.5 598,-46.5 896.4,-21.4 157.7,13.3 1323,168 1309.3,356.1 -5.1,70.3 -11.3,140.7 -18.7,211"
         style="fill:#d6503b;fill-opacity:1;fill-rule:nonzero;stroke:none"
         id="path108" />
      <path
         d="m 14979.4,10605.6 c 39.1,7.8 76,26.9 115.9,31.1 21.6,2.3 38.7,-3.9 59,-10.5 14.7,-4.8 29.8,-8.1 44.3,-1.3 7.7,3.7 5.5,15.2 -3.2,15.1 -36.6,-0.3 -68,19.6 -105.1,14.9 -38.8,-5 -74.3,-23.1 -112.4,-30.8 -11.3,-2.2 -9.9,-20.8 1.5,-18.5"
         style="fill:#efc7b6;fill-opacity:1;fill-rule:nonzero;stroke:none"
         id="path110" />
      <path
         d="m 13738.1,11467.2 c -50.6,-589.4 -9.4,-1182.4 31.8,-1772.6 21.3,-304.5 237.5,-3690.2 259.7,-3689.6 260.8,7.3 521.7,14.5 782.5,21.8 52.8,1.5 700.9,-1.6 702,30.9 21.3,658.2 -49.3,1324.5 -87.1,1982.2 -32.9,573.2 -24.9,1143.6 -262.5,1677.7 -154.2,346.6 -405.6,651.2 -502.7,1018 -101,381.7 -23.3,785.5 60.5,1171.3 46.5,214.1 51.6,418 77.4,634.6 12.5,104.8 12.9,216.2 -36.3,309.5 -45.9,87.1 -127.9,145.1 -210.8,193.7 -69.4,40.6 -140.3,97.1 -225.4,95.9 -145.3,-2.2 -194.2,-185.7 -244.2,-292.7 -202.2,-432.5 -304.2,-906.8 -344.9,-1380.7"
         style="fill:#ffffff;fill-opacity:1;fill-rule:nonzero;stroke:none"
         id="path112" />
      <path
         d="m 12546.7,9932.5 c 0,-1298.2 203.3,-2608.5 89.9,-3906.3 -133.9,-19.5 -290.6,1 -428.5,2.7 -27,0.3 -56,1.3 -77.4,17.7 -42,32.3 -2.5,231.6 -1,284.3 3.4,114.6 7,229.3 11,343.9 7.7,221.9 16.6,443.6 26.8,665.3 20.3,436.8 46.1,873.4 79.3,1309.4 68.9,903.9 147.2,1819.5 -1.8,2720 -38.5,232.7 -92.2,464.4 -96,700.2 -3.2,200.5 21.8,485.6 190.6,616.8 90.2,70.2 188.1,130.1 291.3,179.1 51.7,24.5 104.7,46.3 158.6,65.4 46.5,16.4 94.6,27.2 141.3,42.4 31.2,10.1 63.1,18 95.5,22.9 10.9,1.7 22.2,5.1 33.4,4.6 28.9,-1.1 -11.8,-29.1 -17.7,-35.9 -19.4,-22.2 -37.5,-45.7 -54.7,-69.7 -33.8,-47.5 -63.4,-98.1 -87.7,-151.2 -40.1,-87.6 -73.1,-178.5 -104,-269.6 -64.8,-190.5 -120,-385.1 -157.1,-583 -120.3,-644.8 -107.6,-1306.1 -91.8,-1959"
         style="fill:#ffffff;fill-opacity:1;fill-rule:nonzero;stroke:none"
         id="path114" />
      <path
         d="m 13977.9,8290.7 1065,944.5 c 3.6,3.2 3.9,8.8 0.7,12.4 l -1303.1,1469.2 c -3.2,3.6 -8.8,3.9 -12.4,0.7 l -1064.9,-944.6 c -3.6,-3.2 -4,-8.7 -0.7,-12.4 l 1303,-1469.1 c 3.3,-3.6 8.8,-4 12.4,-0.7"
         style="fill:#fac6ba;fill-opacity:1;fill-rule:nonzero;stroke:none"
         id="path116" />
      <path
         d="m 13055.8,9954.2 445.5,395.1 c 2.5,2.2 2.7,6 0.5,8.5 l -98.7,111.3 c -2.2,2.4 -6,2.7 -8.5,0.5 l -445.4,-395.1 c -2.5,-2.2 -2.8,-6.1 -0.5,-8.6 l 98.6,-111.2 c 2.2,-2.5 6,-2.7 8.5,-0.5"
         style="fill:#272c4d;fill-opacity:1;fill-rule:nonzero;stroke:none"
         id="path118" />
      <path
         d="m 13457.5,9596.7 c 153.6,54.3 533.5,248.6 650.6,45.5 144.9,-251.2 -236.9,-253.6 -363,-331.8 -82.5,-51.2 -150.2,-121.3 -228.8,-177.6 -38.6,-27.6 -79.2,-50.9 -124,-67.4 -17.9,-6.5 -119.7,-68.1 -126.5,-63.2 -13.4,-7.1 -27.3,-14.3 -42.6,-15.5 -15.3,-1.2 -32.6,5.4 -39.3,19.3 -6.7,13.9 3,33.8 18.4,33.1 -24.3,-26.4 -76.3,-52.4 -114.3,-40.8 -33.8,10.4 -18.9,40.5 2.2,59.2 -19.5,-17.3 -48.7,-35.1 -70,-18.8 -20.3,15.5 -12.2,47.9 3.9,66.8 16.1,18.9 38.8,34 45.6,57.9 -20.5,-8.3 -61,-38.8 -80.8,-18.6 -14.4,14.6 -7.5,48.2 -0.1,63.9 90.5,192.3 271.1,318.2 468.7,388"
         style="fill:#f29c7d;fill-opacity:1;fill-rule:nonzero;stroke:none"
         id="path120" />
      <path
         d="m 15503.5,10077.9 c -60.4,-57.2 -130,-104.7 -199,-151.7 -363.1,-247.2 -744,-432.4 -1157.4,-587.8 -55.4,-20.9 -119.3,-40.3 -171.4,-12.2 -38.4,20.8 -59.9,62.2 -79.3,101.3 -42.4,85.8 -84.8,171.6 -127.2,257.4 -22.1,44.8 -44.9,94.3 -32.8,142.8 16.4,65.7 88.2,99.4 153.2,118.4 289.8,84.4 482.1,303 714.2,482.9 123.1,95.4 240.2,220.4 255.4,375.5 16.3,167.2 -53.2,309.9 -115.6,459.5 -189.5,453.7 -239.4,987 -210.9,1480.3 3.2,56.7 11.9,120.6 57.8,154 39.9,29 97,23.8 140.1,-0.1 43.2,-24 75.2,-63.5 105,-102.8 180.2,-237.5 350.3,-524.2 475.3,-793.3 138.2,-297.6 251.5,-599.9 313.4,-929.3 1.8,-9.5 3.6,-19 5.3,-28.6 53.1,-295.6 140.8,-657.5 -74.7,-912.2 -16.1,-19.1 -33.4,-37 -51.4,-54.1"
         style="fill:#ffffff;fill-opacity:1;fill-rule:nonzero;stroke:none"
         id="path122" />
      <path
         d="m 11900.4,11251.3 c -20.3,-45.8 -43.9,-88.6 -72.1,-127.1 -78.1,-107.2 -251,-93.1 -356.9,-13.2 -165.4,124.9 -260.5,346 -355.2,523.6 -21.4,40.1 -46.9,83.7 -90.1,97.6 -44.5,14.2 -91.6,-8.1 -132.9,-29.7 -99.3,-51.9 -198.5,-103.8 -297.7,-155.8 -33.9,-17.7 -70.7,-38.8 -82.8,-75.1 -10.8,-32.7 1.9,-68.1 14.8,-100 104.4,-257.3 242,-491.3 384,-728.2 133.1,-221.9 296.8,-425.6 485.8,-602.4 179.7,-168.1 431.2,-319.9 659.3,-227.9 259,104.5 311.5,441.8 324.4,720.8 23.6,512.9 45.2,1025.9 64.7,1539 4.5,117 16.4,234.4 37.2,349 12.6,69 8.6,156.7 -2,225.4 -18.7,121 -200.2,-60.4 -230.3,-103.8 -129.6,-186.6 -161.6,-424 -202.2,-642.3 -40.4,-217.4 -57.7,-445.4 -148,-649.9"
         style="fill:#ffffff;fill-opacity:1;fill-rule:nonzero;stroke:none"
         id="path124" />
      <path
         d="m 12931.3,14361.8 c 8.2,-0.5 18.2,-0.1 22.3,7 3.7,6.4 0.4,14.5 -3.9,20.5 -14.9,20.7 -40.6,31.1 -65.8,35.1 -16.2,2.6 -33.3,2.9 -48.8,-2.7 -15.5,-5.7 -29.2,-17.9 -33.4,-33.9 -1.5,-5.9 -1.6,-12.7 2,-17.8 6.2,-8.9 45.4,-3.3 56.8,-4 23.6,-1.4 47.2,-2.8 70.8,-4.2"
         style="fill:#272c4d;fill-opacity:1;fill-rule:nonzero;stroke:none"
         id="path126" />
      <path
         d="m 12883.1,12047.9 c 47.8,29.1 122.9,28.7 163.6,-12.4 55,-55.5 45.9,-139.1 -10.6,-190 -52.5,-47.3 -145.1,-38.8 -187.8,17.6 -42.6,56.3 -25.5,148 34.8,184.8"
         style="fill:#fac6ba;fill-opacity:1;fill-rule:nonzero;stroke:none"
         id="path128" />
      <path
         d="m 13149.6,13102.1 c -24.3,-21.9 -44.9,-47.5 -63.2,-75 -27.9,-41.9 -51,-86.8 -72.5,-132.2 -44.4,-94 -74.8,-194.4 -93,-296.6 -38,-213.2 -41,-435.3 19.7,-644.6 7.2,-25 46.4,-14.4 39.1,10.7 -59,203.7 -59.1,416.5 -25.2,624.7 17.1,100.1 43.8,198.3 85.5,291.2 16,35.7 36.6,70.7 57.1,104 23,37.5 49.2,72.8 78.5,105.6 10.3,11.6 18.4,26.3 27.5,39.1 1.3,2 2.8,4.5 1.8,6.7 -1.6,3.5 -6.9,2.1 -10.2,0.1 -16.3,-9.9 -31.3,-21.2 -45.1,-33.7"
         style="fill:#0a2369;fill-opacity:1;fill-rule:nonzero;stroke:none"
         id="path130" />
      <path
         d="m 13894.8,13335.2 c 190.6,-336.3 212.9,-706.1 133.3,-1083 -7.5,-35.7 47.2,-50.9 54.7,-15.1 64,302.9 47,637.2 -60.8,926.1 -25.8,68.9 -55.1,170.4 -119.9,211.8 -6.1,3.9 -14.4,7.4 -20,3 -6.7,-5.4 -2.9,-16 1.5,-23.4 3.8,-6.5 7.5,-12.9 11.2,-19.4"
         style="fill:#0a2369;fill-opacity:1;fill-rule:nonzero;stroke:none"
         id="path132" />
      <path
         d="m 13901,11125.4 c 191.1,-81.1 334.7,57.6 365.9,244.5 21,125.8 13.5,265.1 3.1,391.9 -8.8,108.8 -27.6,222.8 -62.7,326.5 -26.3,77.8 -75.1,159 -160.5,180.5 -74.4,18.7 -135.1,-37.3 -177.5,-91.5 -145.7,-186.4 -224.2,-413.8 -275.1,-642.3 -23.8,-106.9 -34.3,-434.8 161.3,-388.7 21,5 17.1,40.6 -5.1,38.3 -100.9,-10.3 -127.6,104.2 -131.8,185.3 -5.7,110.2 38,219 69.3,322.8 35.3,117.1 78.8,226.2 144.5,329.9 39.4,62.2 93.3,182.2 175.1,192.2 109.7,13.4 148.7,-151.1 166.5,-229 26.7,-116.5 39.8,-231.3 41.5,-350.6 1.7,-117.6 14.9,-244.4 -36.4,-354.2 -50.6,-107.9 -145.9,-152.6 -258.9,-110.3 -26.1,9.8 -45.1,-34.3 -19.2,-45.3"
         style="fill:#0a2369;fill-opacity:1;fill-rule:nonzero;stroke:none"
         id="path134" />
      <path
         d="m 13797.9,11102.7 c -39.8,-20.4 -95.4,15.5 -93.2,60.1 2.2,44.6 61.1,74.9 98.6,50.6 37.6,-24.2 34.3,-90.3 -5.4,-110.7"
         style="fill:#fac6ba;fill-opacity:1;fill-rule:nonzero;stroke:none"
         id="path136" />
      <path
         d="m 13961.1,11084.4 c -39.8,-20.5 -95.4,15.4 -93.2,60.1 2.2,44.6 61.1,74.9 98.6,50.6 37.6,-24.2 34.3,-90.3 -5.4,-110.7"
         style="fill:#fac6ba;fill-opacity:1;fill-rule:nonzero;stroke:none"
         id="path138" />
      <path
         d="m 18057.7,14187.2 c 0,-737.5 -597.8,-1335.3 -1335.2,-1335.3 -321.7,0 -616.7,113.7 -847.3,303.1 -298,245 -488.1,616.4 -488.1,1032.2 0,737.5 597.9,1335.3 1335.4,1335.3 336.3,0 643.5,-124.3 878.2,-329.6 280.1,-244.7 457,-604.6 457,-1005.7"
         style="fill:#d2f3f9;fill-opacity:1;fill-rule:nonzero;stroke:none"
         id="path140" />
      <path
         d="m 16722.5,12851.9 c -321.7,0 -616.7,113.7 -847.3,303.1 16.6,9.6 33.1,19.3 49.5,29.3 38.4,23.2 76.3,47.2 113.7,71.9 191.5,-140.9 428.1,-224.2 684.1,-224.2 637.9,0 1155.2,517.2 1155.2,1155.2 v 0 0 c 0,329.8 -138.2,627.3 -359.9,837.8 28.3,55.6 55.9,111.6 82.9,167.9 280.1,-244.7 457,-604.6 457,-1005.7 0,-737.5 -597.8,-1335.3 -1335.2,-1335.3"
         style="fill:#b4e0e8;fill-opacity:1;fill-rule:nonzero;stroke:none"
         id="path142" />
      <path
         d="m 17877.7,14187.2 c 0,-638 -517.3,-1155.2 -1155.2,-1155.2 -265,0 -509.1,89.2 -704,239.2 -274.4,211.2 -451.3,542.9 -451.3,916 0,638 517.2,1155.2 1155.3,1155.2 297.7,0 569.2,-112.6 774,-297.7 234.1,-211.4 381.2,-517.3 381.2,-857.5"
         style="fill:#f6f6f6;fill-opacity:1;fill-rule:nonzero;stroke:none"
         id="path144" />
      <path
         d="m 16722.5,13032 c -265,0 -509.1,89.2 -704,239.2 21.6,12.2 42.8,24.7 64,37.5 259.1,156.8 492.3,356.5 692.2,583.7 301,342.2 530.6,737.3 721.8,1152.3 234.1,-211.4 381.2,-517.3 381.2,-857.5 0,-638 -517.3,-1155.2 -1155.2,-1155.2"
         style="fill:#f3f3f3;fill-opacity:1;fill-rule:nonzero;stroke:none"
         id="path146" />
      <path
         d="m 16722.4,14985.7 c -27.4,0 -49.8,22.5 -49.8,49.9 v 168 c 0,27.5 22.4,49.9 49.8,49.9 27.5,0 49.9,-22.4 49.9,-49.9 v -168 c 0,-27.4 -22.4,-49.9 -49.9,-49.9"
         style="fill:#86c8dd;fill-opacity:1;fill-rule:nonzero;stroke:none"
         id="path148" />
      <path
         d="m 16722.4,13085.2 c -27.4,0 -49.8,22.4 -49.8,49.9 v 168 c 0,27.4 22.4,49.8 49.8,49.8 27.5,0 49.9,-22.4 49.9,-49.8 v -168 c 0,-27.5 -22.4,-49.9 -49.9,-49.9"
         style="fill:#86c8dd;fill-opacity:1;fill-rule:nonzero;stroke:none"
         id="path150" />
      <path
         d="m 15906,14169.3 c 0,-27.4 -22.4,-49.8 -49.8,-49.8 h -168.1 c -27.4,0 -49.8,22.4 -49.8,49.8 0,27.5 22.4,49.9 49.8,49.9 h 168.1 c 27.4,0 49.8,-22.4 49.8,-49.9"
         style="fill:#86c8dd;fill-opacity:1;fill-rule:nonzero;stroke:none"
         id="path152" />
      <path
         d="m 17806.6,14169.3 c 0,-27.4 -22.5,-49.8 -49.9,-49.8 h -168 c -27.4,0 -49.9,22.4 -49.9,49.8 0,27.5 22.5,49.9 49.9,49.9 h 168 c 27.4,0 49.9,-22.4 49.9,-49.9"
         style="fill:#86c8dd;fill-opacity:1;fill-rule:nonzero;stroke:none"
         id="path154" />
      <path
         d="m 16722.4,14119.5 c -27.4,0 -49.8,22.4 -49.8,49.8 v 728.8 c 0,27.4 22.4,49.9 49.8,49.9 27.5,0 49.9,-22.5 49.9,-49.9 v -728.8 c 0,-27.4 -22.4,-49.8 -49.9,-49.8"
         style="fill:#86c8dd;fill-opacity:1;fill-rule:nonzero;stroke:none"
         id="path156" />
      <path
         d="m 16684.9,14136.4 c -18.1,20.6 -16,52.3 4.6,70.4 l 294.1,258.3 c 20.6,18.1 52.3,16.1 70.4,-4.6 18.1,-20.6 16.1,-52.2 -4.6,-70.3 l -294.1,-258.4 c -20.6,-18.1 -52.3,-16 -70.4,4.6"
         style="fill:#86c8dd;fill-opacity:1;fill-rule:nonzero;stroke:none"
         id="path158" />
      <path
         d="m 11928.3,16694.5 c -54.3,2.9 -108.4,4.1 -159.1,9 -232.6,22.6 -465.5,-8.2 -698.2,-8.2 -296.5,0 -592.9,0 -889.4,0 -258.21,0 -467.55,209.3 -467.55,467.6 v 526.7 c 0,258.2 209.34,467.5 467.55,467.5 h 1749.2 c 258.2,0 467.5,-209.3 467.5,-467.5 0,-374.1 -1.3,-744.2 -18.3,-1118 -0.8,-17.4 -2.8,-37.2 -16.9,-47.4 -26.1,-19.1 -58.4,12.2 -78.8,37.3 -87.8,108.6 -222.5,125.9 -356,133"
         style="fill:#86c8dd;fill-opacity:1;fill-rule:nonzero;stroke:none"
         id="path160" />
      <path
         d="m 9000.88,15670.1 c -6.02,0 -11.94,1.7 -17.56,5.8 -14.03,10.3 -16.06,30.1 -16.84,47.5 -17.02,373.8 -18.36,743.9 -18.36,1117.9 0,258.3 209.33,467.6 467.55,467.6 h 298.38 v -146 c 0,-258.3 209.34,-467.6 467.55,-467.6 296.5,0 592.9,0 889.4,0 170.3,0 340.6,16.5 510.9,16.5 16.8,0 33.7,-0.2 50.5,-0.5 v -355.4 h -1122.1 c -219.5,0 -398.1,-178.6 -398.1,-398.1 v -106.7 c -115.86,4.8 -231.74,12.5 -347.61,12.5 -62.46,0 -124.95,-2.2 -187.39,-8.3 -50.65,-4.9 -104.73,-6.1 -159.01,-9 -133.53,-7.1 -268.26,-24.5 -356.09,-133 -15.96,-19.7 -39.3,-43.2 -61.22,-43.2 m 2163.92,177 c -296.4,0 -592.9,0 -889.3,0 -23.2,0 -46.4,0.3 -69.7,0.8 v 109.9 c 0,167.9 136.6,304.4 304.5,304.4 h 1119.2 c -26.1,-233.5 -224.2,-415.1 -464.7,-415.1"
         style="fill:#a4d9e8;fill-opacity:1;fill-rule:nonzero;stroke:none"
         id="path162" />
      <path
         d="m 11071,16695.3 c -296.5,0 -592.9,0 -889.4,0 -258.21,0 -467.55,209.3 -467.55,467.6 v 146 h 1450.75 c 258.3,0 467.6,-209.3 467.6,-467.5 v -130.1 c -16.8,0.3 -33.7,0.5 -50.5,0.5 -170.3,0 -340.6,-16.5 -510.9,-16.5"
         style="fill:#86c8dd;fill-opacity:1;fill-rule:nonzero;stroke:none"
         id="path164" />
      <path
         d="m 12135.8,15031.3 c -22.1,0 -50.9,10.8 -82.4,49.7 -54.8,67.7 -145.4,77.9 -233.6,82.6 -12.2,0.7 -24.3,1.2 -36.5,1.7 -28.1,1.3 -57.2,2.5 -85,5.2 -45,4.4 -90.6,6 -136.3,6 -63.5,0 -127.1,-3.1 -189.5,-6.1 -63.5,-3.1 -129.1,-6.2 -194.2,-6.2 h -668 c -219.5,0 -398.1,178.5 -398.1,398 v 288.9 c 31.2,-1.4 62.4,-2.5 93.6,-3.2 v -285.7 c 0,-167.9 136.6,-304.4 304.5,-304.4 h 668 c 62.9,0 127.3,3.1 189.7,6.1 63.7,3.1 128.6,6.2 194.1,6.2 48.2,0 96.8,-1.7 145.3,-6.4 25.3,-2.5 51.9,-3.6 80,-4.8 12.4,-0.6 24.9,-1.1 37.4,-1.8 100.1,-5.3 212.7,-18.5 291.4,-105.6 11.4,268.2 12.4,534.6 12.4,806.3 0,167.9 -136.6,304.4 -304.4,304.4 h -194.7 c 1.9,17.2 2.9,34.7 2.9,52.4 v 41.3 h 191.8 c 219.5,0 398,-178.6 398,-398.1 0,-283.5 -1,-561.2 -13.8,-841.9 -0.7,-14.9 -2.3,-49.7 -31.8,-71.3 -6.5,-4.7 -21,-13.3 -40.8,-13.3"
         style="fill:#eefafd;fill-opacity:1;fill-rule:nonzero;stroke:none"
         id="path166" />
      <path
         d="m 10205.8,15847.9 c -31.2,0.7 -62.4,1.8 -93.6,3.2 v 106.7 c 0,219.5 178.6,398.1 398.1,398.1 h 1122.1 v -41.3 c 0,-17.7 -1,-35.2 -2.9,-52.4 h -1119.2 c -167.9,0 -304.5,-136.5 -304.5,-304.4 v -109.9"
         style="fill:#dcf0f6;fill-opacity:1;fill-rule:nonzero;stroke:none"
         id="path168" />
      <path
         d="M 11984.1,17732.6 H 10164 c -24.3,0 -44.1,19.7 -44.1,44.1 0,24.3 19.8,44 44.1,44 h 1820.1 c 24.4,0 44.1,-19.7 44.1,-44 0,-24.4 -19.7,-44.1 -44.1,-44.1"
         style="fill:#ffffff;fill-opacity:1;fill-rule:nonzero;stroke:none"
         id="path170" />
      <path
         d="M 11984.1,17501.2 H 10164 c -24.3,0 -44.1,19.8 -44.1,44.1 0,24.3 19.8,44.1 44.1,44.1 h 1820.1 c 24.4,0 44.1,-19.8 44.1,-44.1 0,-24.3 -19.7,-44.1 -44.1,-44.1"
         style="fill:#ffffff;fill-opacity:1;fill-rule:nonzero;stroke:none"
         id="path172" />
      <path
         d="m 10542,12815.2 c -471.6,0 -853.97,382.3 -853.97,853.9 0,471.7 382.37,854 853.97,854 471.6,0 853.9,-382.3 853.9,-854 0,-471.6 -382.3,-853.9 -853.9,-853.9"
         style="fill:#a4d9e8;fill-opacity:1;fill-rule:nonzero;stroke:none"
         id="path174" />
      <path
         d="m 10746.5,13025.2 h -409 v 1287.9 h 409 v -1287.9"
         style="fill:#ffffff;fill-opacity:1;fill-rule:nonzero;stroke:none"
         id="path176" />
      <path
         d="m 11185.9,13873.7 v -409.1 H 9898.04 v 409.1 h 1287.86"
         style="fill:#ffffff;fill-opacity:1;fill-rule:nonzero;stroke:none"
         id="path178" />
      <path
         d="m 16608.5,4357.2 c 10.7,174.9 47.6,346.5 102.5,496.1 84,229 185.7,467.5 144.7,708 -41.2,242.1 -232.3,462.4 -232.2,711.4 0.1,309.6 103.8,591 82,905 -23.3,336.1 -60.7,619.5 78.6,943.6 23,53.3 70.3,115 125.1,95.7 48,-17 54.7,-81.2 52.8,-132.1 -6.9,-194.1 -62.3,-451.4 -22.9,-640.7 30.9,-148.9 136.6,-262.2 191.2,-407.1 168.2,-440.9 30.9,-847.6 140.9,-1268.1 61.2,-234.1 218.6,-443.4 228.9,-685.2 13,-304.6 -211.7,-586.3 -180.1,-889.5 13.5,-129.6 73.2,-249.4 107.8,-375 34.6,-125.6 39.7,-272.7 -43,-373.3 -152.1,-185.1 -453.7,-65 -572.5,94.3 -166.6,223.2 -221.7,524.7 -203.8,816.9"
         style="fill:#86c8dd;fill-opacity:1;fill-rule:nonzero;stroke:none"
         id="path180" />
      <path
         d="m 17463.6,4328.7 c 23.9,276.7 99.1,557.5 35.9,827.9 -41.4,176.9 -140.8,340.6 -150.9,522 -10.5,186.8 75,364.6 102.9,549.6 76.5,507.2 -182.9,972.3 9.4,1481.5 29,76.7 108.6,164.9 176.2,118.4 38,-26.2 41.6,-80 41.5,-126.2 -0.6,-226.3 -19.5,-449.6 40.1,-664 62.3,-224.7 178.8,-382.2 178.8,-628 -17.9,-244.6 -173.6,-473.4 -143,-716.7 30.8,-244.9 244.2,-438.3 271,-683.6 37.4,-341.7 -297.4,-654.9 -223.8,-990.6 27.2,-123.7 267.5,-688.8 -72.1,-483.2 -243.3,147.4 -287.3,545.7 -266,792.9"
         style="fill:#86c8dd;fill-opacity:1;fill-rule:nonzero;stroke:none"
         id="path182" />
      <path
         d="m 17800.4,4013.9 c 71.5,209.3 193.5,417.2 159.3,635.8 -31.5,201.1 -192.5,369.9 -198.7,573.4 -6,196 132.6,365.8 175.7,557.1 41.9,185.7 -8.4,377.9 -24.8,567.6 -16.4,189.6 14.8,406.8 168.7,518.9 150.2,-386.2 303,-798 224.8,-1204.9 -37.2,-194 -126.5,-380.3 -122.9,-577.9 3.4,-191.2 93.4,-368.9 136.9,-555.1 68.8,-294.8 19.7,-602.7 -29.6,-901.4 -17.3,-104.5 -39.9,-218.7 -122.2,-285.6 -314.1,-255.5 -427.5,495.9 -367.2,672.1"
         style="fill:#86c8dd;fill-opacity:1;fill-rule:nonzero;stroke:none"
         id="path184" />
      <path
         d="m 16802.5,7588.1 c -21,-64.8 -44.7,-133.8 -35.2,-202.9 4.1,-29.5 15.4,-57 23.6,-85.4 11.9,-40.8 13.6,-84 18.6,-126.1 8.8,-73 17.2,-147 32.2,-219.1 14.9,-72.2 42.2,-141.9 46.3,-216.1 8.5,-152.4 -18.6,-310.1 9.1,-461 28.5,-155.6 120.1,-292.5 149.6,-448.3 28.8,-152.5 22.3,-316.8 16.4,-471.4 -5.7,-150.3 -66.8,-291 -87.7,-438.9 -10.2,-72.2 -18,-145.1 -26.7,-217.5 -9.5,-78.3 -10.9,-156.3 -23.8,-234.2 -11.4,-68.8 -24.5,-140.8 -13.3,-210.4 5.2,-32.2 17.2,-62.6 24.4,-94.3 9,-39.6 3.3,-78.4 6.3,-118.3 6.2,-81.7 39.4,-161.5 70.4,-236.4 28.8,-69.4 57.7,-138.7 88.6,-207.2 62.4,-138.7 137,-287.5 135.6,-443.2 -0.3,-36 55.9,-36.1 56,0 0.6,131.7 -50.5,257.5 -102.7,376.2 -56.5,128.4 -119.7,255.1 -165.4,387.9 -12.2,35.2 -23.8,71.9 -29.4,108.9 -5.9,39 0.7,78.6 -5,117.7 -4.4,30.2 -14.4,58.8 -22.5,88.1 -10.9,39.9 -11.3,79.6 -8.1,120.6 5.6,71.5 23.1,141.6 27.7,213.2 4.9,78.6 11.9,155.7 21.3,233.9 9.4,77.8 16.8,154 35,230.5 16.9,71 37.1,141.3 49.2,213.4 11.9,70.7 11.4,140.7 11.6,212.1 0.2,77.6 1.2,155.4 -3.8,232.9 -4.8,73.8 -14.9,147.7 -36.1,218.7 -22.1,73.8 -55.3,144.2 -83.5,215.8 -29.9,75.7 -56.2,150.3 -60.6,232.2 -4.3,78.4 -1.5,157.6 -2,236.1 -0.5,83.4 2.1,164.1 -18.5,245.6 -20.4,80.3 -39.7,158.5 -52,240.6 -12,79.7 -13.5,164.4 -39,241.2 -13.9,41.8 -23.5,81.4 -18.7,125.8 4.9,45.6 19.6,89.8 33.3,133.4 4.2,13.5 -16.8,19.2 -21.2,5.9"
         style="fill:#a2e0ef;fill-opacity:1;fill-rule:nonzero;stroke:none"
         id="path186" />
      <path
         d="m 17553.1,7283.9 c -0.5,-70.2 -3.5,-140.7 2.3,-210.8 5.5,-67.3 22,-131.3 41.6,-195.7 20.9,-68.4 42.4,-136.4 50.2,-207.8 6.3,-58.1 6.6,-116.9 3.3,-175.2 -7.5,-133.3 -43.5,-255 -79.3,-382.5 -35.1,-124.8 -100.3,-258 -90.4,-390.4 8.8,-117.7 65.5,-227.7 119.4,-330.5 27.5,-52.5 58.8,-104 75.6,-161.3 17.8,-61.1 23.4,-124.9 21.7,-188.4 -3.7,-138.6 -50.3,-270.9 -80.8,-405 -30.9,-136.1 -61.6,-275.1 -77.2,-413.9 -8,-71 -5.1,-137.9 17,-205.9 13.6,-42.1 10.4,-82.4 13.2,-125.8 2.4,-36.8 12.2,-71.6 23.9,-106.5 22.2,-66.6 46.5,-133.8 73.7,-198.5 22.2,-52.7 62.6,-120.6 52.9,-180 -5.7,-34.7 47.6,-49.7 53.3,-14.6 8.3,51.4 -8.1,100.8 -27.1,148.1 -21.2,52.4 -42.3,104.5 -62.3,157.4 -25.2,66.7 -57.4,135.8 -60.1,208 -1.3,32.7 0.3,65 -6.6,97.2 -7.5,34.7 -22.9,65.9 -26,101.7 -6.1,69.8 4.2,139 16.2,207.5 12.5,71.2 25.1,142.4 39.7,213.2 14.8,72.4 31.2,144.5 49,216.3 15.9,63.7 34.6,126.6 44.1,191.7 17.3,118.6 15.4,245.7 -31,357.9 -47.1,114.3 -119.3,215.6 -157.6,334.3 -19.8,61.6 -27.8,122.8 -17.1,187 11.3,67.9 35.3,132.8 54.8,198.5 37.2,124.9 77.5,252.3 92,382.1 15.4,137.1 10.2,275.4 -28.6,408.3 -22.3,76.3 -51.8,151.2 -64,230.1 -13.1,83.7 -9.5,169.1 -9.8,253.5 0,16.8 -25.9,16.8 -26,0"
         style="fill:#a2e0ef;fill-opacity:1;fill-rule:nonzero;stroke:none"
         id="path188" />
      <path
         d="m 18095.3,6290 c 9.3,-111 25.4,-221.5 30.3,-332.9 4.8,-108.2 -5.4,-211.1 -34.3,-315.5 -50,-180.7 -148.1,-360.6 -114.6,-552.8 19,-109.2 50.2,-217.3 77.2,-324.8 26.8,-106.4 61.4,-214.9 67,-325.1 5.7,-110.1 -33.8,-218.5 -63.2,-323.4 -28,-100.1 -63,-198.2 -78.5,-301.4 -15.8,-105.3 -24.5,-218.9 -13.9,-325.1 4.7,-47.5 15.6,-94.3 34.1,-138.4 19.3,-46 45.6,-90.1 59.2,-138.3 6.1,-21.8 40.2,-17.9 39.9,5.4 -0.6,38.9 -14.3,72.2 -30.6,106.9 -20.8,44.4 -39,88.3 -47.8,136.8 -17.2,94.9 -8.3,201.5 1.5,297 10.7,104.6 42.3,202.4 70.7,303 28.1,99.5 65.9,204.7 74.3,308 8.4,103.9 -18.6,207 -44.1,306.7 -27.8,108.6 -56.1,217 -82.2,325.9 -24.8,103.6 -37.9,197.2 -12.8,302.3 23,95.8 58,188.5 84.7,283.2 31.1,110.5 47.4,219.1 44,334.1 -3.6,123.4 -23.4,245.6 -34.9,368.4 -1.6,16.4 -27.4,16.7 -26,0"
         style="fill:#a2e0ef;fill-opacity:1;fill-rule:nonzero;stroke:none"
         id="path190" />
      <path
         d="m 17876.4,1412.3 h -675.2 c -428.9,0 -779.8,350.9 -779.8,779.8 v 675.2 c 0,428.9 350.9,779.8 779.8,779.8 h 675.2 c 428.9,0 779.8,-350.9 779.8,-779.8 v -675.2 c 0,-428.9 -350.9,-779.8 -779.8,-779.8"
         style="fill:#ffffff;fill-opacity:1;fill-rule:nonzero;stroke:none"
         id="path192" />
      <path
         d="m 3811.13,4724.1 c 16.06,-36.2 32.37,-72.3 49.07,-108 68.88,-147.5 144.71,-289.6 241.25,-405.4 240.49,-288.2 406.37,-231.7 657.94,-51 74.88,53.7 148.42,124.6 223.93,179.7 26.06,19.1 52.44,36.3 79.14,50.2 115.08,60 211.18,54.8 284.65,217.2 27.91,61.7 44.29,139.5 23.01,205.6 -25.3,78.5 -97.5,115.1 -161.03,104.5 -35.24,-5.9 -68.25,-23 -99.53,-45.6 -25.24,-18.2 -49.39,-39.8 -72.65,-61.9 -21.6,-20.6 -45.5,-42.7 -71.88,-39.5 -48.11,5.8 -66.97,96.1 -43.08,152 31.48,73.6 145.67,149.8 202.77,186.6 115.98,74.8 290.83,91.6 361.56,258.9 64.3,152.1 12.68,304.9 -125.27,311.4 -30.91,1.4 -61.88,-2.3 -92.08,-10.9 -76.73,-21.5 -148.61,-73.7 -202.65,-149.5 -31.41,-44 -66.39,-100.6 -111.38,-91.5 -172.19,34.8 84.81,567.6 105.97,673 21.85,108.9 32.88,283.1 -19.18,382.1 -72.77,138.3 -185.12,113.8 -212.07,-63.1 -10.84,-71.3 -7.97,-146.6 -26.7,-214.9 -10.2,-37.3 -36.52,-76.5 -64.43,-63.3 -25.11,11.9 -30.01,55.6 -30.78,91.2 -4.9,238.8 50.16,625.1 -89.65,811.6 -66.08,101.3 -182,148.9 -275.23,119.1 -48.3,-15.4 -90.48,-51.5 -116.55,-111.6 -55.05,-127 -14.2,-289.4 42.95,-414.6 57.23,-125.2 131.91,-244.4 146.95,-389.7 14.98,-145.3 -69.08,-320.3 -177.09,-293.2 -49.64,12.4 -88.51,62.8 -134.01,91.9 -93.48,59.9 -217.29,16.2 -276.3,-97.6 -59.07,-113.7 -46.2,-283.7 28.61,-379.5 63.41,-81.1 156.51,-104.6 229.66,-169.5 73.16,-64.9 120.18,-219.1 52.63,-294.1 -88.19,-98 -232.01,73.1 -331.8,-2.5 -92.02,-69.8 -50.79,-256.7 3.25,-378.1"
         style="fill:#86c8dd;fill-opacity:1;fill-rule:nonzero;stroke:none"
         id="path194" />
      <path
         d="m 4459.61,4699 c 7.34,-40.8 14.93,-81.8 22.97,-122.5 33.15,-168.1 74.14,-333.7 140.74,-482.4 165.94,-370.1 336.93,-381.5 617.29,-308 83.42,21.8 169.38,60.6 253.72,83.4 29.11,8 58.12,14 86.71,16.8 123.25,12 213.9,-30.9 320.05,95.3 40.32,47.9 73.18,115.8 67.49,187.4 -6.79,84.9 -67.67,148.3 -130.7,163.3 -34.96,8.2 -70.3,4.8 -105.18,-4.4 -28.14,-7.4 -56.02,-18.6 -83.13,-30.5 -25.19,-11.2 -52.92,-22.9 -77.41,-9.4 -44.68,24.5 -42.71,118.2 -7.49,162.2 46.36,57.9 172.34,85.7 235.04,98.4 127.35,25.7 298.12,-27.2 402.75,104.8 95.08,119.9 79.62,286.3 -50.76,346.9 -29.2,13.5 -59.62,22.2 -90.38,25.9 -78.06,9.6 -158.29,-11.9 -226.71,-63.1 -39.74,-29.6 -85.7,-69.9 -126.67,-43.5 -156.78,101.2 206.7,508.9 250.26,601.3 44.99,95.4 94.08,257.4 66.27,372.6 -38.9,160.8 -151.65,181.7 -216.57,23.3 -26.15,-63.9 -40.07,-136.9 -73.1,-194.8 -17.99,-31.6 -51.83,-58.7 -75.56,-35.1 -21.34,21.3 -16.36,65 -9.22,99.2 48.19,230.1 186.31,577.5 94.04,810.8 -40.71,122.8 -140.91,213.9 -236.56,222.3 -49.56,4.3 -97.86,-13.6 -136.07,-60.7 -80.7,-99.6 -77.66,-271 -50.76,-413 26.95,-142.2 71.9,-285.6 54.12,-430.2 -17.86,-144.8 -136.92,-278.9 -234.11,-210.4 -44.67,31.4 -70.65,94.9 -107.68,140.6 -76.06,94.1 -204.02,101.1 -285.58,15.7 -81.6,-85.3 -106.96,-252.9 -56.68,-373.8 42.61,-102.5 126.34,-161.7 181.87,-252.5 55.51,-90.9 66.31,-256.7 -14.83,-301.7 -105.96,-58.9 -205.47,161.3 -317.56,128.3 -103.36,-30.4 -105.35,-225.2 -80.61,-362.5"
         style="fill:#86c8dd;fill-opacity:1;fill-rule:nonzero;stroke:none"
         id="path196" />
      <path
         d="M 5335.85,5204.6 C 5189.75,4493 4885.64,3869.7 4676.59,3192.5 c -28.74,-93.1 -56.64,-187.2 -79.74,-283.2 -10.86,-45.1 -20.53,-91 -27.02,-137.6 -1.93,-13.9 -16.71,-139.1 -7.03,-141.8 -7.3,-1 -14.61,-2 -21.92,-3 -1.65,-1.9 -3.3,-3.8 -4.95,-5.7 17.88,44.6 66.06,2.7 48.21,-41.8 -10.2,-25.3 -31.91,-32.4 -50.03,-19.1 -20.68,15.1 -28.99,45.1 -29.95,75.5 -3.02,94.6 13.38,190.9 34.31,281 44.52,191.5 106.2,377.1 168.8,559 127.16,369.4 273.57,726.4 396.27,1098.7 69.91,212 131.6,429 177.52,652.7 10.04,48.8 64.81,26.2 54.79,-22.6"
         style="fill:#a2e0ef;fill-opacity:1;fill-rule:nonzero;stroke:none"
         id="path198" />
      <path
         d="m 5454.06,4090.7 c -220.28,-85.3 -426.01,-229.3 -603.84,-422.6 -28.47,-31 -67.48,25.2 -38.76,56.4 185.67,201.8 399.58,351.6 629.58,440.8 35.54,13.7 48.35,-60.9 13.02,-74.6"
         style="fill:#a2e0ef;fill-opacity:1;fill-rule:nonzero;stroke:none"
         id="path200" />
      <path
         d="m 4950.93,4186 c -9.4,209.2 -26.85,468 -186.99,571.8 -33.09,21.4 -2.01,85.8 30.9,64.5 179.13,-116.1 202.89,-404.1 213.43,-638.7 2.21,-49.2 -55.15,-46.4 -57.34,2.4"
         style="fill:#a2e0ef;fill-opacity:1;fill-rule:nonzero;stroke:none"
         id="path202" />
      <path
         d="m 3237.06,4132.9 c 25.13,-25.3 50.5,-50.4 76.1,-75 105.68,-101.7 216.24,-194.7 338.49,-253 304.47,-144.9 441.87,-8.6 623.26,285.9 54,87.6 101.87,190.4 156.07,279.6 18.7,30.8 38.22,60.1 58.97,86.5 89.41,113.8 179.79,157.6 201.59,345.1 8.3,71.2 1.33,151.4 -37.17,201.8 -45.72,59.9 -122.92,57.1 -178.71,15.2 -30.93,-23.2 -56.59,-55.9 -79.13,-92.5 -18.17,-29.6 -34.35,-61.9 -49.59,-94.2 -14.13,-29.9 -29.96,-62.5 -55.28,-72.8 -46.16,-19.1 -89.29,54.9 -83.09,118.8 8.21,84 92.18,212.4 134.54,275.3 86.06,127.9 243.05,232 260.91,422.6 16.27,173.2 -74.96,288.5 -204.44,224.6 -29.01,-14.3 -56.6,-33.4 -82.1,-56.6 -64.87,-58.8 -116.53,-143.5 -144.97,-241 -16.56,-56.6 -32.83,-126.7 -77.04,-141 -169.22,-54.9 -82.93,568.1 -93.34,676.3 -10.74,111.9 -50.05,278.6 -126.39,343.9 -106.67,91.1 -203.65,11.6 -178.28,-165.8 10.26,-71.5 34.31,-139.6 36.42,-212.4 1.15,-39.6 -12.02,-89.2 -41.62,-91.1 -26.62,-1.7 -43.58,36.3 -54.4,68.8 -72.45,218.5 -131.34,603.7 -313.74,705.5 -89.94,60.3 -210.72,45.6 -288.51,-29.1 -40.32,-38.7 -69.08,-93.5 -76.1,-162.3 -14.84,-145.3 69.15,-275 157.62,-361.8 88.56,-86.9 191.56,-159.4 246.77,-286.2 55.17,-126.8 27.18,-331.3 -80.47,-360.9 -49.46,-13.7 -99.76,13.3 -150.12,17.2 -103.52,8 -205.64,-95.1 -227.89,-230.2 -22.33,-135.1 37.93,-285.9 134.37,-336.6 81.73,-42.9 174.57,-17.6 260.69,-40.6 86.16,-23.1 173.5,-141.9 132.33,-245.5 -53.72,-135.3 -235.46,-49.8 -306.27,-170.3 -65.29,-111.1 25.99,-263.2 110.52,-348.2"
         style="fill:#86c8dd;fill-opacity:1;fill-rule:nonzero;stroke:none"
         id="path204" />
      <path
         d="m 3672.5,5266.5 c 226.28,-673.2 288.58,-1412.3 449.93,-2112.4 22.19,-96.2 45.49,-192.5 73.37,-286.2 13.12,-44 27.53,-87.6 44.73,-129.1 5.12,-12.4 53.39,-121.6 62.14,-115.4 -5.17,-7 -10.33,-13.9 -15.49,-20.9 -0.37,-2.9 -0.73,-5.8 -1.11,-8.6 -7.41,49.5 49.71,58.1 57.12,8.6 4.23,-28.2 -9.19,-52 -29.49,-57.2 -23.18,-5.8 -43.85,10.2 -59.1,32.9 -47.4,70.4 -80.66,158.7 -107.42,246 -56.89,185.6 -97.72,381.2 -136.06,574.6 -77.89,393.1 -134.98,792.8 -217.67,1184.2 -47.1,223 -102.88,442.8 -174.02,654.4 -15.53,46.3 37.55,75.2 53.07,29.1"
         style="fill:#a2e0ef;fill-opacity:1;fill-rule:nonzero;stroke:none"
         id="path206" />
      <path
         d="m 4294.5,4507 c -129.35,-252.7 -219.55,-538.4 -264.68,-838.5 -7.23,-48 -64.09,-37.8 -56.8,10.7 47.12,313.3 140.85,610.4 275.91,874.3 20.87,40.8 66.32,-6 45.57,-46.5"
         style="fill:#a2e0ef;fill-opacity:1;fill-rule:nonzero;stroke:none"
         id="path208" />
      <path
         d="m 3860.76,4153.7 c -106.96,153.5 -243.74,338.5 -416.8,282.8 -35.77,-11.6 -42.45,64.5 -6.88,75.9 193.59,62.4 349.17,-139.8 469.06,-311.9 25.16,-36.1 -20.45,-82.6 -45.38,-46.8"
         style="fill:#a2e0ef;fill-opacity:1;fill-rule:nonzero;stroke:none"
         id="path210" />
      <path
         d="m 4536.33,5552.4 c 17.95,-737.3 -134.57,-1452.7 -184.35,-2182.1 -6.84,-100.3 -12.66,-201.2 -13.49,-302 -0.39,-47.4 0.54,-95 4.65,-142.1 1.23,-14 14.84,-139.5 24.68,-138.2 -6.76,-3.8 -13.51,-7.7 -20.28,-11.5 -1.15,-2.5 -2.31,-5 -3.46,-7.4 7.22,49.6 62.51,28.6 55.3,-20.9 -4.12,-28.3 -23.31,-43.6 -43.55,-38 -23.11,6.3 -37.68,31.6 -45.34,60.3 -23.82,89.2 -29.49,187.7 -29.43,282 0.13,200.5 17.97,402.1 37.5,600.5 39.7,403.1 100.55,801.8 135.35,1205.9 19.82,230.1 30.72,461.7 25.07,693.5 -1.23,50.7 56.12,50.6 57.35,0"
         style="fill:#a2e0ef;fill-opacity:1;fill-rule:nonzero;stroke:none"
         id="path212" />
      <path
         d="m 4499.66,1412.3 h -313.64 c -428.91,0 -779.83,350.9 -779.83,779.8 v 313.7 c 0,428.9 350.92,779.8 779.83,779.8 h 313.64 c 428.9,0 779.82,-350.9 779.82,-779.8 v -313.7 c 0,-428.9 -350.92,-779.8 -779.82,-779.8"
         style="fill:#ffffff;fill-opacity:1;fill-rule:nonzero;stroke:none"
         id="path214" />
    </g>
  </g>
</svg>
