<?xml version="1.0" encoding="UTF-8" standalone="no"?>
<!-- Generator: Adobe Illustrator 24.1.2, SVG Export Plug-In . SVG Version: 6.00 Build 0)  -->

<svg
   version="1.1"
   id="Warstwa_1"
   x="0px"
   y="0px"
   viewBox="0 0 430 430"
   style="enable-background:new 0 0 430 430;"
   xml:space="preserve"
   sodipodi:docname="pulmonary.svg"
   inkscape:version="1.2.1 (9c6d41e410, 2022-07-14)"
   xmlns:inkscape="http://www.inkscape.org/namespaces/inkscape"
   xmlns:sodipodi="http://sodipodi.sourceforge.net/DTD/sodipodi-0.dtd"
   xmlns="http://www.w3.org/2000/svg"
   xmlns:svg="http://www.w3.org/2000/svg"><defs
   id="defs17" /><sodipodi:namedview
   id="namedview15"
   pagecolor="#ffffff"
   bordercolor="#000000"
   borderopacity="0.25"
   inkscape:showpageshadow="2"
   inkscape:pageopacity="0.0"
   inkscape:pagecheckerboard="0"
   inkscape:deskcolor="#d1d1d1"
   showgrid="false"
   inkscape:zoom="1.6837209"
   inkscape:cx="95.918508"
   inkscape:cy="215.29696"
   inkscape:window-width="2560"
   inkscape:window-height="1009"
   inkscape:window-x="0"
   inkscape:window-y="0"
   inkscape:window-maximized="1"
   inkscape:current-layer="g12" />
<style
   type="text/css"
   id="style2">
	.st0{fill:#121331;}
	.st1{fill:#08A284;}
	.st2{fill:none;stroke:#08A284;stroke-width:12;stroke-linecap:round;stroke-linejoin:round;stroke-miterlimit:10;}
	.st3{fill:none;stroke:#121331;stroke-width:12;stroke-linecap:round;stroke-linejoin:round;stroke-miterlimit:10;}
	.st4{fill:#08A688;}
	.st5{fill:#34bcc7;}
	.st6{fill:#34bcc7;}
</style>
<g
   id="g12">
	<path
   class="st1"
   d="M248.98,201.78c-7.78-3.12-27.98-13.93-27.98-26.36V67.98c0-3.31-2.69-6-6-6s-6,2.69-6,6v107.44   c0,12.43-20.2,23.24-27.98,26.36c-3.08,1.23-4.57,4.71-3.35,7.79c0.94,2.35,3.19,3.78,5.58,3.78c0.74,0,1.49-0.14,2.22-0.43   c2.64-1.05,20.11-8.35,29.53-20.93c9.42,12.58,26.9,19.88,29.53,20.93c3.07,1.22,6.56-0.27,7.79-3.35   C253.55,206.5,252.05,203.01,248.98,201.78z"
   id="path4"
   style="fill:#34bcc7;fill-opacity:1" />
	<g
   id="g10">
		<path
   class="st0"
   d="M140.52,368.03c-2.08,0-4.17-0.13-6.27-0.4c-4.36-0.56-8.44-1.42-12.76-2.34    c-12.67-2.69-25.77-5.47-48.82-1.15c-5.52,1.03-11.2-0.4-15.58-3.92c-4.39-3.54-7-8.8-7.17-14.43    c-0.85-28.79-0.71-83.09,9.78-123.24c5.97-22.84,19.11-42.31,39.08-57.88c14.38-11.21,31.95-20.19,52.21-26.67    c9.04-2.89,18.61-1.35,26.26,4.24c7.62,5.56,11.99,14.16,11.99,23.6v152.96c0,1.4-0.06,2.81-0.18,4.2c0,0,0,0,0,0    c-1.12,13.32-7.75,25.79-18.18,34.22C162.13,364.29,151.53,368.03,140.52,368.03z M94.96,349.89c11.8,0,20.75,1.9,29.02,3.65    c4.08,0.86,7.92,1.68,11.8,2.18c9.93,1.27,19.73-1.51,27.57-7.85c7.9-6.38,12.92-15.82,13.77-25.89l0,0    c0.09-1.06,0.13-2.13,0.13-3.2V165.83c0-5.56-2.57-10.63-7.06-13.91c-4.52-3.3-10.18-4.21-15.52-2.5    c-31.58,10.1-71.68,31.51-83.34,76.15c-10.11,38.7-10.23,91.7-9.4,119.85c0.06,2.12,1.05,4.11,2.7,5.44    c1.67,1.34,3.74,1.87,5.84,1.47C79.93,350.56,87.95,349.89,94.96,349.89z M183.09,322.49L183.09,322.49L183.09,322.49z"
   id="path6" />
		<path
   class="st0"
   d="M289.48,364.55c-11.01,0-21.61-3.74-30.37-10.82c-10.43-8.43-17.06-20.9-18.18-34.22c0,0,0,0,0,0    c-0.12-1.39-0.18-2.8-0.18-4.2V162.35c0-9.44,4.37-18.04,11.99-23.6c7.65-5.58,17.22-7.13,26.26-4.24    c20.27,6.48,37.84,15.46,52.21,26.67c19.97,15.57,33.12,35.05,39.08,57.88c10.49,40.15,10.63,94.44,9.78,123.24    c-0.17,5.64-2.78,10.9-7.17,14.43c-4.38,3.53-10.05,4.96-15.58,3.92c-23.04-4.31-36.14-1.54-48.82,1.15    c-4.32,0.92-8.4,1.78-12.76,2.34C293.65,364.41,291.56,364.55,289.48,364.55z M252.89,318.5c0.85,10.07,5.87,19.51,13.77,25.89    c7.84,6.34,17.63,9.13,27.57,7.85c3.87-0.5,7.72-1.31,11.79-2.18c13.18-2.8,28.12-5.97,53.52-1.21c2.1,0.39,4.17-0.13,5.84-1.47    c1.65-1.33,2.64-3.32,2.7-5.44c0.83-28.15,0.71-81.15-9.4-119.85c-11.66-44.64-51.76-66.05-83.34-76.15    c-5.34-1.71-11-0.8-15.52,2.5c-4.49,3.28-7.06,8.34-7.06,13.91v152.96C252.75,316.37,252.8,317.44,252.89,318.5L252.89,318.5z"
   id="path8" />
	</g>
</g>
</svg>
