<?xml version="1.0" encoding="UTF-8" standalone="no"?>
<!-- Generator: Adobe Illustrator 24.1.2, SVG Export Plug-In . SVG Version: 6.00 Build 0)  -->

<svg
   version="1.1"
   id="Warstwa_1"
   x="0px"
   y="0px"
   viewBox="0 0 200 200"
   xml:space="preserve"
   sodipodi:docname="pulmonary.svg"
   inkscape:version="1.2.1 (9c6d41e410, 2022-07-14)"
   width="200"
   height="200"
   xmlns:inkscape="http://www.inkscape.org/namespaces/inkscape"
   xmlns:sodipodi="http://sodipodi.sourceforge.net/DTD/sodipodi-0.dtd"
   xmlns="http://www.w3.org/2000/svg"
   xmlns:svg="http://www.w3.org/2000/svg"><defs
   id="defs17" /><sodipodi:namedview
   id="namedview15"
   pagecolor="#ffffff"
   bordercolor="#000000"
   borderopacity="0.25"
   inkscape:showpageshadow="2"
   inkscape:pageopacity="0.0"
   inkscape:pagecheckerboard="0"
   inkscape:deskcolor="#d1d1d1"
   showgrid="false"
   inkscape:zoom="3.3674418"
   inkscape:cx="148.1837"
   inkscape:cy="112.99379"
   inkscape:window-width="2560"
   inkscape:window-height="1009"
   inkscape:window-x="0"
   inkscape:window-y="0"
   inkscape:window-maximized="1"
   inkscape:current-layer="g12" />
<style
   type="text/css"
   id="style2">
	.st0{fill:#121331;}
	.st1{fill:#08A284;}
	.st2{fill:none;stroke:#08A284;stroke-width:12;stroke-linecap:round;stroke-linejoin:round;stroke-miterlimit:10;}
	.st3{fill:none;stroke:#121331;stroke-width:12;stroke-linecap:round;stroke-linejoin:round;stroke-miterlimit:10;}
	.st4{fill:#08A688;}
	.st5{fill:#34bcc7;}
	.st6{fill:#34bcc7;}
</style>
<g
   id="g12"
   transform="translate(-49.889504,-61.767957)">
	<path
   class="st1"
   d="m 170.792,153.75307 c -4.70394,-1.88151 -16.91728,-8.4005 -16.91728,-15.89643 V 73.064767 c 0,-1.996101 -1.62643,-3.61831 -3.62773,-3.61831 -2.00129,0 -3.62772,1.622209 -3.62772,3.61831 v 64.791873 c 0,7.49593 -12.21334,14.01492 -16.9173,15.89643 -1.86222,0.74176 -2.76311,2.84038 -2.02546,4.69778 0.56833,1.41717 1.92874,2.27953 3.37378,2.27953 0.44741,0 0.90089,-0.0844 1.34226,-0.25931 1.5962,-0.63321 12.15891,-5.03548 17.85444,-12.62187 5.69553,7.58639 16.26429,11.98866 17.85445,12.62187 1.85619,0.73573 3.96631,-0.16282 4.70999,-2.02022 0.74368,-1.85137 -0.16324,-3.95602 -2.01943,-4.69778 z"
   id="path4"
   style="fill:#34bcc7;fill-opacity:1;stroke-width:0.603835" />
	<g
   id="g10"
   transform="matrix(0.60462067,0,0,0.60305168,20.253548,32.069314)">
		<path
   class="st0"
   d="m 140.52,368.03 c -2.08,0 -4.17,-0.13 -6.27,-0.4 -4.36,-0.56 -8.44,-1.42 -12.76,-2.34 -12.67,-2.69 -25.77,-5.47 -48.82,-1.15 -5.52,1.03 -11.2,-0.4 -15.58,-3.92 -4.39,-3.54 -7,-8.8 -7.17,-14.43 C 49.07,317 49.21,262.7 59.7,222.55 c 5.97,-22.84 19.11,-42.31 39.08,-57.88 14.38,-11.21 31.95,-20.19 52.21,-26.67 9.04,-2.89 18.61,-1.35 26.26,4.24 7.62,5.56 11.99,14.16 11.99,23.6 V 318.8 c 0,1.4 -0.06,2.81 -0.18,4.2 0,0 0,0 0,0 -1.12,13.32 -7.75,25.79 -18.18,34.22 -8.75,7.07 -19.35,10.81 -30.36,10.81 z M 94.96,349.89 c 11.8,0 20.75,1.9 29.02,3.65 4.08,0.86 7.92,1.68 11.8,2.18 9.93,1.27 19.73,-1.51 27.57,-7.85 7.9,-6.38 12.92,-15.82 13.77,-25.89 v 0 c 0.09,-1.06 0.13,-2.13 0.13,-3.2 V 165.83 c 0,-5.56 -2.57,-10.63 -7.06,-13.91 -4.52,-3.3 -10.18,-4.21 -15.52,-2.5 -31.58,10.1 -71.68,31.51 -83.34,76.15 -10.11,38.7 -10.23,91.7 -9.4,119.85 0.06,2.12 1.05,4.11 2.7,5.44 1.67,1.34 3.74,1.87 5.84,1.47 9.46,-1.77 17.48,-2.44 24.49,-2.44 z m 88.13,-27.4 z"
   id="path6" />
		<path
   class="st0"
   d="m 289.48,364.55 c -11.01,0 -21.61,-3.74 -30.37,-10.82 -10.43,-8.43 -17.06,-20.9 -18.18,-34.22 0,0 0,0 0,0 -0.12,-1.39 -0.18,-2.8 -0.18,-4.2 V 162.35 c 0,-9.44 4.37,-18.04 11.99,-23.6 7.65,-5.58 17.22,-7.13 26.26,-4.24 20.27,6.48 37.84,15.46 52.21,26.67 19.97,15.57 33.12,35.05 39.08,57.88 10.49,40.15 10.63,94.44 9.78,123.24 -0.17,5.64 -2.78,10.9 -7.17,14.43 -4.38,3.53 -10.05,4.96 -15.58,3.92 -23.04,-4.31 -36.14,-1.54 -48.82,1.15 -4.32,0.92 -8.4,1.78 -12.76,2.34 -2.09,0.27 -4.18,0.41 -6.26,0.41 z M 252.89,318.5 c 0.85,10.07 5.87,19.51 13.77,25.89 7.84,6.34 17.63,9.13 27.57,7.85 3.87,-0.5 7.72,-1.31 11.79,-2.18 13.18,-2.8 28.12,-5.97 53.52,-1.21 2.1,0.39 4.17,-0.13 5.84,-1.47 1.65,-1.33 2.64,-3.32 2.7,-5.44 0.83,-28.15 0.71,-81.15 -9.4,-119.85 -11.66,-44.64 -51.76,-66.05 -83.34,-76.15 -5.34,-1.71 -11,-0.8 -15.52,2.5 -4.49,3.28 -7.06,8.34 -7.06,13.91 v 152.96 c -0.01,1.06 0.04,2.13 0.13,3.19 z"
   id="path8" />
	</g>
</g>
</svg>
