<?xml version="1.0" encoding="UTF-8" standalone="no"?>
<!-- Generator: Adobe Illustrator 24.1.2, SVG Export Plug-In . SVG Version: 6.00 Build 0)  -->

<svg
   version="1.1"
   id="Warstwa_1"
   x="0px"
   y="0px"
   viewBox="0 0 430 430"
   style="enable-background:new 0 0 430 430;"
   xml:space="preserve"
   sodipodi:docname="sonography.svg"
   inkscape:version="1.2.1 (9c6d41e410, 2022-07-14)"
   xmlns:inkscape="http://www.inkscape.org/namespaces/inkscape"
   xmlns:sodipodi="http://sodipodi.sourceforge.net/DTD/sodipodi-0.dtd"
   xmlns="http://www.w3.org/2000/svg"
   xmlns:svg="http://www.w3.org/2000/svg"><defs
   id="defs1993" /><sodipodi:namedview
   id="namedview1991"
   pagecolor="#ffffff"
   bordercolor="#000000"
   borderopacity="0.25"
   inkscape:showpageshadow="2"
   inkscape:pageopacity="0.0"
   inkscape:pagecheckerboard="0"
   inkscape:deskcolor="#d1d1d1"
   showgrid="false"
   inkscape:zoom="1.6837209"
   inkscape:cx="215.59393"
   inkscape:cy="215.89089"
   inkscape:window-width="2560"
   inkscape:window-height="1009"
   inkscape:window-x="0"
   inkscape:window-y="0"
   inkscape:window-maximized="1"
   inkscape:current-layer="g1988" />
<style
   type="text/css"
   id="style1978">
	.st0{fill:#121331;}
	.st1{fill:#08A284;}
	.st2{fill:none;stroke:#08A284;stroke-width:12;stroke-linecap:round;stroke-linejoin:round;stroke-miterlimit:10;}
	.st3{fill:none;stroke:#121331;stroke-width:12;stroke-linecap:round;stroke-linejoin:round;stroke-miterlimit:10;}
	.st4{fill:#08A688;}
	.st5{fill:#08a88a;}
	.st6{fill:#08a88a;}
</style>
<g
   id="g1988">
	<path
   class="st1"
   d="m 262.8933,289.07385 c -3.20319,0 -6.19973,-2.002 -7.31052,-5.19229 -1.42077,-4.04274 0.71039,-8.46006 4.75313,-9.88083 2.19575,-0.77497 53.76982,-19.4775 57.20551,-74.51311 4.90812,-78.87874 64.15437,-102.721901 66.67301,-103.690615 3.99108,-1.549934 8.4859,0.43915 10.02291,4.430225 1.54994,3.99109 -0.43915,8.4859 -4.43023,10.02292 -2.11824,0.83955 -52.52986,21.53117 -56.8051,90.20619 -4.06857,65.17474 -64.95517,87.27423 -67.53839,88.17836 -0.85247,0.29707 -1.71785,0.43915 -2.57032,0.43915 z"
   id="path1980"
   style="fill:#34bcc7;fill-opacity:1;stroke-width:1.29161" />
	<g
   id="g1986"
   transform="matrix(1.2916121,0,0,1.2916121,-63.587491,-62.399646)">
		<path
   class="st0"
   d="m 215,49.01 c -91.52,0 -165.99,74.46 -165.99,165.99 0,91.53 74.47,165.99 165.99,165.99 91.52,0 165.99,-74.47 165.99,-165.99 C 380.99,123.48 306.52,49.01 215,49.01 Z m 0,319.98 C 130.09,368.99 61.01,299.91 61.01,215 61.01,130.09 130.09,61.01 215,61.01 c 84.91,0 153.99,69.08 153.99,153.99 0,84.91 -69.08,153.99 -153.99,153.99 z"
   id="path1982" />
		<path
   class="st0"
   d="m 302.17,271.09 -19.95,-2.36 c -6.76,-0.8 -13.4,0.03 -19.53,2.41 -3.6,-7.03 -8.02,-13.22 -13.17,-18.5 l 1.07,-2.13 c 2.48,-4.94 2.89,-10.55 1.16,-15.79 -1.73,-5.24 -5.42,-9.5 -10.36,-11.98 -4.94,-2.48 -10.54,-2.88 -15.78,-1.14 -4.19,1.39 -7.74,4.04 -10.26,7.57 l -7.39,-4.56 c 1.76,-1.61 3.42,-3.3 4.98,-5.08 6.56,-7.42 11.47,-16.35 14.18,-25.85 1.44,-5.09 -0.65,-9.41 -2.17,-12.57 -0.85,-1.76 -1.65,-3.42 -1.65,-4.66 0,-0.47 0.08,-1.22 0.24,-2.17 3.25,-19.22 -3.78,-38.57 -18.33,-50.49 -11.57,-9.48 -26.2,-14.83 -41.19,-15.06 -36.59,-0.55 -66.94,28.75 -67.66,65.3 -0.45,22.42 10.29,43.44 28.75,56.21 0.03,0.02 0.06,0.04 0.08,0.06 l 0.28,0.19 c 0.07,0.05 0.15,0.1 0.22,0.14 0.1,0.06 0.24,0.15 0.4,0.27 0.04,0.03 0.09,0.06 0.14,0.1 0.05,0.04 0.11,0.08 0.16,0.11 4.39,3.04 26.54,19.5 31.1,44.64 0.06,0.32 0.11,0.64 0.16,0.97 0.01,0.06 0.02,0.12 0.03,0.17 4.1,22.23 19.96,41.77 42.42,52.28 13.58,6.35 29.24,9.83 43.46,9.83 3.09,0 6.11,-0.17 9.03,-0.5 13.77,-1.6 24.56,-12.49 26.24,-26.49 l 0.36,-2.99 c 0.06,-0.52 0.34,-0.83 0.56,-1.01 0.23,-0.18 0.61,-0.38 1.14,-0.31 l 16.74,2 c 0.76,0.08 1.52,0.13 2.27,0.13 9.82,0 18.12,-7.36 19.29,-17.13 0.62,-5.17 -0.82,-10.27 -4.04,-14.35 -3.23,-4.08 -7.84,-6.66 -12.98,-7.26 z M 133.3,221.3 c -0.08,-0.06 -0.16,-0.11 -0.25,-0.17 -0.05,-0.04 -0.11,-0.08 -0.16,-0.12 -0.3,-0.2 -0.56,-0.37 -0.76,-0.5 l -0.22,-0.15 c -15.13,-10.48 -23.95,-27.71 -23.57,-46.1 0.59,-29.96 25.46,-54.02 55.48,-53.54 12.47,0.19 24.15,4.46 33.77,12.34 11.23,9.2 16.64,24.22 14.1,39.25 -0.27,1.67 -0.4,2.98 -0.4,4.13 0,3.99 1.58,7.26 2.85,9.88 0.76,1.58 1.63,3.38 1.44,4.07 -2.22,7.77 -6.24,15.1 -11.64,21.2 -2.86,3.26 -6.16,6.19 -9.8,8.73 -1.66,1.16 -2.62,3.07 -2.56,5.09 0.06,2.02 1.13,3.88 2.84,4.94 l 15.29,9.44 -4.3,8.57 c -0.36,0.72 -0.97,1.02 -1.29,1.12 -0.33,0.11 -0.98,0.24 -1.7,-0.12 l -17.88,-8.97 c -2.96,-1.49 -6.57,-0.29 -8.05,2.67 -1.48,2.96 -0.29,6.57 2.67,8.05 l 17.88,8.97 c 3.4,1.71 7.26,1.98 10.86,0.79 3.61,-1.2 6.53,-3.73 8.24,-7.13 l 6.76,-13.48 c 0.02,-0.04 0.04,-0.08 0.06,-0.12 l 1.41,-2.81 c 1.04,-2.07 2.82,-3.61 5.02,-4.34 2.2,-0.73 4.55,-0.56 6.62,0.48 2.07,1.04 3.62,2.83 4.35,5.03 0.73,2.2 0.56,4.56 -0.48,6.63 l -9.85,19.58 c -8.22,16.32 -28.21,22.97 -44.57,14.82 l -16.64,-8.29 c -6.07,-27.57 -28.5,-45.05 -35.52,-49.94 z m 173.96,69.98 c -0.45,3.74 -3.62,6.55 -7.37,6.55 -0.31,0 -0.63,-0.02 -0.9,-0.05 l -16.68,-1.99 c -3.6,-0.44 -7.15,0.56 -10,2.8 -2.84,2.24 -4.64,5.46 -5.05,9.02 l -0.36,2.97 c -1.01,8.47 -7.47,15.05 -15.7,16 -14.23,1.63 -31.43,-1.46 -46.03,-8.28 -14.65,-6.85 -25.95,-18.15 -31.9,-31.43 l 6.82,3.4 c 6.45,3.21 13.31,4.73 20.09,4.73 16.59,0 32.61,-9.13 40.55,-24.9 l 3.01,-5.98 c 3.7,4.4 6.48,8.98 8.52,13.01 -8.58,6.77 -14.16,16.77 -15.56,28.19 -0.4,3.29 1.94,6.28 5.23,6.68 0.25,0.03 0.49,0.04 0.73,0.04 2.99,0 5.58,-2.23 5.95,-5.27 1.17,-9.59 6.37,-17.77 14.27,-22.43 0,0 0,0 0,0 0,0 0,0 0.01,0 5.35,-3.17 11.55,-4.45 17.92,-3.7 l 19.96,2.36 c 1.96,0.23 3.72,1.21 4.95,2.77 1.23,1.58 1.78,3.53 1.54,5.51 z"
   id="path1984" />
	</g>
</g>
</svg>
