<?xml version="1.0" encoding="UTF-8" standalone="no"?>
<!-- Generator: Adobe Illustrator 24.1.2, SVG Export Plug-In . SVG Version: 6.00 Build 0)  -->

<svg
   version="1.1"
   id="Warstwa_1"
   x="0px"
   y="0px"
   viewBox="0 0 430 430"
   style="enable-background:new 0 0 430 430;"
   xml:space="preserve"
   sodipodi:docname="urinary.svg"
   inkscape:version="1.2.1 (9c6d41e410, 2022-07-14)"
   xmlns:inkscape="http://www.inkscape.org/namespaces/inkscape"
   xmlns:sodipodi="http://sodipodi.sourceforge.net/DTD/sodipodi-0.dtd"
   xmlns="http://www.w3.org/2000/svg"
   xmlns:svg="http://www.w3.org/2000/svg"><defs
   id="defs2503" /><sodipodi:namedview
   id="namedview2501"
   pagecolor="#ffffff"
   bordercolor="#000000"
   borderopacity="0.25"
   inkscape:showpageshadow="2"
   inkscape:pageopacity="0.0"
   inkscape:pagecheckerboard="0"
   inkscape:deskcolor="#d1d1d1"
   showgrid="false"
   inkscape:zoom="1.6837209"
   inkscape:cx="215.29696"
   inkscape:cy="215.29696"
   inkscape:window-width="2560"
   inkscape:window-height="1009"
   inkscape:window-x="0"
   inkscape:window-y="0"
   inkscape:window-maximized="1"
   inkscape:current-layer="g2490" />
<style
   type="text/css"
   id="style2484">
	.st0{fill:#121331;}
	.st1{fill:#08A284;}
	.st2{fill:none;stroke:#08A284;stroke-width:12;stroke-linecap:round;stroke-linejoin:round;stroke-miterlimit:10;}
	.st3{fill:none;stroke:#121331;stroke-width:12;stroke-linecap:round;stroke-linejoin:round;stroke-miterlimit:10;}
	.st4{fill:#08A688;}
	.st5{fill:#08a88a;}
	.st6{fill:#08a88a;}
</style>
<g
   id="g2498">
	<g
   id="g2490">
		<path
   class="st1"
   d="M155.19,143.96h-34.79c-3.31,0-6,2.69-6,6s2.69,6,6,6h34.79c14.82,0,26.87,12.05,26.87,26.87v179    c0,3.31,2.69,6,6,6c3.31,0,6-2.69,6-6v-179C194.06,161.4,176.63,143.96,155.19,143.96z"
   id="path2486"
   style="fill:#34bcc7;fill-opacity:1" />
		<path
   class="st1"
   d="M308.95,143.96h-34.79c-21.43,0-38.87,17.44-38.87,38.87v179c0,3.31,2.69,6,6,6s6-2.69,6-6v-179    c0-14.82,12.05-26.87,26.87-26.87h34.79c3.31,0,6-2.69,6-6S312.27,143.96,308.95,143.96z"
   id="path2488"
   style="fill:#34bcc7;fill-opacity:1" />
	</g>
	<g
   id="g2496">
		<path
   class="st0"
   d="M149.83,163.67c-5.4-4.03-11.76-6.73-18.4-7.83c-2.29-0.38-4.17-2.09-4.8-4.36    c-0.23-0.84-0.23-1.21-0.23-1.21c0,0,0.01-0.15,0.09-0.48c0.52-2.22,2.53-3.94,5.11-4.38c6.89-1.18,13.44-4.11,18.93-8.46    c10.13-8.02,15.94-20.03,15.94-32.94c0-21.81-16.35-39.79-38.04-41.82c-0.19-0.02-0.37-0.03-0.56-0.03h-6.8c-0.08,0-0.16,0-0.24,0    c-23.03,0.93-44.54,10.6-60.57,27.24c-16.07,16.69-24.92,38.64-24.92,61.81c0,23.58,9.12,45.8,25.68,62.59    c16.54,16.77,38.61,26.19,62.14,26.53c0.2,0,0.4,0,0.61,0c11.36,0,22.49-4.58,30.62-12.62c8.17-8.09,12.65-18.77,12.61-30.07    C166.94,184.33,160.52,171.63,149.83,163.67z M145.94,219.19c-6,5.93-14.22,9.28-22.61,9.15c-41.9-0.6-75.99-35.2-75.99-77.11    c0-41.5,32.43-75.33,73.85-77.05h6.38c15.35,1.57,26.9,14.35,26.9,29.84c0,9.22-4.15,17.8-11.4,23.53    c-3.92,3.11-8.59,5.2-13.5,6.04c-7.33,1.26-13.12,6.53-14.76,13.45c-0.27,1.16-0.41,2.22-0.41,3.23c0,1.33,0.22,2.77,0.66,4.39    c1.86,6.78,7.52,11.9,14.42,13.04c4.76,0.78,9.31,2.72,13.19,5.61c7.8,5.8,12.29,14.69,12.33,24.39    C155.02,205.75,151.8,213.38,145.94,219.19z"
   id="path2492" />
		<path
   class="st0"
   d="M369.75,89.41c-16.02-16.64-37.53-26.31-60.57-27.24c-0.08,0-0.16,0-0.24,0h-6.8c-0.19,0-0.37,0.01-0.56,0.03    c-21.69,2.03-38.04,20.01-38.04,41.82c0,12.91,5.81,24.91,15.94,32.93c5.5,4.36,12.04,7.29,18.93,8.47    c2.58,0.44,4.58,2.16,5.11,4.38c0.07,0.32,0.08,0.47,0.09,0.47c0,0.02-0.01,0.39-0.23,1.22c-0.62,2.28-2.51,3.99-4.8,4.37    c-6.64,1.09-13,3.8-18.4,7.82c-10.7,7.96-17.11,20.66-17.16,33.98c-0.04,11.3,4.44,21.98,12.61,30.07    c8.13,8.04,19.25,12.62,30.62,12.62c0.2,0,0.4,0,0.61,0c23.53-0.34,45.6-9.76,62.14-26.53c16.56-16.78,25.68-39.01,25.68-62.59    C394.67,128.05,385.82,106.1,369.75,89.41z M306.67,228.33c-8.38,0.13-16.61-3.21-22.61-9.15c-5.87-5.81-9.08-13.44-9.05-21.5    c0.04-9.7,4.53-18.59,12.33-24.4c3.87-2.88,8.43-4.82,13.18-5.61c6.9-1.14,12.56-6.25,14.42-13.04c0.44-1.62,0.66-3.05,0.66-4.39    c0-1.01-0.13-2.07-0.41-3.23c-1.64-6.91-7.43-12.19-14.76-13.45c-4.91-0.84-9.58-2.93-13.5-6.04    c-7.24-5.73-11.39-14.31-11.39-23.53c0-15.49,11.54-28.27,26.9-29.84h6.38c41.42,1.73,73.85,35.55,73.85,77.05    C382.67,193.14,348.58,227.73,306.67,228.33z"
   id="path2494" />
	</g>
</g>
</svg>
