<?xml version="1.0" encoding="UTF-8" standalone="no"?>
<!-- Generator: Adobe Illustrator 24.1.2, SVG Export Plug-In . SVG Version: 6.00 Build 0)  -->

<svg
   version="1.1"
   id="Warstwa_3"
   x="0px"
   y="0px"
   viewBox="0 0 200 200"
   xml:space="preserve"
   sodipodi:docname="wound.svg"
   inkscape:version="1.2.1 (9c6d41e410, 2022-07-14)"
   width="200"
   height="200"
   xmlns:inkscape="http://www.inkscape.org/namespaces/inkscape"
   xmlns:sodipodi="http://sodipodi.sourceforge.net/DTD/sodipodi-0.dtd"
   xmlns="http://www.w3.org/2000/svg"
   xmlns:svg="http://www.w3.org/2000/svg"><defs
   id="defs3017" /><sodipodi:namedview
   id="namedview3015"
   pagecolor="#ffffff"
   bordercolor="#000000"
   borderopacity="0.25"
   inkscape:showpageshadow="2"
   inkscape:pageopacity="0.0"
   inkscape:pagecheckerboard="0"
   inkscape:deskcolor="#d1d1d1"
   showgrid="false"
   inkscape:zoom="2.381141"
   inkscape:cx="226.57205"
   inkscape:cy="116.96073"
   inkscape:window-width="2560"
   inkscape:window-height="1008"
   inkscape:window-x="0"
   inkscape:window-y="0"
   inkscape:window-maximized="1"
   inkscape:current-layer="g3012" />
<style
   type="text/css"
   id="style2996">
	.st0{fill:#08a88a;}
	.st1{fill:#121331;}
	.st2{fill:#08a88a;fill-opacity:0;}
	.st3{fill:none;}
</style>
<g
   id="g3012"
   transform="translate(-69.714477,-70.554411)">
	<path
   class="st0"
   d="m 175.5168,145.32885 c -0.14511,3.38594 -2.99898,6.01178 -6.38492,5.86667 -3.38595,-0.14512 -6.00487,-2.99898 -5.86667,-6.38493 0.14511,-3.38594 2.99898,-6.01177 6.38492,-5.86666 3.38595,0.14511 6.01178,2.99898 5.86667,6.38492 z m 13.91692,26.85261 c -0.56663,-3.33758 1.67915,-6.5024 5.00981,-7.07593 3.33758,-0.56663 6.5024,1.67915 7.07593,5.00981 0.56663,3.33757 -1.67224,6.5024 -5.00981,7.07593 -3.33757,0.57354 -6.5093,-1.67224 -7.07593,-5.00981 z m -40.01633,1.53404 c -2.39089,2.39089 -6.27436,2.39089 -8.66525,0 -2.39089,-2.39089 -2.39089,-6.27436 0,-8.66525 2.39089,-2.39089 6.27436,-2.39089 8.66525,0 2.39089,2.39089 2.39089,6.27436 0,8.66525 z m 26.07868,26.08559 c -2.39089,2.39089 -6.27436,2.39089 -8.66525,0 -2.39089,-2.3909 -2.39089,-6.27437 0,-8.66526 2.39089,-2.39089 6.27436,-2.39089 8.66525,0 2.3978,2.39089 2.3978,6.26745 0,8.66526 z"
   id="path2998"
   style="fill:#34bcc7;fill-opacity:1;stroke-width:0.691009" />
	<g
   id="g3004"
   transform="matrix(0.69100893,0,0,0.69100893,21.71203,21.700443)">
		<path
   class="st2"
   d="m 222.58,178.91 c -0.21,4.9 -4.34,8.7 -9.24,8.49 -4.9,-0.21 -8.69,-4.34 -8.49,-9.24 0.21,-4.9 4.34,-8.7 9.24,-8.49 4.9,0.21 8.7,4.34 8.49,9.24 z m 20.14,38.86 c -0.82,-4.83 2.43,-9.41 7.25,-10.24 4.83,-0.82 9.41,2.43 10.24,7.25 0.82,4.83 -2.42,9.41 -7.25,10.24 -4.83,0.83 -9.42,-2.42 -10.24,-7.25 z m -57.91,2.22 c -3.46,3.46 -9.08,3.46 -12.54,0 -3.46,-3.46 -3.46,-9.08 0,-12.54 3.46,-3.46 9.08,-3.46 12.54,0 3.46,3.46 3.46,9.08 0,12.54 z m 37.74,37.75 c -3.46,3.46 -9.08,3.46 -12.54,0 -3.46,-3.46 -3.46,-9.08 0,-12.54 3.46,-3.46 9.08,-3.46 12.54,0 3.47,3.46 3.47,9.07 0,12.54 z"
   id="path3000" />
		<path
   class="st0"
   d="m 216.28,266.64 c -4.05,0 -7.86,-1.58 -10.73,-4.44 -5.91,-5.91 -5.91,-15.54 0,-21.45 5.92,-5.92 15.54,-5.91 21.46,0 5.91,5.92 5.91,15.54 0,21.46 v 0 c -2.87,2.85 -6.68,4.43 -10.73,4.43 z m 0,-17.74 c -0.66,0 -1.32,0.25 -1.82,0.75 -1,1 -1,2.63 0,3.63 0.66,0.66 1.42,0.75 1.82,0.75 0.4,0 1.16,-0.1 1.82,-0.75 0,0 0,0 0,0 1,-1 1,-2.63 0,-3.64 -0.5,-0.49 -1.16,-0.74 -1.82,-0.74 z m 35.15,-17.44 c -3.11,0 -6.15,-0.96 -8.74,-2.8 -3.31,-2.34 -5.5,-5.83 -6.18,-9.83 v 0 c -0.68,-3.99 0.23,-8.01 2.58,-11.32 2.35,-3.31 5.83,-5.5 9.83,-6.18 3.99,-0.68 8.02,0.23 11.32,2.58 3.31,2.34 5.5,5.83 6.18,9.83 0.68,3.99 -0.23,8.01 -2.58,11.32 -2.34,3.31 -5.83,5.5 -9.83,6.18 -0.86,0.14 -1.72,0.22 -2.58,0.22 z m 0.04,-17.75 c -0.14,0 -0.29,0.01 -0.44,0.04 -0.91,0.16 -1.43,0.72 -1.66,1.05 -0.23,0.33 -0.59,1 -0.44,1.92 v 0 c 0.16,0.91 0.72,1.44 1.05,1.67 0.32,0.23 1,0.59 1.92,0.44 0.91,-0.16 1.44,-0.72 1.67,-1.05 0.23,-0.32 0.59,-1 0.44,-1.92 -0.15,-0.92 -0.72,-1.44 -1.05,-1.67 -0.28,-0.2 -0.79,-0.48 -1.49,-0.48 z m -72.94,15.17 c -3.89,0 -7.77,-1.48 -10.73,-4.44 -2.87,-2.87 -4.44,-6.68 -4.44,-10.73 0,-4.05 1.58,-7.86 4.44,-10.73 5.91,-5.91 15.54,-5.91 21.45,0 5.91,5.91 5.91,15.54 0,21.45 0,0 0,0 0,0 -2.95,2.97 -6.83,4.45 -10.72,4.45 z m 6.28,-8.89 z m -6.28,-8.84 c -0.66,0 -1.32,0.25 -1.82,0.75 -0.66,0.66 -0.75,1.42 -0.75,1.82 0,0.4 0.1,1.16 0.75,1.82 1,1 2.63,1 3.63,0 v 0 c 1,-1 1,-2.63 0,-3.64 -0.49,-0.5 -1.15,-0.75 -1.81,-0.75 z m 35.2,-17.44 c -0.22,0 -0.44,0 -0.65,-0.01 -4.05,-0.17 -7.79,-1.91 -10.53,-4.89 -2.74,-2.98 -4.16,-6.86 -3.99,-10.9 0.35,-8.36 7.43,-14.88 15.8,-14.52 8.36,0.35 14.87,7.44 14.52,15.8 -0.17,4.05 -1.91,7.79 -4.89,10.53 -2.83,2.58 -6.45,3.99 -10.26,3.99 z m -0.02,-17.75 c -0.86,0 -1.45,0.42 -1.73,0.68 -0.29,0.27 -0.79,0.86 -0.83,1.78 -0.06,1.42 1.04,2.62 2.46,2.68 0.93,0.04 1.56,-0.41 1.85,-0.68 0.29,-0.27 0.79,-0.86 0.83,-1.78 0.04,-0.93 -0.41,-1.56 -0.68,-1.85 -0.27,-0.29 -0.86,-0.79 -1.78,-0.83 -0.04,0.01 -0.08,0 -0.12,0 z"
   id="path3002"
   style="fill:#34bcc7;fill-opacity:1" />
	</g>
	<path
   class="st1"
   d="m 118.57766,270.27709 c -12.37597,0 -24.751938,-4.71268 -34.1773,-14.13114 v 0 c -18.843813,-18.84381 -18.843813,-49.50388 0,-68.3546 L 187.80985,84.388773 C 196.93808,75.260545 209.07219,70.23 221.98715,70.23 c 12.90805,0 25.04907,5.030545 34.1773,14.158773 9.12823,9.128228 14.15877,21.262347 14.15877,34.177297 0,12.91496 -5.03054,25.04908 -14.15877,34.17731 l -103.4164,103.40257 c -9.41845,9.42537 -21.79442,14.13114 -34.17039,14.13114 z M 90.55725,249.98906 c 15.45096,15.45096 40.58986,15.45096 56.04082,0 L 250.00065,146.58649 c 7.48363,-7.48363 11.60204,-17.43416 11.60204,-28.02042 0,-10.58625 -4.11841,-20.536781 -11.60204,-28.020407 -7.48363,-7.483627 -17.43415,-11.60204 -28.02041,-11.60204 -10.58626,0 -20.53679,4.118413 -28.02041,11.60204 L 90.55725,193.95515 c -15.45096,15.44405 -15.45096,40.58295 0,56.03391 z"
   id="path3006"
   style="stroke-width:0.691009" />
	<path
   class="st0"
   d="M 97.957956,166.30097 84.40036,152.74338 c -18.836903,-18.84382 -18.836903,-49.51079 0,-68.354607 C 93.528588,75.260545 105.66271,70.23 118.57766,70.23 c 12.91496,0 25.04908,5.023635 34.1773,14.158773 l 13.68889,13.688887 -6.15689,6.15689 -13.68889,-13.688887 c -7.48362,-7.483627 -17.43415,-11.60895 -28.02732,-11.60895 -10.58625,0 -20.529873,4.118413 -28.02041,11.60204 -15.44405,15.450957 -15.44405,40.589867 0,56.040827 l 13.5576,13.55759 z"
   id="path3008"
   style="fill:#34bcc7;fill-opacity:1;stroke-width:0.691009" />
	<path
   class="st0"
   d="m 221.98024,270.27709 c -12.37597,0 -24.75194,-4.71268 -34.17039,-14.13114 l -13.80636,-13.80635 6.15689,-6.15689 13.80636,13.80635 c 15.45096,15.45096 40.58295,15.45096 56.03391,0 15.45096,-15.45096 15.45096,-40.58295 0,-56.03391 l -13.26737,-13.26737 6.15689,-6.15689 13.26737,13.26737 c 18.84381,18.84381 18.84381,49.50388 0,68.34769 -9.42536,9.41846 -21.80133,14.13114 -34.1773,14.13114 z"
   id="path3010"
   style="fill:#34bcc7;fill-opacity:1;stroke-width:0.691009" />
</g>
</svg>
