<?xml version="1.0" encoding="UTF-8" standalone="no"?>
<!-- Generator: Adobe Illustrator 24.1.2, SVG Export Plug-In . SVG Version: 6.00 Build 0)  -->

<svg
   version="1.1"
   id="Warstwa_3"
   x="0px"
   y="0px"
   viewBox="0 0 291.41098 289.73111"
   xml:space="preserve"
   sodipodi:docname="wound.svg"
   inkscape:version="1.2.1 (9c6d41e410, 2022-07-14)"
   width="291.41098"
   height="289.73111"
   xmlns:inkscape="http://www.inkscape.org/namespaces/inkscape"
   xmlns:sodipodi="http://sodipodi.sourceforge.net/DTD/sodipodi-0.dtd"
   xmlns="http://www.w3.org/2000/svg"
   xmlns:svg="http://www.w3.org/2000/svg"><defs
   id="defs3017" /><sodipodi:namedview
   id="namedview3015"
   pagecolor="#ffffff"
   bordercolor="#000000"
   borderopacity="0.25"
   inkscape:showpageshadow="2"
   inkscape:pageopacity="0.0"
   inkscape:pagecheckerboard="0"
   inkscape:deskcolor="#d1d1d1"
   showgrid="false"
   inkscape:zoom="1.1905705"
   inkscape:cx="-68.03461"
   inkscape:cy="186.88519"
   inkscape:window-width="2560"
   inkscape:window-height="1009"
   inkscape:window-x="0"
   inkscape:window-y="0"
   inkscape:window-maximized="1"
   inkscape:current-layer="g3012" />
<style
   type="text/css"
   id="style2996">
	.st0{fill:#08a88a;}
	.st1{fill:#121331;}
	.st2{fill:#08a88a;fill-opacity:0;}
	.st3{fill:none;}
</style>
<g
   id="g3012"
   transform="translate(-69.714477,-70.554411)">
	<path
   class="st0"
   d="m 222.58,178.91 c -0.21,4.9 -4.34,8.7 -9.24,8.49 -4.9,-0.21 -8.69,-4.34 -8.49,-9.24 0.21,-4.9 4.34,-8.7 9.24,-8.49 4.9,0.21 8.7,4.34 8.49,9.24 z m 20.14,38.86 c -0.82,-4.83 2.43,-9.41 7.25,-10.24 4.83,-0.82 9.41,2.43 10.24,7.25 0.82,4.83 -2.42,9.41 -7.25,10.24 -4.83,0.83 -9.42,-2.42 -10.24,-7.25 z m -57.91,2.22 c -3.46,3.46 -9.08,3.46 -12.54,0 -3.46,-3.46 -3.46,-9.08 0,-12.54 3.46,-3.46 9.08,-3.46 12.54,0 3.46,3.46 3.46,9.08 0,12.54 z m 37.74,37.75 c -3.46,3.46 -9.08,3.46 -12.54,0 -3.46,-3.46 -3.46,-9.08 0,-12.54 3.46,-3.46 9.08,-3.46 12.54,0 3.47,3.46 3.47,9.07 0,12.54 z"
   id="path2998"
   style="fill:#34bcc7;fill-opacity:1" />
	<g
   id="g3004">
		<path
   class="st2"
   d="m 222.58,178.91 c -0.21,4.9 -4.34,8.7 -9.24,8.49 -4.9,-0.21 -8.69,-4.34 -8.49,-9.24 0.21,-4.9 4.34,-8.7 9.24,-8.49 4.9,0.21 8.7,4.34 8.49,9.24 z m 20.14,38.86 c -0.82,-4.83 2.43,-9.41 7.25,-10.24 4.83,-0.82 9.41,2.43 10.24,7.25 0.82,4.83 -2.42,9.41 -7.25,10.24 -4.83,0.83 -9.42,-2.42 -10.24,-7.25 z m -57.91,2.22 c -3.46,3.46 -9.08,3.46 -12.54,0 -3.46,-3.46 -3.46,-9.08 0,-12.54 3.46,-3.46 9.08,-3.46 12.54,0 3.46,3.46 3.46,9.08 0,12.54 z m 37.74,37.75 c -3.46,3.46 -9.08,3.46 -12.54,0 -3.46,-3.46 -3.46,-9.08 0,-12.54 3.46,-3.46 9.08,-3.46 12.54,0 3.47,3.46 3.47,9.07 0,12.54 z"
   id="path3000" />
		<path
   class="st0"
   d="m 216.28,266.64 c -4.05,0 -7.86,-1.58 -10.73,-4.44 -5.91,-5.91 -5.91,-15.54 0,-21.45 5.92,-5.92 15.54,-5.91 21.46,0 5.91,5.92 5.91,15.54 0,21.46 v 0 c -2.87,2.85 -6.68,4.43 -10.73,4.43 z m 0,-17.74 c -0.66,0 -1.32,0.25 -1.82,0.75 -1,1 -1,2.63 0,3.63 0.66,0.66 1.42,0.75 1.82,0.75 0.4,0 1.16,-0.1 1.82,-0.75 0,0 0,0 0,0 1,-1 1,-2.63 0,-3.64 -0.5,-0.49 -1.16,-0.74 -1.82,-0.74 z m 35.15,-17.44 c -3.11,0 -6.15,-0.96 -8.74,-2.8 -3.31,-2.34 -5.5,-5.83 -6.18,-9.83 v 0 c -0.68,-3.99 0.23,-8.01 2.58,-11.32 2.35,-3.31 5.83,-5.5 9.83,-6.18 3.99,-0.68 8.02,0.23 11.32,2.58 3.31,2.34 5.5,5.83 6.18,9.83 0.68,3.99 -0.23,8.01 -2.58,11.32 -2.34,3.31 -5.83,5.5 -9.83,6.18 -0.86,0.14 -1.72,0.22 -2.58,0.22 z m 0.04,-17.75 c -0.14,0 -0.29,0.01 -0.44,0.04 -0.91,0.16 -1.43,0.72 -1.66,1.05 -0.23,0.33 -0.59,1 -0.44,1.92 v 0 c 0.16,0.91 0.72,1.44 1.05,1.67 0.32,0.23 1,0.59 1.92,0.44 0.91,-0.16 1.44,-0.72 1.67,-1.05 0.23,-0.32 0.59,-1 0.44,-1.92 -0.15,-0.92 -0.72,-1.44 -1.05,-1.67 -0.28,-0.2 -0.79,-0.48 -1.49,-0.48 z m -72.94,15.17 c -3.89,0 -7.77,-1.48 -10.73,-4.44 -2.87,-2.87 -4.44,-6.68 -4.44,-10.73 0,-4.05 1.58,-7.86 4.44,-10.73 5.91,-5.91 15.54,-5.91 21.45,0 5.91,5.91 5.91,15.54 0,21.45 0,0 0,0 0,0 -2.95,2.97 -6.83,4.45 -10.72,4.45 z m 6.28,-8.89 z m -6.28,-8.84 c -0.66,0 -1.32,0.25 -1.82,0.75 -0.66,0.66 -0.75,1.42 -0.75,1.82 0,0.4 0.1,1.16 0.75,1.82 1,1 2.63,1 3.63,0 v 0 c 1,-1 1,-2.63 0,-3.64 -0.49,-0.5 -1.15,-0.75 -1.81,-0.75 z m 35.2,-17.44 c -0.22,0 -0.44,0 -0.65,-0.01 -4.05,-0.17 -7.79,-1.91 -10.53,-4.89 -2.74,-2.98 -4.16,-6.86 -3.99,-10.9 0.35,-8.36 7.43,-14.88 15.8,-14.52 8.36,0.35 14.87,7.44 14.52,15.8 -0.17,4.05 -1.91,7.79 -4.89,10.53 -2.83,2.58 -6.45,3.99 -10.26,3.99 z m -0.02,-17.75 c -0.86,0 -1.45,0.42 -1.73,0.68 -0.29,0.27 -0.79,0.86 -0.83,1.78 -0.06,1.42 1.04,2.62 2.46,2.68 0.93,0.04 1.56,-0.41 1.85,-0.68 0.29,-0.27 0.79,-0.86 0.83,-1.78 0.04,-0.93 -0.41,-1.56 -0.68,-1.85 -0.27,-0.29 -0.86,-0.79 -1.78,-0.83 -0.04,0.01 -0.08,0 -0.12,0 z"
   id="path3002"
   style="fill:#34bcc7;fill-opacity:1" />
	</g>
	<path
   class="st1"
   d="m 140.18,359.73 c -17.91,0 -35.82,-6.82 -49.46,-20.45 v 0 c -27.27,-27.27 -27.27,-71.64 0,-98.92 L 240.37,90.72 c 13.21,-13.21 30.77,-20.49 49.46,-20.49 18.68,0 36.25,7.28 49.46,20.49 13.21,13.21 20.49,30.77 20.49,49.46 0,18.69 -7.28,36.25 -20.49,49.46 L 189.63,339.28 C 176,352.92 158.09,359.73 140.18,359.73 Z M 99.63,330.37 c 22.36,22.36 58.74,22.36 81.1,0 L 330.37,180.73 c 10.83,-10.83 16.79,-25.23 16.79,-40.55 0,-15.32 -5.96,-29.72 -16.79,-40.55 C 319.54,88.8 305.14,82.84 289.82,82.84 274.5,82.84 260.1,88.8 249.27,99.63 L 99.63,249.28 c -22.36,22.35 -22.36,58.73 0,81.09 z"
   id="path3006" />
	<path
   class="st0"
   d="M 110.34,209.26 90.72,189.64 c -27.26,-27.27 -27.26,-71.65 0,-98.92 13.21,-13.21 30.77,-20.49 49.46,-20.49 18.69,0 36.25,7.27 49.46,20.49 l 19.81,19.81 -8.91,8.91 -19.81,-19.81 C 169.9,88.8 155.5,82.83 140.17,82.83 c -15.32,0 -29.71,5.96 -40.55,16.79 -22.35,22.36 -22.35,58.74 0,81.1 l 19.62,19.62 z"
   id="path3008"
   style="fill:#34bcc7;fill-opacity:1" />
	<path
   class="st0"
   d="m 289.82,359.73 c -17.91,0 -35.82,-6.82 -49.45,-20.45 l -19.98,-19.98 8.91,-8.91 19.98,19.98 c 22.36,22.36 58.73,22.36 81.09,0 22.36,-22.36 22.36,-58.73 0,-81.09 l -19.2,-19.2 8.91,-8.91 19.2,19.2 c 27.27,27.27 27.27,71.64 0,98.91 -13.64,13.63 -31.55,20.45 -49.46,20.45 z"
   id="path3010"
   style="fill:#34bcc7;fill-opacity:1" />
</g>
</svg>
