<?xml version="1.0" encoding="UTF-8" standalone="no"?>
<!-- Created with Inkscape (http://www.inkscape.org/) -->

<svg
   width="1200mm"
   height="628mm"
   viewBox="0 0 1200 628.00002"
   version="1.1"
   id="svg5"
   xml:space="preserve"
   inkscape:version="1.2.1 (9c6d41e410, 2022-07-14)"
   sodipodi:docname="meta-tags.svg"
   inkscape:export-filename="meta-tags.png"
   inkscape:export-xdpi="183.43948"
   inkscape:export-ydpi="183.43948"
   xmlns:inkscape="http://www.inkscape.org/namespaces/inkscape"
   xmlns:sodipodi="http://sodipodi.sourceforge.net/DTD/sodipodi-0.dtd"
   xmlns="http://www.w3.org/2000/svg"
   xmlns:svg="http://www.w3.org/2000/svg"><sodipodi:namedview
     id="namedview7"
     pagecolor="#ffffff"
     bordercolor="#000000"
     borderopacity="0.25"
     inkscape:showpageshadow="2"
     inkscape:pageopacity="0.0"
     inkscape:pagecheckerboard="0"
     inkscape:deskcolor="#d1d1d1"
     inkscape:document-units="mm"
     showgrid="false"
     showguides="true"
     inkscape:zoom="0.14866305"
     inkscape:cx="2472.0332"
     inkscape:cy="1732.1049"
     inkscape:window-width="2560"
     inkscape:window-height="1008"
     inkscape:window-x="0"
     inkscape:window-y="0"
     inkscape:window-maximized="1"
     inkscape:current-layer="layer1"><sodipodi:guide
       position="22.652542,504.66953"
       orientation="1,0"
       id="guide1471"
       inkscape:locked="false" /><sodipodi:guide
       position="152.27542,609.12292"
       orientation="0,-1"
       id="guide1473"
       inkscape:locked="false" /></sodipodi:namedview><defs
     id="defs2"><rect
       x="-651.63219"
       y="827.62045"
       width="3914.5496"
       height="1346.0723"
       id="rect2981" /><clipPath
       clipPathUnits="userSpaceOnUse"
       id="clipPath7645"><path
         d="M 13385.5,1006.9 10755.2,859.5 10409,2689.6 c 0,0 -114.6,-1563.2 -192.5,-1830.1 -819.11,1 -1796.6,38.301 -2434.22,147.4 -17.7,3.1 249.95,4248 248.51,5067.5 -1.37,784.3 3.91,1568.7 13.98,2352.9 9.63,749.8 -43.95,1528.8 75.27,2270.9 97.9,609.4 363.13,1194 1009.73,1255.5 384.4,36.5 770.95,79.1 1158.13,84.4 v 0.9 c 13.8,0.1 27.6,-0.3 41.4,-0.4 13.8,0.1 27.6,0.6 41.4,0.6 v -0.9 c 387.2,-4 773.9,-45.1 1158.4,-80.3 516.8,-47.2 837.1,-482.1 944.6,-977.7 148.9,-686.2 164.9,-1397.7 140.1,-2098.2 -25.6,-717.6 17.5,-1432.9 54.8,-2149.9 44.8,-859.2 34.1,-1722.4 175.4,-2567.2 35.3,-211 496,-3162.2 541.5,-3158.1"
         id="path7643" /></clipPath><clipPath
       clipPathUnits="userSpaceOnUse"
       id="clipPath7719"><path
         d="m 11152.5,12717.6 c -157.5,-135.4 -367.1,-230.8 -551.1,-282.4 -273.7,-76.8 -588.1,-2.1 -832.22,133.2 -403.81,223.8 -432.48,677.5 -538.57,1079.3 l 794.69,209 c 241.6,63.5 495.5,63.5 737,0 l 794.8,-209 c -65.9,-249.4 -105.9,-514.2 -240,-739.2 -41.9,-70.5 -98.7,-134.2 -164.6,-190.9"
         id="path7717" /></clipPath></defs><g
     inkscape:label="Layer 1"
     inkscape:groupmode="layer"
     id="layer1"
     transform="translate(521.00847,-31.461864)"><rect
       style="fill:#632c90;stroke-width:0.264583;fill-opacity:1"
       id="rect681"
       width="1199.3263"
       height="630.49573"
       x="-521.00848"
       y="30.203369"
       transform="translate(7.7083332e-6)" /><g
       id="g1285"
       transform="matrix(0.04327814,0,0,-0.04327814,37.594631,894.2026)"><path
         d="M 8605.2878,8014.04 H 8049.139 v 4843.267 h 556.1488 v -558.986 h -93.4739 V 8273.7385 h 93.4739 V 8014.04"
         style="fill:#cee9e4;fill-opacity:1;fill-rule:nonzero;stroke:none;stroke-width:0.87588"
         id="path7181" /><path
         d="M 10829.839,7406.5304 H 8605.2878 v 867.2081 H 10736.383 V 11726.196 8273.7385 h 93.456 v -867.2081"
         style="fill:#cee9e4;fill-opacity:1;fill-rule:nonzero;stroke:none;stroke-width:0.87588"
         id="path7185" /><path
         d="m 8605.2878,12857.307 v 0 h -903.2689 v 236.75 h 164.2275 739.0414 v -236.75"
         style="fill:#cee9e4;fill-opacity:1;fill-rule:nonzero;stroke:none;stroke-width:0.87588"
         id="path7189" /><path
         d="m 8605.2878,13094.057 v 0 h -739.0414 v 236.752 h 156.7651 582.2763 v -236.752"
         style="fill:#cee9e4;fill-opacity:1;fill-rule:nonzero;stroke:none;stroke-width:0.87588"
         id="path7191" /><path
         d="m 8605.2878,13330.809 v 0 h -582.2763 v 236.749 h 26.1275 556.1488 v -236.749"
         style="fill:#cee9e4;fill-opacity:1;fill-rule:nonzero;stroke:none;stroke-width:0.87588"
         id="path7193" /><path
         d="M 10736.383,8273.7385 H 9624.1028 v 1637.458 h 701.0542 v 236.7515 h -701.0542 v 611.538 h 701.0542 v 236.752 h -701.0542 v 611.539 h 701.0542 v 236.75 h -701.0542 v 453.794 818.685 h 208.985 903.2952 v -1390.81 -3452.4575"
         style="fill:#cee9e4;fill-opacity:1;fill-rule:nonzero;stroke:none;stroke-width:0.87588"
         id="path7195" /><path
         d="M 9624.1028,8273.7385 H 8511.8139 v 4024.5825 h 1112.2889 v -453.794 h -761.2187 v -236.75 h 761.2187 v -611.539 h -761.2187 v -236.752 h 761.2187 v -611.538 h -761.2187 v -236.7515 h 761.2187 v -1637.458"
         style="fill:#cee9e4;fill-opacity:1;fill-rule:nonzero;stroke:none;stroke-width:0.87588"
         id="path7197" /><path
         d="m 10736.383,13117.006 v 0 h -903.2952 v 236.75 h 164.2275 739.0677 v -236.75"
         style="fill:#cee9e4;fill-opacity:1;fill-rule:nonzero;stroke:none;stroke-width:0.87588"
         id="path7201" /><path
         d="m 10736.383,13353.756 v 0 h -739.0677 v 236.751 h 156.7827 582.285 v -236.751"
         style="fill:#cee9e4;fill-opacity:1;fill-rule:nonzero;stroke:none;stroke-width:0.87588"
         id="path7203" /><path
         d="m 10154.098,13590.507 h 582.282 v 236.743 h -582.282 z"
         style="fill:#cee9e4;fill-opacity:1;fill-rule:nonzero;stroke:none;stroke-width:0.87588"
         id="path7205" /><path
         d="M 10325.157,11607.777 H 8862.8841 v 236.75 h 1462.2729 v -236.75"
         style="fill:#cee9e4;fill-opacity:1;fill-rule:nonzero;stroke:none;stroke-width:0.87588"
         id="path7225" /><path
         d="M 10325.157,10759.486 H 8862.8841 v 236.752 h 1462.2729 v -236.752"
         style="fill:#cee9e4;fill-opacity:1;fill-rule:nonzero;stroke:none;stroke-width:0.87588"
         id="path7227" /><path
         d="M 10325.157,9911.1965 H 8862.8841 v 236.7515 h 1462.2729 v -236.7515"
         style="fill:#cee9e4;fill-opacity:1;fill-rule:nonzero;stroke:none;stroke-width:0.87588"
         id="path7229" /><path
         d="m 12064.305,13486.277 c -410.437,-167.556 -927.908,-116.843 -1290.347,140.928 -364.278,259.174 -698.339,449.677 -1161.154,463.428 -287.4639,8.497 -556.9634,-111.761 -830.8688,-180.343 -240.8057,-60.435 -424.7579,-253.829 -684.325,-289.39 -341.1641,-46.773 -691.5688,163.001 -844.9879,471.31 -153.4366,308.31 -119.9342,692.034 51.7207,990.533 125.3034,217.92 240.5343,380.571 99.719,623.452 -30.6821,52.991 -69.2296,101.953 -90.2419,159.41 -19.8299,54.217 -22.8956,113.164 -20.5657,170.885 12.7002,314.791 251.1411,550.752 410.0345,810.714 37.1373,60.786 74.4586,123.85 85.6786,194.183 28.5361,178.942 -113.6804,333.622 -189.4967,498.287 -245.6143,533.324 173.547,1140.046 581.5056,1460.093 240.6831,188.84 529.1629,265.041 788.7476,418.846 118.2088,70.07 225.9858,156.871 345.6311,224.488 208.547,117.894 435.838,122.974 667.5083,90.479 659.7126,-92.494 1409.7296,-572.038 1562.6576,-1262.319 103.617,-467.808 -66.042,-1011.729 397.386,-1339.308 139.615,-98.625 315.93,-157.308 411.139,-299.288 202.328,-301.741 -94.945,-748.616 90.128,-1061.305 41.254,-69.72 102.915,-124.55 159.06,-182.971 296.134,-308.31 449.064,-749.053 407.372,-1174.642 -10.16,-103.793 -31.97,-208.46 -83.209,-299.377 -70.508,-124.725 -189.803,-213.014 -306.471,-296.222 -174.562,-124.55 -352.716,-247.525 -550.84,-329.506 -1.928,-0.788 -3.855,-1.576 -5.781,-2.365"
         style="fill:#ffd42a;fill-opacity:1;fill-rule:nonzero;stroke:none;stroke-width:0.87588"
         id="path7625" /><path
         d="m 11194.993,15536.624 c 25.751,-170.621 6.22,-345.972 -68.581,-501.791 -201.978,-420.248 -702.018,-502.142 -1123.579,-518.522 -156.0815,-6.131 -312.9516,1.752 -467.5444,24.701 -137.6009,20.582 -260.3116,-0.351 -399.4889,2.803 -274.9738,6.306 -548.45,87.412 -780.8034,234.997 -113.0148,71.823 -219.4518,162.477 -277.4437,283.085 -79.7139,165.893 -56.5119,361.914 -14.3383,541.119 24.3495,103.441 54.9001,206.62 108.031,298.676 56.836,98.449 138.3891,182.095 185.7568,285.448 89.0245,194.271 15.8622,421.387 95.0067,611.89 61.986,149.251 217.8225,317.682 347.12,410.964 175.9555,126.914 402.975,167.03 619.4049,152.315 216.43,-14.715 425.9406,-79.968 632.2103,-147.41 162.388,-53.079 301.916,-20.233 421.036,-154.418 94.419,-106.244 61.399,-279.843 91.617,-408.598 101.427,-433.298 563.278,-661.903 631.596,-1115.259"
         style="fill:#aa8800;fill-opacity:1;fill-rule:nonzero;stroke:none;stroke-width:0.87588"
         id="path7627" /><path
         d="m 7252.4646,14682.028 c 251.5791,300.252 540.1729,594.636 936.5787,682.136 231.2761,51.064 641.5209,36.699 679.1662,-262.151 21.0124,-166.855 -121.8963,-305.682 -216.7716,-447.4 -105.491,-157.571 -164.3589,-344.572 -246.8668,-513.878 -165.4537,-339.667 -418.951,-618.373 -632.4993,-929.222 -237.4424,-345.709 -410.1922,-737.841 -655.5613,-1074.705 -189.1112,-259.61 -442.3281,-536.039 -744.9273,-667.771 -250.5893,-109.135 -568.5425,-87.237 -697.3407,177.366 -114.2848,234.824 -76.4994,543.134 8.8376,783.912 60.0329,169.484 175.0447,307.784 286.7719,446.875 142.5058,177.365 257.9029,368.745 380.754,558.899 277.5663,429.62 572.4489,852.757 901.8586,1245.939"
         style="fill:#ffffff;fill-opacity:1;fill-rule:nonzero;stroke:none;stroke-width:0.87588"
         id="path7629" /><path
         d="m 12452.582,11331.874 c -399.051,21.897 -877.632,462.115 -1080.66,717.959 -604.533,761.841 -1436.2686,1738.972 -1392.7374,2763.84 4.5546,107.908 21.1964,219.583 80.8434,309.712 331.433,500.827 1307.777,68.493 1603.825,-250.239 290.266,-312.602 477.792,-696.413 668.471,-1073.217 208.985,-412.978 417.357,-829.808 555.483,-1273.179 74.887,-240.429 164.753,-574.14 67.181,-819.035 -114.916,-288.604 -298.238,-386.964 -502.406,-375.841"
         style="fill:#ffffff;fill-opacity:1;fill-rule:nonzero;stroke:none;stroke-width:0.87588"
         id="path7631" /><path
         d="m 11503.216,4026.3326 c 8.321,-987.0285 -40.992,-1781.1891 -32.846,-3017.7566 1.139,-172.63586 5.518,-345.18434 9.198,-517.73269 2.189,-101.07661 35.56,-328.27992 -45.896,-405.357367 -22.074,-20.9335 -51.765,-31.35648 -80.67,-40.99112 -189.628,-63.15102 -385.212,-113.426526 -584.825,-123.323907 -221.422,-10.94858 -430.845,46.50918 -633.962,126.564627 -4.291,1.6642 -8.758,3.5036 -11.649,7.09459 -3.416,4.20426 -4.117,9.89751 -4.642,15.3279 -11.562,123.761967 -8.759,241.918087 -9.022,364.979257 -0.438,225.88951 -5.08,451.77902 -13.138,677.58081 -16.116,451.5163 -46.159,902.4193 -84.96,1352.5342 -77.8659,902.1566 -190.7668,1800.7228 -298.2373,2699.7279 -83.7341,700.9642 -164.4027,1402.6325 -222.386,2106.3145 -54.5672,662.0771 -267.3187,1288.1559 -238.8525,1961.358 11.474,271.2598 60.7861,564.4176 259.0854,749.7528 224.2253,209.5995 565.0304,216.7815 871.7634,206.7965 809.4,-26.539 1004.635,-776.0307 1102.821,-1417.4371 117.367,-766.7459 52.64,-1617.225 23.561,-2392.3795 -29.342,-783.5606 -12,-1567.8262 -5.343,-2353.0528"
         style="fill:#0b2d4e;fill-opacity:1;fill-rule:nonzero;stroke:none;stroke-width:0.87588"
         id="path7633" /><path
         d="m 7738.8497,957.77502 c 4.0115,-295.17156 10.9397,-589.11701 14.7585,-885.164457 0.1927,-14.45204 0.6307,-29.86747 8.5223,-42.04232 6.6743,-10.33531 17.7804,-16.8169 28.6851,-22.4224901 C 7962.8209,-81.01888 9137.3762,-173.86217 9124.746,136.90018 c -22.5801,553.55616 -18.8577,1107.90082 1.7693,1661.45692 48.0858,1290.0839 188.1391,2574.0375 301.5655,3859.3915 86.8873,984.4879 156.4322,1970.6418 206.6202,2957.7592 32.3199,637.5532 4.2041,1434.3422 -767.8403,1583.4152 -457.9014,88.465 -1071.5168,-346.9358 -1208.4518,-792.7583 -272.1011,-885.8657 -226.6954,-1442.487 -187.7712,-2359.8846 40.0802,-944.4611 135.7789,-2127.2477 153.4716,-3072.6746 18.4549,-986.8542 89.3574,-1779.3506 114.7404,-3015.83048"
         style="fill:#0b2d4e;fill-opacity:1;fill-rule:nonzero;stroke:none;stroke-width:0.87588"
         id="path7635" /><path
         d="M 12091.194,5771.6998 9787.3668,5642.595 9484.1371,7245.5434 c 0,0 -100.3758,-1369.176 -168.6068,-1602.9484 -717.4422,0.8759 -1573.6063,33.5471 -2132.0937,129.1048 -15.4944,2.7152 218.9349,3720.7384 217.6737,4438.5222 -1.2,686.953 3.4246,1373.993 12.2448,2060.858 8.4346,656.736 -38.4949,1339.046 65.9362,1989.037 85.74,533.761 318.0496,1045.8 884.3937,1099.667 336.6884,31.969 675.2599,69.282 1014.383,73.925 v 0.788 c 12.0872,0.09 24.1744,-0.263 36.2616,-0.35 12.087,0.08 24.1742,0.526 36.2614,0.526 v -0.789 c 339.1408,-3.504 677.844,-39.59 1014.619,-70.334 452.655,-41.341 733.2,-422.261 827.357,-856.348 130.419,-601.029 144.432,-1224.217 122.622,-1837.771 -22.334,-628.532 15.416,-1255.048 48.087,-1883.054 39.239,-752.556 29.867,-1508.6167 153.629,-2248.5607 30.919,-184.8096 434.436,-2769.7076 474.289,-2766.1165"
         style="fill:#ffffff;fill-opacity:1;fill-rule:nonzero;stroke:none;stroke-width:0.87588"
         id="path7637" /><g
         id="g7639"
         transform="matrix(0.87588014,0,0,0.87588014,367.10088,4889.7761)"><g
           id="g7641"
           clip-path="url(#clipPath7645)"><path
             d="m 9474.59,12262.4 821.51,-3480.5 1126.8,3621.7 z"
             style="fill:#2592a9;fill-opacity:1;fill-rule:nonzero;stroke:none"
             id="path7647" /><path
             d="m 9508.74,12264.5 750.96,-790.2 135.8,-492.8 156,463.5 929.3,819.5 H 9508.74"
             style="fill:#f8a17a;fill-opacity:1;fill-rule:nonzero;stroke:none"
             id="path7649" /><path
             d="m 10281.1,8781.6 134,-6813.7 30,0.6 -134,6813.7"
             style="fill:#b7c6ca;fill-opacity:1;fill-rule:nonzero;stroke:none"
             id="path7651" /></g></g><path
         d="m 10202.009,15497.035 c 64.026,-39.59 116.842,-84.436 166.679,-141.455 49.838,-56.931 96.61,-126.389 146.448,-214.241 73.311,-129.104 123.849,-269.507 160.548,-415.78 36.7,-146.359 59.56,-298.412 77.691,-450.29 39.765,-332.133 59.647,-666.545 59.647,-1000.955 0,-181.22 -5.868,-362.439 -17.517,-543.308 l 96.171,-6.22 c 11.825,182.885 17.693,366.206 17.693,549.528 0,338.265 -20.145,676.529 -60.26,1012.342 -18.481,153.804 -41.692,309.886 -79.968,462.377 -38.276,152.403 -91.53,301.215 -170.184,439.867 -51.852,91.266 -102.04,166.33 -157.658,230.094 -55.619,63.764 -116.842,115.791 -188.665,160.024 l -50.625,-81.983"
         style="fill:#515151;fill-opacity:1;fill-rule:nonzero;stroke:none;stroke-width:0.87588"
         id="path7653" /><path
         d="m 8631.135,15586.724 c -93.6666,-59.997 -176.5248,-135.76 -249.5295,-221.422 -109.5112,-128.491 -197.0205,-279.405 -265.8471,-435.136 -68.8004,-155.82 -118.8744,-316.456 -152.736,-465.181 -51.7996,-227.291 -78.2687,-411.05 -91.5995,-595.072 -13.3397,-184.023 -13.6375,-367.695 -13.655,-596.563 h 96.3469 c 0,228.868 0.3853,410.263 13.4009,589.643 13.0331,179.38 38.5737,357.184 89.4448,580.62 43.4612,191.03 115.1082,403.256 218.6635,594.023 51.7558,95.471 111.4558,185.599 179.3102,265.217 67.8632,79.617 143.8196,148.724 228.1844,202.765 l -51.9836,81.106"
         style="fill:#515151;fill-opacity:1;fill-rule:nonzero;stroke:none;stroke-width:0.87588"
         id="path7655" /><path
         d="m 8243.5318,12768.581 c -4.1867,-78.128 -18.9191,-159.322 -36.2265,-239.992 -17.2898,-80.755 -37.1197,-160.899 -50.8623,-237.627 -56.5906,-316.718 -113.1811,-633.347 -169.7719,-950.065 -20.9597,-117.632 -46.7106,-240.518 -91.1528,-346.5 -22.186,-53.078 -48.9354,-101.776 -81.6232,-143.819 -32.7317,-42.042 -71.2267,-77.603 -117.876,-105.105 -37.9169,-22.336 -78.2599,-37.488 -120.8977,-47.21 -42.6116,-9.723 -87.5093,-13.84 -133.8695,-13.84 -102.8547,0 -212.6287,20.496 -318.3562,42.744 l -17.9468,-85.748 c 106.9274,-22.336 222.0006,-44.495 336.303,-44.583 51.5192,0 102.951,4.554 153.2702,16.029 50.3106,11.386 99.5263,29.78 145.9742,57.194 57.0548,33.547 104.0546,77.166 142.567,126.828 57.8081,74.45 96.9336,162.125 125.9516,253.217 28.9828,91.092 47.8668,185.861 63.8779,275.377 56.5906,316.718 113.1812,633.349 169.7718,950.067 12.9894,72.785 32.6003,152.228 50.2844,234.648 17.649,82.421 33.406,167.906 38.0481,253.655 l -87.4653,4.73"
         style="fill:#8f8f8f;fill-opacity:1;fill-rule:nonzero;stroke:none;stroke-width:0.87588"
         id="path7657" /><path
         d="m 7591.3252,12722.509 c -8.8727,59.123 -17.2023,119.471 -17.1673,176.49 -0.013,35.561 3.1882,69.72 10.9923,101.69 7.8216,31.969 20.1102,61.662 38.749,89.515 28.2997,42.13 69.3696,76.027 117.1314,99.324 47.6917,23.211 101.8473,35.649 154.2513,35.649 10.3879,0 20.697,-0.526 30.8748,-1.489 51.5717,-4.906 101.5932,-21.897 145.1508,-48.961 43.5751,-26.977 80.5897,-63.765 106.7785,-108.085 22.7992,-38.538 38.2585,-79.004 48.1559,-121.396 9.8887,-42.393 14.128,-86.8 14.128,-132.697 0,-14.451 -0.4204,-28.991 -1.2087,-43.706 l 96.2066,-5.168 c 0.8758,16.292 1.3488,32.583 1.3488,48.874 0,51.765 -4.7735,103.617 -16.6417,154.594 -11.8506,50.888 -30.8923,100.901 -59.0693,148.549 -34.5448,58.42 -82.8407,106.157 -138.9496,140.929 -56.1265,34.772 -120.162,56.669 -186.8165,62.976 -13.2696,1.226 -26.6092,1.927 -39.9576,1.927 -67.3815,-0.09 -135.2272,-15.591 -196.4424,-45.371 -61.1365,-29.867 -115.8703,-74.1 -154.9433,-132.258 -25.6019,-38.188 -42.2787,-79.005 -52.3512,-120.433 -10.0903,-41.342 -13.7252,-83.208 -13.7339,-124.463 0.035,-66.217 9.3282,-131.031 18.2271,-190.767 l 95.287,14.277"
         style="fill:#515151;fill-opacity:1;fill-rule:nonzero;stroke:none;stroke-width:0.87588"
         id="path7659" /><path
         d="m 8639.0793,10703.606 c -98.2913,-17.693 -199.9723,-33.984 -296.0125,-33.897 -50.7572,0 -99.8591,4.467 -146.1581,15.327 -46.3253,10.862 -89.8215,27.854 -130.1997,53.255 -45.8434,28.816 -83.3137,65.428 -114.8278,108.434 -47.2187,64.464 -80.6247,143.557 -105.167,229.217 -24.5859,85.487 -40.3167,177.191 -53.5513,265.83 -68.7215,460.012 -137.4431,920.025 -206.1733,1380.036 l -86.6246,-12.874 c 68.7303,-460.101 137.4431,-920.114 206.1735,-1380.125 17.973,-119.908 40.6058,-249.276 86.134,-367.519 22.7991,-59.122 51.423,-115.617 88.534,-166.33 37.0847,-50.626 82.8145,-95.558 138.8883,-130.856 49.4785,-31.095 102.5042,-51.677 156.8789,-64.377 54.4096,-12.701 110.2032,-17.606 166.0931,-17.606 105.7537,0 212.1119,17.43 311.5068,35.298 l -15.4943,86.187"
         style="fill:#8f8f8f;fill-opacity:1;fill-rule:nonzero;stroke:none;stroke-width:0.87588"
         id="path7661" /><path
         d="m 11215.752,12652.876 c 14.977,-195.846 -131.645,-366.731 -327.492,-381.707 -195.759,-14.979 -366.643,131.644 -381.62,327.491 -14.978,195.847 131.644,366.731 327.491,381.709 195.759,14.89 366.644,-131.733 381.621,-327.493"
         style="fill:#cad1d8;fill-opacity:1;fill-rule:nonzero;stroke:none;stroke-width:0.87588"
         id="path7663" /><path
         d="m 11024.547,12638.25 c 6.92,-90.216 -60.61,-168.957 -150.826,-175.877 -90.303,-6.92 -168.957,60.698 -175.877,150.914 -6.919,90.215 60.611,168.958 150.827,175.789 90.215,6.92 168.957,-60.611 175.876,-150.826"
         style="fill:#8b8b8c;fill-opacity:1;fill-rule:nonzero;stroke:none;stroke-width:0.87588"
         id="path7665" /><path
         d="m 7224.0861,10684.248 c 0,-60.786 -49.3208,-110.097 -110.1594,-110.097 -60.8386,0 -110.1594,49.311 -110.1594,110.097 0,60.874 49.3208,110.186 110.1594,110.186 60.8386,0 110.1594,-49.312 110.1594,-110.186"
         style="fill:#515151;fill-opacity:1;fill-rule:nonzero;stroke:none;stroke-width:0.87588"
         id="path7667" /><path
         d="m 8767.2818,10684.248 c 0,-60.786 -49.312,-110.097 -110.1595,-110.097 -60.8386,0 -110.1594,49.311 -110.1594,110.097 0,60.874 49.3208,110.186 110.1594,110.186 60.8475,0 110.1595,-49.312 110.1595,-110.186"
         style="fill:#515151;fill-opacity:1;fill-rule:nonzero;stroke:none;stroke-width:0.87588"
         id="path7669" /><path
         d="m 6484.8696,13291.043 c 14.0141,-177.541 27.0385,-355.082 36.165,-532.798 11.9997,-233.509 14.566,-469.472 -19.3043,-702.543 -26.2326,-180.607 -49.1545,-401.504 -228.4909,-498.375 -85.8187,-46.422 -185.3975,-60.173 -281.6918,-56.671 -206.1646,7.446 -406.7325,98.625 -456.2372,304.193 -60.4883,251.203 -78.6365,482.085 -67.3026,742.834 19.646,452.304 70.2893,904.084 104.7552,1355.163 31.2077,408.685 48.5939,820.261 151.8339,1220.889 37.5578,145.747 102.8283,279.581 257.0183,325.477 126.4771,37.575 271.1549,0.613 329.5323,-122.973 84.8028,-179.557 88.5165,-392.395 86.1253,-589.292 -2.6276,-215.555 15.1965,-432.686 27.8179,-648.064 15.6171,-266.181 38.8015,-531.922 59.7789,-797.84"
         style="fill:#f8a17a;fill-opacity:1;fill-rule:nonzero;stroke:none;stroke-width:0.87588"
         id="path7671" /><path
         d="m 9013.2815,15292.078 c 323.7077,-79.967 663.0238,-102.653 971.3336,21.197 33.1959,13.313 67.5299,29.693 87.7629,61.049 52.115,80.756 -61.574,251.114 -81.4567,331.082 -36.0862,144.871 -32.5827,294.034 -28.8164,441.357 4.3795,171.935 5.6056,344.308 14.3645,515.981 -178.154,35.998 -322.6743,54.042 -511.8643,46.596 -156.5198,-6.218 -312.8645,9.46 -469.3668,0.614 -12.5951,-0.701 -26.2501,-1.927 -35.1577,-9.897 -8.9603,-7.971 -10.607,-20.584 -11.6492,-32.234 -20.9861,-232.195 -0.368,-467.281 -16.8169,-699.915 -9.1968,-130.155 -25.6634,-278.968 -80.6773,-399.752 -20.1804,-44.232 -101.4182,-156.081 -59.3496,-204.08 10.0725,-11.474 24.8311,-16.378 38.8978,-20.758 60.1553,-18.744 121.1955,-36.086 182.7961,-51.24"
         style="fill:#f8a17a;fill-opacity:1;fill-rule:nonzero;stroke:none;stroke-width:0.87588"
         id="path7673" /><path
         d="m 9983.7392,15736.763 c -28.1157,134.536 -20.7584,275.552 -17.3425,411.927 4.3795,171.935 5.6933,344.308 14.3645,515.98 -178.154,36 -322.5866,54.043 -511.7768,46.597 -156.6073,-6.218 -312.9519,9.46 -469.4192,0.613 -12.5864,-0.7 -26.2413,-1.926 -35.1577,-9.897 -8.9516,-8.058 -10.5895,-20.583 -11.6493,-32.232 -20.9774,-232.196 -0.3591,-467.282 -16.7993,-699.916 -4.7211,-66.655 -13.4099,-133.221 -26.3115,-198.913 24.586,-20.583 49.5836,-40.29 75.3169,-58.509 193.228,-136.462 453.7147,-181.832 684.947,-119.118 117.5432,31.881 218.8825,79.003 313.8279,143.468"
         style="fill:#e5785c;fill-opacity:1;fill-rule:nonzero;stroke:none;stroke-width:0.87588"
         id="path7675" /><path
         d="m 9607.5487,14914.224 521.1483,-426.465 505.12,893.572 -436.538,258.122 -589.7303,-725.229"
         style="fill:#00afcd;fill-opacity:1;fill-rule:nonzero;stroke:none;stroke-width:0.87588"
         id="path7677" /><path
         d="m 9339.7045,14939.888 -542.3362,-415.431 -521.9544,856.874 436.5561,258.122 627.7345,-699.565"
         style="fill:#00afcd;fill-opacity:1;fill-rule:nonzero;stroke:none;stroke-width:0.87588"
         id="path7679" /><path
         d="m 6222.4647,17015.373 c -33.3536,-235.437 -5.5181,-478.844 -7.0422,-715.857 -42.6553,10.073 -86.8873,20.233 -129.9455,12 -43.0494,-8.321 -84.7764,-40.466 -89.5412,-84.085 -45.1692,21.459 -100.7349,19.444 -144.2136,-5.255 -43.4788,-24.701 -73.7142,-71.385 -78.4701,-121.134 -58.4213,32.758 -136.795,25.225 -187.9464,-17.956 -80.7387,-68.23 -62.897,-210.124 -59.2359,-305.244 4.9313,-127.791 20.7409,-255.582 51.0989,-379.957 58.2286,-238.678 172.5134,-467.719 361.5545,-629.232 19.6286,-16.816 42.6642,-33.634 68.3975,-31.619 27.5026,2.102 48.2698,24.874 65.7262,46.246 136.8124,167.468 256.9218,348.601 357.9722,539.805 46.5967,88.201 89.8477,180.87 99.2196,280.194 9.3807,99.325 -21.2401,190.767 -27.2223,287.814 -6.972,113.252 -13.7776,226.416 -20.3205,339.666 -8.0055,138.652 -15.6519,277.216 -22.948,415.869 -5.0101,95.296 13.7426,533.761 -162.213,494.17 -50.7047,-11.473 -67.5829,-73.923 -74.8702,-125.425"
         style="fill:#f8a17a;fill-opacity:1;fill-rule:nonzero;stroke:none;stroke-width:0.87588"
         id="path7681" /><path
         d="m 6199.9983,15264.489 c 56.5468,137.25 147.3406,260.136 261.8619,354.556 10.677,8.758 22.4664,19.007 23.2634,32.846 0.8934,15.678 -12.7003,27.939 -25.3305,37.312 0,24.349 -127.7646,71.997 -149.8105,85.399 -21.0737,-52.203 -58.211,-100.728 -110.6324,-121.134 -52.4214,-20.409 -120.6525,-4.555 -148.0763,44.494 -42.6991,-66.392 -123.7532,-106.157 -202.4509,-99.237 61.6094,-53.867 141.4633,-80.319 204.3165,-135.236 62.6079,-54.743 113.4703,-122.624 146.8588,-199"
         style="fill:#e5785c;fill-opacity:1;fill-rule:nonzero;stroke:none;stroke-width:0.87588"
         id="path7683" /><path
         d="m 6358.6115,15684.385 c -47.6742,51.852 -117.4556,76.815 -173.4768,119.471 -56.0214,42.655 -98.9745,121.66 -63.0196,182.183 35.4468,59.734 122.2291,61.135 188.4281,40.115 57.738,-18.306 111.2893,-47.56 164.4202,-76.639 131.0229,-71.823 301.6006,-143.119 303.3436,-320.135 0.7182,-73.486 -27.6603,-144.17 -61.3029,-209.51 -116.3695,-226.064 -303.0983,-415.255 -527.5952,-534.638 -49.6712,108.435 13.3397,233.598 82.4292,330.908 89.9353,126.564 220.4152,322.936 86.7734,468.245"
         style="fill:#f8a17a;fill-opacity:1;fill-rule:nonzero;stroke:none;stroke-width:0.87588"
         id="path7685" /><path
         d="m 13657.18,11149.692 c 2.716,15.152 3.942,30.567 3.504,46.245 -5.956,188.841 -228.606,239.729 -373.651,184.987 -106.945,-40.291 -246.998,-141.894 -333.36,-216.693 -125.776,-108.96 -281.244,-261.013 -335.725,-422.174 -3.766,-11.125 -7.095,-23.124 -3.766,-34.423 7.446,-25.312 40.728,-30.042 67.092,-29.867 150.388,0.7 300.778,1.402 451.166,2.102 68.669,0.263 139.879,1.139 202.153,30.217 40.729,19.007 75.326,49.138 105.631,82.422 46.16,50.888 83.384,111.761 122.361,168.081 40.466,58.158 82.245,120.871 94.595,189.103"
         style="fill:#e5785c;fill-opacity:1;fill-rule:nonzero;stroke:none;stroke-width:0.87588"
         id="path7687" /><path
         d="m 12996.504,14290.598 -2746.673,-2299.361 -38.013,-145.22 4540.562,226.94 38.014,145.221 -1793.89,2072.42"
         style="fill:#d6322d;fill-opacity:1;fill-rule:nonzero;stroke:none;stroke-width:0.87588"
         id="path7689" /><path
         d="m 12958.579,14145.465 -2746.761,-2299.448 1584.468,-1938.9365 2956.094,2165.8765 -1793.801,2072.508"
         style="fill:#e5534a;fill-opacity:1;fill-rule:nonzero;stroke:none;stroke-width:0.87588"
         id="path7691" /><path
         d="m 13658.144,11239.556 c -1.577,-32.669 -16.029,-64.814 -44.233,-80.317 -19.269,-10.599 -43.005,-12.7 -60.173,-26.364 -36.173,-28.73 -41.254,-86.538 -77.778,-115.88 -37.137,-29.955 -81.368,-16.991 -121.221,-36.524 -62.538,-30.744 -48.612,-141.542 -112.989,-168.344 -35.385,-14.802 -79.968,4.467 -112.463,-15.853 -17.429,-10.861 -27.065,-30.743 -42.83,-43.794 -27.24,-22.423 -68.494,-20.233 -99.85,-4.204 -31.445,16.203 -55.181,43.619 -78.13,70.421 -57.895,67.617 -115.878,135.236 -173.774,202.853 -37.75,44.057 -82.858,100.288 -75.501,161.338 3.678,31.356 93.895,113.25 94.683,106.681 -6.393,53.429 -50.188,100.901 -41.78,153.981 8.321,52.902 63.239,83.295 111.851,105.718 -38.276,11.999 -57.546,59.997 -45.634,98.274 11.912,38.276 48.086,65.427 86.887,75.764 38.802,10.247 79.968,6.043 119.295,-1.577 -34.246,19.532 -34.859,72.785 -10.16,103.442 24.699,30.742 65.34,43.355 104.23,50.187 15.591,2.802 31.882,4.905 47.297,1.052 19.533,-4.906 35.385,-18.57 50.45,-31.883 129.193,-113.952 258.473,-226.765 357.448,-369.271 22.072,-31.795 44.144,-63.589 66.216,-95.383 23.912,-34.335 48.349,-70.071 56.144,-111.15 1.839,-9.46 2.452,-19.356 2.015,-29.167"
         style="fill:#f8a17a;fill-opacity:1;fill-rule:nonzero;stroke:none;stroke-width:0.87588"
         id="path7693" /><path
         d="m 5309.5611,12582.193 c -26.4254,433.999 27.4237,868.698 98.8694,1296.216 54.3219,325.039 119.8641,647.362 182.3319,969.774 1.9094,9.898 4.1342,20.32 11.1763,27.502 9.1441,9.285 23.5435,10.248 36.5679,10.686 276.9183,7.883 554.4408,-5.343 829.3709,-39.414 13.4885,-1.665 28.0194,-3.942 37.7066,-13.489 11.9997,-11.825 12.5427,-30.656 12.3062,-47.472 -6.1312,-435.313 11.4565,-856.524 44.5122,-1289.822 41.648,-545.323 64.5961,-1104.134 47.3851,-1650.859 -4.1604,-130.33 -42.6991,-250.764 -156.0293,-326.528 -163.4042,-109.047 -410.744,-159.848 -598.1998,-86.887 -212.69,82.683 -355.511,300.165 -429.5054,507.047 -72.7681,203.379 -103.3889,428.306 -116.492,643.246"
         style="fill:#ffffff;fill-opacity:1;fill-rule:nonzero;stroke:none;stroke-width:0.87588"
         id="path7695" /><path
         d="m 12673.742,15246.971 c -72.523,62.362 -124.375,141.893 -158.185,230.795 -33.895,88.901 -49.487,186.999 -49.487,285.799 0,71.998 8.321,144.345 23.824,213.54 18.306,81.368 45.459,162.651 68.232,245.158 22.773,82.509 41.166,166.417 41.166,253.13 0,7.708 -0.175,15.327 -0.438,23.035 -4.467,114.39 -46.333,225.102 -113.865,316.718 -67.53,91.618 -160.81,164.316 -268.806,202.417 -54.918,19.356 -111.5,30.042 -166.505,42.043 -55.093,11.912 -108.434,25.05 -157.221,48.347 -73.837,35.21 -131.381,89.953 -177.628,155.294 -46.159,65.429 -80.932,141.28 -108.697,217.306 -32.845,89.778 -40.203,172.023 -40.203,257.947 0,67.792 4.642,137.688 4.642,214.152 0,2.629 0,5.256 0,7.883 -0.964,224.489 -6.656,449.589 -29.518,673.727 -13.4,131.558 -59.384,261.713 -124.112,382.322 -64.727,120.608 -148.286,231.758 -237.538,325.302 -25.663,26.89 -52.465,52.728 -80.231,77.516 -148.549,132.607 -339.578,240.867 -548.826,316.192 -209.248,75.238 -436.626,117.456 -658.0487,117.543 -250.0638,-0.08 -492.6825,-53.955 -692.2957,-176.228 -55.7935,-34.159 -100.875,-74.799 -142.4881,-117.543 -41.6306,-42.742 -79.8978,-87.588 -122.3254,-130.943 -85.3458,-87.237 -197.4322,-159.06 -302.5466,-225.013 -212.0067,-133.047 -440.7166,-238.328 -666.2645,-350.002 -144.1348,-71.559 -292.5789,-149.076 -401.337,-273.275 -125.0406,-143.032 -182.805,-335.025 -182.84,-523.602 0,-9.021 0.1311,-18.13 0.403,-27.064 5.7983,-197.073 70.4032,-387.753 159.8919,-561.439 63.2998,-122.536 138.4415,-238.064 177.2343,-365.768 11.5704,-37.926 16.852,-75.412 16.852,-112.2 0.013,-80.318 -25.3481,-157.834 -66.6984,-229.131 -41.324,-71.208 -98.6241,-136.111 -161.4947,-190.767 -59.1131,-51.412 -123.4116,-101.163 -181.6488,-156.606 -58.1935,-55.531 -110.466,-116.93 -144.4764,-191.731 -26.1713,-57.632 -39.0993,-120.696 -39.0993,-183.759 0.013,-73.399 17.5263,-146.798 52.4914,-211.788 30.253,-56.056 71.2267,-103.792 110.7375,-150.827 39.5811,-47.035 77.6644,-93.368 103.5292,-145.833 25.5055,-51.677 38.3722,-109.486 38.3722,-167.381 0,-54.655 -11.4827,-109.222 -34.3695,-158.622 -26.0312,-56.407 -67.7318,-112.813 -103.6429,-170.709 -17.938,-28.904 -34.422,-58.334 -46.5705,-88.727 -12.1398,-30.393 -19.9439,-61.837 -19.9439,-94.508 -0.013,-20.67 3.1707,-41.867 10.2304,-63.151 l 33.2572,11.037 c -5.8685,17.78 -8.4523,34.948 -8.4523,52.114 -0.013,26.978 6.4639,54.042 17.4387,81.458 16.4228,41.253 43.0495,83.12 71.034,125.776 27.9492,42.743 57.2299,86.275 78.435,131.907 25.1466,54.305 37.6102,113.865 37.6191,173.425 -0.013,63.063 -13.9791,126.126 -41.9898,182.884 -28.3347,57.37 -68.4938,105.718 -108.1274,152.928 -39.7035,47.122 -78.8993,93.193 -106.7173,144.871 -32.0396,59.472 -48.3046,127.353 -48.2959,195.146 -0.013,58.246 11.9732,116.492 35.9636,169.22 31.3302,69.019 80.2569,127.002 136.7512,180.869 56.4505,53.867 120.3109,103.354 180.4575,155.556 65.2532,56.757 125.0582,124.288 168.8172,199.701 43.7239,75.325 71.428,158.798 71.428,246.648 0.013,40.203 -5.7895,81.107 -18.3759,122.448 -40.9124,134.01 -117.5782,251.027 -179.5993,371.636 -87.912,170.446 -150.485,356.308 -156.0205,546.286 -0.2539,8.672 -0.3854,17.342 -0.3854,26.101 -0.027,181.571 55.89,365.418 174.1775,500.567 102.8108,117.63 246.753,193.743 390.52,264.866 224.926,111.499 454.7482,217.13 669.33,351.753 105.2983,66.128 219.6095,139.002 308.958,230.181 43.4962,44.495 81.8248,89.428 122.3868,131.031 40.5707,41.605 83.3224,79.968 135.7,112.113 192.6061,118.069 428.9185,171.06 673.9898,171.06 216.9557,0 440.6557,-41.518 646.2247,-115.528 205.481,-73.926 392.832,-180.257 537.352,-309.274 27.065,-24.175 53.166,-49.4 78.129,-75.589 87.325,-91.354 169.132,-200.226 232.108,-317.682 63.064,-117.455 107.295,-243.581 120.083,-369.358 22.685,-222.298 28.379,-446.26 29.342,-670.311 0,-2.54 0,-5.168 0,-7.708 0,-75.063 -4.643,-144.783 -4.643,-214.152 0,-87.852 7.621,-175.264 42.305,-270.034 28.467,-77.778 64.29,-156.345 113.077,-225.364 48.699,-69.02 110.711,-128.491 191.117,-166.856 53.079,-25.225 109.222,-38.801 164.841,-50.888 55.618,-12.087 110.799,-22.598 162.3,-40.817 100.726,-35.472 188.664,-103.879 252.253,-190.241 63.677,-86.361 102.917,-190.503 107.034,-297.273 0.262,-7.182 0.437,-14.364 0.437,-21.634 0,-81.719 -17.43,-162.476 -39.94,-243.758 -22.335,-81.368 -49.75,-163.089 -68.582,-246.823 -16.116,-71.734 -24.699,-146.535 -24.699,-221.247 0,-102.478 16.203,-204.78 51.763,-298.237 35.562,-93.544 90.568,-178.329 168.169,-244.984 l 22.774,26.627"
         style="fill:#ffe680;fill-opacity:1;fill-rule:nonzero;stroke:none;stroke-width:0.87588"
         id="path7697" /><path
         d="m 8416.7196,17307.304 c -236.9782,106.857 -282.7605,-213.452 -231.574,-367.082 21.1262,-63.501 51.5455,-124.637 95.8038,-174.825 59.6124,-67.53 223.5246,-174.563 306.6281,-89.253 37.7154,38.714 37.225,99.5 34.3257,153.455 -7.7777,144.695 -44.5385,405.269 -205.1836,477.705"
         style="fill:#e5785c;fill-opacity:1;fill-rule:nonzero;stroke:none;stroke-width:0.87588"
         id="path7699" /><path
         d="m 9281.4585,19180.11 c 124.375,64.552 264.5158,95.647 404.4814,101.603 140.4037,6.306 280.9824,-11.825 417.7951,-43.094 274.588,-60.874 532.184,-200.926 731.71,-400.977 200.314,-198.65 340.192,-461.764 379.869,-743.448 19.27,-141.191 12.35,-282.208 15.241,-421.035 2.627,-138.039 13.751,-278.967 71.121,-401.854 58.07,-122.623 158.709,-222.036 270.034,-302.178 111.938,-80.932 235.875,-145.66 355.519,-219.584 58.86,-36.961 122.273,-75.5 165.804,-137.425 43.97,-62.713 53.342,-139.353 54.305,-209.774 0.789,-71.472 -8.234,-143.031 -26.977,-211.962 -18.13,-69.458 -50.538,-133.748 -77.165,-196.985 -27.24,-63.327 -44.495,-129.369 -37.575,-196.986 5.956,-67.443 28.991,-133.134 57.807,-195.759 59.298,-125.426 132.258,-245.51 192.431,-372.338 60.086,-126.564 106.508,-262.237 117.194,-402.816 12.436,-139.966 -5.343,-282.121 -51.503,-414.116 43.093,133.046 57.37,274.85 41.867,413.152 -13.839,139.002 -62.538,271.26 -124.987,395.372 -61.662,124.901 -135.586,243.495 -197.598,370.147 -30.306,63.677 -55.444,131.558 -62.802,203.818 -8.583,72.435 9.898,146.184 36.962,210.999 26.715,65.779 56.933,127.529 73.399,194.095 17.342,66.129 25.839,134.536 24.788,202.854 -1.139,67.88 -11.037,137.075 -48.874,190.153 -37.75,53.692 -96.961,90.566 -155.906,126.916 -118.42,72.523 -243.407,137.075 -358.761,219.582 -114.653,81.983 -220.809,184.724 -283.698,315.931 -61.049,132.783 -70.772,278.355 -73.137,418.145 -2.189,140.404 5.081,280.106 -13.138,416.656 -36.874,274.062 -173.161,529.557 -365.854,727.155 -192.957,198.562 -443.984,339.405 -714.631,403.519 -134.7102,34.071 -273.6247,55.268 -412.9774,52.203 -138.9145,-2.716 -278.8801,-30.306 -404.7441,-91.969"
         style="fill:#ffe680;fill-opacity:1;fill-rule:nonzero;stroke:none;stroke-width:0.87588"
         id="path7701" /><path
         d="m 10596.417,17612.898 c -4.642,227.729 -39.152,443.284 -100.288,621.875 -263.903,770.337 -1232.1882,947.702 -1805.5743,383.811 -639.4625,-628.882 -370.1207,-2106.667 320.248,-2617.217 184.5567,-136.463 433.3943,-181.833 654.2913,-119.208 668.384,189.628 945.775,1019.438 931.323,1730.739"
         style="fill:#f8a17a;fill-opacity:1;fill-rule:nonzero;stroke:none;stroke-width:0.87588"
         id="path7703" /><path
         d="m 10595.366,18281.282 c -207.846,787.329 -1160.8036,1033.89 -1773.3154,512.741 -97.7131,-83.209 -165.4626,-182.446 -235.1388,-288.428 -59.1394,-90.04 -141.4195,-158.096 -193.552,-256.983 -53.5775,-101.602 -86.9923,-213.889 -98.0811,-328.279 -10.8083,-111.325 25.5582,-208.635 28.3961,-315.667 -2.9692,111.674 45.5633,223.698 129.0697,297.886 64.9377,57.721 146.9727,91.529 222.5524,134.36 75.571,42.743 149.469,100.289 177.9263,182.358 243.6698,-319.434 621.8048,-417.268 993.7911,-509.412 312.1637,-77.34 654.7207,-274.063 661.7277,-638.604 0.963,-46.247 4.116,-59.034 23.999,-119.471 21.897,54.832 29.955,94.947 36.524,153.455 6.744,59.384 23.999,118.595 35.648,178.066 23.912,122.187 39.327,246.21 45.721,370.586 11.825,227.465 -7.094,444.947 -55.268,627.392"
         style="fill:#e5785c;fill-opacity:1;fill-rule:nonzero;stroke:none;stroke-width:0.87588"
         id="path7705" /><path
         d="m 10775.009,16929.711 c 61.137,47.035 108.084,116.142 134.273,188.753 82.245,244.546 73.398,515.368 63.238,777.431 -5.605,146.185 -11.561,294.383 -51.151,433.736 -43.181,151.965 -124.988,286.938 -221.861,402.554 -279.493,333.973 -696.5,503.632 -1097.3897,469.035 -161.0745,-13.839 -279.4934,-91.793 -420.8605,-157.922 -138.0824,-64.639 -300.2868,-100.025 -445.5077,-148.374 -167.5646,-55.88 -339.9992,-114.39 -472.9315,-231.582 -97.1701,-85.662 -167.8974,-198.737 -218.4619,-318.646 -60.6285,-143.732 -66.4881,-303.58 -49.1369,-456.947 14.3031,-126.389 30.7609,-261.274 86.2566,-379.256 51.966,-110.448 167.6347,-182.62 271.2163,-237.714 -15.3454,8.146 -2.0846,190.505 -2.4963,218.62 -2.3735,160.987 6.3064,326.353 56.1965,480.421 48.1647,150.652 143.5831,242.794 267.7128,334.761 49.7937,36.787 99.3861,74.625 140.9905,121.046 20.802,23.211 111.3242,130.069 96.4957,163.09 70.4382,-156.959 180.7728,-318.12 318.7151,-421.037 262.2386,-195.583 553.9943,-333.709 850.042,-450.201 21.809,-8.584 43.794,-17.168 65.603,-26.014 81.369,-33.02 161.6,-70.596 228.43,-132.171 149.337,-137.25 160.198,-348.25 154.68,-538.402 -0.613,-20.846 -1.051,-42.218 5.606,-62.014 31.181,-93.281 180.519,-75.238 240.341,-29.167"
         style="fill:#ffd42a;fill-opacity:1;fill-rule:nonzero;stroke:none;stroke-width:0.87588"
         id="path7707" /><path
         d="m 10626.635,17307.304 c 237.013,106.857 282.734,-213.452 231.583,-367.082 -21.109,-63.501 -51.502,-124.637 -95.821,-174.825 -59.56,-67.53 -223.525,-174.563 -306.646,-89.253 -37.663,38.714 -37.225,99.5 -34.335,153.455 7.796,144.695 44.583,405.269 205.219,477.705"
         style="fill:#f8a17a;fill-opacity:1;fill-rule:nonzero;stroke:none;stroke-width:0.87588"
         id="path7709" /><path
         d="m 10135.354,16028.869 c -137.9511,-118.594 -321.5355,-202.153 -482.61,-247.348 -239.8159,-67.268 -515.1926,-1.84 -729.0125,116.667 -353.6891,196.021 -378.8006,593.409 -471.7227,945.337 l 696.0531,183.059 c 211.6127,55.618 433.9986,55.618 645.5237,0 l 696.1494,-183.059 c -57.72,-218.444 -92.843,-450.377 -210.211,-647.451 -36.7,-61.749 -86.449,-117.543 -144.17,-167.205"
         style="fill:#ffffff;fill-opacity:1;fill-rule:nonzero;stroke:none;stroke-width:0.87588"
         id="path7711" /><g
         id="g7713"
         transform="matrix(0.87588014,0,0,0.87588014,367.10088,4889.7761)"><g
           id="g7715"
           clip-path="url(#clipPath7719)"><path
             d="m 10853.8,12446.6 c 198.3,87.5 401.1,177.3 568.4,318 164.5,138.1 196.7,311.5 190.7,518.7 -0.9,28.7 -1.8,58 -12.6,84.5 -26.8,65.7 -106.2,94.7 -177.2,92.6 -454.4,-13.4 -748.3,-485.8 -750.3,-904 -0.3,-43.9 4.3,-94.6 40,-120.2 40.2,-28.7 95.8,-9.6 141,10.4"
             style="fill:#e5f4f1;fill-opacity:1;fill-rule:nonzero;stroke:none"
             id="path7721" /><path
             d="m 9913.35,12446.6 c -198.27,87.5 -401.08,177.3 -568.44,318 -164.51,138.1 -196.62,311.5 -190.63,518.7 0.83,28.7 1.79,58 12.6,84.5 26.76,65.7 106.19,94.7 177.12,92.6 454.46,-13.4 748.3,-485.8 750.4,-904 0.2,-43.9 -4.3,-94.6 -40.1,-120.2 -40.2,-28.7 -95.73,-9.6 -140.95,10.4"
             style="fill:#e5f4f1;fill-opacity:1;fill-rule:nonzero;stroke:none"
             id="path7723" /></g></g><path
         d="m 10527.31,17279.451 -62.888,-537.003 -68.932,12.614 z"
         style="fill:#ffffff;fill-opacity:1;fill-rule:nonzero;stroke:none;stroke-width:0.87588"
         id="path7725" /><path
         d="m 8328.1155,17343.653 216.465,-584.563 -66.9785,-20.583 z"
         style="fill:#ffffff;fill-opacity:1;fill-rule:nonzero;stroke:none;stroke-width:0.87588"
         id="path7727" /><path
         d="m 9532.3981,14042.199 c 0,-37.577 -30.4806,-68.057 -67.9682,-68.057 -37.5754,0 -68.056,30.48 -68.056,68.057 0,37.486 30.4806,67.967 68.056,67.967 37.4876,0 67.9682,-30.481 67.9682,-67.967"
         style="fill:#cad1d8;fill-opacity:1;fill-rule:nonzero;stroke:none;stroke-width:0.87588"
         id="path7729" /><path
         d="m 9532.3981,13375.39 c 0,-37.575 -30.4806,-67.968 -67.9682,-67.968 -37.5754,0 -68.056,30.393 -68.056,67.968 0,37.575 30.4806,67.968 68.056,67.968 37.4876,0 67.9682,-30.393 67.9682,-67.968"
         style="fill:#cad1d8;fill-opacity:1;fill-rule:nonzero;stroke:none;stroke-width:0.87588"
         id="path7731" /></g><text
       xml:space="preserve"
       style="font-size:94.8704px;font-family:'Noto Sans';-inkscape-font-specification:'Noto Sans, @wght=700';fill:#ffffff;fill-opacity:1;stroke-width:0.988232;font-weight:normal;font-style:normal;font-stretch:normal;font-variant:normal;font-variation-settings:'wght' 700;font-variant-ligatures:normal;font-variant-caps:normal;font-variant-numeric:normal;font-variant-east-asian:normal"
       x="-505.0946"
       y="153.56094"
       id="text1469"><tspan
         sodipodi:role="line"
         id="tspan1467"
         style="fill:#ffffff;stroke-width:0.988232;-inkscape-font-specification:'Noto Sans, @wght=700';font-family:'Noto Sans';font-weight:normal;font-style:normal;font-stretch:normal;font-variant:normal;font-variation-settings:'wght' 700;font-size:94.87039623px;font-variant-ligatures:normal;font-variant-caps:normal;font-variant-numeric:normal;font-variant-east-asian:normal"
         x="-505.0946"
         y="153.56094">HOUSE CALL</tspan></text><text
       xml:space="preserve"
       transform="matrix(0.20025597,0,0,0.20025597,-367.86273,40.413741)"
       id="text2979"
       style="font-size:96px;font-family:'Noto Sans';-inkscape-font-specification:'Noto Sans';white-space:pre;shape-inside:url(#rect2981);display:inline;fill:#ffffff;fill-opacity:1;stroke-width:26.2752;stroke-dasharray:none"><tspan
         x="-651.63281"
         y="974.56412"
         id="tspan657"><tspan
           dx="0 0 0 0 0 0 0 0 0 0 0 0 0 0 0 0.00010681152 0 0 0 0 0 0 0 0 0 0 0 0 0 0 -0.00016021729 0 0 0 0 0 -0.00012207031 0.00011444092 0.00010681152 -0.00012969971 0 0 0 0 -0.00010681152"
           style="font-size:161.498px;-inkscape-font-specification:'Noto Sans, Normal'"
           id="tspan655">Do you require a skilled Doctor to visit you at </tspan></tspan><tspan
         x="-651.63281"
         y="1176.4367"
         id="tspan661"><tspan
           style="font-size:161.498px;-inkscape-font-specification:'Noto Sans, Normal'"
           id="tspan659">home?
</tspan></tspan><tspan
         x="-651.63281"
         y="1378.3092"
         id="tspan665"><tspan
           style="font-size:161.498px;-inkscape-font-specification:'Noto Sans, Normal'"
           id="tspan663">
</tspan></tspan><tspan
         x="-651.63281"
         y="1580.1818"
         id="tspan669"><tspan
           dx="0 0 0 0 0 0 0 0 0 0 0 0 0 0 0 0 0 0 0 0 0 0 0 0 0 0 0 0.00011444092 0 0 0 0 0 -0.00012969971 0 0 0.00012207031 -0.00016784668 0.0001373291 -0.00012969971 0 0.00011444092 0 -0.0001373291 0 0.00023651123 -0.00010681152 0 -0.00010681152 0 0.00010681152 0 0 -0.00016021729"
           style="font-size:161.498px;-inkscape-font-specification:'Noto Sans, Normal'"
           id="tspan667">You've just solved all of your difficulties thanks to </tspan></tspan><tspan
         x="-651.63281"
         y="1782.0544"
         id="tspan673"><tspan
           dx="0 0 0 0 0 0 0 0 0 0 0 0 0 0 0 0 0 0 0 0.00011444092"
           style="font-size:161.498px;-inkscape-font-specification:'Noto Sans, Normal'"
           id="tspan671">Dr. Carolina Gonzales Melo. </tspan></tspan></text><text
       xml:space="preserve"
       style="font-style:normal;font-variant:normal;font-weight:normal;font-stretch:normal;font-size:50.383px;font-family:'Noto Sans';-inkscape-font-specification:'Noto Sans, Normal';font-variant-ligatures:normal;font-variant-caps:normal;font-variant-numeric:normal;font-variant-east-asian:normal;fill:#ffffff;fill-opacity:1;stroke-width:8.19715;stroke-dasharray:none"
       x="-395.51672"
       y="515.09485"
       id="text3037"><tspan
         sodipodi:role="line"
         id="tspan3035"
         style="stroke-width:8.19715"
         x="-395.51672"
         y="515.09485">829 426-1492</tspan></text><text
       xml:space="preserve"
       style="font-style:normal;font-variant:normal;font-weight:normal;font-stretch:normal;font-size:46.8503px;font-family:'Noto Sans';-inkscape-font-specification:'Noto Sans, Normal';font-variant-ligatures:normal;font-variant-caps:normal;font-variant-numeric:normal;font-variant-east-asian:normal;fill:#ffffff;fill-opacity:1;stroke-width:7.62239;stroke-dasharray:none"
       x="-403.17923"
       y="593.3891"
       id="text3041"><tspan
         sodipodi:role="line"
         id="tspan3039"
         style="stroke-width:7.62239"
         x="-403.17923"
         y="593.3891">carolina949@hotmail.com</tspan></text><g
       id="g3099"
       transform="matrix(0.16406931,0,0,0.16406931,-497.70506,550.59934)"
       style="fill:#ffffff"><g
         id="XMLID_348_"
         style="fill:#ffffff">
	<path
   id="XMLID_350_"
   d="m 173.871,177.097 c -2.641,1.936 -5.756,2.903 -8.87,2.903 -3.116,0 -6.23,-0.967 -8.871,-2.903 L 30,84.602 0.001,62.603 0,275.001 c 0.001,8.284 6.716,15 15,15 L 315.001,290 c 8.285,0 15,-6.716 15,-14.999 V 62.602 l -30.001,22 z"
   style="fill:#ffffff" />
	<polygon
   id="XMLID_351_"
   points="310.087,40.001 19.911,40 165.001,146.4 "
   style="fill:#ffffff" />
</g><g
         id="g3046"
         style="fill:#ffffff">
</g><g
         id="g3048"
         style="fill:#ffffff">
</g><g
         id="g3050"
         style="fill:#ffffff">
</g><g
         id="g3052"
         style="fill:#ffffff">
</g><g
         id="g3054"
         style="fill:#ffffff">
</g><g
         id="g3056"
         style="fill:#ffffff">
</g><g
         id="g3058"
         style="fill:#ffffff">
</g><g
         id="g3060"
         style="fill:#ffffff">
</g><g
         id="g3062"
         style="fill:#ffffff">
</g><g
         id="g3064"
         style="fill:#ffffff">
</g><g
         id="g3066"
         style="fill:#ffffff">
</g><g
         id="g3068"
         style="fill:#ffffff">
</g><g
         id="g3070"
         style="fill:#ffffff">
</g><g
         id="g3072"
         style="fill:#ffffff">
</g><g
         id="g3074"
         style="fill:#ffffff">
</g></g><g
       id="g3172"
       transform="matrix(0.15818817,0,0,0.15818817,-498.14433,458.29453)"
       style="fill:#ffffff"><g
         id="g3113"
         style="fill:#ffffff">
	<g
   id="g3111"
   style="fill:#ffffff">
		<path
   d="m 261.526,475.713 c 1.7,0.1 3.4,0.2 5,0.2 18.5,0 34,-6.7 46.1,-19.9 0.1,-0.1 0.3,-0.3 0.4,-0.4 4,-4.8 8.6,-9.2 13.5,-13.9 3.4,-3.2 6.8,-6.6 10.1,-10.1 16.4,-17.1 16.3,-39.6 -0.2,-56.1 l -42.7,-42.7 c -7.9,-8.3 -17.5,-12.6 -27.6,-12.6 -10,0 -19.7,4.3 -27.8,12.5 l -23.6,23.6 c -1.6,-0.9 -3.3,-1.7 -4.9,-2.5 -2.7,-1.4 -5.3,-2.7 -7.5,-4.1 -22.9,-14.5 -43.7,-33.5 -63.5,-57.9 -9.4,-11.8 -15.8,-21.9 -20.3,-31.6 6,-5.6 11.7,-11.3 17.2,-16.9 2.2,-2.2 4.4,-4.4 6.6,-6.6 8.4,-8.4 12.8,-18.1 12.8,-28.1 0,-10 -4.4,-19.7 -12.8,-28.1 l -21.2,-21.2 c -2.4,-2.4 -4.8,-4.9 -7.2,-7.3 -4.7,-4.9 -9.7,-9.9 -14.5,-14.4 -7.9,-7.9 -17.4,-12.1 -27.4,-12.1 -9.9,0 -19.5,4.1 -27.8,12.1 l -26.6,26.6 c -10.2,10.3 -16.1,22.8 -17.3,37.2 -1.9,23 4.9,44.4 10.1,58.5 12.6,34.1 31.6,65.8 59.7,99.7 34.2,40.8 75.4,73.1 122.4,95.8 17.9,8.5 42,18.6 69,20.3 z m -172.7,-131.9 c -26.3,-31.6 -43.9,-61 -55.6,-92.5 -7.1,-19.1 -9.8,-33.9 -8.6,-47.9 0.7,-8.6 4.1,-15.8 10.5,-22.2 l 26.2,-26.2 c 2.4,-2.3 6.2,-5.1 10.7,-5.1 4.3,0 7.9,2.7 10.4,5.2 4.7,4.4 9.2,9 14,13.9 2.4,2.5 4.9,5 7.4,7.5 l 21.2,21.2 c 2.6,2.6 5.6,6.5 5.6,10.8 0,4.3 -3.1,8.2 -5.6,10.8 -2.3,2.3 -4.5,4.5 -6.7,6.8 -6.5,6.6 -12.7,12.9 -19.4,18.9 -0.2,0.2 -0.3,0.3 -0.5,0.5 -7.3,7.3 -6,14.6 -4.4,19.4 0.1,0.3 0.2,0.5 0.3,0.8 5.6,13.5 13.4,26.3 25.5,41.5 21.6,26.6 44.3,47.3 69.4,63.2 3.2,2.1 6.5,3.7 9.7,5.3 2.7,1.4 5.3,2.7 7.5,4.1 0.4,0.2 0.7,0.4 1.1,0.6 7.7,3.8 15.3,2.5 21.5,-3.8 l 26.6,-26.6 c 2.4,-2.4 6.2,-5.3 10.5,-5.3 4.2,0 7.7,2.8 10.1,5.3 l 42.9,42.9 c 7.1,7.1 7.1,14.2 -0.3,21.9 -2.9,3.1 -6.1,6.1 -9.4,9.3 -5,4.9 -10.3,9.9 -15.1,15.6 -7.5,8 -16.3,11.7 -27.9,11.7 -1.2,0 -2.3,0 -3.5,-0.1 -22.8,-1.5 -44.1,-10.4 -60,-18 -43.7,-21.2 -82.1,-51.3 -114.1,-89.5 z"
   id="path3101"
   style="fill:#ffffff" />
		<path
   d="m 295.426,283.013 c 13.4,3.3 27.2,5 41.2,5 85,0 154.1,-61.3 154.1,-136.6 0,-75.3 -69.1,-136.6 -154.1,-136.6 -85,0 -154.1,61.2 -154.1,136.6 0,28.9 10.4,57.1 29.4,80.3 -3.6,6.9 -8.6,12.5 -14.8,16.5 -5.7,3.8 -8.4,10.5 -6.9,17.1 1.5,6.6 6.8,11.4 13.5,12.4 13.1,1.8 38.5,2.8 62.2,-11.5 5.8,-3.5 7.7,-11 4.2,-16.8 -3.5,-5.8 -11,-7.7 -16.8,-4.2 -8.8,5.3 -18.2,7.7 -26.5,8.6 4.6,-5.8 8.2,-12.5 11,-20 1.6,-4.3 0.6,-9.2 -2.5,-12.6 -18.5,-20.1 -28.3,-44.2 -28.3,-69.9 0,-61.8 58.1,-112.1 129.6,-112.1 71.5,0 129.6,50.3 129.6,112.1 0,61.8 -58.1,112.1 -129.6,112.1 -12,0 -23.9,-1.4 -35.4,-4.2 -6.5,-1.6 -13.2,2.4 -14.8,9 -1.6,6.6 2.4,13.2 9,14.8 z"
   id="path3103"
   style="fill:#ffffff" />
		<circle
   cx="336.62601"
   cy="151.41299"
   r="13"
   id="circle3105"
   style="fill:#ffffff" />
		<circle
   cx="382.92599"
   cy="151.41299"
   r="13"
   id="circle3107"
   style="fill:#ffffff" />
		<circle
   cx="290.32599"
   cy="151.41299"
   r="13"
   id="circle3109"
   style="fill:#ffffff" />
	</g>
</g><g
         id="g3115"
         style="fill:#ffffff">
</g><g
         id="g3117"
         style="fill:#ffffff">
</g><g
         id="g3119"
         style="fill:#ffffff">
</g><g
         id="g3121"
         style="fill:#ffffff">
</g><g
         id="g3123"
         style="fill:#ffffff">
</g><g
         id="g3125"
         style="fill:#ffffff">
</g><g
         id="g3127"
         style="fill:#ffffff">
</g><g
         id="g3129"
         style="fill:#ffffff">
</g><g
         id="g3131"
         style="fill:#ffffff">
</g><g
         id="g3133"
         style="fill:#ffffff">
</g><g
         id="g3135"
         style="fill:#ffffff">
</g><g
         id="g3137"
         style="fill:#ffffff">
</g><g
         id="g3139"
         style="fill:#ffffff">
</g><g
         id="g3141"
         style="fill:#ffffff">
</g><g
         id="g3143"
         style="fill:#ffffff">
</g></g></g></svg>
